<svg width="31" height="32" viewBox="0 0 31 32" fill="none" xmlns="http://www.w3.org/2000/svg">
<path d="M17.5312 2.33337C19.2712 4.67337 20.2612 7.70337 19.8612 11.3734C19.5112 14.6434 17.8612 17.6634 15.2512 19.6534C11.0312 22.8634 6.09119 23.0834 2.09119 21.2634C1.29119 20.8934 0.461194 21.7534 0.851194 22.5434C5.11119 31.2434 16.8712 34.5034 25.4612 26.9634C28.1312 24.6234 29.8212 21.3234 30.1312 17.7834C30.9112 9.01337 25.4612 2.56337 18.5812 0.783367C17.6712 0.553367 16.9712 1.56337 17.5212 2.31337L17.5312 2.33337Z" fill="#FFDC33"/>
<g style="mix-blend-mode:multiply">
<mask id="mask0_38_112" style="mask-type:luminance" maskUnits="userSpaceOnUse" x="0" y="0" width="31" height="32">
<path d="M17.5312 2.33337C19.2712 4.67337 20.2612 7.70337 19.8612 11.3734C19.5112 14.6434 17.8612 17.6634 15.2512 19.6534C11.0312 22.8634 6.09119 23.0834 2.09119 21.2634C1.29119 20.8934 0.461194 21.7534 0.851194 22.5434C5.11119 31.2434 16.8712 34.5034 25.4612 26.9634C28.1312 24.6234 29.8212 21.3234 30.1312 17.7834C30.9112 9.01337 25.4612 2.56337 18.5812 0.783367C17.6712 0.553367 16.9712 1.56337 17.5212 2.31337L17.5312 2.33337Z" fill="white"/>
</mask>
<g mask="url(#mask0_38_112)">
<path d="M35.052 -1.08301L30.7913 -4.7478L0.78169 30.1415L5.0424 33.8063L35.052 -1.08301Z" fill="#FFDC33"/>
<path d="M41.6869 7.27838L37.4261 3.61359L7.41658 38.5029L11.6773 42.1677L41.6869 7.27838Z" fill="#FFDC33"/>
</g>
</g>
<path d="M17.5312 2.33337C19.2712 4.67337 20.2612 7.70337 19.8612 11.3734C19.5112 14.6434 17.8612 17.6634 15.2512 19.6534C11.0312 22.8634 6.09119 23.0834 2.09119 21.2634C1.29119 20.8934 0.461194 21.7534 0.851194 22.5434C5.11119 31.2434 16.8712 34.5034 25.4612 26.9634C28.1312 24.6234 29.8212 21.3234 30.1312 17.7834C30.9112 9.01337 25.4612 2.56337 18.5812 0.783367C17.6712 0.553367 16.9712 1.56337 17.5212 2.31337L17.5312 2.33337Z" stroke="#472D2C" stroke-width="1.5" stroke-linecap="round" stroke-linejoin="round"/>
</svg>
