<svg width="58" height="30" viewBox="0 0 58 30" fill="none" xmlns="http://www.w3.org/2000/svg">
<path d="M8.62 24.7979H23.9C25.96 25.5479 28.53 26.8178 28.94 28.3478C29.35 26.8178 31.92 25.5479 33.98 24.7979H49.26C49.55 24.7979 57.61 24.5678 57.61 24.2778C57.61 23.9878 49.54 23.7579 49.26 23.7579H33.98C32.13 23.0879 29.88 21.9979 29.13 20.6779C29.01 19.8579 29.45 19.0879 29.69 18.7979C30.11 18.3079 31.1 17.8278 32 18.5378C32.9 19.2478 32.47 20.2178 32.47 20.2178C32.98 19.7078 33.57 19.1179 34.2 18.4879C34.35 18.3379 34.52 18.1578 34.71 17.9578C33.7 18.3478 32.37 16.6979 33.41 15.6379C34.46 14.5679 35.23 13.0678 35.36 11.8578C34.69 13.8378 32.41 16.0778 31.6 16.6078C30.79 17.1378 30.26 16.7679 30.18 16.3079C30.1 15.8579 31.07 15.4879 31.07 15.4879L30.32 13.1578C30.32 13.1578 29.92 13.4978 29.54 13.2178C29.17 12.9378 29.46 12.1479 30.02 11.4279C29.95 11.0679 29.82 9.97785 29.66 8.66785C29.3 8.42785 28.68 7.91784 29.47 7.03784C29.19 4.67784 28.93 2.27783 28.93 2.27783C28.93 2.27783 28.66 4.67784 28.39 7.03784C29.18 7.90784 28.55 8.42785 28.2 8.66785C28.04 9.97785 27.9 11.0679 27.84 11.4279C28.4 12.1479 28.7 12.9378 28.32 13.2178C27.95 13.4978 27.54 13.1578 27.54 13.1578L26.79 15.4879C26.79 15.4879 27.76 15.8579 27.68 16.3079C27.6 16.7579 27.07 17.1278 26.26 16.6078C25.45 16.0778 23.18 13.8378 22.5 11.8578C22.63 13.0678 23.4 14.5679 24.45 15.6379C25.49 16.6979 24.16 18.3478 23.15 17.9578C23.33 18.1578 23.51 18.3379 23.66 18.4879C24.28 19.1079 24.88 19.7078 25.39 20.2178C25.39 20.2178 24.96 19.2478 25.86 18.5378C26.76 17.8278 27.75 18.3079 28.17 18.7979C28.42 19.0879 28.85 19.8579 28.73 20.6779C27.99 21.9979 25.73 23.0879 23.88 23.7579H8.60004C8.31004 23.7579 0.25 23.9878 0.25 24.2778C0.25 24.5678 8.32004 24.7979 8.60004 24.7979H8.62Z" fill="black" stroke="#BE802E" stroke-width="0.5" stroke-miterlimit="10"/>
</svg>
