<svg width="55" height="12" viewBox="0 0 55 12" fill="none" xmlns="http://www.w3.org/2000/svg">
<path d="M27.19 10.7513C28.92 7.35128 30.32 6.59131 36.58 5.65131C30.32 4.71131 28.92 3.95127 27.19 0.55127C25.46 3.95127 24.06 4.71131 17.8 5.65131C24.06 6.59131 25.46 7.35128 27.19 10.7513Z" fill="black" stroke="#BE802E" stroke-width="0.5" stroke-miterlimit="10"/>
<path d="M42.93 7.25128C43.8136 7.25128 44.53 6.53496 44.53 5.65131C44.53 4.76765 43.8136 4.05127 42.93 4.05127C42.0463 4.05127 41.33 4.76765 41.33 5.65131C41.33 6.53496 42.0463 7.25128 42.93 7.25128Z" fill="black" stroke="#BE802E" stroke-width="0.5" stroke-miterlimit="10"/>
<path d="M11.45 7.25128C12.3337 7.25128 13.05 6.53496 13.05 5.65131C13.05 4.76765 12.3337 4.05127 11.45 4.05127C10.5664 4.05127 9.84998 4.76765 9.84998 5.65131C9.84998 6.53496 10.5664 7.25128 11.45 7.25128Z" fill="black" stroke="#BE802E" stroke-width="0.5" stroke-miterlimit="10"/>
<path d="M52.53 7.25128C53.4137 7.25128 54.13 6.53496 54.13 5.65131C54.13 4.76765 53.4137 4.05127 52.53 4.05127C51.6464 4.05127 50.93 4.76765 50.93 5.65131C50.93 6.53496 51.6464 7.25128 52.53 7.25128Z" fill="black" stroke="#BE802E" stroke-width="0.5" stroke-miterlimit="10"/>
<path d="M1.84998 7.25128C2.73363 7.25128 3.45001 6.53496 3.45001 5.65131C3.45001 4.76765 2.73363 4.05127 1.84998 4.05127C0.96632 4.05127 0.25 4.76765 0.25 5.65131C0.25 6.53496 0.96632 7.25128 1.84998 7.25128Z" fill="black" stroke="#BE802E" stroke-width="0.5" stroke-miterlimit="10"/>
</svg>
