<svg width="999" height="233" viewBox="0 0 999 233" fill="none" xmlns="http://www.w3.org/2000/svg">
<path style="mix-blend-mode:overlay" d="M907.43 122.354C855.27 94.6216 899.36 29.4722 939.96 68.0248C927.27 33.6483 863.43 5.51129 883.25 29.403C912.4 54.677 835.28 78.4799 840.45 43.3926C841.85 33.905 855.47 34.9614 866.32 39.5719C842.99 10.0034 808.77 30.9926 778.88 23.6473C782.1 13.8932 788.04 9.55908 798.28 8.12755C782.58 -1.74508 734.68 9.62819 715.46 27.784C733.8 24.5951 751.59 21.1298 766.26 28.3467C763.91 34.6158 756.02 44.0244 752.18 49.3063C823.23 19.9056 835.5 85.1044 771.21 76.5448C751.42 73.9089 733.02 59.8404 712.5 64.905C775.66 97.1392 691.29 94.1675 668.31 75.3108C713.56 131.664 649.06 152.1 632.54 97.9191C647.36 94.4538 657.97 107.229 669.78 113.301C672.47 92.3016 632.17 65.8133 612.01 66.2181C622.49 74.4716 623.71 95.3127 606.1 88.7277C594.12 84.2455 587.38 67.6792 591.25 55.3878C598.78 31.4072 632.03 43.0075 651.65 43.0371C614.88 23.0352 580.64 -4.39095 535.45 0.594728C558.86 21.9492 527.87 30.5088 508.4 37.3308C531.01 44.5575 549.72 41.8426 571.52 37.6664C558.07 25.8884 573.94 15.6999 582.66 24.8814C597.57 40.5986 570.53 53.4034 543.53 59.8305C546.18 56.5627 548.6 52.7617 550.72 48.3388C535 56.3652 515.31 60.7881 499.06 63.1378C482.81 60.7881 463.12 56.3652 447.4 48.3388C449.52 52.7716 451.93 56.5627 454.59 59.8305C427.59 53.4034 400.55 40.5986 415.46 24.8814C424.18 15.6999 440.04 25.8785 426.6 37.6664C448.4 41.8426 467.12 44.5575 489.72 37.3308C470.25 30.5088 439.25 21.9591 462.67 0.594728C417.48 -4.38108 383.25 23.0352 346.47 43.0371C366.08 43.0075 399.34 31.4072 406.87 55.3878C410.73 67.6891 403.99 84.2554 392.02 88.7277C374.41 95.3127 375.63 74.4716 386.11 66.2181C365.96 65.8133 325.65 92.3016 328.34 113.301C340.15 107.219 350.76 94.4538 365.58 97.9191C349.06 152.11 284.56 131.664 329.81 75.3108C306.83 94.1675 222.47 97.1392 285.62 64.905C265.11 59.8404 246.7 73.9089 226.91 76.5448C162.62 85.1143 174.89 19.9056 245.94 49.3063C242.1 44.0244 234.21 34.6059 231.86 28.3467C246.53 21.1298 264.32 24.5951 282.66 27.784C263.44 9.63807 215.54 -1.74508 199.84 8.12755C210.08 9.55908 216.01 13.8932 219.24 23.6473C189.36 30.9926 155.13 10.0034 131.8 39.5719C142.65 34.9614 156.27 33.905 157.67 43.3926C162.84 78.47 85.72 54.677 114.87 29.403C134.69 5.51129 70.85 33.6384 58.16 68.0248C98.76 29.4722 142.85 94.6118 90.69 122.354C46.6 145.791 15.6 155.24 0 161.272C0.07 161.677 60.31 151.636 35.36 165.073C60.22 169.16 92.43 159.988 105.41 144.488C51.25 157.135 136.7 126.471 155.58 118.257C138.3 119.195 125.44 120.774 128.4 110.615C130.72 102.648 141.54 111.563 149.17 112.106C119.67 67.5509 205.36 61.1139 179.53 107.347C161.57 139.493 149.26 150.649 149.26 150.649C149.26 150.649 158.86 143.758 188.81 123.282C234.36 92.1337 320.61 101.542 268.16 164.974C292.67 155.131 349.39 128.119 344.11 174.995C382.12 148.595 375.45 204.593 375.25 226.421C389.48 195.816 371.64 155.634 393.59 128.741C404.66 115.176 418.72 125.444 420.15 139.69C421.17 149.839 411.91 152.12 403.06 144.705C401.47 143.373 400.3 141.378 396.93 137.104C403.5 176.446 437.85 197.544 445.53 232.404C453.27 200.545 412.7 170.187 434.48 143.787C447.77 127.675 477.03 138.782 499.05 138.318C521.07 138.782 550.32 127.675 563.62 143.787C585.4 170.187 544.83 200.545 552.57 232.404C560.25 197.544 594.6 176.446 601.17 137.104C597.81 141.378 596.63 143.373 595.04 144.705C586.19 152.11 576.93 149.839 577.95 139.69C579.38 125.444 593.44 115.176 604.51 128.741C626.45 155.634 608.62 195.816 622.85 226.421C622.65 204.593 615.98 148.595 653.99 174.995C648.72 128.119 705.43 155.131 729.94 164.974C677.49 101.542 763.74 92.1436 809.29 123.282C839.23 143.758 848.84 150.649 848.84 150.649C848.84 150.649 836.53 139.483 818.57 107.347C792.74 61.1238 878.43 67.5509 848.93 112.106C856.57 111.553 867.39 102.638 869.7 110.615C872.66 120.784 859.8 119.204 842.52 118.257C861.4 126.461 946.84 157.135 892.69 144.488C905.67 159.998 937.88 169.16 962.74 165.073C937.78 151.626 998.03 161.667 998.1 161.272C982.5 155.24 951.5 145.791 907.41 122.354H907.43ZM514.33 113.192C511.88 123.568 505.98 127.942 499.08 128.416C492.18 127.942 486.28 123.568 483.83 113.192C460.98 108.196 444.43 107.12 411.83 102.312C430.49 74.0471 466.91 81.7971 499.08 79.3783C531.25 81.7971 567.67 74.0471 586.33 102.312C553.73 107.13 537.18 108.206 514.33 113.192Z" fill="url(#paint0_radial_49_2)"/>
<defs>
<radialGradient id="paint0_radial_49_2" cx="0" cy="0" r="1" gradientUnits="userSpaceOnUse" gradientTransform="translate(501.37 42.1289) scale(234.04 231.059)">
<stop/>
<stop offset="0.23" stop-color="#020000"/>
<stop offset="0.39" stop-color="#0B0001"/>
<stop offset="0.52" stop-color="#1B0203"/>
<stop offset="0.65" stop-color="#310406"/>
<stop offset="0.77" stop-color="#4D060A"/>
<stop offset="0.88" stop-color="#70090F"/>
<stop offset="0.99" stop-color="#990C15"/>
<stop offset="1" stop-color="#9E0D16"/>
</radialGradient>
</defs>
</svg>
