<svg width="318" height="55" viewBox="0 0 318 55" fill="none" xmlns="http://www.w3.org/2000/svg">
<path style="mix-blend-mode:overlay" d="M907.43 69.602C855.27 41.8698 899.36 -23.2796 939.96 15.273C927.27 -19.1035 863.43 -47.2405 883.25 -23.3488C912.4 1.92518 835.28 25.7281 840.45 -9.35922C841.85 -18.8468 855.47 -17.7904 866.32 -13.1799C842.99 -42.7484 808.77 -21.7592 778.88 -29.1045C782.1 -38.8586 788.04 -43.1927 798.28 -44.6243C782.58 -54.4969 734.68 -43.1236 715.46 -24.9678C733.8 -28.1567 751.59 -31.622 766.26 -24.4051C763.91 -18.136 756.02 -8.72739 752.18 -3.44553C823.23 -32.8462 835.5 32.3526 771.21 23.793C751.42 21.1571 733.02 7.08858 712.5 12.1532C775.66 44.3874 691.29 41.4157 668.31 22.559C713.56 78.9119 649.06 99.3483 632.54 45.1673C647.36 41.702 657.97 54.4772 669.78 60.5489C672.47 39.5498 632.17 13.0615 612.01 13.4663C622.49 21.7198 623.71 42.5609 606.1 35.9759C594.12 31.4937 587.38 14.9274 591.25 2.63601C598.78 -21.3446 632.03 -9.74427 651.65 -9.71465C614.88 -29.7166 580.64 -57.1427 535.45 -52.1571C558.86 -30.8026 527.87 -22.243 508.4 -15.421C531.01 -8.19427 549.72 -10.9092 571.52 -15.0854C558.07 -26.8634 573.94 -37.0519 582.66 -27.8704C597.57 -12.1532 570.53 0.651615 543.53 7.0787C546.18 3.81086 548.6 0.00991058 550.72 -4.41303C535 3.61342 515.31 8.03635 499.06 10.386C482.81 8.03635 463.12 3.61342 447.4 -4.41303C449.52 0.019783 451.93 3.81086 454.59 7.0787C427.59 0.651615 400.55 -12.1532 415.46 -27.8704C424.18 -37.0519 440.04 -26.8733 426.6 -15.0854C448.4 -10.9092 467.12 -8.19427 489.72 -15.421C470.25 -22.243 439.25 -30.7927 462.67 -52.1571C417.48 -57.1329 383.25 -29.7166 346.47 -9.71465C366.08 -9.74427 399.34 -21.3446 406.87 2.63601C410.73 14.9373 403.99 31.5036 392.02 35.9759C374.41 42.5609 375.63 21.7198 386.11 13.4663C365.96 13.0615 325.65 39.5498 328.34 60.5489C340.15 54.4673 350.76 41.702 365.58 45.1673C349.06 99.3581 284.56 78.9119 329.81 22.559C306.83 41.4157 222.47 44.3874 285.62 12.1532C265.11 7.08858 246.7 21.1571 226.91 23.793C162.62 32.3625 174.89 -32.8462 245.94 -3.44553C242.1 -8.72739 234.21 -18.1459 231.86 -24.4051C246.53 -31.622 264.32 -28.1567 282.66 -24.9678C263.44 -43.1137 215.54 -54.4969 199.84 -44.6243C210.08 -43.1927 216.01 -38.8586 219.24 -29.1045C189.36 -21.7592 155.13 -42.7484 131.8 -13.1799C142.65 -17.7904 156.27 -18.8468 157.67 -9.35922C162.84 25.7182 85.72 1.92518 114.87 -23.3488C134.69 -47.2405 70.85 -19.1134 58.16 15.273C98.76 -23.2796 142.85 41.8599 90.69 69.602C46.6 93.0397 15.6 102.488 0 108.52C0.07 108.925 60.31 98.8843 35.36 112.321C60.22 116.408 92.43 107.237 105.41 91.7365C51.25 104.383 136.7 73.7189 155.58 65.5049C138.3 66.4428 125.44 68.0224 128.4 57.8635C130.72 49.8963 141.54 58.8113 149.17 59.3543C119.67 14.7991 205.36 8.36214 179.53 54.5957C161.57 86.7409 149.26 97.897 149.26 97.897C149.26 97.897 158.86 91.0059 188.81 70.5301C234.36 39.3819 320.61 48.7906 268.16 112.222C292.67 102.379 349.39 75.3677 344.11 122.243C382.12 95.8435 375.45 151.841 375.25 173.669C389.48 143.064 371.64 102.883 393.59 75.9896C404.66 62.4246 418.72 72.6922 420.15 86.9384C421.17 97.0875 411.91 99.368 403.06 91.9537C401.47 90.6209 400.3 88.6266 396.93 84.3517C403.5 123.694 437.85 144.792 445.53 179.652C453.27 147.793 412.7 117.435 434.48 91.0355C447.77 74.9234 477.03 86.0301 499.05 85.5661C521.07 86.0301 550.32 74.9234 563.62 91.0355C585.4 117.435 544.83 147.793 552.57 179.652C560.25 144.792 594.6 123.694 601.17 84.3517C597.81 88.6266 596.63 90.6209 595.04 91.9537C586.19 99.3582 576.93 97.0875 577.95 86.9384C579.38 72.6922 593.44 62.4246 604.51 75.9896C626.45 102.883 608.62 143.064 622.85 173.669C622.65 151.841 615.98 95.8435 653.99 122.243C648.72 75.3677 705.43 102.379 729.94 112.222C677.49 48.7906 763.74 39.3918 809.29 70.5301C839.23 91.0059 848.84 97.897 848.84 97.897C848.84 97.897 836.53 86.7311 818.57 54.5957C792.74 8.37201 878.43 14.7991 848.93 59.3543C856.57 58.8014 867.39 49.8864 869.7 57.8635C872.66 68.0323 859.8 66.4527 842.52 65.5049C861.4 73.7091 946.84 104.383 892.69 91.7365C905.67 107.246 937.88 116.408 962.74 112.321C937.78 98.8744 998.03 108.915 998.1 108.52C982.5 102.488 951.5 93.0397 907.41 69.602H907.43ZM514.33 60.4402C511.88 70.8164 505.98 75.19 499.08 75.6638C492.18 75.19 486.28 70.8164 483.83 60.4402C460.98 55.4447 444.43 54.3686 411.83 49.5606C430.49 21.2953 466.91 29.0453 499.08 26.6265C531.25 29.0453 567.67 21.2953 586.33 49.5606C553.73 54.3785 537.18 55.4546 514.33 60.4402Z" fill="url(#paint0_radial_2_105)"/>
<defs>
<radialGradient id="paint0_radial_2_105" cx="0" cy="0" r="1" gradientUnits="userSpaceOnUse" gradientTransform="translate(501.37 -10.6229) scale(234.04 231.059)">
<stop/>
<stop offset="0.23" stop-color="#020000"/>
<stop offset="0.39" stop-color="#0B0001"/>
<stop offset="0.52" stop-color="#1B0203"/>
<stop offset="0.65" stop-color="#310406"/>
<stop offset="0.77" stop-color="#4D060A"/>
<stop offset="0.88" stop-color="#70090F"/>
<stop offset="0.99" stop-color="#990C15"/>
<stop offset="1" stop-color="#9E0D16"/>
</radialGradient>
</defs>
</svg>
