<svg width="14" height="18" viewBox="0 0 14 18" fill="none" xmlns="http://www.w3.org/2000/svg">
<path d="M5.5 5.18413C4.14 5.24337 2.86 4.82874 1.69 4.18702C1.51 4.22651 1.43996 4.87811 1.26996 5.08543C1.02996 5.37174 0.01 5.77651 0 6.2504C0 6.61568 1.05996 7.11917 1.26996 7.40548C1.42996 7.62267 1.52 8.0472 1.63 8.30389C2.87 7.64242 4.16998 7.16854 5.59998 7.19816C5.48998 9.98224 5.83999 13.1711 4.48999 15.6985C4.49999 15.8861 5.32999 16.0638 5.48999 16.202C5.78999 16.4587 6.12997 17.515 6.65997 17.4657C7.06997 17.4262 7.40999 16.4982 7.67999 16.2514C7.86999 16.0737 8.59995 15.8663 8.63995 15.6886C7.34995 13.102 7.70001 10.0119 7.63 7.20804C8.98001 7.21791 10.34 7.52397 11.45 8.29404C11.76 8.10646 11.75 7.68192 11.96 7.41536C12.19 7.11918 13.3 6.59592 13.21 6.1714C13.19 6.07267 12.87 5.80611 12.76 5.70738C12.55 5.5198 12.03 5.28288 11.92 5.17428C11.73 4.9867 11.78 4.36473 11.44 4.21664C10.34 4.99657 8.95 5.21377 7.62 5.2039C7.58999 3.99944 8.12 2.90355 8.63 1.84718C8.39001 1.551 7.99996 1.60038 7.70996 1.33382C7.44996 1.09687 6.92998 -0.0384849 6.53998 0.00100562C6.01998 0.208331 5.72999 1.14625 5.42999 1.3832C5.17999 1.58065 4.68996 1.54114 4.45996 1.82745C5.14996 2.79497 5.53998 4.0093 5.47998 5.19402L5.5 5.18413Z" fill="#BE802E"/>
</svg>
