<svg width="99" height="153" viewBox="0 0 99 153" fill="none" xmlns="http://www.w3.org/2000/svg">
<path d="M49.4516 87.05L44.0516 87.98L40.3516 93.82C40.3516 93.82 43.7116 101.03 44.8016 109.14C45.8916 117.25 46.7616 125.36 46.5516 129.81C46.3316 134.26 46.2116 135.83 46.5816 139.1C46.9516 142.37 49.4516 151.84 49.4516 151.84C49.4516 151.84 51.9516 142.38 52.3216 139.1C52.6916 135.83 52.5716 134.27 52.3516 129.81C52.1316 125.35 53.0116 117.25 54.1016 109.14C55.1916 101.03 58.5516 93.82 58.5516 93.82L54.8516 87.98L49.4516 87.05Z" fill="url(#paint0_linear_51_4)" stroke="#BE802E" stroke-width="0.5" stroke-linejoin="round"/>
<path d="M49.4516 60.16L32.3416 57.3C32.3416 57.3 34.6916 60.85 34.7816 65.03C34.8716 69.21 35.2216 71.08 37.6816 74.79C40.1316 78.5 43.1716 81.38 43.5216 85.23C43.8716 89.08 44.0316 95.46 44.3416 97.14C44.6416 98.82 46.4016 101.27 46.7016 103.66C47.0016 106.04 47.4016 111.93 47.6616 114.01C47.9216 116.09 49.4716 120.28 49.4716 120.28C49.4716 120.28 51.0216 116.09 51.2816 114.01C51.5416 111.93 51.9316 106.05 52.2416 103.66C52.5416 101.28 54.3016 98.83 54.6016 97.14C54.9016 95.45 55.0716 89.08 55.4216 85.23C55.7716 81.38 58.8116 78.5 61.2616 74.79C63.7116 71.08 64.0616 69.21 64.1616 65.03C64.2516 60.85 66.6016 57.3 66.6016 57.3L49.4916 60.16H49.4516Z" fill="url(#paint1_linear_51_4)" stroke="#BE802E" stroke-width="0.5" stroke-linejoin="round"/>
<path d="M49.4516 55.35L35.3116 55.23C35.3116 55.23 32.1016 55.38 30.0516 54.61C30.0516 54.61 33.8616 58.64 35.9216 62.42C37.9816 66.2 37.2216 70.36 39.1016 73.47C40.9816 76.59 45.6016 80.19 46.3416 85.79C47.0816 91.39 48.7416 97.4901 48.7416 97.4901L49.4616 98.96L50.1816 97.4901C50.1816 97.4901 51.8416 91.39 52.5816 85.79C53.3216 80.19 57.9416 76.58 59.8216 73.47C61.7016 70.35 60.9516 66.2 63.0016 62.42C65.0616 58.64 68.8716 54.61 68.8716 54.61C66.8216 55.38 63.6116 55.23 63.6116 55.23L49.4716 55.35H49.4516Z" fill="url(#paint2_linear_51_4)" stroke="#BE802E" stroke-width="0.5" stroke-linejoin="round"/>
<path d="M41.0216 40.33L39.4916 40.66L26.4016 38.1L21.6716 37.86L28.9916 27.3701C28.9916 27.3701 11.5316 26.97 2.51162 15.32C2.51162 15.32 6.00158 31.34 18.7816 37.72C18.7816 37.72 -4.16838 51.45 1.01162 70.14C1.01162 70.14 -1.3884 44.56 44.2416 43.72L41.0216 40.33Z" fill="url(#paint3_linear_51_4)" stroke="#BE802E" stroke-width="0.5" stroke-linejoin="round"/>
<path d="M57.8816 40.33L59.4116 40.66L72.5016 38.1L77.2316 37.86L69.9116 27.3701C69.9116 27.3701 87.3716 26.97 96.3916 15.32C96.3916 15.32 92.9016 31.34 80.1216 37.72C80.1216 37.72 103.072 51.45 97.8916 70.14C97.8916 70.14 100.292 44.56 54.6616 43.72L57.8816 40.33Z" fill="url(#paint4_linear_51_4)" stroke="#BE802E" stroke-width="0.5" stroke-linejoin="round"/>
<path d="M49.4516 0.25C49.4516 0.25 45.0216 10.95 33.2616 15.73L36.4916 19.67C36.4916 19.67 38.0416 14.32 43.9216 16.4C49.8016 18.48 43.2116 29.36 43.2116 29.36C43.2116 29.36 40.6916 28.03 36.4416 27.55C32.1916 27.07 23.2216 27.77 18.6616 27.2C14.1116 26.63 11.1916 25.34 11.1916 25.34C11.1916 25.34 13.8016 29.72 15.1716 32.86C16.5416 36 21.1416 40.16 25.7416 41.66C30.3416 43.16 39.4916 40.69 39.4916 40.69C39.4916 40.69 30.6516 38.7 30.1616 33.86C29.6716 29.02 38.4116 29.79 40.7116 30.3C43.0116 30.81 50.4816 36.25 41.0216 40.36C41.0216 40.36 45.3816 44.2301 44.4216 47.0601C43.4616 49.8901 41.7916 53.63 35.3016 55.26C35.3016 55.26 38.3416 59.92 38.5416 63.6C38.7416 67.28 39.3416 71.88 44.3816 76.84C49.4216 81.79 49.4416 96.8 49.4416 96.8C49.4416 96.8 49.4616 81.79 54.5016 76.84C59.5416 71.89 60.1316 67.29 60.3416 63.6C60.5516 59.92 63.5816 55.26 63.5816 55.26C57.0916 53.64 55.4116 49.8901 54.4616 47.0601C53.5116 44.2301 57.8616 40.36 57.8616 40.36C48.4016 36.25 55.8716 30.81 58.1716 30.3C60.4716 29.79 69.2016 29.02 68.7216 33.86C68.2416 38.7 59.3916 40.69 59.3916 40.69C59.3916 40.69 68.5416 43.17 73.1416 41.66C77.7416 40.15 82.3416 36 83.7116 32.86C85.0816 29.72 87.6916 25.34 87.6916 25.34C87.6916 25.34 84.7716 26.62 80.2216 27.2C75.6716 27.77 66.6916 27.07 62.4416 27.55C58.1916 28.04 55.6716 29.36 55.6716 29.36C55.6716 29.36 49.0816 18.48 54.9616 16.4C60.8416 14.32 62.3916 19.67 62.3916 19.67L65.6216 15.73C53.8616 10.95 49.4316 0.25 49.4316 0.25H49.4516Z" fill="url(#paint5_linear_51_4)" stroke="#BE802E" stroke-width="0.5" stroke-linejoin="round"/>
<path d="M52.5816 95.28L49.4516 88.42L46.3216 95.28L49.4516 102.13L52.5816 95.28Z" fill="url(#paint6_linear_51_4)" stroke="#BE802E" stroke-width="0.5" stroke-linejoin="round"/>
<path d="M50.8116 105.92L49.4516 102.13L48.0916 105.92L49.4516 109.7L50.8116 105.92Z" fill="url(#paint7_linear_51_4)" stroke="#BE802E" stroke-width="0.5" stroke-linejoin="round"/>
<defs>
<linearGradient id="paint0_linear_51_4" x1="40.3516" y1="119.44" x2="58.5516" y2="119.44" gradientUnits="userSpaceOnUse">
<stop stop-color="#03060D"/>
<stop offset="0.17" stop-color="#09060D"/>
<stop offset="0.41" stop-color="#1C080E"/>
<stop offset="0.7" stop-color="#3C0A0F"/>
<stop offset="1" stop-color="#650E12"/>
</linearGradient>
<linearGradient id="paint1_linear_51_4" x1="49.4516" y1="59.44" x2="49.4516" y2="153.18" gradientUnits="userSpaceOnUse">
<stop stop-color="#03060D"/>
<stop offset="0.17" stop-color="#09060D"/>
<stop offset="0.41" stop-color="#1C080E"/>
<stop offset="0.7" stop-color="#3C0A0F"/>
<stop offset="1" stop-color="#650E12"/>
</linearGradient>
<linearGradient id="paint2_linear_51_4" x1="49.4516" y1="100.89" x2="49.4516" y2="55.22" gradientUnits="userSpaceOnUse">
<stop stop-color="#03060D"/>
<stop offset="0.17" stop-color="#09060D"/>
<stop offset="0.41" stop-color="#1C080E"/>
<stop offset="0.7" stop-color="#3C0A0F"/>
<stop offset="1" stop-color="#650E12"/>
</linearGradient>
<linearGradient id="paint3_linear_51_4" x1="22.2516" y1="69.14" x2="22.2516" y2="21.97" gradientUnits="userSpaceOnUse">
<stop stop-color="#03060D"/>
<stop offset="0.17" stop-color="#09060D"/>
<stop offset="0.41" stop-color="#1C080E"/>
<stop offset="0.7" stop-color="#3C0A0F"/>
<stop offset="1" stop-color="#650E12"/>
</linearGradient>
<linearGradient id="paint4_linear_51_4" x1="76.6516" y1="69.14" x2="76.6516" y2="21.97" gradientUnits="userSpaceOnUse">
<stop stop-color="#03060D"/>
<stop offset="0.17" stop-color="#09060D"/>
<stop offset="0.41" stop-color="#1C080E"/>
<stop offset="0.7" stop-color="#3C0A0F"/>
<stop offset="1" stop-color="#650E12"/>
</linearGradient>
<linearGradient id="paint5_linear_51_4" x1="49.4516" y1="2.55" x2="49.4516" y2="96.4701" gradientUnits="userSpaceOnUse">
<stop stop-color="#03060D"/>
<stop offset="0.17" stop-color="#09060D"/>
<stop offset="0.41" stop-color="#1C080E"/>
<stop offset="0.7" stop-color="#3C0A0F"/>
<stop offset="1" stop-color="#650E12"/>
</linearGradient>
<linearGradient id="paint6_linear_51_4" x1="46.3216" y1="95.28" x2="52.5816" y2="95.28" gradientUnits="userSpaceOnUse">
<stop stop-color="#03060D"/>
<stop offset="0.17" stop-color="#09060D"/>
<stop offset="0.41" stop-color="#1C080E"/>
<stop offset="0.7" stop-color="#3C0A0F"/>
<stop offset="1" stop-color="#650E12"/>
</linearGradient>
<linearGradient id="paint7_linear_51_4" x1="48.0916" y1="105.92" x2="50.8116" y2="105.92" gradientUnits="userSpaceOnUse">
<stop stop-color="#03060D"/>
<stop offset="0.17" stop-color="#09060D"/>
<stop offset="0.41" stop-color="#1C080E"/>
<stop offset="0.7" stop-color="#3C0A0F"/>
<stop offset="1" stop-color="#650E12"/>
</linearGradient>
</defs>
</svg>
