<svg width="20" height="20" viewBox="0 0 20 20" fill="none" xmlns="http://www.w3.org/2000/svg">
<path d="M15.81 1H4.12C2.39687 1 1 2.39687 1 4.12V15.81C1 17.5331 2.39687 18.93 4.12 18.93H15.81C17.5331 18.93 18.93 17.5331 18.93 15.81V4.12C18.93 2.39687 17.5331 1 15.81 1Z" fill="#400F11" stroke="#BE802E" stroke-width="2" stroke-miterlimit="10"/>
<path d="M8.14999 14.51L8.75999 15.19C8.93999 15.39 9.25999 15.41 9.45999 15.23L10.42 14.36C10.62 14.18 10.64 13.86 10.46 13.66L10.05 13.2C9.84999 12.98 9.88999 12.64 10.12 12.47L15.37 8.55999C15.5 8.46999 15.57 8.31999 15.57 8.15999V4.82999C15.57 4.54999 15.35 4.32999 15.08 4.32999H11.75C11.59 4.32999 11.44 4.39999 11.35 4.52999L7.42999 9.77999C7.24999 10.02 6.90999 10.05 6.69999 9.84999L6.24999 9.43999C6.04999 9.25999 5.72999 9.26999 5.54999 9.47999L4.67999 10.44C4.49999 10.64 4.50999 10.96 4.71999 11.14L5.39999 11.75C5.58999 11.92 5.61999 12.21 5.46999 12.42L4.56999 13.62C4.40999 13.83 4.32999 14.09 4.32999 14.35C4.32999 15.02 4.86999 15.57 5.53999 15.57C5.79999 15.57 6.05999 15.49 6.26999 15.33L7.47999 14.43C7.68999 14.28 7.97999 14.31 8.14999 14.5V14.51Z" fill="#BE802E"/>
</svg>
