<svg width="14" height="15" viewBox="0 0 14 15" fill="none" xmlns="http://www.w3.org/2000/svg">
<path d="M7.04999 0C9.96999 0 12.47 1.76998 13.54 4.28998C12.59 2.64998 10.81 1.54999 8.77997 1.54999C5.73997 1.54999 3.27997 4.00999 3.27997 7.04999C3.27997 10.09 5.73997 12.55 8.77997 12.55C10.81 12.55 12.58 11.45 13.54 9.81C12.47 12.33 9.95999 14.1 7.04999 14.1C3.14999 14.1 0 10.94 0 7.04999C0 3.15999 3.15999 0 7.04999 0Z" fill="#BE802E"/>
<path d="M11.86 7.04999C10.13 6.56999 9.74001 6.17998 9.26001 4.44998C8.78001 6.17998 8.38997 6.56999 6.65997 7.04999C8.38997 7.52999 8.78001 7.91999 9.26001 9.64999C9.74001 7.91999 10.13 7.52999 11.86 7.04999Z" fill="#9E0D16"/>
</svg>
