<svg width="347" height="347" viewBox="0 0 347 347" fill="none" xmlns="http://www.w3.org/2000/svg">
<path d="M346.93 175.57L346.98 173.47L346.93 171.58C346.9 170.33 346.1 169.28 345 168.89L344.93 165.99C346.01 165.53 346.77 164.42 346.65 163.18L346.49 161.09L346.35 159.21C346.26 157.96 345.4 156.97 344.29 156.66C344.24 155.69 344.07 154.74 343.96 153.78C344.99 153.24 345.62 152.09 345.47 150.85L345.21 148.77L344.96 146.9C344.74 145.67 343.79 144.74 342.64 144.52L342.13 141.67C343.13 141.06 343.7 139.86 343.48 138.63L343.02 136.59L342.6 134.75C342.32 133.53 341.32 132.67 340.17 132.52C339.94 131.58 339.76 130.63 339.48 129.71C340.42 129.03 340.88 127.8 340.54 126.6L339.97 124.58L339.45 122.77C339.13 121.56 338 120.8 336.84 120.73L335.91 117.99C336.81 117.24 337.2 115.98 336.8 114.79C336.59 114.12 336.35 113.47 336.08 112.82L335.39 111.06C334.93 109.9 333.82 109.19 332.66 109.21L331.59 106.52C332.42 105.72 332.69 104.44 332.18 103.3L331.32 101.39L330.54 99.67C330.04 98.52 328.86 97.91 327.69 98.02L326.37 95.44C327.15 94.57 327.35 93.27 326.78 92.15C326.45 91.53 326.16 90.89 325.8 90.3L324.86 88.66C324.24 87.58 323.03 87.04 321.88 87.22L320.44 84.71C321.17 83.78 321.24 82.49 320.57 81.43L319.44 79.67L318.42 78.08C317.75 77.02 316.52 76.56 315.37 76.85L313.69 74.49C314.34 73.52 314.35 72.2 313.62 71.18C313.21 70.61 312.82 70.04 312.4 69.48L311.23 68C310.46 67.02 309.19 66.66 308.08 67L306.29 64.72C306.89 63.69 306.78 62.4 305.96 61.45L304.59 59.87L303.36 58.44C302.54 57.5 301.28 57.2 300.17 57.65L298.17 55.55C298.67 54.5 298.5 53.19 297.63 52.29L296.18 50.77L294.82 49.47C293.92 48.61 292.61 48.43 291.56 48.93L289.46 46.93C289.91 45.83 289.62 44.55 288.67 43.74L287.09 42.37L285.66 41.14C284.71 40.33 283.42 40.21 282.4 40.8L280.12 39.01C280.47 37.9 280.11 36.63 279.13 35.86L277.48 34.57C276.98 34.19 276.46 33.84 275.95 33.47C274.93 32.75 273.61 32.76 272.64 33.4L270.28 31.72C270.42 31.15 270.38 30.55 270.17 30C269.96 29.47 269.58 29 269.05 28.66L267.29 27.53L265.7 26.51C264.65 25.84 263.34 25.92 262.42 26.63L259.91 25.19C260.1 24.04 259.56 22.84 258.48 22.22L256.66 21.18C256.12 20.85 255.55 20.59 254.99 20.3C253.88 19.73 252.57 19.93 251.7 20.71L249.12 19.39C249.23 18.22 248.62 17.02 247.48 16.53L245.57 15.67L243.85 14.89C242.71 14.38 241.43 14.65 240.62 15.48C239.74 15.09 238.83 14.76 237.93 14.4C237.95 13.24 237.24 12.13 236.08 11.67L234.13 10.9C233.55 10.66 232.96 10.44 232.36 10.25C231.18 9.85 229.91 10.24 229.16 11.14L226.42 10.21C226.36 9.06 225.59 7.93 224.39 7.59L222.37 7.02L220.56 6.5C219.36 6.16 218.13 6.62 217.45 7.55C216.53 7.27 215.58 7.06 214.64 6.85C214.49 5.7 213.63 4.7 212.42 4.42L210.38 3.95L208.54 3.53C207.31 3.3 206.11 3.88 205.5 4.88L202.65 4.37C202.42 3.22 201.5 2.27 200.27 2.05C199.58 1.93 198.89 1.86 198.19 1.77L196.32 1.53C195.08 1.37 193.93 2.01 193.39 3.04C192.43 2.93 191.48 2.77 190.51 2.7C190.2 1.58 189.21 0.73 187.96 0.64L185.87 0.48L183.99 0.34C182.74 0.23 181.64 0.97 181.17 2.05L178.27 1.98C177.88 0.88 176.83 0.08 175.58 0.05L173.48 0L171.59 0.05C170.34 0.08 169.29 0.88 168.9 1.98L166 2.05C165.54 0.97 164.43 0.21 163.19 0.33L161.1 0.49L159.22 0.63C157.97 0.72 156.98 1.58 156.67 2.69C155.71 2.74 154.75 2.91 153.79 3.02C153.25 1.99 152.1 1.36 150.86 1.51L148.78 1.77L146.91 2.02C145.68 2.24 144.75 3.19 144.53 4.34L141.68 4.85C141.07 3.85 139.87 3.28 138.64 3.5L136.6 3.96L134.76 4.38C133.54 4.66 132.68 5.66 132.53 6.81C131.59 7.04 130.64 7.22 129.72 7.5C129.04 6.56 127.81 6.1 126.61 6.45L124.59 7.02L122.78 7.54C121.57 7.86 120.81 8.99 120.74 10.15L118 11.08C117.25 10.18 115.99 9.79 114.8 10.19C114.13 10.4 113.48 10.64 112.83 10.91L111.07 11.6C109.91 12.06 109.2 13.17 109.22 14.33L106.53 15.4C105.73 14.57 104.45 14.3 103.31 14.81L101.4 15.67L99.68 16.45C98.53 16.95 97.92 18.13 98.03 19.3L95.45 20.62C94.58 19.84 93.28 19.64 92.16 20.21C91.54 20.54 90.9 20.83 90.31 21.19L88.67 22.13C87.59 22.75 87.05 23.96 87.23 25.11L84.72 26.55C83.79 25.82 82.5 25.75 81.44 26.42L79.68 27.55L78.09 28.57C77.03 29.24 76.57 30.46 76.86 31.62L74.5 33.3C73.53 32.65 72.21 32.64 71.19 33.37C70.62 33.78 70.05 34.17 69.49 34.59L68.01 35.76C67.03 36.53 66.67 37.8 67.01 38.91L64.73 40.7C63.7 40.1 62.41 40.21 61.46 41.03L59.88 42.4L58.45 43.63C57.51 44.45 57.21 45.71 57.66 46.82L55.56 48.82C54.51 48.32 53.2 48.49 52.3 49.36L50.78 50.81L49.48 52.17C48.62 53.07 48.44 54.38 48.94 55.43L46.94 57.53C45.84 57.08 44.56 57.37 43.75 58.31L42.38 59.89L41.15 61.32C40.34 62.27 40.22 63.56 40.81 64.58L39.02 66.86C37.91 66.51 36.64 66.87 35.87 67.85L34.58 69.5C34.2 70 33.85 70.52 33.48 71.03C32.76 72.05 32.77 73.37 33.41 74.34L31.73 76.7C31.16 76.56 30.56 76.6 30.01 76.81C29.48 77.02 29.01 77.4 28.67 77.93L27.54 79.69L26.52 81.28C25.85 82.33 25.93 83.64 26.64 84.56L25.2 87.07C24.05 86.88 22.85 87.42 22.23 88.5L21.19 90.32C20.86 90.86 20.6 91.43 20.31 91.99C19.74 93.1 19.94 94.41 20.72 95.28L19.4 97.86C18.23 97.75 17.03 98.36 16.54 99.5L15.68 101.41L14.9 103.13C14.39 104.27 14.66 105.55 15.49 106.36C15.1 107.25 14.77 108.15 14.41 109.05C13.25 109.03 12.14 109.74 11.68 110.9L10.91 112.85C10.67 113.43 10.45 114.02 10.26 114.62C9.86 115.8 10.25 117.07 11.14 117.82L10.21 120.56C9.06 120.62 7.93 121.39 7.59 122.59L7.02 124.61L6.5 126.42C6.16 127.62 6.62 128.85 7.55 129.53C7.27 130.45 7.06 131.4 6.85 132.34C5.7 132.49 4.7 133.35 4.42 134.56L3.95 136.6L3.53 138.44C3.3 139.67 3.88 140.87 4.88 141.48L4.37 144.33C3.22 144.56 2.27 145.48 2.05 146.71C1.93 147.4 1.86 148.1 1.77 148.79L1.53 150.66C1.37 151.9 2.01 153.05 3.04 153.59C2.93 154.55 2.77 155.5 2.7 156.47C1.58 156.78 0.73 157.77 0.64 159.02L0.48 161.11L0.34 162.99C0.23 164.23 0.97 165.34 2.05 165.81L1.98 168.71C0.88 169.1 0.08 170.15 0.05 171.4L0 173.5L0.05 175.39C0.08 176.64 0.88 177.69 1.98 178.08L2.05 180.98C0.97 181.44 0.21 182.55 0.33 183.79L0.49 185.88L0.63 187.76C0.72 189.01 1.58 190 2.69 190.31C2.74 191.28 2.91 192.23 3.02 193.19C1.99 193.73 1.36 194.88 1.51 196.12L1.77 198.2L2.02 200.07C2.24 201.3 3.19 202.23 4.34 202.45L4.85 205.3C3.85 205.91 3.28 207.11 3.5 208.34L3.96 210.38L4.38 212.22C4.66 213.44 5.66 214.3 6.81 214.45C7.04 215.39 7.22 216.34 7.5 217.26C6.56 217.94 6.1 219.17 6.44 220.37L7.01 222.39L7.53 224.2C7.85 225.41 8.98 226.17 10.14 226.24L11.07 228.98C10.17 229.73 9.78 230.99 10.18 232.18C10.39 232.85 10.63 233.5 10.9 234.15L11.59 235.91C12.05 237.07 13.16 237.78 14.32 237.76L15.39 240.45C14.56 241.25 14.29 242.53 14.8 243.67L15.66 245.58L16.44 247.3C16.94 248.45 18.12 249.06 19.29 248.95L20.61 251.53C19.83 252.4 19.63 253.7 20.2 254.82C20.53 255.44 20.82 256.08 21.18 256.67L22.12 258.31C22.74 259.39 23.95 259.93 25.1 259.75L26.54 262.26C25.81 263.19 25.74 264.48 26.41 265.54L27.54 267.3L28.56 268.89C29.23 269.95 30.46 270.41 31.61 270.12L33.29 272.48C32.64 273.45 32.63 274.77 33.36 275.79C33.77 276.36 34.16 276.93 34.58 277.49L35.74 278.97C36.51 279.95 37.78 280.31 38.89 279.97L40.68 282.25C40.08 283.28 40.19 284.57 41.01 285.52L42.38 287.1L43.61 288.53C44.43 289.47 45.69 289.77 46.8 289.32L48.8 291.42C48.3 292.47 48.47 293.78 49.34 294.68L50.79 296.2L52.15 297.5C53.05 298.36 54.36 298.54 55.41 298.04L57.51 300.04C57.06 301.14 57.35 302.42 58.3 303.23L59.88 304.6L61.31 305.83C62.26 306.64 63.55 306.76 64.57 306.17L66.85 307.96C66.5 309.07 66.86 310.34 67.84 311.11L69.49 312.4C69.99 312.78 70.51 313.13 71.02 313.5C72.04 314.22 73.36 314.21 74.33 313.57L76.69 315.25C76.55 315.82 76.59 316.42 76.8 316.97C77.01 317.5 77.39 317.97 77.92 318.31L79.68 319.44L81.27 320.46C82.32 321.13 83.63 321.05 84.55 320.34L87.06 321.78C86.87 322.93 87.41 324.13 88.49 324.75L90.31 325.79C90.85 326.12 91.42 326.38 91.98 326.67C93.09 327.24 94.4 327.04 95.27 326.26L97.85 327.58C97.74 328.75 98.35 329.95 99.49 330.44L101.4 331.3L103.12 332.08C104.26 332.59 105.54 332.32 106.35 331.49C107.24 331.88 108.14 332.21 109.04 332.57C109.02 333.73 109.73 334.84 110.89 335.3L112.84 336.07C113.42 336.31 114.01 336.53 114.61 336.72C115.79 337.12 117.06 336.73 117.81 335.83L120.55 336.76C120.61 337.91 121.38 339.04 122.58 339.38L124.6 339.95L126.41 340.47C127.61 340.81 128.84 340.35 129.52 339.42C130.44 339.7 131.39 339.91 132.33 340.12C132.48 341.27 133.34 342.27 134.55 342.55L136.59 343.02L138.43 343.44C139.66 343.67 140.86 343.09 141.47 342.09L144.32 342.6C144.55 343.75 145.47 344.7 146.7 344.92C147.39 345.04 148.09 345.11 148.78 345.2L150.65 345.44C151.89 345.6 153.04 344.96 153.58 343.93C154.54 344.04 155.49 344.2 156.46 344.27C156.77 345.39 157.76 346.24 159.01 346.33L161.1 346.49L162.98 346.63C164.23 346.74 165.33 346 165.8 344.92L168.7 344.99C169.09 346.09 170.14 346.89 171.39 346.92L173.49 346.97L175.38 346.92C176.63 346.89 177.68 346.09 178.07 344.99L180.97 344.92C181.43 346 182.54 346.76 183.78 346.64L185.87 346.48L187.75 346.34C189 346.25 189.99 345.39 190.3 344.28C191.27 344.23 192.22 344.06 193.18 343.95C193.72 344.98 194.87 345.61 196.11 345.46L198.19 345.2L200.06 344.95C201.29 344.73 202.22 343.78 202.44 342.63L205.29 342.12C205.9 343.12 207.1 343.69 208.33 343.47L210.37 343.01L212.21 342.59C213.43 342.31 214.29 341.31 214.44 340.16C215.38 339.93 216.33 339.75 217.25 339.47C217.93 340.41 219.16 340.87 220.36 340.52L222.38 339.95L224.19 339.43C225.4 339.11 226.16 337.98 226.23 336.82L228.97 335.89C229.72 336.79 230.98 337.18 232.17 336.78C232.84 336.57 233.49 336.33 234.14 336.06L235.9 335.37C237.06 334.91 237.77 333.8 237.75 332.64L240.44 331.57C241.24 332.4 242.52 332.67 243.66 332.16L245.57 331.3L247.29 330.52C248.44 330.02 249.05 328.84 248.94 327.67L251.52 326.35C252.39 327.13 253.69 327.33 254.81 326.76C255.43 326.43 256.07 326.14 256.66 325.78L258.3 324.84C259.38 324.22 259.92 323.01 259.74 321.86L262.25 320.42C263.18 321.15 264.47 321.22 265.53 320.55L267.29 319.42L268.88 318.4C269.94 317.73 270.4 316.51 270.11 315.35L272.47 313.67C273.44 314.32 274.76 314.33 275.78 313.6C276.35 313.19 276.92 312.8 277.48 312.38L278.96 311.21C279.94 310.44 280.3 309.17 279.96 308.06L282.24 306.27C283.27 306.87 284.56 306.76 285.51 305.94L287.09 304.57L288.52 303.34C289.46 302.52 289.76 301.26 289.31 300.15L291.41 298.15C292.46 298.65 293.77 298.48 294.67 297.61L296.19 296.16L297.49 294.8C298.35 293.9 298.53 292.59 298.03 291.54L300.03 289.44C301.13 289.89 302.41 289.6 303.22 288.65L304.59 287.07L305.82 285.64C306.63 284.69 306.75 283.4 306.16 282.38L307.95 280.1C309.06 280.45 310.33 280.09 311.1 279.11L312.39 277.46C312.77 276.96 313.12 276.44 313.49 275.93C314.21 274.91 314.2 273.59 313.56 272.62L315.24 270.26C315.81 270.4 316.41 270.36 316.96 270.15C317.49 269.94 317.96 269.56 318.3 269.03L319.43 267.27L320.45 265.68C321.12 264.63 321.04 263.32 320.33 262.4L321.77 259.89C322.92 260.08 324.12 259.54 324.74 258.46L325.78 256.64C326.11 256.1 326.37 255.53 326.66 254.97C327.23 253.86 327.03 252.55 326.25 251.68L327.57 249.1C328.74 249.21 329.94 248.6 330.43 247.46L331.29 245.55L332.07 243.83C332.58 242.69 332.31 241.41 331.48 240.6C331.87 239.71 332.2 238.81 332.56 237.91C333.72 237.93 334.83 237.22 335.29 236.06L336.06 234.11C336.3 233.53 336.52 232.94 336.71 232.34C337.11 231.16 336.72 229.89 335.83 229.14L336.76 226.4C337.91 226.34 339.04 225.57 339.38 224.37L339.95 222.35L340.47 220.54C340.81 219.34 340.35 218.11 339.42 217.43C339.7 216.51 339.91 215.56 340.12 214.62C341.27 214.47 342.27 213.61 342.55 212.4L343.02 210.36L343.44 208.52C343.67 207.29 343.09 206.09 342.09 205.48L342.6 202.63C343.75 202.4 344.7 201.48 344.92 200.25C345.04 199.56 345.11 198.86 345.2 198.17L345.44 196.3C345.6 195.06 344.96 193.91 343.93 193.37C344.04 192.41 344.2 191.46 344.27 190.49C345.39 190.18 346.24 189.19 346.33 187.94L346.49 185.85L346.63 183.97C346.74 182.72 346 181.62 344.92 181.15L344.99 178.25C346.09 177.86 346.89 176.81 346.92 175.56L346.93 175.57ZM344.46 158.94L344.41 158.3C344.72 158.55 344.92 158.92 344.96 159.34L345.1 161.21L345.26 163.28C345.29 163.71 345.14 164.1 344.88 164.39L344.83 163.72C344.79 163.15 344.29 162.71 343.72 162.75C343.15 162.79 342.72 163.27 342.76 163.84L342.81 164.5C342.5 164.25 342.3 163.88 342.26 163.46L342.1 161.42L341.96 159.59C341.93 159.17 342.08 158.78 342.34 158.48L342.39 159.12C342.43 159.68 342.93 160.1 343.5 160.06C344.07 160.02 344.5 159.52 344.45 158.95L344.46 158.94ZM342.17 147.94C342.73 147.86 343.15 147.33 343.03 146.76L342.92 146.12C343.25 146.34 343.5 146.7 343.57 147.12L343.81 148.97L344.07 151.03C344.12 151.45 343.99 151.86 343.74 152.17L343.66 151.5C343.59 150.93 343.07 150.53 342.5 150.61C341.93 150.69 341.53 151.2 341.6 151.76L341.68 152.42C341.36 152.19 341.14 151.83 341.08 151.42L340.82 149.39L340.58 147.57C340.51 147.16 340.62 146.76 340.85 146.44L340.96 147.07C341.07 147.62 341.58 148.01 342.14 147.93L342.17 147.94ZM339.9 135.98C340.46 135.86 340.81 135.3 340.68 134.74L340.53 134.11C340.87 134.31 341.13 134.65 341.23 135.06L341.65 136.88L342.11 138.91C342.19 139.33 342.08 139.75 341.84 140.07L341.72 139.41C341.63 138.84 341.06 138.49 340.5 138.61C339.94 138.73 339.6 139.27 339.69 139.82L339.81 140.47C339.48 140.26 339.24 139.92 339.17 139.51L338.72 137.52L338.31 135.73C338.22 135.32 338.31 134.91 338.52 134.58L338.66 135.2C338.79 135.75 339.34 136.1 339.9 135.97V135.98ZM336.82 124.2C337.37 124.04 337.69 123.46 337.53 122.9C337.47 122.69 337.42 122.48 337.35 122.28C337.71 122.45 337.98 122.78 338.1 123.19L338.61 124.99L339.18 126.99C339.3 127.4 339.23 127.82 339.03 128.16L338.85 127.51C338.69 126.96 338.12 126.64 337.57 126.8C337.02 126.96 336.7 127.52 336.85 128.07L337.03 128.71C336.68 128.53 336.4 128.21 336.29 127.8L335.73 125.83L335.23 124.06C335.11 123.66 335.19 123.24 335.38 122.89C335.45 123.09 335.5 123.3 335.56 123.5C335.71 124.04 336.28 124.35 336.83 124.19L336.82 124.2ZM331.31 111.5L331.54 112.09C331.75 112.62 332.35 112.88 332.88 112.67C333.41 112.47 333.68 111.87 333.47 111.34L333.23 110.74C333.6 110.89 333.91 111.18 334.06 111.58L334.75 113.32C335.01 113.96 335.25 114.61 335.47 115.27C335.61 115.68 335.56 116.1 335.38 116.46L335.17 115.82C334.99 115.28 334.4 115 333.86 115.19C333.32 115.39 333.03 115.98 333.21 116.51L333.42 117.14C333.06 116.98 332.77 116.68 332.64 116.28C332.43 115.63 332.2 114.99 331.94 114.36L331.27 112.65C331.12 112.26 331.14 111.84 331.31 111.48V111.5ZM326.52 100.39L326.78 100.97C327.01 101.48 327.62 101.71 328.14 101.47C328.66 101.23 328.89 100.61 328.65 100.09L328.38 99.5C328.75 99.63 329.07 99.9 329.25 100.29L330.02 101.99L330.88 103.89C331.06 104.28 331.05 104.7 330.9 105.07L330.62 104.46C330.38 103.94 329.77 103.7 329.25 103.94C328.73 104.18 328.49 104.78 328.73 105.3L329 105.9C328.63 105.77 328.31 105.49 328.13 105.11L327.29 103.25L326.53 101.57C326.36 101.19 326.36 100.76 326.51 100.39H326.52ZM320.87 89.68L321.19 90.23C321.47 90.72 322.11 90.89 322.61 90.61C323.11 90.33 323.28 89.7 323 89.21L322.68 88.65C323.07 88.75 323.41 88.99 323.63 89.36L324.56 90.98C324.92 91.57 325.2 92.21 325.53 92.82C325.73 93.2 325.74 93.63 325.61 94L325.3 93.4C325.04 92.89 324.42 92.7 323.91 92.97C323.41 93.24 323.21 93.87 323.46 94.37L323.76 94.96C323.38 94.85 323.05 94.6 322.86 94.23C322.54 93.63 322.26 93.01 321.91 92.42L320.99 90.83C320.78 90.47 320.75 90.05 320.86 89.67L320.87 89.68ZM314.53 79.37L314.87 79.91C315.17 80.39 315.81 80.52 316.29 80.2C316.77 79.89 316.91 79.24 316.6 78.76L316.25 78.22C316.64 78.29 316.99 78.52 317.22 78.88L318.23 80.46L319.35 82.21C319.58 82.57 319.64 82.99 319.54 83.37L319.18 82.81C318.87 82.33 318.23 82.18 317.74 82.49C317.25 82.8 317.11 83.43 317.42 83.91L317.78 84.47C317.39 84.39 317.03 84.17 316.81 83.82L315.71 82.1L314.72 80.55C314.49 80.2 314.44 79.78 314.53 79.39V79.37ZM307.43 69.57L307.82 70.07C308.17 70.51 308.82 70.59 309.28 70.25C309.74 69.9 309.82 69.26 309.46 68.81L309.06 68.3C309.46 68.34 309.84 68.53 310.1 68.87L311.26 70.34C311.68 70.89 312.07 71.47 312.47 72.03C312.72 72.38 312.8 72.8 312.72 73.19L312.33 72.64C312 72.17 311.36 72.07 310.9 72.41C310.44 72.75 310.33 73.4 310.66 73.86L311.04 74.4C310.65 74.35 310.29 74.14 310.04 73.8C309.64 73.25 309.26 72.68 308.85 72.14L307.71 70.69C307.45 70.36 307.36 69.95 307.42 69.56L307.43 69.57ZM300.11 60.75C300.48 61.18 301.13 61.22 301.56 60.84C301.99 60.46 302.03 59.81 301.66 59.37L301.24 58.88C301.63 58.9 302.02 59.07 302.3 59.39L303.53 60.8L304.89 62.37C305.17 62.69 305.29 63.1 305.24 63.49L304.8 62.98C304.42 62.55 303.77 62.5 303.33 62.87C302.89 63.24 302.84 63.89 303.21 64.32L303.64 64.82C303.24 64.8 302.86 64.63 302.58 64.31L301.24 62.77L300.04 61.38C299.77 61.06 299.65 60.66 299.69 60.26L300.11 60.74V60.75ZM291.73 52.01C292.14 52.4 292.8 52.39 293.2 51.98C293.6 51.57 293.59 50.92 293.18 50.53L292.71 50.08C293.11 50.06 293.51 50.2 293.82 50.5L295.17 51.79L296.61 53.29C296.9 53.6 297.04 54 297.03 54.4L296.57 53.91C296.17 53.5 295.52 53.48 295.12 53.89C294.71 54.29 294.7 54.95 295.09 55.36L295.55 55.84C295.16 55.84 294.77 55.69 294.48 55.39L293.07 53.91L291.74 52.64C291.44 52.35 291.29 51.96 291.29 51.57L291.75 52.01H291.73ZM282.77 43.87C283.2 44.24 283.84 44.19 284.22 43.75C284.6 43.31 284.54 42.66 284.11 42.28L283.62 41.86C284.01 41.82 284.42 41.94 284.74 42.22L286.15 43.45L287.72 44.81C288.04 45.09 288.22 45.48 288.23 45.87L287.72 45.43C287.29 45.05 286.63 45.1 286.25 45.53C285.87 45.96 285.91 46.61 286.34 46.98L286.84 47.41C286.44 47.45 286.04 47.33 285.72 47.06L284.18 45.72L282.79 44.52C282.47 44.25 282.3 43.86 282.28 43.46L282.76 43.88L282.77 43.87ZM273.25 36.4C273.71 36.73 274.36 36.62 274.7 36.16C275.04 35.7 274.94 35.06 274.47 34.73L273.94 34.36C274.33 34.29 274.75 34.36 275.1 34.61C275.61 34.98 276.12 35.33 276.62 35.7L278.26 36.98C278.6 37.24 278.79 37.63 278.83 38.02L278.3 37.61C277.85 37.26 277.2 37.34 276.86 37.79C276.52 38.24 276.59 38.9 277.04 39.25L277.56 39.66C277.17 39.72 276.76 39.63 276.43 39.37L274.82 38.11C274.33 37.74 273.82 37.4 273.33 37.04C272.99 36.8 272.78 36.43 272.73 36.04L273.25 36.41V36.4ZM263.22 29.63C263.7 29.93 264.33 29.79 264.64 29.31C264.95 28.83 264.8 28.18 264.32 27.88L263.78 27.53C264.16 27.43 264.58 27.49 264.94 27.72L266.52 28.73L268.27 29.85C268.63 30.08 268.86 30.44 268.93 30.82L268.37 30.46C267.89 30.15 267.24 30.29 266.93 30.77C266.62 31.25 266.75 31.88 267.22 32.19L267.78 32.55C267.39 32.64 266.97 32.59 266.62 32.36L264.9 31.26L263.35 30.27C263 30.04 262.77 29.69 262.7 29.3L263.24 29.64L263.22 29.63ZM252.74 23.58C253.24 23.84 253.87 23.64 254.14 23.13C254.41 22.63 254.22 22.01 253.71 21.74L253.14 21.45C253.52 21.32 253.94 21.34 254.33 21.53C254.88 21.82 255.45 22.08 255.98 22.41L257.78 23.45C258.15 23.66 258.4 24.01 258.49 24.4L257.91 24.07C257.41 23.78 256.78 23.96 256.51 24.46C256.23 24.96 256.4 25.59 256.89 25.88L257.46 26.21C257.08 26.32 256.67 26.29 256.3 26.08L254.53 25.06C254.01 24.74 253.45 24.49 252.91 24.2C252.54 24.01 252.28 23.68 252.17 23.3L252.74 23.59V23.58ZM241.84 18.31C242.35 18.54 242.96 18.31 243.2 17.79C243.44 17.27 243.2 16.65 242.68 16.42L242.09 16.15C242.45 16 242.88 16 243.27 16.17L244.97 16.94L246.87 17.8C247.26 17.98 247.53 18.3 247.66 18.67L247.05 18.39C246.53 18.15 245.91 18.39 245.67 18.9C245.43 19.42 245.65 20.03 246.16 20.26L246.76 20.53C246.39 20.68 245.97 20.68 245.58 20.51L243.72 19.67L242.04 18.91C241.66 18.74 241.38 18.42 241.25 18.04L241.83 18.3L241.84 18.31ZM230.61 13.81C231.15 13.99 231.74 13.7 231.93 13.16C232.12 12.62 231.85 12.04 231.3 11.85L230.69 11.64C231.04 11.46 231.47 11.41 231.88 11.55C232.47 11.74 233.06 11.96 233.63 12.2L235.56 12.96C235.96 13.12 236.25 13.43 236.4 13.79L235.78 13.54C235.25 13.33 234.65 13.59 234.45 14.13C234.25 14.66 234.51 15.27 235.03 15.47L235.65 15.71C235.29 15.88 234.88 15.91 234.49 15.75L232.59 15C232.02 14.77 231.45 14.55 230.87 14.36C230.47 14.23 230.17 13.93 230.01 13.58L230.61 13.78V13.81ZM219.62 8.17L219 7.99C219.34 7.79 219.76 7.72 220.17 7.84L221.97 8.35L223.97 8.92C224.38 9.04 224.7 9.31 224.87 9.68C224.66 9.61 224.45 9.54 224.23 9.48C223.68 9.32 223.1 9.64 222.93 10.19C222.76 10.74 223.07 11.31 223.62 11.46C223.83 11.52 224.04 11.59 224.25 11.66C223.91 11.84 223.49 11.91 223.09 11.8L221.12 11.24L219.35 10.74C218.95 10.63 218.63 10.35 218.44 10L219.05 10.17C219.59 10.32 220.16 10 220.32 9.45C220.48 8.9 220.16 8.33 219.61 8.17H219.62ZM207.72 5.27L207.08 5.16C207.4 4.93 207.82 4.82 208.24 4.9L210.06 5.32L212.09 5.79C212.51 5.89 212.84 6.15 213.04 6.49L212.39 6.34C211.83 6.21 211.28 6.56 211.15 7.12C211.02 7.68 211.37 8.23 211.92 8.36L212.57 8.51C212.24 8.73 211.83 8.82 211.42 8.72L209.43 8.26L207.64 7.85C207.23 7.77 206.89 7.53 206.68 7.2L207.31 7.31C207.87 7.4 208.4 7.08 208.52 6.51C208.64 5.96 208.28 5.37 207.72 5.28V5.27ZM195.62 3.31L194.98 3.23C195.29 2.98 195.69 2.85 196.12 2.9L197.98 3.14C198.67 3.23 199.36 3.3 200.04 3.42C200.46 3.49 200.81 3.74 201.04 4.07L200.38 3.95C199.82 3.84 199.29 4.23 199.2 4.81C199.12 5.37 199.5 5.89 200.06 6L200.71 6.12C200.4 6.35 200 6.47 199.58 6.39C198.91 6.27 198.23 6.21 197.56 6.12L195.74 5.89C195.32 5.84 194.97 5.61 194.74 5.29L195.37 5.37C195.93 5.44 196.45 5.04 196.52 4.47C196.6 3.9 196.2 3.38 195.63 3.31H195.62ZM183.43 2.15L182.79 2.1C183.08 1.84 183.47 1.68 183.9 1.72L185.77 1.86L187.84 2.02C188.27 2.05 188.64 2.26 188.88 2.57L188.21 2.52C187.64 2.48 187.14 2.9 187.1 3.47C187.06 4.04 187.48 4.54 188.04 4.58L188.7 4.63C188.41 4.89 188.01 5.05 187.59 5.01L185.55 4.85L183.72 4.71C183.3 4.68 182.93 4.47 182.68 4.16L183.32 4.21C183.88 4.25 184.37 3.82 184.41 3.25C184.45 2.68 184.01 2.18 183.44 2.14L183.43 2.15ZM171.62 1.42L173.49 1.37L175.57 1.42C176 1.43 176.38 1.62 176.65 1.91L175.98 1.89C175.41 1.88 174.94 2.33 174.94 2.9C174.94 3.47 175.39 3.95 175.96 3.96L176.62 3.98C176.35 4.26 175.96 4.43 175.54 4.42L173.5 4.37L171.66 4.42C171.24 4.43 170.86 4.26 170.58 3.98L171.22 3.96C171.78 3.95 172.24 3.47 172.24 2.9C172.24 2.33 171.77 1.88 171.2 1.89L170.55 1.91C170.82 1.62 171.2 1.43 171.63 1.42H171.62ZM159.35 2L161.22 1.86L163.29 1.7C163.72 1.67 164.11 1.82 164.4 2.08L163.73 2.13C163.16 2.17 162.72 2.67 162.76 3.24C162.8 3.81 163.28 4.24 163.85 4.2L164.51 4.15C164.26 4.46 163.89 4.66 163.47 4.7L161.43 4.86L159.6 5C159.18 5.03 158.79 4.88 158.49 4.62L159.13 4.57C159.69 4.53 160.11 4.03 160.07 3.46C160.03 2.89 159.53 2.46 158.96 2.51L158.32 2.56C158.57 2.25 158.94 2.05 159.36 2.01L159.35 2ZM147.14 3.39L148.99 3.15L151.05 2.89C151.47 2.84 151.88 2.97 152.19 3.22L151.52 3.3C150.95 3.37 150.55 3.89 150.63 4.46C150.71 5.03 151.22 5.43 151.78 5.36L152.44 5.28C152.21 5.6 151.85 5.82 151.44 5.88L149.41 6.14L147.59 6.38C147.18 6.45 146.78 6.34 146.46 6.11L147.09 6C147.64 5.89 148.03 5.38 147.95 4.82C147.87 4.26 147.33 3.84 146.77 3.96L146.13 4.07C146.35 3.74 146.71 3.49 147.13 3.42L147.14 3.39ZM135.08 5.73L136.9 5.31L138.93 4.85C139.35 4.77 139.77 4.88 140.09 5.12L139.43 5.24C138.86 5.33 138.51 5.9 138.63 6.46C138.75 7.02 139.29 7.36 139.84 7.27L140.49 7.15C140.28 7.48 139.94 7.72 139.53 7.79L137.54 8.24L135.75 8.65C135.34 8.74 134.93 8.65 134.6 8.44L135.22 8.3C135.77 8.17 136.12 7.62 135.99 7.06C135.87 6.5 135.31 6.15 134.75 6.28L134.12 6.43C134.32 6.09 134.66 5.83 135.07 5.73H135.08ZM123.2 8.86L125 8.35L127 7.78C127.41 7.66 127.83 7.73 128.17 7.93L127.53 8.11C126.98 8.27 126.66 8.84 126.82 9.39C126.98 9.94 127.54 10.26 128.09 10.11L128.73 9.93C128.55 10.28 128.23 10.56 127.82 10.67L125.85 11.23L124.08 11.73C123.68 11.85 123.26 11.77 122.91 11.58C123.11 11.51 123.32 11.46 123.52 11.4C124.06 11.25 124.37 10.68 124.21 10.13C124.05 9.58 123.47 9.26 122.91 9.42C122.7 9.48 122.49 9.53 122.29 9.6C122.46 9.24 122.79 8.97 123.2 8.85V8.86ZM111.6 12.89L113.34 12.2C113.98 11.94 114.63 11.7 115.29 11.48C115.69 11.34 116.12 11.39 116.47 11.57L115.83 11.78C115.29 11.96 115.01 12.55 115.2 13.09C115.4 13.63 115.99 13.92 116.52 13.74L117.15 13.53C116.99 13.89 116.69 14.18 116.29 14.31C115.64 14.52 115 14.75 114.37 15.01L112.66 15.68C112.27 15.83 111.85 15.81 111.49 15.64L112.08 15.41C112.61 15.2 112.87 14.6 112.66 14.07C112.45 13.54 111.86 13.27 111.33 13.48L110.73 13.72C110.88 13.35 111.17 13.04 111.57 12.89H111.6ZM100.29 17.71L101.99 16.94L103.89 16.08C104.28 15.9 104.7 15.91 105.07 16.06L104.46 16.34C103.94 16.58 103.7 17.19 103.94 17.71C104.17 18.23 104.78 18.47 105.3 18.23L105.9 17.96C105.77 18.33 105.49 18.65 105.11 18.83L103.25 19.67L101.57 20.43C101.19 20.6 100.76 20.6 100.39 20.45L100.97 20.19C101.48 19.96 101.71 19.35 101.47 18.83C101.23 18.31 100.61 18.08 100.09 18.32L99.5 18.59C99.63 18.22 99.9 17.9 100.29 17.72V17.71ZM89.38 23.34L91 22.41C91.59 22.05 92.23 21.77 92.84 21.44C93.22 21.25 93.65 21.23 94.02 21.36L93.42 21.67C92.91 21.93 92.72 22.55 92.99 23.06C93.26 23.56 93.89 23.76 94.39 23.51L94.98 23.21C94.87 23.59 94.62 23.92 94.25 24.11C93.65 24.43 93.03 24.71 92.44 25.06L90.85 25.98C90.49 26.19 90.07 26.22 89.69 26.11L90.24 25.79C90.73 25.51 90.9 24.87 90.62 24.37C90.34 23.87 89.71 23.7 89.22 23.98L88.66 24.3C88.76 23.91 89 23.57 89.37 23.35L89.38 23.34ZM78.88 29.73L80.45 28.72L82.2 27.6C82.56 27.37 82.98 27.31 83.36 27.41L82.8 27.77C82.32 28.08 82.17 28.72 82.48 29.21C82.79 29.7 83.42 29.84 83.9 29.53L84.46 29.17C84.38 29.56 84.16 29.92 83.81 30.14L82.09 31.24L80.54 32.23C80.19 32.46 79.77 32.51 79.38 32.42L79.92 32.08C80.4 31.78 80.53 31.14 80.21 30.66C79.9 30.18 79.25 30.04 78.77 30.35L78.23 30.7C78.3 30.31 78.53 29.96 78.89 29.72L78.88 29.73ZM68.88 36.86L70.35 35.7C70.9 35.28 71.48 34.89 72.04 34.49C72.39 34.24 72.81 34.16 73.2 34.24L72.65 34.63C72.18 34.96 72.08 35.6 72.42 36.06C72.76 36.52 73.41 36.63 73.87 36.3L74.41 35.92C74.36 36.31 74.15 36.67 73.81 36.92C73.26 37.32 72.69 37.7 72.15 38.11L70.7 39.25C70.37 39.51 69.96 39.6 69.57 39.54L70.07 39.15C70.51 38.8 70.59 38.15 70.25 37.69C69.9 37.23 69.26 37.15 68.81 37.51L68.3 37.91C68.34 37.51 68.53 37.13 68.87 36.87L68.88 36.86ZM59.4 44.67L60.81 43.45L62.38 42.09C62.7 41.81 63.11 41.69 63.5 41.74L62.99 42.18C62.56 42.56 62.51 43.21 62.88 43.65C63.25 44.08 63.9 44.14 64.33 43.77L64.83 43.34C64.81 43.74 64.64 44.12 64.32 44.4L62.78 45.74L61.39 46.94C61.07 47.21 60.67 47.33 60.27 47.29L60.75 46.87C61.18 46.5 61.22 45.85 60.84 45.42C60.46 44.99 59.81 44.95 59.37 45.32L58.88 45.74C58.9 45.35 59.07 44.96 59.39 44.68L59.4 44.67ZM50.5 53.14L51.79 51.79L53.29 50.35C53.6 50.05 54 49.92 54.4 49.93L53.91 50.39C53.5 50.79 53.48 51.44 53.89 51.84C54.29 52.25 54.95 52.26 55.36 51.87L55.84 51.41C55.84 51.8 55.69 52.19 55.39 52.48L53.91 53.89L52.64 55.22C52.35 55.52 51.96 55.67 51.57 55.67L52.01 55.21C52.4 54.8 52.39 54.14 51.98 53.74C51.57 53.34 50.92 53.35 50.53 53.76L50.08 54.23C50.06 53.83 50.2 53.43 50.5 53.12V53.14ZM42.23 62.22L43.45 60.81L44.81 59.24C45.09 58.92 45.48 58.74 45.87 58.73L45.43 59.24C45.05 59.67 45.1 60.33 45.53 60.71C45.96 61.09 46.61 61.05 46.98 60.62L47.41 60.12C47.45 60.52 47.33 60.92 47.06 61.24L45.72 62.78L44.52 64.17C44.25 64.49 43.86 64.66 43.46 64.68L43.88 64.2C44.25 63.77 44.2 63.13 43.76 62.75C43.33 62.38 42.67 62.43 42.29 62.86L41.87 63.35C41.83 62.96 41.95 62.55 42.23 62.23V62.22ZM34.62 71.86C34.98 71.35 35.33 70.84 35.71 70.34L36.99 68.7C37.25 68.36 37.64 68.17 38.03 68.13L37.62 68.66C37.27 69.11 37.35 69.76 37.8 70.1C38.26 70.45 38.91 70.37 39.26 69.92L39.67 69.4C39.73 69.79 39.64 70.2 39.38 70.53L38.12 72.14C37.75 72.63 37.41 73.14 37.05 73.63C36.81 73.97 36.44 74.18 36.05 74.23L36.42 73.71C36.75 73.25 36.64 72.6 36.18 72.26C35.72 71.92 35.08 72.02 34.75 72.49L34.38 73.02C34.31 72.63 34.38 72.21 34.63 71.86H34.62ZM27.72 82.02L28.73 80.45L29.85 78.7C30.08 78.34 30.44 78.11 30.82 78.04L30.46 78.6C30.15 79.08 30.29 79.73 30.77 80.04C31.25 80.35 31.88 80.22 32.19 79.75L32.55 79.19C32.64 79.58 32.59 80 32.36 80.35L31.26 82.07L30.27 83.62C30.04 83.97 29.69 84.2 29.3 84.27L29.64 83.73C29.94 83.25 29.8 82.62 29.32 82.31C28.84 82 28.19 82.15 27.89 82.63L27.54 83.17C27.44 82.79 27.5 82.37 27.73 82.01L27.72 82.02ZM23.46 89.19C23.67 88.82 24.02 88.57 24.41 88.48L24.08 89.06C23.79 89.56 23.97 90.19 24.47 90.46C24.97 90.74 25.6 90.57 25.89 90.08L26.22 89.51C26.33 89.89 26.3 90.3 26.09 90.67L25.07 92.44C24.75 92.96 24.5 93.52 24.21 94.06C24.02 94.43 23.69 94.69 23.31 94.8L23.6 94.23C23.86 93.73 23.66 93.1 23.15 92.83C22.65 92.56 22.03 92.75 21.76 93.26L21.47 93.83C21.34 93.45 21.36 93.03 21.55 92.64C21.84 92.09 22.1 91.52 22.43 90.99L23.47 89.19H23.46ZM17.8 100.09C17.98 99.7 18.3 99.43 18.67 99.3L18.39 99.91C18.15 100.43 18.39 101.05 18.9 101.29C19.42 101.53 20.03 101.31 20.26 100.8L20.53 100.2C20.68 100.57 20.68 100.99 20.51 101.38L19.67 103.24L18.91 104.92C18.74 105.3 18.42 105.58 18.04 105.71L18.3 105.13C18.53 104.62 18.3 104.01 17.78 103.77C17.26 103.53 16.64 103.77 16.41 104.29L16.14 104.88C15.99 104.52 15.99 104.09 16.16 103.7L16.93 101.99L17.79 100.09H17.8ZM12.98 111.39C13.14 110.99 13.45 110.7 13.81 110.55L13.56 111.17C13.35 111.7 13.61 112.3 14.15 112.5C14.69 112.7 15.29 112.44 15.49 111.92L15.73 111.3C15.9 111.66 15.93 112.07 15.77 112.47L15.02 114.37C14.79 114.94 14.57 115.51 14.38 116.09C14.25 116.49 13.95 116.79 13.6 116.95L13.8 116.35C13.98 115.82 13.69 115.22 13.15 115.03C12.61 114.83 12.03 115.11 11.84 115.66L11.63 116.27C11.45 115.92 11.4 115.49 11.54 115.08C11.73 114.49 11.95 113.9 12.19 113.33L12.95 111.39H12.98ZM8.93 122.99C9.05 122.58 9.32 122.26 9.69 122.09C9.62 122.3 9.55 122.51 9.49 122.73C9.33 123.28 9.65 123.86 10.2 124.03C10.75 124.2 11.32 123.89 11.47 123.34C11.53 123.13 11.6 122.92 11.67 122.71C11.85 123.05 11.92 123.47 11.81 123.87L11.25 125.84L10.75 127.61C10.64 128.01 10.36 128.33 10.01 128.52L10.18 127.91C10.33 127.37 10.01 126.8 9.46 126.64C8.91 126.48 8.34 126.8 8.18 127.35L8 127.97C7.8 127.63 7.73 127.21 7.85 126.8L8.36 125L8.93 123V122.99ZM4.9 138.72L5.32 136.9L5.79 134.87C5.89 134.45 6.15 134.12 6.49 133.92L6.34 134.57C6.21 135.13 6.56 135.68 7.12 135.81C7.68 135.94 8.23 135.59 8.36 135.04L8.51 134.39C8.73 134.72 8.82 135.13 8.72 135.54L8.26 137.53L7.85 139.32C7.77 139.73 7.53 140.07 7.2 140.28L7.31 139.65C7.4 139.09 7.08 138.56 6.51 138.44C5.96 138.32 5.37 138.68 5.28 139.24L5.17 139.88C4.94 139.55 4.83 139.14 4.91 138.72H4.9ZM2.92 150.84L3.16 148.98C3.26 148.29 3.32 147.6 3.44 146.92C3.51 146.5 3.76 146.15 4.09 145.92L3.97 146.58C3.86 147.14 4.25 147.67 4.83 147.76C5.39 147.84 5.91 147.46 6.02 146.9L6.14 146.25C6.37 146.56 6.49 146.96 6.41 147.38C6.29 148.05 6.23 148.73 6.14 149.4L5.91 151.22C5.86 151.64 5.63 151.99 5.31 152.22L5.39 151.59C5.46 151.03 5.06 150.51 4.49 150.44C3.92 150.37 3.4 150.76 3.33 151.33L3.25 151.97C3 151.66 2.87 151.26 2.92 150.83V150.84ZM1.73 163.07L1.87 161.2L2.03 159.13C2.06 158.7 2.27 158.33 2.58 158.09L2.53 158.76C2.49 159.33 2.91 159.83 3.48 159.88C4.05 159.92 4.55 159.5 4.59 158.94L4.64 158.28C4.9 158.57 5.06 158.97 5.02 159.39L4.86 161.43L4.72 163.26C4.69 163.68 4.48 164.05 4.17 164.3L4.22 163.66C4.26 163.1 3.83 162.61 3.26 162.57C2.69 162.53 2.19 162.97 2.15 163.54L2.1 164.18C1.84 163.89 1.68 163.5 1.72 163.07H1.73ZM1.91 175.78L1.93 176.43C1.64 176.16 1.45 175.78 1.44 175.35L1.39 173.48L1.44 171.4C1.45 170.97 1.64 170.59 1.93 170.32L1.91 170.99C1.9 171.56 2.35 172.03 2.92 172.03C3.49 172.03 3.97 171.58 3.98 171.01L4 170.35C4.28 170.63 4.45 171.01 4.44 171.43L4.39 173.47L4.44 175.31C4.45 175.73 4.28 176.11 4 176.39L3.98 175.75C3.97 175.19 3.49 174.73 2.92 174.73C2.35 174.73 1.9 175.2 1.91 175.77V175.78ZM2.51 188.02L2.56 188.66C2.25 188.41 2.05 188.04 2.01 187.62L1.87 185.75L1.71 183.68C1.68 183.25 1.83 182.86 2.09 182.57L2.14 183.24C2.18 183.81 2.68 184.25 3.25 184.21C3.82 184.17 4.25 183.69 4.21 183.12L4.16 182.46C4.47 182.71 4.67 183.08 4.71 183.5L4.87 185.54L5.01 187.37C5.04 187.79 4.89 188.18 4.63 188.48L4.58 187.84C4.54 187.28 4.04 186.86 3.47 186.9C2.9 186.94 2.47 187.44 2.52 188.01L2.51 188.02ZM4.8 199.01C4.24 199.09 3.82 199.62 3.94 200.19L4.05 200.83C3.72 200.61 3.47 200.25 3.4 199.83L3.16 197.98L2.9 195.92C2.85 195.5 2.98 195.09 3.23 194.78L3.31 195.45C3.38 196.02 3.9 196.42 4.47 196.34C5.04 196.26 5.44 195.75 5.37 195.19L5.29 194.53C5.61 194.76 5.83 195.12 5.89 195.53L6.15 197.56L6.39 199.38C6.46 199.79 6.35 200.19 6.12 200.51L6.01 199.88C5.9 199.33 5.39 198.94 4.83 199.02L4.8 199.01ZM7.07 210.97C6.51 211.09 6.16 211.65 6.29 212.21L6.44 212.84C6.1 212.64 5.84 212.3 5.74 211.89L5.32 210.07L4.86 208.04C4.78 207.62 4.89 207.2 5.13 206.88L5.25 207.54C5.34 208.11 5.91 208.46 6.47 208.34C7.03 208.22 7.37 207.68 7.28 207.13L7.16 206.48C7.49 206.69 7.73 207.03 7.8 207.44L8.25 209.43L8.66 211.22C8.75 211.63 8.66 212.04 8.45 212.37L8.31 211.75C8.18 211.2 7.63 210.85 7.07 210.98V210.97ZM10.15 222.75C9.6 222.91 9.28 223.49 9.44 224.05C9.5 224.26 9.55 224.47 9.62 224.67C9.26 224.5 8.99 224.17 8.87 223.76L8.36 221.96L7.79 219.96C7.67 219.55 7.74 219.13 7.94 218.79L8.12 219.43C8.28 219.98 8.85 220.3 9.4 220.14C9.95 219.98 10.27 219.42 10.12 218.87L9.94 218.23C10.29 218.41 10.57 218.73 10.68 219.13L11.24 221.1L11.74 222.87C11.86 223.27 11.78 223.69 11.59 224.04C11.52 223.84 11.47 223.63 11.41 223.43C11.26 222.89 10.69 222.58 10.14 222.74L10.15 222.75ZM15.66 235.45L15.43 234.86C15.22 234.33 14.62 234.07 14.09 234.28C13.56 234.48 13.29 235.08 13.5 235.61L13.74 236.21C13.37 236.06 13.06 235.77 12.91 235.37L12.22 233.63C11.96 232.99 11.72 232.34 11.5 231.68C11.36 231.27 11.41 230.85 11.59 230.49L11.8 231.13C11.98 231.67 12.57 231.95 13.11 231.76C13.65 231.56 13.94 230.97 13.76 230.44L13.55 229.81C13.91 229.97 14.2 230.27 14.33 230.67C14.54 231.32 14.77 231.96 15.03 232.59L15.7 234.3C15.85 234.69 15.83 235.11 15.66 235.47V235.45ZM20.46 246.56L20.2 245.98C19.97 245.47 19.36 245.24 18.84 245.48C18.32 245.72 18.09 246.34 18.33 246.86L18.6 247.45C18.23 247.32 17.91 247.05 17.73 246.66L16.96 244.96L16.1 243.06C15.92 242.67 15.93 242.25 16.08 241.88L16.36 242.49C16.6 243.01 17.21 243.25 17.73 243.01C18.25 242.77 18.49 242.17 18.25 241.65L17.98 241.05C18.35 241.18 18.67 241.46 18.85 241.84L19.69 243.7L20.45 245.38C20.62 245.76 20.62 246.19 20.47 246.56H20.46ZM26.1 257.27L25.78 256.72C25.5 256.23 24.86 256.06 24.36 256.34C23.86 256.62 23.69 257.25 23.97 257.74L24.29 258.3C23.9 258.2 23.56 257.96 23.34 257.59L22.41 255.97C22.05 255.38 21.77 254.74 21.44 254.13C21.25 253.75 21.23 253.32 21.36 252.95L21.67 253.55C21.93 254.06 22.55 254.25 23.06 253.98C23.56 253.71 23.76 253.08 23.51 252.58L23.21 251.99C23.59 252.1 23.92 252.35 24.11 252.72C24.43 253.32 24.71 253.94 25.06 254.53L25.98 256.12C26.19 256.48 26.22 256.9 26.11 257.28L26.1 257.27ZM32.44 267.58L32.1 267.04C31.8 266.56 31.16 266.43 30.68 266.75C30.2 267.06 30.06 267.71 30.37 268.19L30.72 268.73C30.33 268.66 29.98 268.43 29.75 268.07L28.74 266.49L27.62 264.74C27.39 264.38 27.33 263.96 27.43 263.58L27.79 264.14C28.1 264.62 28.74 264.77 29.23 264.46C29.72 264.15 29.86 263.52 29.55 263.04L29.19 262.48C29.58 262.56 29.94 262.78 30.16 263.13L31.26 264.85L32.25 266.4C32.48 266.75 32.53 267.17 32.44 267.56V267.58ZM39.54 277.38L39.15 276.88C38.8 276.44 38.15 276.36 37.69 276.7C37.23 277.05 37.15 277.69 37.51 278.14L37.91 278.65C37.51 278.61 37.13 278.42 36.87 278.08L35.71 276.61C35.29 276.06 34.9 275.48 34.5 274.92C34.25 274.57 34.17 274.15 34.25 273.76L34.64 274.31C34.97 274.78 35.61 274.88 36.07 274.54C36.53 274.2 36.64 273.55 36.31 273.09L35.93 272.55C36.32 272.6 36.68 272.81 36.93 273.15C37.33 273.7 37.71 274.27 38.12 274.81L39.26 276.26C39.52 276.59 39.61 277 39.55 277.39L39.54 277.38ZM46.87 286.2C46.5 285.77 45.85 285.73 45.42 286.11C44.99 286.49 44.95 287.14 45.32 287.58L45.74 288.07C45.35 288.05 44.96 287.88 44.68 287.56L43.45 286.15L42.09 284.58C41.81 284.26 41.69 283.85 41.74 283.46L42.18 283.97C42.56 284.4 43.21 284.45 43.65 284.08C44.09 283.71 44.14 283.06 43.77 282.63L43.34 282.13C43.74 282.15 44.12 282.32 44.4 282.64L45.74 284.18L46.94 285.57C47.21 285.89 47.33 286.29 47.29 286.69L46.87 286.21V286.2ZM55.24 294.94C54.83 294.55 54.17 294.56 53.77 294.97C53.37 295.38 53.38 296.03 53.79 296.42L54.26 296.87C53.86 296.89 53.46 296.75 53.15 296.45L51.8 295.16L50.36 293.66C50.07 293.35 49.93 292.95 49.94 292.55L50.4 293.04C50.8 293.45 51.45 293.47 51.85 293.06C52.26 292.66 52.27 292 51.88 291.59L51.42 291.11C51.81 291.11 52.2 291.26 52.49 291.56L53.9 293.04L55.23 294.31C55.53 294.6 55.68 294.99 55.68 295.38L55.22 294.94H55.24ZM64.2 303.08C63.77 302.71 63.13 302.76 62.75 303.2C62.37 303.64 62.43 304.29 62.86 304.67L63.35 305.09C62.96 305.13 62.55 305.01 62.23 304.73L60.82 303.5L59.25 302.14C58.93 301.86 58.75 301.47 58.74 301.08L59.25 301.52C59.68 301.9 60.34 301.85 60.72 301.42C61.1 300.99 61.06 300.34 60.63 299.97L60.13 299.54C60.53 299.5 60.93 299.62 61.25 299.89L62.79 301.23L64.18 302.43C64.5 302.7 64.67 303.09 64.69 303.49L64.21 303.07L64.2 303.08ZM73.72 310.55C73.26 310.22 72.61 310.33 72.27 310.79C71.93 311.25 72.03 311.89 72.5 312.22L73.03 312.59C72.64 312.66 72.22 312.59 71.87 312.34C71.36 311.97 70.85 311.62 70.35 311.25L68.71 309.97C68.37 309.71 68.18 309.32 68.14 308.93L68.67 309.34C69.12 309.69 69.77 309.61 70.11 309.16C70.45 308.71 70.38 308.05 69.93 307.7L69.41 307.29C69.8 307.23 70.21 307.32 70.54 307.58L72.15 308.84C72.64 309.21 73.15 309.55 73.64 309.91C73.98 310.15 74.19 310.52 74.24 310.91L73.72 310.54V310.55ZM83.75 317.33C83.27 317.03 82.64 317.17 82.33 317.65C82.02 318.13 82.17 318.78 82.65 319.08L83.19 319.43C82.81 319.53 82.39 319.47 82.03 319.24L80.45 318.23L78.7 317.11C78.34 316.88 78.11 316.52 78.04 316.14L78.6 316.5C79.08 316.81 79.73 316.67 80.04 316.19C80.35 315.71 80.22 315.08 79.75 314.77L79.19 314.41C79.58 314.32 80 314.37 80.35 314.6L82.07 315.7L83.62 316.69C83.97 316.92 84.2 317.27 84.27 317.66L83.73 317.32L83.75 317.33ZM94.23 323.38C93.73 323.12 93.1 323.32 92.83 323.83C92.56 324.33 92.75 324.95 93.26 325.22L93.83 325.51C93.45 325.64 93.03 325.62 92.64 325.43C92.09 325.14 91.52 324.88 90.99 324.55L89.19 323.51C88.82 323.3 88.57 322.95 88.48 322.56L89.06 322.89C89.56 323.18 90.19 323 90.46 322.5C90.73 322 90.57 321.37 90.08 321.08L89.51 320.75C89.89 320.64 90.3 320.67 90.67 320.88L92.44 321.9C92.96 322.22 93.52 322.47 94.06 322.76C94.43 322.95 94.69 323.28 94.8 323.66L94.23 323.37V323.38ZM105.13 328.65C104.62 328.42 104.01 328.65 103.77 329.17C103.53 329.69 103.77 330.31 104.29 330.54L104.88 330.81C104.52 330.96 104.09 330.96 103.7 330.79L102 330.02L100.1 329.16C99.71 328.98 99.44 328.66 99.31 328.29L99.92 328.57C100.44 328.81 101.06 328.57 101.3 328.06C101.54 327.54 101.32 326.93 100.81 326.7L100.21 326.43C100.58 326.28 101 326.28 101.39 326.45L103.25 327.29L104.93 328.05C105.31 328.22 105.59 328.54 105.72 328.92L105.14 328.66L105.13 328.65ZM116.36 333.15C115.83 332.97 115.23 333.26 115.04 333.8C114.85 334.34 115.12 334.92 115.67 335.11L116.28 335.32C115.93 335.5 115.5 335.55 115.09 335.41C114.5 335.22 113.91 335 113.34 334.76L111.41 334C111.01 333.84 110.72 333.53 110.57 333.17L111.19 333.42C111.72 333.63 112.32 333.37 112.52 332.83C112.72 332.3 112.46 331.69 111.94 331.49L111.32 331.25C111.68 331.08 112.09 331.05 112.48 331.21L114.38 331.96C114.95 332.19 115.52 332.41 116.1 332.6C116.5 332.73 116.8 333.03 116.96 333.38L116.36 333.18V333.15ZM127.35 338.78L127.97 338.96C127.63 339.16 127.21 339.23 126.8 339.11L125 338.6L123 338.03C122.59 337.91 122.27 337.64 122.1 337.27C122.31 337.34 122.52 337.41 122.74 337.47C123.29 337.63 123.87 337.31 124.04 336.76C124.21 336.21 123.9 335.64 123.35 335.49C123.14 335.43 122.93 335.36 122.72 335.29C123.06 335.11 123.48 335.04 123.88 335.15L125.85 335.71L127.62 336.21C128.02 336.32 128.34 336.6 128.53 336.95L127.92 336.78C127.38 336.63 126.81 336.95 126.65 337.5C126.49 338.05 126.81 338.62 127.36 338.78H127.35ZM139.25 341.68L139.89 341.79C139.56 342.02 139.15 342.13 138.73 342.05L136.91 341.63L134.88 341.16C134.46 341.06 134.13 340.8 133.93 340.46L134.58 340.61C135.14 340.74 135.69 340.39 135.82 339.83C135.95 339.27 135.6 338.72 135.05 338.59L134.4 338.44C134.73 338.22 135.14 338.13 135.55 338.23L137.54 338.69L139.33 339.1C139.74 339.18 140.08 339.42 140.29 339.75L139.66 339.64C139.1 339.55 138.57 339.87 138.45 340.44C138.33 340.99 138.69 341.58 139.25 341.67V341.68ZM151.35 343.64L151.99 343.72C151.68 343.97 151.28 344.1 150.85 344.05L148.99 343.81C148.3 343.72 147.61 343.65 146.93 343.53C146.51 343.46 146.16 343.21 145.93 342.88L146.59 343C147.15 343.11 147.68 342.72 147.77 342.14C147.85 341.58 147.47 341.06 146.91 340.95L146.26 340.83C146.57 340.6 146.97 340.48 147.39 340.56C148.06 340.68 148.74 340.74 149.41 340.83L151.23 341.06C151.65 341.11 152 341.34 152.23 341.66L151.6 341.58C151.04 341.51 150.52 341.91 150.45 342.48C150.37 343.05 150.77 343.57 151.34 343.64H151.35ZM163.54 344.8L164.18 344.85C163.89 345.11 163.5 345.27 163.07 345.23L161.2 345.09L159.13 344.93C158.7 344.9 158.33 344.69 158.09 344.38L158.76 344.43C159.33 344.47 159.83 344.05 159.87 343.48C159.91 342.91 159.49 342.41 158.93 342.37L158.27 342.32C158.56 342.06 158.96 341.9 159.38 341.94L161.42 342.1L163.25 342.24C163.67 342.27 164.04 342.48 164.29 342.79L163.65 342.74C163.09 342.7 162.6 343.13 162.56 343.7C162.52 344.27 162.96 344.77 163.53 344.81L163.54 344.8ZM175.36 345.53L173.49 345.58L171.41 345.53C170.98 345.52 170.6 345.33 170.33 345.04L171 345.06C171.57 345.07 172.04 344.62 172.04 344.05C172.04 343.48 171.59 343 171.02 342.99L170.36 342.97C170.63 342.69 171.02 342.52 171.44 342.53L173.48 342.58L175.32 342.53C175.74 342.52 176.12 342.69 176.4 342.97L175.76 342.99C175.2 343 174.74 343.48 174.74 344.05C174.74 344.62 175.21 345.07 175.78 345.06L176.43 345.04C176.16 345.33 175.78 345.52 175.35 345.53H175.36ZM187.63 344.95L185.76 345.09L183.69 345.25C183.26 345.28 182.87 345.13 182.58 344.87L183.25 344.82C183.82 344.78 184.26 344.28 184.22 343.71C184.18 343.14 183.7 342.71 183.13 342.75L182.47 342.8C182.72 342.49 183.09 342.29 183.51 342.25L185.55 342.09L187.38 341.95C187.8 341.92 188.19 342.07 188.49 342.33L187.85 342.38C187.29 342.42 186.87 342.92 186.91 343.49C186.95 344.06 187.45 344.49 188.02 344.44L188.66 344.39C188.41 344.7 188.04 344.9 187.62 344.94L187.63 344.95ZM199.83 343.57L197.98 343.81L195.92 344.07C195.5 344.12 195.09 343.99 194.78 343.74L195.45 343.66C196.02 343.59 196.42 343.07 196.34 342.5C196.26 341.93 195.75 341.53 195.19 341.6L194.53 341.68C194.76 341.36 195.12 341.14 195.53 341.08L197.56 340.82L199.38 340.58C199.79 340.51 200.19 340.62 200.51 340.85L199.88 340.96C199.33 341.07 198.94 341.58 199.02 342.14C199.1 342.7 199.64 343.12 200.2 343L200.84 342.89C200.62 343.22 200.26 343.47 199.84 343.54L199.83 343.57ZM211.89 341.22L210.07 341.64L208.04 342.1C207.62 342.18 207.2 342.07 206.88 341.83L207.54 341.71C208.11 341.62 208.46 341.05 208.34 340.49C208.22 339.93 207.68 339.59 207.13 339.68L206.48 339.8C206.69 339.47 207.03 339.23 207.44 339.16L209.43 338.71L211.22 338.3C211.63 338.21 212.04 338.3 212.37 338.51L211.75 338.65C211.2 338.78 210.85 339.33 210.98 339.89C211.1 340.45 211.66 340.8 212.22 340.67L212.85 340.52C212.65 340.86 212.31 341.12 211.9 341.22H211.89ZM223.77 338.09L221.97 338.6L219.97 339.17C219.56 339.29 219.14 339.22 218.8 339.02L219.44 338.84C219.99 338.68 220.31 338.11 220.15 337.56C219.99 337.01 219.43 336.69 218.88 336.84L218.24 337.02C218.42 336.67 218.74 336.39 219.15 336.28L221.12 335.72L222.89 335.22C223.29 335.1 223.71 335.18 224.06 335.37C223.86 335.44 223.65 335.49 223.45 335.55C222.91 335.7 222.6 336.27 222.76 336.82C222.92 337.37 223.5 337.69 224.06 337.53C224.27 337.47 224.48 337.42 224.68 337.35C224.51 337.71 224.18 337.98 223.77 338.1V338.09ZM235.38 334.06L233.64 334.75C233 335.01 232.35 335.25 231.69 335.47C231.28 335.61 230.86 335.56 230.5 335.38L231.14 335.17C231.68 334.99 231.96 334.4 231.77 333.86C231.57 333.32 230.98 333.03 230.45 333.21L229.82 333.42C229.98 333.06 230.28 332.77 230.68 332.64C231.33 332.43 231.97 332.2 232.6 331.94L234.31 331.27C234.7 331.12 235.12 331.14 235.48 331.31L234.89 331.54C234.36 331.75 234.1 332.35 234.31 332.88C234.52 333.41 235.11 333.68 235.64 333.47L236.24 333.23C236.09 333.6 235.8 333.91 235.4 334.06H235.38ZM246.68 329.24L244.98 330.01L243.08 330.87C242.69 331.05 242.27 331.04 241.9 330.89L242.51 330.61C243.03 330.37 243.27 329.76 243.03 329.24C242.8 328.72 242.19 328.48 241.67 328.72L241.07 328.99C241.2 328.62 241.48 328.3 241.86 328.12L243.72 327.28L245.4 326.52C245.78 326.35 246.21 326.35 246.58 326.5L246 326.76C245.49 326.99 245.26 327.6 245.5 328.12C245.74 328.64 246.36 328.87 246.88 328.63L247.47 328.36C247.34 328.73 247.07 329.05 246.68 329.23V329.24ZM257.59 323.61L255.97 324.54C255.38 324.9 254.74 325.18 254.13 325.51C253.75 325.7 253.32 325.72 252.95 325.59L253.55 325.28C254.06 325.02 254.25 324.4 253.98 323.89C253.71 323.39 253.08 323.19 252.58 323.44L251.99 323.74C252.1 323.36 252.35 323.03 252.73 322.84C253.33 322.52 253.95 322.24 254.54 321.89L256.13 320.97C256.49 320.76 256.91 320.73 257.29 320.84L256.74 321.16C256.25 321.44 256.08 322.08 256.36 322.58C256.64 323.08 257.27 323.25 257.76 322.97L258.32 322.65C258.22 323.04 257.98 323.38 257.61 323.6L257.59 323.61ZM268.09 317.22L266.52 318.23L264.77 319.35C264.41 319.58 263.99 319.64 263.61 319.54L264.17 319.18C264.65 318.87 264.8 318.23 264.49 317.74C264.18 317.26 263.55 317.11 263.07 317.42L262.51 317.78C262.59 317.39 262.81 317.03 263.16 316.81L264.88 315.71L266.43 314.72C266.78 314.49 267.2 314.44 267.59 314.53L267.05 314.87C266.57 315.17 266.44 315.81 266.76 316.29C267.07 316.77 267.72 316.91 268.2 316.6L268.74 316.25C268.67 316.64 268.44 316.99 268.08 317.23L268.09 317.22ZM278.09 310.1L276.62 311.26C276.07 311.68 275.49 312.07 274.93 312.47C274.58 312.72 274.16 312.8 273.77 312.72L274.32 312.33C274.79 312 274.89 311.36 274.55 310.9C274.21 310.44 273.56 310.33 273.1 310.66L272.56 311.04C272.61 310.65 272.82 310.29 273.16 310.04C273.71 309.64 274.28 309.26 274.82 308.85L276.27 307.71C276.6 307.45 277.01 307.36 277.4 307.42L276.9 307.81C276.46 308.16 276.38 308.81 276.72 309.27C277.07 309.73 277.71 309.81 278.16 309.45L278.67 309.05C278.63 309.45 278.44 309.83 278.1 310.09L278.09 310.1ZM287.57 302.28L286.16 303.5L284.59 304.86C284.27 305.14 283.86 305.26 283.47 305.21L283.98 304.77C284.41 304.39 284.46 303.74 284.09 303.3C283.72 302.86 283.07 302.81 282.64 303.18L282.14 303.61C282.16 303.21 282.33 302.83 282.65 302.55L284.19 301.21L285.58 300.01C285.9 299.74 286.3 299.62 286.7 299.66L286.22 300.08C285.79 300.45 285.75 301.1 286.13 301.53C286.51 301.96 287.16 302 287.6 301.63L288.09 301.21C288.07 301.6 287.9 301.99 287.58 302.27L287.57 302.28ZM296.47 293.81L295.18 295.16L293.68 296.6C293.37 296.9 292.97 297.03 292.57 297.02L293.06 296.56C293.47 296.16 293.49 295.51 293.08 295.11C292.68 294.7 292.02 294.69 291.61 295.08L291.13 295.54C291.13 295.15 291.28 294.76 291.58 294.47L293.06 293.06L294.33 291.73C294.62 291.43 295.01 291.28 295.4 291.28L294.96 291.74C294.57 292.15 294.58 292.81 294.99 293.21C295.4 293.61 296.05 293.6 296.44 293.19L296.89 292.72C296.91 293.12 296.77 293.52 296.47 293.83V293.81ZM304.74 284.73L303.52 286.14L302.16 287.71C301.88 288.03 301.49 288.21 301.1 288.22L301.54 287.71C301.92 287.28 301.87 286.62 301.44 286.24C301.01 285.86 300.36 285.9 299.99 286.33L299.56 286.83C299.52 286.43 299.64 286.03 299.91 285.71L301.25 284.17L302.45 282.78C302.72 282.46 303.11 282.29 303.51 282.27L303.09 282.75C302.72 283.18 302.77 283.82 303.21 284.2C303.64 284.57 304.3 284.52 304.68 284.09L305.1 283.6C305.14 283.99 305.02 284.4 304.74 284.72V284.73ZM312.35 275.09C311.99 275.6 311.64 276.11 311.26 276.61L309.98 278.25C309.72 278.59 309.33 278.78 308.94 278.82L309.35 278.29C309.7 277.84 309.62 277.19 309.17 276.85C308.71 276.5 308.06 276.58 307.71 277.03L307.3 277.55C307.24 277.16 307.33 276.75 307.59 276.42L308.85 274.81C309.22 274.32 309.56 273.81 309.92 273.32C310.16 272.98 310.53 272.77 310.92 272.72L310.55 273.24C310.22 273.7 310.33 274.35 310.79 274.69C311.25 275.03 311.89 274.93 312.22 274.46L312.59 273.93C312.66 274.32 312.59 274.74 312.34 275.09H312.35ZM319.25 264.93L318.24 266.5L317.12 268.25C316.89 268.61 316.53 268.84 316.15 268.91L316.51 268.35C316.82 267.87 316.68 267.22 316.2 266.91C315.72 266.6 315.09 266.73 314.78 267.2L314.42 267.76C314.33 267.37 314.38 266.95 314.61 266.6L315.71 264.88L316.7 263.33C316.93 262.98 317.28 262.75 317.67 262.68L317.33 263.22C317.03 263.7 317.17 264.33 317.65 264.64C318.13 264.95 318.78 264.8 319.08 264.32L319.43 263.78C319.53 264.16 319.47 264.58 319.24 264.94L319.25 264.93ZM323.51 257.76C323.3 258.13 322.95 258.38 322.56 258.47L322.89 257.89C323.18 257.39 323 256.76 322.5 256.49C322 256.21 321.37 256.38 321.08 256.87L320.75 257.44C320.64 257.06 320.67 256.65 320.88 256.28L321.9 254.51C322.22 253.99 322.47 253.43 322.76 252.89C322.95 252.52 323.28 252.26 323.66 252.15L323.37 252.72C323.11 253.22 323.31 253.85 323.82 254.12C324.32 254.39 324.94 254.2 325.21 253.69L325.5 253.12C325.63 253.5 325.61 253.92 325.42 254.31C325.13 254.86 324.87 255.43 324.54 255.96L323.5 257.76H323.51ZM325.19 244.98C324.71 246.09 324.93 247.34 325.71 248.19L324.41 250.74C323.25 250.61 322.09 251.17 321.55 252.25C321.27 252.79 321.01 253.34 320.7 253.86L319.69 255.62C319.09 256.66 319.25 257.95 319.98 258.85L318.55 261.33C317.4 261.12 316.18 261.58 315.53 262.59L314.55 264.12L313.46 265.83C313.13 266.34 312.99 266.92 313.02 267.49C313.03 268.05 313.2 268.61 313.53 269.09L311.87 271.42C310.74 271.13 309.51 271.52 308.82 272.5C308.46 272.99 308.12 273.5 307.76 273.98L306.51 275.57C305.77 276.52 305.74 277.81 306.33 278.81L304.56 281.06C303.47 280.7 302.18 280.97 301.4 281.89L300.21 283.27L298.88 284.8C298.1 285.71 297.99 287.01 298.49 288.04L296.52 290.11C295.44 289.66 294.17 289.87 293.34 290.74L292.08 292.06L290.61 293.46C289.74 294.29 289.53 295.56 289.97 296.64L287.9 298.61C286.88 298.11 285.57 298.2 284.66 298.99L283.28 300.18L281.75 301.51C280.84 302.3 280.56 303.58 280.91 304.67L278.66 306.44C277.66 305.84 276.37 305.87 275.42 306.61L273.99 307.74C273.45 308.15 272.89 308.53 272.34 308.92C271.36 309.62 270.97 310.85 271.26 311.98L268.93 313.64C267.99 312.99 266.69 312.91 265.67 313.56L264.14 314.54L262.43 315.63C261.41 316.27 260.96 317.51 261.16 318.64L258.68 320.07C257.77 319.34 256.49 319.18 255.45 319.78L253.87 320.69C253.29 321.04 252.67 321.32 252.08 321.64C251.01 322.19 250.45 323.35 250.57 324.51L248.02 325.81C247.18 325.03 245.92 324.8 244.81 325.28L243.15 326.03L241.3 326.86C240.2 327.36 239.57 328.49 239.62 329.67L236.96 330.73C236.17 329.87 234.92 329.53 233.8 329.97L232.1 330.64C231.48 330.9 230.84 331.13 230.2 331.34C229.06 331.73 228.34 332.79 228.29 333.95L225.58 334.87C224.85 333.95 223.65 333.6 222.49 333.9L220.74 334.4L218.79 334.95C217.63 335.28 216.84 336.31 216.72 337.48C215.81 337.76 214.87 337.94 213.94 338.17C213.28 337.21 212.09 336.68 210.92 336.95L209.14 337.36L207.16 337.81C205.97 338.02 205.11 338.96 204.9 340.11L202.08 340.61C201.49 339.61 200.35 339.03 199.16 339.24L197.35 339.48L195.34 339.74C194.14 339.89 193.21 340.79 192.93 341.93C191.98 342.03 191.04 342.21 190.09 342.25C189.57 341.2 188.47 340.5 187.27 340.59L185.45 340.73L183.43 340.88C182.23 340.99 181.23 341.78 180.87 342.88L178.01 342.95C177.57 341.87 176.52 341.12 175.31 341.15L173.49 341.2L171.46 341.15C170.26 341.12 169.21 341.87 168.76 342.95L165.9 342.88C165.53 341.79 164.54 340.99 163.34 340.87L161.52 340.73L159.5 340.58C158.3 340.49 157.2 341.18 156.68 342.23C155.73 342.16 154.79 342 153.84 341.9C153.55 340.77 152.62 339.87 151.43 339.71L149.62 339.48C148.95 339.39 148.28 339.33 147.61 339.21C146.42 339 145.28 339.58 144.69 340.58L141.87 340.08C141.66 338.94 140.79 338 139.61 337.78L137.83 337.37L135.86 336.91C134.69 336.64 133.5 337.16 132.84 338.12C131.91 337.91 130.98 337.7 130.07 337.42C129.95 336.25 129.16 335.22 128 334.89L126.25 334.39L124.3 333.84C123.14 333.52 121.94 333.88 121.21 334.8L118.5 333.88C118.46 332.72 117.74 331.65 116.6 331.27C116.02 331.09 115.45 330.87 114.89 330.64L113.01 329.9C111.89 329.46 110.64 329.8 109.85 330.66C108.97 330.3 108.07 329.98 107.19 329.6C107.24 328.43 106.61 327.29 105.51 326.79L103.85 326.04L102 325.21C100.89 324.73 99.64 324.95 98.79 325.73L96.24 324.43C96.37 323.27 95.81 322.11 94.73 321.57C94.19 321.29 93.64 321.03 93.12 320.72L91.36 319.71C90.32 319.11 89.03 319.27 88.13 320L85.65 318.57C85.86 317.42 85.4 316.2 84.39 315.55L82.86 314.57L81.15 313.48C80.64 313.15 80.06 313.01 79.49 313.04C78.93 313.05 78.37 313.22 77.89 313.55L75.56 311.89C75.85 310.76 75.46 309.53 74.48 308.84C73.99 308.48 73.48 308.14 73 307.78L71.41 306.53C70.46 305.79 69.17 305.76 68.17 306.35L65.92 304.58C66.28 303.49 66.01 302.2 65.09 301.42L63.71 300.23L62.18 298.9C61.27 298.12 59.97 298.01 58.94 298.51L56.87 296.54C57.32 295.46 57.11 294.19 56.24 293.36L54.92 292.1L53.52 290.63C52.69 289.76 51.42 289.55 50.34 289.99L48.37 287.92C48.87 286.9 48.78 285.59 47.99 284.68L46.8 283.3L45.47 281.77C44.68 280.86 43.4 280.58 42.32 280.93L40.55 278.68C41.15 277.68 41.12 276.39 40.38 275.44L39.25 274.01C38.84 273.47 38.46 272.91 38.07 272.36C37.37 271.38 36.14 270.99 35.01 271.28L33.35 268.95C34 268.01 34.08 266.71 33.43 265.69L32.45 264.15L31.36 262.44C30.72 261.42 29.48 260.97 28.35 261.17L26.92 258.69C27.65 257.78 27.81 256.5 27.21 255.46L26.3 253.88C25.95 253.3 25.67 252.68 25.35 252.09C24.8 251.02 23.64 250.46 22.48 250.58L21.18 248.03C21.96 247.19 22.19 245.93 21.71 244.82L20.96 243.16L20.13 241.31C19.63 240.21 18.5 239.58 17.32 239.63L16.26 236.97C17.12 236.18 17.46 234.93 17.02 233.81L16.35 232.11C16.09 231.49 15.86 230.85 15.65 230.21C15.26 229.07 14.2 228.35 13.04 228.3L12.12 225.59C13.04 224.86 13.39 223.66 13.09 222.5L12.59 220.75L12.04 218.8C11.71 217.64 10.68 216.85 9.51 216.73C9.23 215.82 9.05 214.88 8.82 213.95C9.78 213.29 10.31 212.1 10.04 210.93L9.63 209.15L9.18 207.17C8.97 205.98 8.03 205.12 6.88 204.91L6.38 202.09C7.38 201.5 7.96 200.36 7.75 199.17L7.51 197.36L7.25 195.35C7.1 194.15 6.2 193.22 5.06 192.94C4.95 191.99 4.78 191.05 4.74 190.1C5.79 189.58 6.49 188.48 6.4 187.28L6.26 185.46L6.11 183.44C6 182.24 5.21 181.24 4.11 180.88L4.04 178.02C5.12 177.58 5.87 176.53 5.84 175.32L5.79 173.5L5.84 171.47C5.87 170.27 5.12 169.22 4.04 168.77L4.11 165.91C5.2 165.54 6 164.55 6.12 163.35L6.26 161.53L6.41 159.51C6.5 158.31 5.81 157.21 4.75 156.69C4.82 155.74 4.98 154.8 5.08 153.85C6.21 153.56 7.11 152.63 7.27 151.44L7.5 149.63C7.59 148.96 7.65 148.29 7.77 147.62C7.98 146.43 7.4 145.29 6.4 144.7L6.9 141.88C8.04 141.67 8.98 140.8 9.2 139.62L9.61 137.84L10.07 135.87C10.34 134.7 9.82 133.51 8.85 132.85C9.06 131.92 9.27 130.99 9.55 130.08C10.72 129.96 11.75 129.17 12.08 128.01L12.58 126.26L13.13 124.31C13.45 123.15 13.09 121.95 12.17 121.22L13.09 118.51C14.25 118.47 15.32 117.75 15.7 116.61C15.88 116.03 16.1 115.46 16.33 114.9L17.07 113.02C17.51 111.9 17.17 110.65 16.31 109.86C16.67 108.98 16.99 108.08 17.37 107.2C18.54 107.25 19.68 106.62 20.18 105.52L20.93 103.86L21.76 102.01C22.24 100.9 22.02 99.65 21.24 98.8L22.54 96.25C23.7 96.38 24.86 95.82 25.4 94.74C25.68 94.2 25.94 93.65 26.25 93.13L27.26 91.37C27.86 90.33 27.7 89.04 26.97 88.14L28.4 85.66C29.55 85.87 30.77 85.41 31.42 84.4L32.4 82.87L33.49 81.16C33.82 80.65 33.96 80.07 33.93 79.5C33.92 78.94 33.75 78.38 33.42 77.9L35.08 75.57C36.21 75.86 37.44 75.47 38.13 74.49C38.49 74 38.83 73.49 39.19 73.01L40.44 71.42C41.18 70.47 41.21 69.18 40.62 68.18L42.39 65.93C43.48 66.29 44.77 66.02 45.55 65.1L46.74 63.72L48.07 62.19C48.85 61.28 48.96 59.98 48.46 58.95L50.43 56.88C51.51 57.33 52.78 57.12 53.61 56.25L54.87 54.93L56.34 53.53C57.21 52.7 57.42 51.43 56.98 50.35L59.05 48.38C60.07 48.88 61.38 48.79 62.29 48L63.67 46.81L65.2 45.48C66.11 44.69 66.39 43.41 66.04 42.32L68.29 40.55C69.29 41.15 70.58 41.12 71.53 40.38L72.96 39.25C73.5 38.84 74.06 38.46 74.61 38.07C75.59 37.37 75.98 36.14 75.69 35.01L78.02 33.35C78.96 34 80.26 34.08 81.28 33.43L82.81 32.45L84.52 31.36C85.54 30.72 85.99 29.48 85.79 28.35L88.27 26.92C89.18 27.65 90.46 27.81 91.5 27.21L93.08 26.3C93.66 25.95 94.28 25.67 94.87 25.35C95.94 24.8 96.5 23.64 96.38 22.48L98.93 21.18C99.77 21.96 101.03 22.19 102.14 21.71L103.8 20.96L105.65 20.13C106.75 19.63 107.38 18.5 107.33 17.32L109.99 16.26C110.78 17.12 112.03 17.46 113.15 17.02L114.85 16.35C115.47 16.09 116.11 15.86 116.75 15.65C117.89 15.26 118.61 14.2 118.66 13.04L121.37 12.12C122.1 13.04 123.3 13.39 124.46 13.09L126.21 12.59L128.16 12.04C129.32 11.71 130.11 10.68 130.23 9.51C131.14 9.23 132.08 9.05 133.01 8.82C133.67 9.78 134.86 10.31 136.03 10.04L137.81 9.63L139.79 9.18C140.98 8.97 141.84 8.03 142.05 6.88L144.87 6.38C145.46 7.38 146.6 7.96 147.79 7.75L149.6 7.51L151.61 7.25C152.81 7.1 153.74 6.2 154.02 5.06C154.97 4.96 155.91 4.78 156.86 4.74C157.38 5.79 158.48 6.49 159.68 6.4L161.5 6.26L163.52 6.11C164.72 6 165.72 5.21 166.08 4.11L168.94 4.04C169.38 5.12 170.43 5.87 171.64 5.84L173.46 5.79L175.49 5.84C176.69 5.87 177.74 5.12 178.19 4.04L181.05 4.11C181.42 5.2 182.41 6 183.61 6.12L185.43 6.26L187.45 6.41C188.65 6.5 189.75 5.81 190.27 4.76C191.22 4.83 192.16 4.99 193.11 5.09C193.4 6.22 194.33 7.12 195.52 7.28L197.33 7.51C198 7.6 198.67 7.66 199.34 7.78C200.53 7.99 201.67 7.41 202.26 6.41L205.08 6.91C205.29 8.05 206.16 8.99 207.34 9.21L209.12 9.62L211.09 10.08C212.26 10.35 213.45 9.83 214.11 8.87C215.04 9.08 215.97 9.29 216.88 9.57C217 10.74 217.79 11.77 218.95 12.1L220.7 12.6L222.65 13.15C223.81 13.47 225.01 13.11 225.74 12.19L228.45 13.11C228.49 14.27 229.21 15.34 230.35 15.72C230.93 15.9 231.5 16.12 232.06 16.35L233.94 17.09C235.06 17.53 236.31 17.19 237.1 16.33C237.98 16.69 238.88 17.01 239.76 17.39C239.71 18.56 240.34 19.7 241.44 20.2L243.1 20.95L244.95 21.78C246.06 22.26 247.31 22.04 248.16 21.26L250.71 22.56C250.58 23.72 251.14 24.88 252.22 25.42C252.76 25.7 253.31 25.96 253.83 26.27L255.59 27.28C256.63 27.88 257.92 27.72 258.82 26.99L261.3 28.42C261.09 29.57 261.55 30.79 262.56 31.44L264.09 32.42L265.8 33.51C266.31 33.84 266.89 33.98 267.46 33.95C268.02 33.94 268.58 33.77 269.06 33.44L271.39 35.1C271.1 36.23 271.49 37.46 272.47 38.15C272.96 38.51 273.47 38.85 273.95 39.21L275.54 40.46C276.49 41.2 277.78 41.23 278.78 40.64L281.03 42.41C280.67 43.5 280.94 44.79 281.86 45.57L283.24 46.76L284.77 48.09C285.68 48.87 286.98 48.98 288.01 48.48L290.08 50.45C289.63 51.53 289.84 52.8 290.71 53.63L292.03 54.89L293.43 56.36C294.26 57.23 295.53 57.44 296.61 57L298.58 59.07C298.08 60.09 298.17 61.4 298.96 62.31L300.15 63.69L301.48 65.22C302.27 66.13 303.55 66.41 304.64 66.06L306.41 68.31C305.81 69.31 305.84 70.6 306.58 71.55L307.71 72.98C308.12 73.52 308.5 74.08 308.89 74.63C309.59 75.61 310.82 76 311.95 75.71L313.61 78.04C312.96 78.98 312.88 80.28 313.53 81.3L314.51 82.84L315.6 84.55C316.24 85.57 317.48 86.02 318.61 85.82L320.04 88.3C319.31 89.21 319.15 90.49 319.75 91.53L320.66 93.11C321.01 93.69 321.29 94.31 321.61 94.9C322.16 95.97 323.32 96.53 324.48 96.41L325.78 98.96C325 99.8 324.77 101.06 325.25 102.17L326 103.83L326.83 105.68C327.33 106.78 328.46 107.41 329.64 107.36L330.7 110.02C329.84 110.81 329.5 112.06 329.94 113.18L330.61 114.88C330.87 115.5 331.1 116.14 331.31 116.78C331.7 117.92 332.76 118.64 333.92 118.69L334.84 121.4C333.92 122.13 333.57 123.33 333.87 124.49L334.37 126.24L334.92 128.19C335.25 129.35 336.28 130.14 337.45 130.26C337.73 131.17 337.91 132.11 338.14 133.04C337.18 133.7 336.65 134.89 336.92 136.06L337.33 137.84L337.78 139.82C337.99 141.01 338.93 141.87 340.08 142.08L340.58 144.9C339.58 145.49 339 146.63 339.21 147.82L339.45 149.63L339.71 151.64C339.86 152.83 340.76 153.77 341.9 154.05C342.01 155 342.18 155.94 342.22 156.89C341.17 157.41 340.47 158.51 340.56 159.71L340.7 161.53L340.85 163.55C340.96 164.75 341.75 165.75 342.85 166.11L342.92 168.97C341.84 169.41 341.09 170.46 341.12 171.67L341.17 173.49L341.12 175.52C341.09 176.72 341.84 177.77 342.92 178.22L342.85 181.08C341.76 181.45 340.96 182.44 340.84 183.64L340.7 185.46L340.55 187.48C340.46 188.68 341.15 189.78 342.21 190.3C342.14 191.25 341.98 192.19 341.88 193.14C340.75 193.43 339.85 194.36 339.69 195.55L339.46 197.36C339.37 198.03 339.31 198.7 339.19 199.37C338.98 200.56 339.56 201.7 340.56 202.29L340.06 205.11C338.92 205.32 337.98 206.19 337.76 207.37L337.35 209.15L336.89 211.12C336.62 212.29 337.14 213.48 338.11 214.14C337.9 215.07 337.69 216 337.41 216.91C336.24 217.03 335.21 217.82 334.88 218.98L334.38 220.73L333.83 222.68C333.51 223.84 333.87 225.04 334.79 225.77L333.87 228.48C332.71 228.52 331.64 229.24 331.26 230.38C331.08 230.96 330.86 231.53 330.63 232.09L329.89 233.97C329.45 235.09 329.79 236.34 330.65 237.13C330.29 238.01 329.97 238.91 329.59 239.79C328.42 239.74 327.28 240.37 326.78 241.47L326.03 243.13L325.2 244.98H325.19ZM329.17 246.86C328.99 247.25 328.67 247.52 328.3 247.65L328.58 247.04C328.82 246.52 328.58 245.9 328.07 245.66C327.55 245.42 326.94 245.64 326.71 246.15L326.44 246.75C326.29 246.38 326.29 245.96 326.46 245.57L327.3 243.71L328.06 242.03C328.23 241.65 328.55 241.37 328.93 241.24L328.67 241.82C328.44 242.33 328.67 242.94 329.19 243.18C329.71 243.42 330.33 243.18 330.56 242.66L330.83 242.07C330.98 242.43 330.98 242.86 330.81 243.25L330.04 244.96L329.18 246.86H329.17ZM333.99 235.56C333.83 235.96 333.52 236.25 333.16 236.4L333.41 235.78C333.62 235.25 333.36 234.65 332.82 234.45C332.28 234.25 331.68 234.51 331.48 235.03L331.24 235.65C331.07 235.29 331.04 234.88 331.2 234.48L331.95 232.58C332.18 232.01 332.4 231.44 332.59 230.86C332.72 230.46 333.02 230.16 333.37 230L333.17 230.6C332.99 231.13 333.28 231.73 333.82 231.92C334.36 232.12 334.94 231.84 335.13 231.29L335.34 230.68C335.52 231.03 335.57 231.46 335.43 231.87C335.24 232.46 335.02 233.05 334.78 233.62L334.02 235.56H333.99ZM338.04 223.96C337.92 224.37 337.65 224.69 337.28 224.86C337.35 224.65 337.42 224.44 337.48 224.22C337.64 223.67 337.32 223.09 336.77 222.92C336.22 222.75 335.65 223.06 335.5 223.61C335.44 223.82 335.37 224.03 335.3 224.24C335.12 223.9 335.05 223.48 335.16 223.08L335.72 221.11L336.22 219.34C336.33 218.94 336.61 218.62 336.96 218.43L336.79 219.04C336.64 219.58 336.96 220.15 337.51 220.31C338.06 220.47 338.63 220.15 338.79 219.6L338.97 218.98C339.17 219.32 339.24 219.74 339.12 220.15L338.61 221.95L338.04 223.95V223.96ZM342.07 208.23L341.65 210.05L341.18 212.08C341.08 212.5 340.82 212.83 340.48 213.03L340.63 212.38C340.76 211.82 340.41 211.27 339.85 211.14C339.29 211.02 338.74 211.36 338.61 211.91L338.46 212.56C338.24 212.23 338.15 211.82 338.25 211.41L338.71 209.42L339.12 207.63C339.2 207.22 339.44 206.88 339.77 206.67L339.66 207.3C339.57 207.86 339.89 208.39 340.46 208.51C341.01 208.63 341.6 208.27 341.69 207.71L341.8 207.07C342.03 207.4 342.14 207.81 342.06 208.23H342.07ZM344.06 196.11L343.82 197.97C343.72 198.66 343.66 199.35 343.54 200.03C343.47 200.45 343.22 200.8 342.89 201.03L343.01 200.37C343.12 199.81 342.73 199.28 342.15 199.19C341.59 199.11 341.07 199.49 340.96 200.05L340.84 200.7C340.61 200.39 340.49 199.99 340.57 199.57C340.69 198.9 340.75 198.22 340.84 197.55L341.07 195.73C341.12 195.31 341.35 194.96 341.67 194.73L341.59 195.36C341.52 195.92 341.92 196.44 342.49 196.51C343.06 196.59 343.58 196.19 343.65 195.62L343.73 194.98C343.98 195.29 344.11 195.69 344.06 196.12V196.11ZM345.24 183.88L345.1 185.75L344.94 187.82C344.91 188.25 344.7 188.62 344.39 188.86L344.44 188.19C344.48 187.62 344.06 187.12 343.49 187.08C342.92 187.04 342.42 187.46 342.38 188.02L342.33 188.68C342.07 188.39 341.91 187.99 341.95 187.57L342.11 185.53L342.25 183.7C342.28 183.28 342.49 182.91 342.8 182.66L342.75 183.3C342.71 183.86 343.14 184.35 343.71 184.39C344.28 184.43 344.78 183.99 344.82 183.42L344.87 182.78C345.13 183.07 345.29 183.46 345.25 183.89L345.24 183.88ZM344.05 174.92C343.48 174.92 343 175.37 342.99 175.94L342.97 176.6C342.69 176.32 342.52 175.94 342.53 175.52L342.58 173.48L342.53 171.64C342.52 171.22 342.69 170.84 342.97 170.56L342.99 171.2C343 171.76 343.48 172.22 344.05 172.22C344.62 172.22 345.07 171.75 345.06 171.18L345.04 170.53C345.33 170.8 345.52 171.18 345.53 171.61L345.58 173.48L345.53 175.56C345.52 175.99 345.33 176.37 345.04 176.64L345.06 175.97C345.07 175.4 344.62 174.93 344.05 174.93V174.92Z" fill="#650E12"/>
</svg>
