<svg width="20" height="20" viewBox="0 0 20 20" fill="none" xmlns="http://www.w3.org/2000/svg">
<path d="M15.81 1H4.12C2.39687 1 1 2.39687 1 4.12V15.81C1 17.5331 2.39687 18.93 4.12 18.93H15.81C17.5331 18.93 18.93 17.5331 18.93 15.81V4.12C18.93 2.39687 17.5331 1 15.81 1Z" fill="#400F11" stroke="#BE802E" stroke-width="2" stroke-miterlimit="10"/>
<path d="M5.46 14.33H11.04C11.91 14.33 12.61 13.63 12.61 12.76C12.61 12.37 13.02 12.1 13.38 12.26L15.27 13.09C15.63 13.25 16.04 12.98 16.04 12.59V7.36001C16.04 6.97001 15.63 6.70001 15.27 6.86001L13.38 7.69001C13.02 7.85001 12.61 7.58001 12.61 7.19001C12.61 6.31001 11.91 5.60001 11.04 5.60001H5.46C4.59 5.60001 3.89 6.30001 3.89 7.17001V12.75C3.89 13.62 4.59 14.32 5.46 14.32V14.33Z" fill="#BE802E"/>
</svg>
