<svg width="258" height="258" viewBox="0 0 258 258" fill="none" xmlns="http://www.w3.org/2000/svg">
<path d="M257.83 129.99L257.86 128.94L257.84 128C257.82 127.38 257.42 126.85 256.87 126.65L256.83 125.2C257.37 124.98 257.74 124.43 257.73 123.81L257.7 122.76C257.7 122.45 257.68 122.13 257.65 121.82C257.6 121.2 257.18 120.69 256.62 120.52L256.51 119.07C257.04 118.82 257.38 118.26 257.34 117.64L257.26 116.6L257.18 115.66C257.1 115.04 256.65 114.55 256.08 114.41L255.9 112.97C256.41 112.7 256.73 112.12 256.65 111.5L256.52 110.46L256.4 109.53C256.31 108.91 255.82 108.45 255.25 108.33L255 106.9C255.5 106.6 255.79 106.01 255.68 105.39L255.5 104.36L255.33 103.43C255.23 102.81 254.71 102.38 254.13 102.29L253.8 100.88C254.28 100.56 254.54 99.95 254.4 99.34L254.16 98.32L253.95 97.4C253.82 96.79 253.29 96.38 252.71 96.31L252.31 94.91C252.78 94.56 253.01 93.95 252.84 93.35L252.55 92.34L252.29 91.43C252.13 90.83 251.6 90.43 251 90.4L250.53 89.02C250.98 88.65 251.18 88.03 250.98 87.43L250.64 86.44L250.34 85.55C250.14 84.96 249.61 84.59 249.01 84.58L248.48 83.23C248.91 82.84 249.08 82.21 248.85 81.63L248.47 80.66L248.12 79.78C247.89 79.2 247.35 78.85 246.75 78.88L246.15 77.56C246.56 77.15 246.7 76.51 246.44 75.94L246.01 74.99L245.62 74.13C245.36 73.56 244.8 73.24 244.21 73.29L243.55 72C243.94 71.57 244.05 70.92 243.76 70.37L243.28 69.44L242.85 68.6C242.56 68.05 241.99 67.75 241.4 67.83L240.68 66.57C241.05 66.12 241.12 65.47 240.81 64.93L240.29 64.02L239.82 63.2C239.51 62.66 238.91 62.4 238.34 62.5L237.56 61.28C237.91 60.82 237.95 60.16 237.61 59.64L237.05 58.76L236.54 57.97C236.2 57.45 235.59 57.21 235.03 57.34L234.19 56.16C234.52 55.68 234.53 55.02 234.16 54.51L233.55 53.66L233 52.89C232.64 52.38 232.02 52.18 231.46 52.33L230.56 51.19C230.86 50.69 230.84 50.04 230.46 49.55L229.81 48.73L229.23 47.99C228.84 47.5 228.22 47.33 227.67 47.51L226.72 46.41C227 45.9 226.95 45.25 226.54 44.78L225.85 43.99L225.23 43.28C224.82 42.81 224.18 42.67 223.64 42.87L222.64 41.82C222.89 41.3 222.81 40.65 222.38 40.2L221.66 39.44L221.01 38.76C220.58 38.31 219.94 38.2 219.41 38.43L218.36 37.43C218.59 36.9 218.47 36.25 218.02 35.82L217.26 35.1L216.58 34.45C216.13 34.02 215.48 33.94 214.96 34.2L213.86 33.25C214.06 32.71 213.92 32.07 213.45 31.66L212.66 30.97L211.95 30.35C211.48 29.94 210.83 29.89 210.32 30.17L209.18 29.27C209.36 28.72 209.18 28.08 208.69 27.7L207.87 27.05L207.13 26.47C206.64 26.08 205.99 26.06 205.5 26.37L204.32 25.53C204.47 24.97 204.26 24.35 203.76 23.98L202.91 23.37L202.14 22.82C201.63 22.46 200.98 22.47 200.5 22.8L199.28 22.01C199.4 21.44 199.17 20.83 198.64 20.49L197.76 19.93L196.97 19.42C196.45 19.08 195.79 19.13 195.33 19.48L194.07 18.75C194.17 18.18 193.9 17.58 193.36 17.27L192.45 16.75L191.63 16.28C191.09 15.97 190.44 16.04 190 16.42L188.71 15.75C188.78 15.17 188.48 14.59 187.93 14.3L187 13.82L186.16 13.39C185.6 13.11 184.96 13.21 184.54 13.61C184.11 13.39 183.66 13.21 183.22 13C183.26 12.42 182.94 11.85 182.37 11.59L181.42 11.16L180.56 10.77C179.99 10.51 179.35 10.65 178.95 11.06C178.51 10.86 178.05 10.7 177.61 10.52C177.62 9.94 177.27 9.39 176.69 9.16L175.72 8.78L174.84 8.43C174.26 8.2 173.63 8.37 173.24 8.8C172.79 8.61 172.33 8.48 171.87 8.32C171.86 7.74 171.48 7.2 170.89 7L169.9 6.66L169.01 6.36C168.42 6.16 167.8 6.36 167.43 6.81C166.97 6.65 166.51 6.52 166.04 6.39C166 5.81 165.59 5.29 164.99 5.12L163.98 4.83L163.07 4.57C162.47 4.4 161.86 4.63 161.52 5.1C161.06 4.96 160.59 4.84 160.11 4.74C160.04 4.17 159.61 3.67 159 3.53L157.98 3.29L157.06 3.08C156.45 2.94 155.85 3.2 155.53 3.68C155.06 3.57 154.59 3.46 154.11 3.38C154.01 2.81 153.56 2.34 152.95 2.23L151.92 2.05L150.99 1.88C150.38 1.77 149.79 2.06 149.49 2.56C149.01 2.48 148.54 2.38 148.06 2.32C147.93 1.76 147.46 1.3 146.84 1.23L145.8 1.1L144.87 0.980001C144.25 0.900001 143.68 1.22 143.41 1.73L141.97 1.55C141.82 0.990001 141.32 0.570001 140.7 0.520001L139.66 0.440001L138.72 0.370001C138.1 0.320001 137.54 0.670001 137.3 1.2L135.85 1.09C135.67 0.520001 135.16 0.120001 134.53 0.100001L133.48 0.0700009L132.54 0.0500009C131.92 0.0300009 131.38 0.410001 131.16 0.950001L129.71 0.910001C129.5 0.370001 128.97 -0.0599991 128.35 -0.0299991L127.3 8.75443e-07L126.36 0.0200009C125.74 0.0400009 125.21 0.440001 125.02 0.990001L123.57 1.03C123.34 0.490001 122.79 0.120001 122.17 0.140001L121.13 0.220001L120.19 0.290001C119.57 0.340001 119.06 0.760001 118.9 1.32L117.45 1.43C117.19 0.900001 116.63 0.560001 116 0.610001C115.65 0.630001 115.31 0.680001 114.96 0.720001L114.03 0.840001C113.41 0.920001 112.93 1.37 112.79 1.94L111.35 2.12C111.07 1.61 110.49 1.29 109.87 1.37C109.52 1.41 109.18 1.45 108.83 1.52L107.9 1.69C107.29 1.8 106.83 2.28 106.71 2.85L105.28 3.11C104.97 2.61 104.38 2.32 103.76 2.43C103.42 2.49 103.07 2.55 102.73 2.62L101.81 2.83C101.2 2.97 100.77 3.47 100.68 4.05L99.27 4.38C98.94 3.9 98.33 3.64 97.72 3.78L96.7 4.02L95.79 4.27C95.19 4.44 94.78 4.96 94.72 5.54L93.32 5.94C92.97 5.47 92.35 5.25 91.75 5.42L90.74 5.71C90.44 5.79 90.14 5.9 89.84 6C89.25 6.2 88.86 6.74 88.84 7.32L87.46 7.79C87.09 7.34 86.45 7.15 85.86 7.35L84.87 7.69C84.57 7.79 84.28 7.9 83.99 8.02C83.41 8.25 83.05 8.81 83.05 9.39L81.7 9.92C81.3 9.49 80.66 9.33 80.08 9.56L79.11 9.94C78.82 10.05 78.53 10.17 78.24 10.3C77.67 10.56 77.34 11.13 77.37 11.72L76.05 12.32C75.63 11.91 74.99 11.78 74.42 12.03L73.47 12.46C73.18 12.59 72.9 12.71 72.62 12.86C72.06 13.14 71.76 13.73 71.82 14.32L70.53 14.98C70.1 14.59 69.44 14.49 68.89 14.77L67.96 15.25C67.68 15.4 67.4 15.53 67.13 15.69C66.59 16 66.31 16.61 66.4 17.18L65.14 17.9C64.69 17.53 64.03 17.46 63.49 17.77L62.58 18.29C62.31 18.45 62.03 18.59 61.77 18.77C61.24 19.11 61 19.72 61.11 20.3L59.89 21.08C59.42 20.73 58.76 20.7 58.24 21.03L57.36 21.59C57.1 21.76 56.83 21.92 56.57 22.11C56.06 22.47 55.85 23.1 55.99 23.67L54.81 24.51C54.32 24.19 53.66 24.18 53.16 24.54L52.31 25.15C52.06 25.34 51.79 25.51 51.55 25.7C51.06 26.09 50.87 26.72 51.04 27.28L49.9 28.18C49.4 27.88 48.74 27.91 48.25 28.29L47.43 28.94C47.19 29.14 46.93 29.32 46.7 29.53C46.23 29.94 46.07 30.58 46.27 31.14L45.17 32.09C44.66 31.82 44 31.87 43.53 32.28L42.74 32.97C42.51 33.18 42.26 33.38 42.03 33.59C41.58 34.02 41.46 34.67 41.68 35.22L40.63 36.22C40.1 35.97 39.45 36.06 39 36.49L38.24 37.21C38.02 37.43 37.78 37.64 37.56 37.87C37.13 38.32 37.04 38.98 37.28 39.51L36.28 40.56C35.74 40.34 35.09 40.45 34.66 40.91L33.94 41.67C33.73 41.9 33.5 42.12 33.3 42.36C32.89 42.83 32.83 43.49 33.1 44.01L32.15 45.11C31.6 44.91 30.96 45.06 30.55 45.53L29.86 46.32C29.66 46.56 29.44 46.79 29.25 47.04C28.86 47.53 28.84 48.19 29.13 48.7L28.23 49.84C27.67 49.67 27.04 49.84 26.65 50.34L26 51.16C25.81 51.41 25.61 51.65 25.42 51.9C25.06 52.41 25.06 53.07 25.38 53.56L24.54 54.74C23.98 54.59 23.35 54.81 22.99 55.31L22.38 56.16C22.2 56.42 22.01 56.67 21.84 56.93C21.5 57.46 21.54 58.12 21.88 58.59L21.1 59.81C20.53 59.69 19.91 59.93 19.58 60.46L19.02 61.34L18.52 62.14C18.21 62.68 18.28 63.34 18.64 63.8L17.92 65.06C17.34 64.97 16.74 65.24 16.43 65.78L15.91 66.69L15.44 67.51C15.16 68.06 15.25 68.72 15.64 69.16L14.98 70.45C14.4 70.39 13.81 70.69 13.53 71.24L13.05 72.17L12.62 73.01C12.36 73.58 12.49 74.23 12.9 74.65L12.3 75.97C11.72 75.94 11.15 76.26 10.89 76.83L10.46 77.78L10.07 78.64C9.83001 79.22 10 79.86 10.43 80.26L9.90001 81.61C9.32001 81.61 8.76001 81.96 8.53001 82.54L8.15001 83.51L7.80001 84.39C7.58001 84.97 7.79001 85.62 8.23001 85.99L7.76001 87.36C7.18001 87.38 6.64001 87.76 6.44001 88.35L6.10001 89.34L5.80001 90.23C5.60001 90.82 5.85001 91.45 6.30001 91.81L5.90001 93.21C5.32001 93.26 4.80001 93.67 4.63001 94.27L4.34001 95.28L4.08001 96.19C3.90001 96.79 4.18001 97.41 4.65001 97.74L4.32001 99.15C3.74001 99.23 3.25001 99.66 3.11001 100.27L2.87001 101.29L2.66001 102.21C2.51001 102.82 2.80001 103.42 3.30001 103.73L3.04001 105.16C2.47001 105.27 1.99001 105.72 1.88001 106.33L1.70001 107.36L1.53001 108.29C1.42001 108.9 1.71001 109.49 2.23001 109.78L2.05001 111.22C1.48001 111.35 1.03001 111.83 0.950014 112.45L0.820014 113.49L0.700014 114.42C0.620014 115.04 0.940014 115.61 1.46001 115.87L1.35001 117.32C0.790014 117.48 0.370014 117.98 0.320014 118.6L0.240014 119.64L0.170014 120.58C0.120014 121.2 0.470014 121.76 1.00001 121.99C0.950014 122.47 0.970014 122.96 0.950014 123.44C0.400014 123.63 1.40481e-05 124.14 -0.019986 124.77L-0.049986 125.82L-0.069986 126.76C-0.089986 127.38 0.290014 127.92 0.830014 128.13C0.810014 128.61 0.810014 129.1 0.830014 129.58C0.290014 129.79 -0.079986 130.33 -0.069986 130.95L-0.039986 132L-0.019986 132.94C1.40481e-05 133.56 0.400014 134.08 0.950014 134.27C0.970014 134.75 0.960014 135.24 1.00001 135.72C0.470014 135.96 0.130014 136.51 0.170014 137.13L0.250014 138.17L0.320014 139.11C0.370014 139.73 0.790014 140.23 1.35001 140.39L1.46001 141.84C0.930014 142.1 0.620014 142.67 0.700014 143.29L0.830014 144.33L0.950014 145.26C1.03001 145.88 1.48001 146.36 2.05001 146.49L2.23001 147.93C1.71001 148.22 1.41001 148.8 1.52001 149.42L1.70001 150.45L1.87001 151.38C1.98001 151.99 2.45001 152.45 3.03001 152.56L3.29001 153.99C2.79001 154.3 2.50001 154.91 2.65001 155.51L2.89001 156.53L3.10001 157.45C3.24001 158.06 3.74001 158.49 4.31001 158.57L4.64001 159.98C4.17001 160.31 3.88001 160.94 4.06001 161.53L4.35001 162.54L4.61001 163.45C4.78001 164.05 5.30001 164.46 5.88001 164.51L6.28001 165.91C5.82001 166.27 5.58001 166.9 5.77001 167.49L6.11001 168.48L6.41001 169.37C6.61001 169.96 7.15001 170.34 7.73001 170.36L8.20001 171.73C7.76001 172.11 7.56001 172.75 7.76001 173.34L8.14001 174.31L8.49001 175.19C8.72001 175.77 9.28001 176.12 9.86001 176.12L10.39 177.47C9.96001 177.87 9.80001 178.52 10.03 179.1L10.46 180.05L10.85 180.91C11.11 181.48 11.68 181.81 12.26 181.77L12.86 183.09C12.45 183.51 12.32 184.16 12.58 184.73L13.05 185.66L13.48 186.5C13.76 187.06 14.35 187.35 14.93 187.29L15.59 188.58C15.2 189.02 15.1 189.68 15.39 190.23C15.55 190.54 15.73 190.84 15.9 191.14L16.37 191.96C16.68 192.5 17.28 192.77 17.86 192.68L18.58 193.94C18.22 194.4 18.15 195.06 18.46 195.6C18.63 195.9 18.83 196.19 19.02 196.49L19.53 197.28C19.87 197.81 20.48 198.05 21.05 197.93L21.83 199.15C21.49 199.63 21.45 200.29 21.79 200.81C21.97 201.11 22.19 201.38 22.39 201.67L22.94 202.44C23.3 202.95 23.93 203.16 24.49 203.01L25.33 204.19C25.01 204.68 25.01 205.34 25.37 205.85C25.57 206.14 25.8 206.4 26.01 206.68L26.59 207.42C26.98 207.91 27.61 208.09 28.17 207.92L29.07 209.06C28.77 209.57 28.8 210.23 29.19 210.72C29.4 211 29.64 211.25 29.87 211.52L30.49 212.23C30.9 212.7 31.54 212.85 32.09 212.65L33.04 213.75C32.77 214.27 32.83 214.93 33.24 215.4C33.46 215.67 33.72 215.91 33.95 216.17L34.6 216.85C35.03 217.3 35.68 217.42 36.22 217.2L37.22 218.25C36.97 218.78 37.07 219.44 37.5 219.89C37.74 220.15 38 220.38 38.25 220.62L38.93 221.27C39.38 221.7 40.04 221.79 40.56 221.54L41.61 222.54C41.39 223.08 41.51 223.73 41.96 224.16C42.21 224.41 42.48 224.62 42.74 224.86L43.45 225.48C43.92 225.89 44.58 225.95 45.09 225.67L46.19 226.62C46 227.17 46.15 227.82 46.62 228.23C46.88 228.46 47.16 228.67 47.43 228.89L48.17 229.47C48.66 229.86 49.32 229.88 49.82 229.58L50.96 230.48C50.79 231.04 50.98 231.68 51.47 232.06C51.74 232.28 52.03 232.47 52.31 232.68L53.08 233.23C53.59 233.59 54.25 233.59 54.73 233.26L55.91 234.1C55.77 234.67 55.98 235.3 56.49 235.66C56.77 235.87 57.07 236.05 57.36 236.24L58.15 236.75C58.68 237.09 59.33 237.05 59.8 236.7L61.02 237.48C60.91 238.05 61.15 238.67 61.68 239.01C61.97 239.2 62.28 239.37 62.58 239.55L63.4 240.02C63.94 240.33 64.6 240.26 65.05 239.89L66.31 240.61C66.22 241.19 66.5 241.79 67.04 242.1C67.34 242.28 67.65 242.43 67.96 242.59L68.8 243.02C69.36 243.3 70.01 243.2 70.44 242.81L71.73 243.47C71.67 244.05 71.98 244.64 72.53 244.93C72.84 245.09 73.16 245.24 73.47 245.38L74.33 245.77C74.9 246.03 75.55 245.89 75.96 245.48L77.28 246.08C77.25 246.66 77.58 247.24 78.15 247.5C78.47 247.65 78.79 247.79 79.11 247.91L79.99 248.26C80.57 248.49 81.21 248.32 81.61 247.9L82.96 248.43C82.96 249.01 83.32 249.57 83.9 249.8C84.22 249.93 84.55 250.06 84.88 250.16L85.77 250.46C86.36 250.66 86.99 250.46 87.37 250.02L88.74 250.49C88.77 251.07 89.15 251.61 89.74 251.81C90.07 251.92 90.4 252.05 90.74 252.13L91.65 252.39C92.25 252.56 92.87 252.33 93.22 251.87L94.62 252.27C94.68 252.85 95.09 253.37 95.69 253.54L96.7 253.82L97.62 254.03C98.23 254.17 98.84 253.91 99.17 253.43L100.58 253.76C100.66 254.34 101.1 254.84 101.71 254.98L102.73 255.22C103.04 255.29 103.35 255.33 103.66 255.39C104.27 255.5 104.87 255.21 105.18 254.71L106.61 254.97C106.72 255.54 107.18 256.02 107.8 256.13L108.83 256.31C109.14 256.37 109.45 256.41 109.76 256.45C110.38 256.53 110.96 256.21 111.24 255.7L112.68 255.88C112.82 256.45 113.3 256.9 113.92 256.98L114.96 257.11C115.27 257.14 115.58 257.2 115.9 257.22C116.52 257.27 117.09 256.92 117.35 256.4L118.8 256.51C118.97 257.07 119.47 257.5 120.09 257.54L121.13 257.62L122.07 257.69C122.69 257.72 123.24 257.34 123.48 256.8L124.93 256.84C125.12 257.39 125.65 257.79 126.27 257.81L127.32 257.84L128.26 257.86C128.88 257.89 129.42 257.47 129.62 256.92L131.07 256.88C131.29 257.42 131.83 257.79 132.45 257.78L133.5 257.75L134.44 257.73C135.06 257.71 135.58 257.32 135.76 256.75L137.21 256.64C137.45 257.17 138.01 257.51 138.63 257.47L139.67 257.39L140.61 257.32C141.23 257.27 141.73 256.85 141.88 256.29L143.32 256.11C143.59 256.62 144.16 256.94 144.78 256.86L145.82 256.73L146.75 256.61C147.37 256.53 147.84 256.08 147.97 255.52C148.45 255.47 148.92 255.36 149.4 255.28C149.69 255.78 150.28 256.07 150.89 255.96L151.92 255.78L152.85 255.61C153.46 255.5 153.91 255.03 154.01 254.46C154.49 254.38 154.96 254.28 155.43 254.17C155.75 254.66 156.35 254.91 156.96 254.77L157.98 254.53L158.9 254.32C159.51 254.18 159.93 253.68 160.01 253.11C160.48 253 160.95 252.9 161.42 252.76C161.76 253.23 162.37 253.46 162.97 253.29L163.98 253L164.89 252.74C165.49 252.57 165.89 252.05 165.94 251.47C166.4 251.33 166.88 251.22 167.33 251.05C167.69 251.5 168.31 251.7 168.91 251.5L169.9 251.16L170.79 250.86C171.38 250.66 171.76 250.12 171.77 249.54C172.23 249.38 172.69 249.24 173.14 249.06C173.52 249.49 174.15 249.66 174.73 249.43L175.7 249.05L176.58 248.7C177.16 248.47 177.51 247.92 177.5 247.34C177.95 247.16 178.4 246.99 178.85 246.8C179.25 247.22 179.89 247.35 180.46 247.09L181.41 246.66L182.27 246.27C182.84 246.01 183.16 245.44 183.12 244.86L184.44 244.26C184.86 244.66 185.51 244.76 186.06 244.48L186.99 244L187.83 243.57C188.39 243.29 188.68 242.7 188.61 242.12L189.9 241.46C190.34 241.83 190.99 241.91 191.53 241.6L192.44 241.08L193.26 240.61C193.8 240.3 194.07 239.7 193.97 239.13L195.23 238.41C195.69 238.76 196.34 238.81 196.87 238.47L197.75 237.91L198.54 237.4C199.07 237.06 199.3 236.45 199.18 235.88L200.4 235.1C200.88 235.43 201.53 235.44 202.04 235.08L202.89 234.47L203.66 233.92C204.17 233.56 204.38 232.94 204.22 232.37L205.4 231.53C205.89 231.84 206.54 231.82 207.04 231.43L207.86 230.78L208.6 230.2C209.09 229.81 209.27 229.18 209.09 228.63L210.23 227.73C210.74 228.02 211.39 227.96 211.86 227.56L212.65 226.87L213.36 226.25C213.83 225.84 213.98 225.2 213.78 224.66L214.88 223.71C215.4 223.98 216.05 223.89 216.5 223.46L217.26 222.74L217.94 222.09C218.39 221.66 218.51 221.01 218.28 220.48L219.33 219.48C219.87 219.72 220.5 219.6 220.94 219.15L221.66 218.39L222.31 217.71C222.74 217.26 222.83 216.61 222.57 216.09L223.57 215.04C224.12 215.25 224.75 215.11 225.16 214.64L225.85 213.85L226.47 213.14C226.88 212.67 226.93 212.01 226.65 211.5L227.6 210.4C228.16 210.59 228.78 210.41 229.17 209.92L229.82 209.1L230.4 208.36C230.79 207.87 230.81 207.21 230.51 206.72L231.41 205.58C231.98 205.74 232.59 205.53 232.95 205.03L233.56 204.18L234.11 203.41C234.47 202.9 234.46 202.24 234.14 201.76L234.98 200.58C235.55 200.72 236.16 200.48 236.5 199.96L237.07 199.08L237.58 198.29C237.92 197.77 237.88 197.11 237.53 196.64L238.31 195.42C238.89 195.53 239.48 195.26 239.79 194.72L240.31 193.81L240.78 192.99C241.09 192.45 241.02 191.8 240.65 191.35L241.37 190.09C241.96 190.17 242.53 189.88 242.82 189.32L243.3 188.39L243.73 187.55C244.01 186.99 243.91 186.35 243.52 185.92L244.18 184.63C244.77 184.69 245.33 184.36 245.59 183.8L246.02 182.85L246.41 181.99C246.67 181.42 246.53 180.78 246.12 180.37L246.72 179.05C247.32 179.08 247.87 178.73 248.1 178.15L248.48 177.18L248.83 176.3C249.06 175.72 248.89 175.08 248.46 174.69L248.99 173.34C249.58 173.34 250.13 172.97 250.32 172.38L250.66 171.39L250.96 170.5C251.16 169.91 250.96 169.28 250.51 168.91L250.98 167.54C251.57 167.51 252.11 167.12 252.27 166.51L252.56 165.5L252.82 164.59C252.99 163.99 252.76 163.37 252.3 163.03L252.7 161.63C253.28 161.57 253.82 161.16 253.95 160.54L254.19 159.52L254.4 158.6C254.54 157.99 254.28 157.39 253.8 157.06L254.13 155.65C254.7 155.56 255.23 155.12 255.33 154.51L255.51 153.48L255.68 152.55C255.79 151.94 255.5 151.34 255 151.04L255.26 149.61C255.83 149.49 256.32 149.03 256.41 148.41L256.54 147.37L256.66 146.44C256.74 145.82 256.42 145.24 255.91 144.97L256.09 143.53C256.66 143.38 257.11 142.9 257.19 142.28C257.24 141.93 257.25 141.58 257.28 141.24L257.35 140.3C257.4 139.68 257.05 139.12 256.52 138.86L256.63 137.41C257.19 137.24 257.62 136.73 257.66 136.11C257.69 135.76 257.71 135.41 257.72 135.07L257.74 134.13C257.76 133.51 257.38 132.96 256.84 132.74L256.88 131.29C257.43 131.09 257.83 130.56 257.85 129.94L257.83 129.99ZM256.7 121.65L256.68 121.33C256.83 121.46 256.94 121.65 256.95 121.86C256.98 122.17 257 122.48 257 122.8L257.03 123.84C257.03 124.05 256.95 124.25 256.81 124.39V124.05C256.79 123.76 256.56 123.54 256.27 123.55C255.98 123.56 255.76 123.8 255.77 124.09V124.42C255.63 124.29 255.54 124.1 255.53 123.89L255.5 122.86C255.5 122.55 255.48 122.24 255.45 121.94C255.43 121.73 255.51 121.53 255.64 121.39L255.66 121.71C255.68 121.99 255.93 122.21 256.22 122.2C256.51 122.19 256.72 121.94 256.7 121.66V121.65ZM256.22 115.53L256.18 115.21C256.34 115.33 256.45 115.51 256.48 115.73L256.56 116.66L256.64 117.7C256.66 117.91 256.58 118.11 256.45 118.26L256.42 117.93C256.4 117.64 256.15 117.43 255.86 117.46C255.57 117.49 255.36 117.74 255.38 118.02L255.41 118.35C255.26 118.23 255.15 118.04 255.14 117.83L255.06 116.8L254.98 115.88C254.95 115.67 255.02 115.47 255.14 115.32L255.18 115.64C255.22 115.92 255.47 116.13 255.75 116.1C256.04 116.07 256.25 115.82 256.21 115.53H256.22ZM255 110.03C255.28 109.99 255.48 109.72 255.45 109.44L255.39 109.12C255.55 109.23 255.68 109.41 255.71 109.62L255.83 110.55L255.96 111.58C255.99 111.79 255.92 112 255.8 112.15L255.76 111.82C255.72 111.54 255.46 111.34 255.18 111.38C254.9 111.42 254.7 111.68 254.73 111.96L254.77 112.29C254.61 112.17 254.5 112 254.47 111.79L254.34 110.77L254.22 109.85C254.2 109.64 254.25 109.44 254.37 109.28L254.43 109.6C254.47 109.88 254.72 110.08 255.01 110.03H255ZM253.95 104.01C254.23 103.95 254.42 103.68 254.37 103.4C254.35 103.29 254.34 103.19 254.31 103.08C254.48 103.19 254.6 103.36 254.64 103.57L254.8 104.49L254.98 105.51C255.02 105.72 254.96 105.93 254.85 106.09L254.79 105.76C254.74 105.48 254.47 105.29 254.19 105.34C253.91 105.39 253.72 105.66 253.77 105.94L253.83 106.27C253.67 106.16 253.54 105.99 253.51 105.78L253.33 104.77L253.17 103.86C253.13 103.65 253.19 103.45 253.3 103.28C253.33 103.38 253.34 103.49 253.36 103.6C253.41 103.88 253.68 104.06 253.96 104.01H253.95ZM252.61 98.04C252.89 97.97 253.06 97.69 253 97.41L252.93 97.09C253.1 97.19 253.23 97.35 253.28 97.56L253.49 98.47L253.72 99.48C253.77 99.69 253.72 99.9 253.62 100.06L253.54 99.73C253.48 99.45 253.2 99.28 252.92 99.34C252.64 99.41 252.47 99.68 252.53 99.96L252.6 100.28C252.43 100.18 252.3 100.01 252.25 99.81L252.02 98.81L251.81 97.91C251.76 97.7 251.81 97.5 251.91 97.33L251.98 97.64C252.04 97.92 252.32 98.09 252.6 98.02L252.61 98.04ZM250.99 92.14C251.26 92.06 251.42 91.77 251.34 91.49L251.25 91.18C251.42 91.27 251.56 91.43 251.62 91.64L251.88 92.54L252.16 93.54C252.22 93.75 252.18 93.96 252.08 94.13L251.99 93.81C251.91 93.53 251.63 93.37 251.35 93.45C251.08 93.53 250.92 93.82 250.99 94.09L251.08 94.41C250.91 94.32 250.77 94.16 250.71 93.96L250.43 92.97L250.18 92.08C250.12 91.88 250.16 91.67 250.26 91.49L250.35 91.8C250.43 92.07 250.71 92.23 250.99 92.15V92.14ZM249.08 86.33C249.35 86.23 249.49 85.94 249.4 85.66L249.3 85.35C249.48 85.43 249.63 85.58 249.69 85.79L249.99 86.68L250.32 87.67C250.39 87.87 250.37 88.08 250.27 88.26L250.16 87.94C250.07 87.67 249.77 87.52 249.5 87.62C249.23 87.71 249.08 88.01 249.18 88.28L249.29 88.6C249.11 88.52 248.96 88.36 248.9 88.16L248.57 87.19L248.27 86.31C248.2 86.11 248.23 85.9 248.32 85.72L248.42 86.02C248.51 86.29 248.8 86.43 249.07 86.33H249.08ZM246.12 80.04L246.24 80.34C246.34 80.6 246.64 80.73 246.91 80.62C247.17 80.51 247.3 80.21 247.2 79.94L247.08 79.64C247.26 79.71 247.42 79.86 247.49 80.06L247.83 80.93L248.21 81.9C248.29 82.1 248.28 82.31 248.19 82.49L248.07 82.18C247.96 81.91 247.66 81.78 247.4 81.89C247.13 82 247 82.3 247.11 82.56L247.23 82.87C247.05 82.8 246.89 82.65 246.82 82.45L246.44 81.49L246.1 80.63C246.02 80.43 246.04 80.22 246.12 80.04ZM243.63 74.48L243.76 74.77C243.88 75.03 244.18 75.14 244.44 75.02C244.7 74.9 244.81 74.59 244.7 74.33L244.57 74.04C244.76 74.1 244.92 74.24 245.01 74.44L245.4 75.29L245.83 76.24C245.92 76.43 245.92 76.65 245.84 76.83L245.7 76.52C245.58 76.26 245.27 76.14 245.01 76.26C244.75 76.38 244.63 76.68 244.75 76.94L244.89 77.24C244.7 77.17 244.54 77.04 244.46 76.84L244.04 75.9L243.66 75.06C243.57 74.87 243.58 74.65 243.65 74.47L243.63 74.48ZM240.88 69.04L241.03 69.33C241.16 69.58 241.47 69.68 241.72 69.55C241.97 69.42 242.07 69.1 241.94 68.85L241.79 68.56C241.98 68.61 242.15 68.74 242.24 68.93L242.67 69.76L243.14 70.69C243.24 70.88 243.25 71.09 243.18 71.28L243.03 70.98C242.9 70.72 242.59 70.62 242.33 70.75C242.08 70.88 241.97 71.19 242.1 71.45L242.25 71.75C242.06 71.69 241.89 71.56 241.8 71.38L241.33 70.46L240.91 69.64C240.81 69.45 240.81 69.24 240.87 69.05L240.88 69.04ZM237.88 63.75L238.04 64.03C238.18 64.28 238.5 64.36 238.74 64.21C238.98 64.06 239.07 63.75 238.93 63.5L238.77 63.22C238.96 63.27 239.13 63.39 239.24 63.57L239.71 64.38L240.23 65.28C240.34 65.47 240.35 65.68 240.3 65.87L240.13 65.58C239.99 65.33 239.67 65.25 239.42 65.39C239.17 65.53 239.09 65.85 239.23 66.1L239.4 66.39C239.21 66.34 239.03 66.22 238.93 66.04L238.42 65.15L237.96 64.35C237.85 64.17 237.84 63.95 237.89 63.76L237.88 63.75ZM234.62 58.6L234.79 58.87C234.94 59.11 235.26 59.18 235.5 59.02C235.74 58.86 235.81 58.54 235.65 58.3L235.48 58.03C235.67 58.07 235.85 58.18 235.97 58.36L236.48 59.15L237.04 60.03C237.16 60.21 237.18 60.42 237.14 60.61L236.96 60.33C236.81 60.09 236.48 60.02 236.24 60.17C236 60.32 235.93 60.64 236.08 60.88L236.26 61.16C236.07 61.12 235.89 61.01 235.77 60.83L235.21 59.96L234.71 59.18C234.6 59 234.57 58.79 234.61 58.6H234.62ZM231.31 53.88C231.47 54.11 231.8 54.16 232.03 53.99C232.26 53.82 232.31 53.5 232.15 53.26L231.96 53C232.15 53.03 232.34 53.13 232.46 53.31L233 54.07L233.6 54.92C233.72 55.09 233.76 55.3 233.72 55.5L233.53 55.23C233.36 55 233.04 54.94 232.81 55.11C232.58 55.28 232.52 55.6 232.69 55.83L232.88 56.1C232.68 56.07 232.5 55.97 232.38 55.8L231.78 54.96L231.24 54.21C231.12 54.04 231.08 53.83 231.12 53.63L231.31 53.89V53.88ZM227.59 49.06C227.77 49.28 228.09 49.32 228.31 49.14C228.53 48.96 228.57 48.63 228.39 48.41L228.19 48.16C228.39 48.18 228.58 48.27 228.71 48.44L229.29 49.18L229.93 50C230.06 50.17 230.11 50.38 230.08 50.57L229.87 50.31C229.69 50.08 229.37 50.04 229.14 50.22C228.92 50.4 228.88 50.72 229.05 50.95L229.26 51.21C229.06 51.19 228.87 51.1 228.74 50.93L228.1 50.12L227.53 49.39C227.4 49.22 227.35 49.02 227.38 48.82L227.58 49.07L227.59 49.06ZM223.64 44.42C223.83 44.63 224.15 44.66 224.37 44.47C224.58 44.28 224.61 43.95 224.42 43.73L224.21 43.49C224.41 43.49 224.6 43.58 224.74 43.75L225.35 44.46L226.03 45.25C226.17 45.41 226.23 45.62 226.21 45.81L225.99 45.56C225.8 45.34 225.47 45.32 225.26 45.51C225.04 45.7 225.02 46.02 225.21 46.24L225.43 46.49C225.23 46.49 225.04 46.39 224.9 46.23L224.23 45.45L223.62 44.75C223.48 44.59 223.42 44.39 223.44 44.19L223.65 44.43L223.64 44.42ZM219.48 39.97C219.68 40.18 220 40.18 220.21 39.98C220.41 39.78 220.42 39.45 220.22 39.24L220 39.01C220.2 39.01 220.39 39.09 220.54 39.24L221.19 39.92L221.91 40.67C222.06 40.82 222.13 41.03 222.12 41.22L221.89 40.98C221.69 40.77 221.36 40.76 221.16 40.96C220.96 41.16 220.94 41.48 221.14 41.69L221.37 41.93C221.17 41.93 220.97 41.85 220.83 41.7L220.12 40.96L219.48 40.29C219.33 40.14 219.27 39.94 219.27 39.74L219.49 39.97H219.48ZM215.11 35.73C215.32 35.93 215.64 35.92 215.84 35.71C216.04 35.5 216.03 35.17 215.82 34.97L215.59 34.75C215.79 34.74 215.99 34.81 216.14 34.95L216.82 35.6L217.57 36.32C217.72 36.47 217.8 36.67 217.8 36.86L217.56 36.63C217.35 36.43 217.02 36.44 216.83 36.65C216.63 36.86 216.64 37.18 216.85 37.38L217.09 37.61C216.89 37.61 216.69 37.55 216.54 37.41L215.8 36.7L215.13 36.06C214.98 35.91 214.9 35.72 214.9 35.52L215.13 35.74L215.11 35.73ZM210.54 31.7C210.75 31.89 211.08 31.86 211.26 31.64C211.44 31.42 211.42 31.09 211.2 30.9L210.96 30.69C211.16 30.67 211.36 30.73 211.52 30.87L212.23 31.48L213.02 32.16C213.18 32.3 213.27 32.49 213.28 32.69L213.03 32.47C212.81 32.28 212.49 32.31 212.3 32.52C212.11 32.73 212.14 33.06 212.35 33.25L212.6 33.47C212.4 33.49 212.2 33.43 212.04 33.29L211.26 32.62L210.56 32.01C210.4 31.87 210.31 31.68 210.3 31.48L210.54 31.69V31.7ZM205.79 27.9C206.01 28.08 206.34 28.03 206.51 27.81C206.68 27.58 206.64 27.26 206.42 27.08L206.17 26.88C206.36 26.85 206.57 26.9 206.74 27.03L207.48 27.61L208.3 28.25C208.47 28.38 208.56 28.57 208.58 28.77L208.32 28.56C208.09 28.38 207.77 28.42 207.59 28.65C207.41 28.88 207.45 29.2 207.67 29.38L207.93 29.59C207.73 29.62 207.53 29.57 207.36 29.44L206.55 28.8L205.82 28.23C205.65 28.1 205.56 27.91 205.54 27.71L205.79 27.91V27.9ZM200.86 24.32C201.09 24.48 201.41 24.43 201.58 24.19C201.74 23.96 201.69 23.63 201.45 23.46L201.19 23.27C201.38 23.23 201.59 23.27 201.77 23.39L202.53 23.93L203.38 24.53C203.55 24.65 203.66 24.84 203.69 25.03L203.42 24.84C203.19 24.67 202.86 24.73 202.7 24.96C202.54 25.19 202.59 25.52 202.82 25.68L203.09 25.87C202.9 25.91 202.69 25.87 202.52 25.75L201.68 25.15L200.93 24.61C200.76 24.49 200.65 24.3 200.62 24.11L200.88 24.3L200.86 24.32ZM195.76 20.99C196 21.14 196.32 21.07 196.47 20.83C196.62 20.59 196.55 20.27 196.31 20.11L196.04 19.94C196.23 19.89 196.44 19.92 196.62 20.04L197.41 20.55L198.29 21.11C198.47 21.23 198.58 21.41 198.62 21.6L198.34 21.42C198.1 21.27 197.78 21.34 197.62 21.58C197.47 21.82 197.53 22.14 197.77 22.29L198.05 22.47C197.86 22.52 197.65 22.49 197.47 22.37L196.6 21.81L195.82 21.31C195.64 21.2 195.53 21.02 195.49 20.82L195.76 20.99ZM190.51 17.9C190.76 18.04 191.07 17.95 191.21 17.7C191.35 17.45 191.26 17.13 191.01 16.99L190.73 16.83C190.92 16.77 191.13 16.79 191.32 16.9L192.13 17.37L193.03 17.89C193.22 18 193.34 18.17 193.38 18.36L193.09 18.19C192.84 18.05 192.52 18.13 192.38 18.38C192.24 18.63 192.32 18.94 192.57 19.09L192.86 19.26C192.67 19.32 192.46 19.3 192.28 19.19L191.39 18.68L190.59 18.22C190.41 18.11 190.28 17.94 190.24 17.75L190.52 17.91L190.51 17.9ZM185.12 15.07C185.37 15.2 185.68 15.1 185.81 14.84C185.94 14.58 185.83 14.27 185.58 14.14L185.29 13.99C185.48 13.92 185.69 13.93 185.88 14.03L186.71 14.46L187.64 14.93C187.83 15.03 187.96 15.2 188.02 15.38L187.72 15.23C187.46 15.1 187.15 15.2 187.02 15.45C186.89 15.7 186.99 16.02 187.24 16.15L187.54 16.3C187.35 16.36 187.14 16.36 186.95 16.26L186.03 15.79L185.21 15.37C185.02 15.27 184.89 15.11 184.83 14.92L185.12 15.07ZM179.6 12.51C179.86 12.63 180.16 12.51 180.28 12.25C180.4 11.99 180.28 11.68 180.02 11.56L179.73 11.43C179.91 11.36 180.12 11.35 180.32 11.44L181.17 11.83L182.12 12.26C182.32 12.35 182.45 12.51 182.52 12.7L182.21 12.56C181.95 12.44 181.64 12.56 181.52 12.82C181.4 13.08 181.52 13.39 181.78 13.5L182.08 13.64C181.9 13.71 181.68 13.72 181.49 13.63L180.55 13.21L179.71 12.83C179.52 12.74 179.38 12.58 179.31 12.39L179.6 12.52V12.51ZM173.96 10.21C174.22 10.31 174.52 10.18 174.63 9.92C174.74 9.66 174.6 9.35 174.33 9.25L174.03 9.13C174.21 9.05 174.42 9.03 174.62 9.11L175.49 9.45L176.46 9.83C176.66 9.91 176.81 10.06 176.88 10.25L176.57 10.13C176.3 10.02 176 10.15 175.9 10.42C175.79 10.69 175.92 10.99 176.19 11.09L176.5 11.21C176.32 11.29 176.11 11.31 175.91 11.23L174.95 10.85L174.09 10.51C173.89 10.43 173.75 10.28 173.67 10.09L173.97 10.21H173.96ZM168.21 8.19C168.48 8.28 168.77 8.13 168.86 7.86C168.95 7.59 168.8 7.29 168.53 7.2L168.22 7.1C168.39 7.01 168.61 6.98 168.81 7.05L169.7 7.35L170.69 7.68C170.89 7.75 171.05 7.9 171.13 8.07L170.81 7.96C170.54 7.87 170.24 8.01 170.15 8.28C170.06 8.55 170.2 8.84 170.47 8.94L170.79 9.05C170.61 9.14 170.4 9.17 170.2 9.1L169.23 8.77L168.35 8.47C168.15 8.4 168 8.26 167.91 8.08L168.21 8.18V8.19ZM162.65 5.45L162.34 5.36C162.51 5.26 162.72 5.23 162.92 5.28L163.82 5.54L164.82 5.82C165.03 5.88 165.19 6.02 165.28 6.19L164.96 6.1C164.68 6.02 164.4 6.18 164.32 6.46C164.24 6.74 164.4 7.02 164.67 7.1L164.99 7.19C164.82 7.29 164.61 7.32 164.41 7.27L163.42 6.99L162.53 6.74C162.33 6.68 162.17 6.54 162.07 6.37L162.38 6.46C162.65 6.54 162.94 6.38 163.01 6.1C163.09 5.82 162.92 5.54 162.65 5.46V5.45ZM156.69 3.98L156.37 3.91C156.53 3.8 156.74 3.76 156.95 3.81L157.86 4.02L158.87 4.25C159.08 4.3 159.25 4.43 159.35 4.6L159.02 4.52C158.74 4.46 158.46 4.63 158.39 4.91C158.32 5.19 158.5 5.47 158.77 5.53L159.09 5.6C158.92 5.71 158.72 5.75 158.51 5.71L157.51 5.48L156.61 5.27C156.4 5.22 156.24 5.09 156.13 4.92L156.44 4.99C156.72 5.05 156.99 4.88 157.06 4.6C157.12 4.32 156.95 4.04 156.67 3.98H156.69ZM150.67 2.8L150.35 2.74C150.51 2.62 150.71 2.57 150.93 2.61L151.85 2.77L152.87 2.95C153.08 2.99 153.25 3.11 153.36 3.27L153.03 3.21C152.75 3.16 152.48 3.35 152.42 3.63C152.37 3.91 152.55 4.18 152.83 4.23L153.16 4.29C153 4.41 152.79 4.46 152.59 4.42L151.58 4.24L150.67 4.08C150.46 4.04 150.29 3.92 150.18 3.76L150.5 3.82C150.78 3.87 151.05 3.68 151.1 3.4C151.15 3.12 150.96 2.85 150.68 2.8H150.67ZM144.59 1.91L144.27 1.87C144.42 1.75 144.63 1.68 144.84 1.71L145.77 1.83L146.8 1.96C147.01 1.99 147.19 2.1 147.31 2.26L146.98 2.22C146.7 2.18 146.43 2.38 146.39 2.67C146.35 2.95 146.55 3.21 146.83 3.25L147.16 3.29C147 3.41 146.8 3.48 146.59 3.45L145.57 3.32L144.65 3.2C144.44 3.17 144.26 3.06 144.14 2.9L144.46 2.94C144.74 2.98 145 2.77 145.04 2.49C145.08 2.21 144.87 1.95 144.59 1.91ZM138.48 1.31L138.16 1.29C138.31 1.16 138.51 1.08 138.72 1.1L139.65 1.17L140.69 1.25C140.9 1.27 141.09 1.37 141.21 1.52L140.88 1.49C140.59 1.47 140.34 1.68 140.32 1.97C140.29 2.25 140.5 2.5 140.79 2.53L141.12 2.56C140.97 2.69 140.77 2.77 140.56 2.75L139.53 2.67L138.61 2.6C138.4 2.58 138.22 2.48 138.09 2.33L138.41 2.35C138.69 2.37 138.94 2.16 138.96 1.87C138.98 1.59 138.77 1.34 138.48 1.31ZM132.35 1.01H132.03C132.17 0.860001 132.37 0.780001 132.58 0.780001L133.52 0.800001L134.56 0.830001C134.77 0.830001 134.96 0.930001 135.09 1.08H134.75C134.46 1.06 134.22 1.29 134.21 1.58C134.2 1.87 134.42 2.1 134.7 2.11H135.03C134.89 2.26 134.69 2.34 134.48 2.34L133.45 2.31L132.52 2.29C132.31 2.29 132.12 2.19 131.99 2.04H132.31C132.59 2.06 132.83 1.83 132.84 1.54C132.84 1.25 132.62 1.02 132.34 1.01H132.35ZM126.43 0.750001L127.37 0.730001L128.41 0.700001C128.62 0.700001 128.82 0.780001 128.95 0.920001H128.61C128.32 0.930001 128.09 1.17 128.09 1.46C128.09 1.75 128.32 1.97 128.61 1.97H128.94C128.8 2.11 128.61 2.2 128.4 2.21L127.37 2.24L126.44 2.26C126.23 2.26 126.04 2.18 125.9 2.04H126.22C126.5 2.02 126.73 1.79 126.73 1.5C126.73 1.21 126.49 0.990001 126.2 1H125.88C126.01 0.860001 126.21 0.770001 126.42 0.760001L126.43 0.750001ZM120.28 1.01L121.21 0.940001L122.25 0.860001C122.46 0.850001 122.66 0.940001 122.8 1.08H122.46C122.17 1.09 121.95 1.36 121.97 1.64C121.99 1.93 122.23 2.13 122.51 2.13H122.84C122.71 2.27 122.52 2.36 122.31 2.37L121.28 2.45L120.36 2.52C120.15 2.54 119.95 2.46 119.81 2.33L120.13 2.31C120.41 2.29 120.63 2.04 120.61 1.75C120.59 1.46 120.35 1.25 120.06 1.27L119.74 1.29C119.87 1.14 120.05 1.03 120.27 1.02L120.28 1.01ZM114.16 1.56L115.09 1.44C115.43 1.4 115.78 1.34 116.12 1.33C116.33 1.31 116.53 1.39 116.68 1.52L116.35 1.55C116.06 1.57 115.86 1.82 115.88 2.1C115.9 2.38 116.16 2.6 116.45 2.58L116.78 2.55C116.66 2.7 116.48 2.81 116.27 2.82C115.93 2.84 115.59 2.89 115.25 2.93L114.33 3.05C114.12 3.08 113.92 3.01 113.77 2.89L114.09 2.85C114.37 2.81 114.58 2.55 114.54 2.27C114.51 1.99 114.25 1.78 113.97 1.82L113.65 1.86C113.77 1.7 113.95 1.59 114.16 1.56ZM108.07 2.4L108.99 2.24C109.33 2.17 109.68 2.13 110.02 2.09C110.23 2.06 110.44 2.13 110.59 2.25L110.26 2.29C109.98 2.33 109.78 2.58 109.82 2.87C109.86 3.15 110.13 3.35 110.41 3.32L110.74 3.28C110.63 3.44 110.45 3.55 110.24 3.58C109.9 3.62 109.56 3.66 109.22 3.73L108.31 3.89C108.1 3.93 107.9 3.87 107.74 3.75L108.06 3.69C108.34 3.64 108.53 3.37 108.48 3.09C108.43 2.81 108.17 2.62 107.89 2.67L107.57 2.73C107.68 2.56 107.86 2.44 108.07 2.4ZM102.02 3.53L102.93 3.32C103.27 3.25 103.61 3.19 103.95 3.13C104.16 3.09 104.37 3.15 104.53 3.26L104.2 3.32C103.92 3.37 103.73 3.64 103.79 3.92C103.85 4.2 104.12 4.39 104.4 4.34L104.73 4.28C104.62 4.44 104.45 4.57 104.24 4.6C103.9 4.66 103.56 4.71 103.23 4.79L102.33 5C102.12 5.05 101.92 5 101.76 4.89L102.07 4.82C102.35 4.76 102.52 4.48 102.47 4.2C102.41 3.92 102.14 3.75 101.86 3.81L101.55 3.88C101.65 3.71 101.82 3.58 102.03 3.53H102.02ZM96.04 4.96L96.94 4.71L97.95 4.48C98.16 4.43 98.37 4.48 98.54 4.58L98.21 4.66C97.93 4.72 97.76 5 97.83 5.28C97.9 5.56 98.18 5.73 98.46 5.67L98.78 5.6C98.68 5.77 98.52 5.9 98.31 5.95L97.31 6.18L96.42 6.43C96.22 6.49 96.01 6.45 95.84 6.35L96.15 6.26C96.42 6.18 96.59 5.9 96.51 5.62C96.44 5.34 96.16 5.18 95.88 5.26L95.57 5.35C95.66 5.17 95.83 5.03 96.03 4.98L96.04 4.96ZM90.13 6.67C90.43 6.57 90.72 6.46 91.02 6.38L92.02 6.1C92.23 6.04 92.44 6.08 92.61 6.17L92.29 6.26C92.01 6.34 91.86 6.62 91.94 6.9C92.02 7.18 92.31 7.33 92.59 7.26L92.91 7.17C92.82 7.34 92.66 7.48 92.46 7.54L91.47 7.82C91.17 7.9 90.88 8.01 90.59 8.1C90.39 8.17 90.18 8.14 90.01 8.05L90.31 7.95C90.58 7.86 90.73 7.56 90.64 7.29C90.55 7.02 90.26 6.87 89.99 6.96L89.68 7.06C89.77 6.88 89.92 6.73 90.13 6.66V6.67ZM84.31 8.67C84.6 8.55 84.89 8.44 85.19 8.35L86.18 8.02C86.38 7.95 86.6 7.97 86.77 8.07L86.45 8.18C86.18 8.27 86.04 8.57 86.13 8.83C86.23 9.1 86.52 9.24 86.79 9.15L87.11 9.04C87.03 9.22 86.88 9.36 86.68 9.43L85.71 9.76C85.42 9.85 85.13 9.97 84.84 10.08C84.64 10.16 84.43 10.14 84.26 10.06L84.56 9.94C84.82 9.84 84.96 9.53 84.86 9.26C84.76 8.99 84.46 8.86 84.2 8.96L83.9 9.08C83.98 8.9 84.13 8.74 84.33 8.66L84.31 8.67ZM78.6 10.94C78.88 10.81 79.17 10.69 79.46 10.58L80.43 10.2C80.63 10.12 80.84 10.13 81.02 10.22L80.71 10.34C80.44 10.45 80.31 10.75 80.42 11.01C80.53 11.27 80.83 11.4 81.1 11.3L81.41 11.18C81.34 11.36 81.19 11.52 81 11.59L80.04 11.97C79.75 12.08 79.47 12.2 79.19 12.33C79 12.42 78.79 12.41 78.61 12.33L78.9 12.2C79.16 12.08 79.28 11.77 79.17 11.51C79.06 11.25 78.76 11.13 78.49 11.25L78.2 11.38C78.27 11.19 78.41 11.03 78.6 10.94ZM73 13.49C73.28 13.34 73.56 13.22 73.85 13.09L74.8 12.66C75 12.57 75.21 12.57 75.39 12.65L75.08 12.79C74.82 12.91 74.7 13.21 74.83 13.47C74.95 13.73 75.26 13.84 75.52 13.73L75.82 13.59C75.76 13.78 75.62 13.94 75.43 14.02L74.49 14.44C74.21 14.57 73.93 14.69 73.65 14.84C73.46 14.94 73.25 14.94 73.07 14.88L73.36 14.73C73.61 14.6 73.72 14.29 73.59 14.03C73.46 13.77 73.16 13.67 72.9 13.8L72.61 13.95C72.67 13.76 72.8 13.59 72.99 13.49H73ZM67.53 16.31C67.8 16.15 68.08 16.02 68.36 15.87L69.29 15.4C69.48 15.3 69.69 15.29 69.88 15.36L69.58 15.51C69.32 15.64 69.23 15.95 69.36 16.2C69.49 16.45 69.81 16.55 70.06 16.42L70.36 16.27C70.31 16.46 70.18 16.63 69.99 16.72L69.07 17.19C68.8 17.33 68.52 17.46 68.25 17.62C68.07 17.73 67.86 17.74 67.67 17.68L67.95 17.52C68.2 17.38 68.28 17.06 68.15 16.81C68.01 16.56 67.7 16.47 67.45 16.61L67.17 16.77C67.22 16.58 67.34 16.4 67.53 16.29V16.31ZM62.2 19.38C62.46 19.21 62.74 19.06 63.01 18.9L63.91 18.38C64.1 18.27 64.31 18.25 64.5 18.31L64.21 18.48C63.96 18.62 63.88 18.94 64.02 19.18C64.17 19.43 64.48 19.51 64.73 19.37L65.02 19.2C64.97 19.39 64.85 19.56 64.67 19.67L63.78 20.18C63.52 20.34 63.24 20.48 62.98 20.65C62.8 20.76 62.59 20.79 62.4 20.74L62.67 20.57C62.91 20.42 62.98 20.09 62.84 19.85C62.69 19.6 62.37 19.53 62.13 19.68L61.86 19.85C61.9 19.65 62.02 19.47 62.2 19.36V19.38ZM57.03 22.71C57.28 22.53 57.55 22.37 57.81 22.2L58.69 21.64C58.87 21.52 59.08 21.5 59.28 21.54L59 21.72C58.76 21.88 58.69 22.19 58.85 22.43C59.01 22.67 59.33 22.74 59.57 22.58L59.85 22.4C59.81 22.59 59.7 22.77 59.52 22.89L58.65 23.45C58.39 23.62 58.13 23.77 57.88 23.96C57.71 24.08 57.5 24.12 57.31 24.08L57.57 23.89C57.8 23.72 57.86 23.4 57.7 23.17C57.54 22.93 57.22 22.87 56.98 23.04L56.72 23.23C56.75 23.03 56.86 22.85 57.03 22.72V22.71ZM52.02 26.28C52.26 26.08 52.53 25.91 52.78 25.73L53.63 25.13C53.8 25.01 54.01 24.97 54.21 25L53.94 25.19C53.71 25.36 53.65 25.68 53.82 25.91C53.99 26.14 54.31 26.19 54.55 26.03L54.82 25.84C54.79 26.03 54.69 26.22 54.52 26.34L53.68 26.94C53.43 27.12 53.17 27.29 52.93 27.48C52.76 27.61 52.56 27.66 52.37 27.63L52.62 27.43C52.84 27.25 52.89 26.93 52.72 26.7C52.55 26.47 52.22 26.42 52 26.6L51.75 26.8C51.77 26.6 51.87 26.41 52.04 26.28H52.02ZM47.19 30.09C47.42 29.88 47.68 29.7 47.92 29.5L48.74 28.86C48.91 28.73 49.12 28.68 49.31 28.71L49.05 28.92C48.82 29.1 48.79 29.42 48.97 29.64C49.15 29.86 49.48 29.9 49.7 29.72L49.96 29.51C49.94 29.71 49.85 29.89 49.68 30.02L48.87 30.66C48.63 30.85 48.38 31.03 48.15 31.24C47.99 31.38 47.79 31.43 47.59 31.41L47.83 31.2C48.04 31.01 48.07 30.69 47.89 30.47C47.71 30.25 47.38 30.22 47.16 30.41L46.92 30.62C46.93 30.42 47.02 30.22 47.18 30.08L47.19 30.09ZM42.54 34.12C42.77 33.9 43.01 33.71 43.24 33.5L44.03 32.82C44.19 32.68 44.4 32.62 44.6 32.64L44.35 32.86C44.13 33.05 44.11 33.37 44.3 33.59C44.49 33.8 44.82 33.83 45.03 33.64L45.28 33.42C45.28 33.62 45.19 33.81 45.03 33.95L44.25 34.62C44.02 34.82 43.78 35.02 43.56 35.23C43.41 35.38 43.21 35.44 43.01 35.43L43.24 35.21C43.44 35.01 43.46 34.69 43.27 34.48C43.08 34.27 42.75 34.25 42.54 34.45L42.31 34.67C42.31 34.47 42.39 34.27 42.55 34.12H42.54ZM38.1 38.37C38.31 38.14 38.55 37.94 38.77 37.72L39.52 37C39.68 36.85 39.88 36.78 40.08 36.79L39.84 37.02C39.63 37.22 39.63 37.54 39.83 37.75C40.03 37.95 40.36 37.96 40.56 37.77L40.8 37.54C40.8 37.74 40.73 37.93 40.57 38.08L39.83 38.79C39.61 39.01 39.38 39.21 39.17 39.43C39.02 39.58 38.83 39.66 38.63 39.66L38.85 39.43C39.04 39.22 39.04 38.9 38.85 38.69C38.65 38.49 38.32 38.48 38.12 38.69L37.9 38.92C37.9 38.72 37.96 38.52 38.11 38.36L38.1 38.37ZM33.86 42.83C34.06 42.59 34.29 42.37 34.5 42.15L35.22 41.4C35.37 41.24 35.57 41.17 35.77 41.17L35.54 41.41C35.34 41.62 35.35 41.94 35.56 42.14C35.77 42.34 36.1 42.33 36.29 42.12L36.52 41.88C36.53 42.08 36.46 42.28 36.32 42.43L35.61 43.17C35.4 43.4 35.18 43.61 34.98 43.85C34.84 44.01 34.65 44.09 34.45 44.1L34.66 43.86C34.84 43.64 34.83 43.32 34.62 43.13C34.41 42.94 34.08 42.95 33.89 43.17L33.68 43.41C33.66 43.21 33.72 43 33.86 42.84V42.83ZM29.84 47.49C30.03 47.24 30.25 47.02 30.45 46.78L31.13 45.99C31.27 45.83 31.47 45.74 31.66 45.73L31.44 45.98C31.25 46.2 31.28 46.52 31.5 46.71C31.72 46.89 32.05 46.87 32.23 46.66L32.45 46.41C32.47 46.61 32.41 46.81 32.27 46.97L31.6 47.75C31.4 47.99 31.19 48.21 31 48.45C30.87 48.62 30.68 48.71 30.49 48.73L30.69 48.48C30.86 48.25 30.83 47.93 30.61 47.75C30.39 47.57 30.06 47.6 29.88 47.82L29.68 48.07C29.65 47.87 29.7 47.66 29.84 47.49ZM26.04 52.33C26.22 52.08 26.42 51.84 26.61 51.59L27.25 50.77C27.38 50.6 27.57 50.5 27.77 50.49L27.56 50.75C27.38 50.98 27.42 51.3 27.65 51.47C27.88 51.64 28.2 51.6 28.38 51.38L28.59 51.12C28.62 51.31 28.57 51.52 28.44 51.69L27.8 52.5C27.61 52.74 27.41 52.98 27.23 53.23C27.11 53.4 26.92 53.5 26.73 53.53L26.92 53.27C27.08 53.04 27.04 52.71 26.81 52.54C26.58 52.37 26.25 52.41 26.09 52.65L25.9 52.91C25.86 52.71 25.9 52.5 26.03 52.33H26.04ZM22.48 57.34C22.65 57.08 22.84 56.83 23.02 56.57L23.62 55.72C23.74 55.55 23.93 55.44 24.13 55.41L23.94 55.68C23.77 55.91 23.83 56.24 24.06 56.4C24.3 56.56 24.62 56.51 24.78 56.28L24.97 56.01C25.01 56.2 24.97 56.41 24.85 56.58L24.25 57.42C24.07 57.67 23.89 57.92 23.72 58.18C23.61 58.36 23.43 58.47 23.24 58.5L23.41 58.23C23.56 57.99 23.5 57.67 23.27 57.51C23.03 57.35 22.71 57.41 22.55 57.65L22.38 57.92C22.34 57.72 22.36 57.51 22.48 57.33V57.34ZM19.17 62.53L19.67 61.74L20.23 60.86C20.35 60.68 20.53 60.57 20.72 60.53L20.54 60.81C20.39 61.05 20.46 61.37 20.7 61.52C20.94 61.67 21.26 61.6 21.42 61.36L21.6 61.08C21.65 61.27 21.62 61.48 21.51 61.66L20.95 62.53L20.45 63.31C20.34 63.49 20.17 63.61 19.98 63.66L20.14 63.38C20.28 63.13 20.21 62.82 19.96 62.67C19.72 62.52 19.39 62.59 19.25 62.85L19.09 63.13C19.04 62.94 19.06 62.72 19.16 62.54L19.17 62.53ZM17.08 66.14C17.19 65.95 17.36 65.83 17.55 65.78L17.38 66.07C17.24 66.32 17.32 66.63 17.57 66.77C17.82 66.91 18.14 66.82 18.28 66.58L18.45 66.29C18.51 66.48 18.49 66.69 18.38 66.87L17.87 67.76L17.41 68.56C17.31 68.75 17.15 68.88 16.96 68.93L17.11 68.64C17.24 68.38 17.15 68.08 16.9 67.94C16.65 67.8 16.32 67.89 16.2 68.15L16.05 68.44C15.99 68.25 16 68.04 16.09 67.84L16.55 67.03L17.07 66.13L17.08 66.14ZM14.2 71.57C14.3 71.38 14.47 71.25 14.66 71.19L14.51 71.49C14.38 71.75 14.48 72.06 14.74 72.18C15 72.31 15.31 72.21 15.44 71.95L15.59 71.65C15.66 71.84 15.65 72.05 15.55 72.23L15.08 73.15L14.66 73.97C14.57 74.16 14.41 74.3 14.23 74.36L14.36 74.07C14.47 73.81 14.38 73.51 14.12 73.38C13.87 73.26 13.54 73.36 13.43 73.62L13.3 73.91C13.23 73.72 13.23 73.51 13.31 73.31L13.74 72.48L14.21 71.55L14.2 71.57ZM11.58 77.14C11.67 76.95 11.83 76.81 12.02 76.74L11.88 77.05C11.76 77.31 11.88 77.62 12.14 77.73C12.4 77.84 12.71 77.73 12.83 77.47L12.97 77.17C13.04 77.35 13.05 77.56 12.97 77.76L12.55 78.7L12.17 79.54C12.08 79.73 11.94 79.88 11.75 79.95L11.87 79.65C11.97 79.39 11.87 79.09 11.6 78.97C11.34 78.86 11.02 78.97 10.92 79.24L10.8 79.54C10.72 79.36 10.7 79.14 10.79 78.94L11.18 78.09L11.61 77.14H11.58ZM9.23001 82.82C9.31001 82.62 9.46001 82.47 9.65001 82.4L9.53001 82.71C9.42001 82.98 9.56001 83.28 9.82001 83.38C10.09 83.48 10.39 83.35 10.49 83.09L10.61 82.78C10.69 82.96 10.71 83.17 10.63 83.37L10.25 84.33L9.91001 85.19C9.83001 85.39 9.69001 85.54 9.51001 85.62L9.61001 85.32C9.71001 85.05 9.58001 84.76 9.31001 84.66C9.04001 84.56 8.74001 84.7 8.64001 84.96L8.54001 85.27C8.45001 85.09 8.42001 84.88 8.50001 84.68L8.84001 83.81L9.22001 82.84L9.23001 82.82ZM7.16001 88.61C7.23001 88.41 7.38001 88.25 7.56001 88.17L7.45001 88.49C7.36001 88.76 7.50001 89.05 7.78001 89.14C8.05001 89.23 8.35001 89.08 8.44001 88.81L8.55001 88.49C8.64001 88.66 8.67001 88.87 8.60001 89.07L8.27001 90.04L7.97001 90.92C7.90001 91.12 7.76001 91.27 7.58001 91.36C7.61001 91.26 7.64001 91.15 7.67001 91.05C7.76001 90.78 7.61001 90.49 7.34001 90.41C7.07001 90.32 6.77001 90.47 6.68001 90.75C6.64001 90.85 6.62001 90.96 6.59001 91.06C6.49001 90.88 6.46001 90.67 6.53001 90.47L6.83001 89.58L7.16001 88.59V88.61ZM5.37001 94.5C5.43001 94.29 5.57001 94.13 5.74001 94.04L5.65001 94.36C5.57001 94.64 5.73001 94.92 6.01001 95C6.29001 95.08 6.57001 94.92 6.65001 94.64L6.74001 94.32C6.84001 94.49 6.87001 94.7 6.82001 94.9L6.54001 95.89L6.29001 96.78C6.23001 96.98 6.09001 97.14 5.92001 97.24L6.01001 96.93C6.09001 96.66 5.93001 96.38 5.65001 96.3C5.37001 96.23 5.09001 96.39 5.01001 96.67L4.92001 96.98C4.82001 96.81 4.78001 96.6 4.84001 96.4L5.10001 95.5L5.38001 94.5H5.37001ZM3.86001 100.46C3.91001 100.25 4.04001 100.08 4.21001 99.98L4.13001 100.31C4.07001 100.59 4.24001 100.87 4.52001 100.93C4.80001 100.99 5.08001 100.82 5.14001 100.54L5.21001 100.22C5.32001 100.38 5.36001 100.59 5.32001 100.8L5.09001 101.8L4.88001 102.7C4.83001 102.91 4.70001 103.07 4.53001 103.18L4.60001 102.87C4.66001 102.59 4.49001 102.32 4.21001 102.26C3.93001 102.2 3.65001 102.38 3.59001 102.66L3.52001 102.97C3.41001 102.81 3.37001 102.6 3.41001 102.39L3.62001 101.48L3.85001 100.47L3.86001 100.46ZM2.30001 108.44L2.46001 107.52L2.64001 106.5C2.68001 106.29 2.80001 106.11 2.96001 106.01L2.90001 106.34C2.85001 106.62 3.04001 106.89 3.32001 106.94C3.60001 106.99 3.87001 106.8 3.92001 106.52L3.98001 106.19C4.10001 106.35 4.15001 106.55 4.11001 106.76L3.93001 107.77L3.77001 108.68C3.73001 108.89 3.61001 109.06 3.45001 109.17L3.51001 108.85C3.56001 108.57 3.37001 108.31 3.09001 108.26C2.81001 108.21 2.54001 108.41 2.49001 108.69L2.43001 109.01C2.31001 108.85 2.26001 108.65 2.30001 108.44ZM1.48001 114.53L1.60001 113.6L1.73001 112.57C1.76001 112.36 1.87001 112.18 2.03001 112.06L1.99001 112.39C1.95001 112.67 2.15001 112.93 2.44001 112.97C2.72001 113.01 2.98001 112.81 3.02001 112.52L3.06001 112.19C3.18001 112.34 3.25001 112.54 3.22001 112.75L3.09001 113.77L2.97001 114.69C2.94001 114.9 2.83001 115.08 2.67001 115.2L2.71001 114.88C2.75001 114.6 2.54001 114.34 2.26001 114.31C1.98001 114.28 1.72001 114.48 1.68001 114.77L1.64001 115.09C1.52001 114.94 1.45001 114.74 1.48001 114.52V114.53ZM0.940014 120.66L1.01001 119.73L1.09001 118.69C1.11001 118.48 1.21001 118.29 1.36001 118.17L1.33001 118.5C1.31001 118.79 1.52001 119.04 1.81001 119.06C2.10001 119.08 2.34001 118.87 2.37001 118.59L2.40001 118.26C2.53001 118.41 2.61001 118.6 2.59001 118.82L2.51001 119.85L2.44001 120.77C2.42001 120.98 2.32001 121.17 2.17001 121.29L2.19001 120.97C2.21001 120.69 2.00001 120.44 1.71001 120.42C1.42001 120.4 1.18001 120.62 1.15001 120.9L1.13001 121.22C1.00001 121.07 0.920014 120.88 0.940014 120.66ZM0.700014 126.8L0.720014 125.86L0.750014 124.82C0.750014 124.61 0.850014 124.42 1.00001 124.28V124.62C0.980014 124.91 1.21001 125.15 1.50001 125.15C1.79001 125.15 2.02001 124.93 2.03001 124.65V124.32C2.18001 124.46 2.26001 124.65 2.26001 124.87L2.23001 125.9L2.21001 126.83C2.21001 127.04 2.11001 127.23 1.96001 127.37V127.05C1.98001 126.77 1.75001 126.53 1.46001 126.53C1.17001 126.53 0.940014 126.75 0.930014 127.04V127.36C0.780014 127.22 0.700014 127.03 0.700014 126.81V126.8ZM0.990014 133.17V133.49C0.850014 133.36 0.760014 133.17 0.750014 132.95L0.730014 132.01L0.700014 130.97C0.700014 130.76 0.780014 130.56 0.920014 130.42V130.76C0.940014 131.05 1.17001 131.28 1.46001 131.27C1.75001 131.27 1.97001 131.03 1.96001 130.75V130.42C2.10001 130.55 2.19001 130.74 2.20001 130.96L2.23001 131.99L2.25001 132.92C2.25001 133.13 2.17001 133.33 2.03001 133.47V133.15C2.01001 132.87 1.78001 132.64 1.49001 132.65C1.20001 132.65 0.980014 132.9 0.990014 133.18V133.17ZM1.33001 139.3L1.35001 139.62C1.20001 139.5 1.09001 139.31 1.08001 139.1L1.01001 138.17L0.930014 137.13C0.910014 136.92 0.990014 136.72 1.12001 136.57L1.15001 136.9C1.17001 137.19 1.42001 137.4 1.71001 137.38C2.00001 137.36 2.21001 137.12 2.19001 136.83L2.16001 136.5C2.31001 136.63 2.42001 136.81 2.43001 137.02L2.51001 138.05L2.58001 138.97C2.60001 139.18 2.52001 139.38 2.39001 139.53L2.37001 139.21C2.35001 138.93 2.10001 138.71 1.81001 138.74C1.52001 138.77 1.31001 139.01 1.33001 139.3ZM1.97001 145.4L2.01001 145.72C1.85001 145.6 1.74001 145.42 1.71001 145.21L1.59001 144.28L1.46001 143.25C1.43001 143.04 1.50001 142.84 1.62001 142.69L1.66001 143.02C1.70001 143.3 1.96001 143.51 2.24001 143.48C2.52001 143.45 2.73001 143.19 2.69001 142.91L2.65001 142.58C2.81001 142.7 2.92001 142.88 2.95001 143.09L3.08001 144.11L3.20001 145.03C3.23001 145.24 3.16001 145.44 3.04001 145.59L3.00001 145.27C2.96001 144.99 2.70001 144.79 2.42001 144.82C2.14001 144.86 1.94001 145.11 1.97001 145.4ZM3.32001 150.87C3.04001 150.92 2.85001 151.19 2.90001 151.47L2.96001 151.79C2.80001 151.68 2.67001 151.51 2.63001 151.29L2.47001 150.37L2.29001 149.35C2.25001 149.14 2.31001 148.93 2.42001 148.78L2.48001 149.11C2.53001 149.39 2.80001 149.58 3.08001 149.54C3.36001 149.49 3.55001 149.23 3.50001 148.95L3.44001 148.62C3.61001 148.73 3.73001 148.91 3.76001 149.11L3.94001 150.12L4.10001 151.03C4.14001 151.24 4.08001 151.44 3.97001 151.6L3.91001 151.28C3.86001 151 3.59001 150.81 3.31001 150.86L3.32001 150.87ZM4.50001 156.87C4.22001 156.93 4.05001 157.21 4.11001 157.49L4.18001 157.81C4.01001 157.71 3.88001 157.54 3.83001 157.33L3.62001 156.42L3.39001 155.41C3.34001 155.2 3.39001 154.99 3.50001 154.83L3.58001 155.16C3.64001 155.44 3.92001 155.62 4.20001 155.56C4.48001 155.5 4.65001 155.23 4.59001 154.95L4.52001 154.63C4.69001 154.73 4.82001 154.9 4.87001 155.11L5.10001 156.11L5.31001 157.01C5.36001 157.22 5.31001 157.42 5.20001 157.59L5.13001 157.28C5.07001 157 4.79001 156.83 4.51001 156.89L4.50001 156.87ZM5.98001 162.8C5.70001 162.88 5.54001 163.16 5.62001 163.44L5.71001 163.75C5.53001 163.66 5.40001 163.49 5.34001 163.29L5.08001 162.39L4.80001 161.39C4.74001 161.18 4.77001 160.98 4.88001 160.81C4.90001 160.92 4.93001 161.03 4.96001 161.13C5.04001 161.41 5.33001 161.57 5.60001 161.5C5.88001 161.43 6.04001 161.15 5.96001 160.87C5.93001 160.76 5.90001 160.66 5.88001 160.55C6.05001 160.65 6.19001 160.81 6.25001 161.01L6.53001 162L6.78001 162.89C6.84001 163.09 6.80001 163.3 6.70001 163.47L6.61001 163.16C6.53001 162.89 6.25001 162.73 5.97001 162.8H5.98001ZM7.74001 168.65C7.47001 168.74 7.32001 169.03 7.41001 169.3L7.51001 169.61C7.33001 169.53 7.18001 169.37 7.11001 169.17L6.81001 168.28L6.48001 167.29C6.41001 167.09 6.44001 166.87 6.54001 166.7L6.63001 167.02C6.72001 167.29 7.02001 167.44 7.29001 167.36C7.56001 167.27 7.71001 166.99 7.62001 166.72L7.53001 166.4C7.70001 166.49 7.84001 166.65 7.91001 166.85L8.24001 167.82L8.54001 168.7C8.61001 168.9 8.58001 169.11 8.49001 169.28L8.39001 168.98C8.30001 168.71 8.00001 168.56 7.73001 168.65H7.74001ZM10.45 174.71C10.35 174.45 10.04 174.31 9.78001 174.42C9.51001 174.52 9.38001 174.82 9.49001 175.09L9.61001 175.39C9.43001 175.31 9.27001 175.17 9.19001 174.97L8.85001 174.1L8.47001 173.13C8.39001 172.93 8.42001 172.71 8.51001 172.54L8.62001 172.86C8.71001 173.13 9.03001 173.26 9.29001 173.17C9.56001 173.07 9.69001 172.78 9.59001 172.51L9.48001 172.19C9.66001 172.27 9.80001 172.42 9.88001 172.62L10.26 173.58L10.6 174.44C10.68 174.64 10.66 174.85 10.58 175.03L10.46 174.73L10.45 174.71ZM12.92 180.63L12.79 180.34C12.67 180.08 12.37 179.96 12.1 180.08C11.84 180.19 11.72 180.5 11.84 180.76L11.97 181.05C11.78 180.98 11.62 180.84 11.53 180.65L11.14 179.8L10.71 178.85C10.63 178.65 10.64 178.44 10.73 178.25L10.85 178.56C10.95 178.83 11.27 178.95 11.53 178.83C11.8 178.72 11.9 178.42 11.8 178.15L11.68 177.84C11.86 177.91 12.01 178.05 12.09 178.25L12.51 179.19L12.89 180.03C12.98 180.22 12.97 180.43 12.89 180.62L12.92 180.63ZM15.53 186.13L15.38 185.84C15.25 185.59 14.94 185.48 14.68 185.61C14.42 185.74 14.32 186.05 14.45 186.3L14.6 186.59C14.41 186.53 14.24 186.4 14.14 186.21L13.71 185.38L13.24 184.45C13.15 184.26 13.15 184.04 13.23 183.85L13.37 184.16C13.48 184.42 13.8 184.53 14.06 184.4C14.32 184.28 14.42 183.97 14.31 183.71L14.17 183.41C14.36 183.47 14.51 183.61 14.6 183.8L15.06 184.72L15.48 185.54C15.58 185.73 15.58 185.94 15.52 186.12L15.53 186.13ZM18.41 191.5L18.25 191.22C18.11 190.97 17.79 190.89 17.54 191.03C17.29 191.17 17.2 191.48 17.35 191.73L17.51 192.01C17.32 191.96 17.14 191.84 17.04 191.65L16.57 190.84C16.4 190.54 16.22 190.24 16.06 189.93C15.96 189.74 15.95 189.52 16.02 189.34L16.17 189.64C16.3 189.9 16.61 189.99 16.87 189.85C17.12 189.71 17.21 189.4 17.08 189.15L16.93 188.85C17.12 188.9 17.28 189.03 17.38 189.22C17.54 189.52 17.72 189.82 17.89 190.12L18.35 190.92C18.46 191.1 18.47 191.31 18.42 191.5H18.41ZM21.54 196.72L21.37 196.45C21.22 196.21 20.9 196.14 20.65 196.29C20.41 196.44 20.34 196.76 20.49 197L20.66 197.27C20.47 197.23 20.28 197.12 20.17 196.94L19.66 196.15C19.48 195.86 19.28 195.57 19.11 195.27C19 195.08 18.98 194.87 19.04 194.68L19.21 194.97C19.35 195.22 19.67 195.3 19.92 195.15C20.16 195 20.24 194.68 20.1 194.44L19.93 194.15C20.12 194.19 20.29 194.31 20.4 194.5C20.57 194.8 20.77 195.08 20.95 195.37L21.45 196.15C21.56 196.33 21.59 196.54 21.54 196.73V196.72ZM24.73 201.52C24.57 201.29 24.24 201.23 24.01 201.39C23.77 201.55 23.72 201.87 23.89 202.11L24.08 202.37C23.88 202.34 23.7 202.23 23.57 202.06L23.03 201.3C22.83 201.01 22.62 200.74 22.44 200.45C22.32 200.27 22.29 200.06 22.34 199.86L22.52 200.14C22.67 200.38 22.99 200.45 23.23 200.28C23.46 200.12 23.53 199.8 23.38 199.56L23.2 199.28C23.39 199.32 23.57 199.43 23.68 199.6C23.86 199.89 24.07 200.16 24.27 200.44L24.81 201.19C24.93 201.36 24.97 201.57 24.93 201.76L24.74 201.5L24.73 201.52ZM28.33 206.43C28.15 206.21 27.83 206.17 27.6 206.34C27.37 206.51 27.33 206.84 27.51 207.06L27.71 207.31C27.51 207.29 27.32 207.19 27.19 207.02L26.61 206.28C26.4 206 26.17 205.74 25.98 205.45C25.86 205.28 25.82 205.06 25.85 204.87L26.04 205.14C26.21 205.37 26.53 205.42 26.76 205.25C26.99 205.08 27.04 204.75 26.87 204.52L26.68 204.25C26.87 204.28 27.06 204.38 27.18 204.55C27.37 204.83 27.6 205.09 27.81 205.37L28.38 206.1C28.51 206.27 28.56 206.47 28.53 206.67L28.33 206.42V206.43ZM32.17 211.16C31.98 210.95 31.66 210.92 31.44 211.1C31.22 211.28 31.2 211.61 31.38 211.83L31.59 212.07C31.39 212.06 31.2 211.97 31.06 211.81L30.45 211.1C30.23 210.83 29.99 210.58 29.78 210.31C29.65 210.14 29.6 209.93 29.62 209.73L29.83 209.99C30.01 210.22 30.33 210.25 30.55 210.07C30.77 209.89 30.81 209.56 30.63 209.34L30.42 209.08C30.61 209.1 30.8 209.19 30.93 209.36C31.14 209.63 31.37 209.88 31.59 210.15L32.2 210.85C32.34 211.01 32.39 211.21 32.38 211.41L32.17 211.17V211.16ZM36.22 215.71C36.02 215.5 35.69 215.5 35.48 215.69C35.27 215.88 35.26 216.21 35.46 216.42L35.68 216.65C35.48 216.65 35.28 216.57 35.13 216.42L34.48 215.74C34.24 215.49 33.99 215.25 33.77 214.98C33.63 214.82 33.57 214.61 33.59 214.41L33.81 214.66C34 214.88 34.32 214.9 34.53 214.7C34.74 214.51 34.76 214.18 34.57 213.96L34.35 213.71C34.55 213.71 34.74 213.8 34.88 213.96C35.1 214.22 35.35 214.46 35.58 214.71L36.22 215.38C36.37 215.53 36.43 215.73 36.42 215.93L36.2 215.7L36.22 215.71ZM40.49 220.05C40.28 219.85 39.96 219.86 39.75 220.06C39.54 220.26 39.56 220.59 39.76 220.79L39.99 221.01C39.79 221.01 39.59 220.95 39.43 220.8L38.75 220.15C38.5 219.91 38.24 219.68 38.01 219.42C37.86 219.27 37.79 219.06 37.8 218.86L38.03 219.1C38.23 219.31 38.55 219.31 38.76 219.1C38.96 218.9 38.97 218.57 38.76 218.36L38.53 218.12C38.73 218.12 38.92 218.19 39.07 218.35C39.3 218.6 39.56 218.83 39.81 219.07L40.48 219.71C40.63 219.86 40.71 220.05 40.71 220.25L40.48 220.03L40.49 220.05ZM44.96 224.19C44.75 224 44.42 224.03 44.23 224.24C44.04 224.45 44.06 224.78 44.28 224.97L44.52 225.18C44.32 225.2 44.12 225.14 43.95 225L43.24 224.39C42.98 224.16 42.71 223.94 42.46 223.7C42.3 223.55 42.23 223.35 42.22 223.15L42.46 223.38C42.67 223.58 42.99 223.57 43.19 223.35C43.38 223.14 43.37 222.81 43.16 222.61L42.92 222.38C43.12 222.37 43.31 222.43 43.47 222.58C43.71 222.82 43.98 223.04 44.24 223.26L44.94 223.87C45.1 224.01 45.18 224.2 45.19 224.4L44.95 224.19H44.96ZM49.62 228.1C49.4 227.92 49.07 227.96 48.89 228.18C48.71 228.4 48.75 228.73 48.97 228.9L49.22 229.1C49.02 229.13 48.81 229.08 48.65 228.95L47.91 228.37C47.64 228.15 47.36 227.95 47.1 227.72C46.94 227.58 46.85 227.38 46.84 227.18L47.09 227.4C47.31 227.59 47.63 227.56 47.81 227.34C47.99 227.12 47.96 226.79 47.75 226.6L47.5 226.38C47.69 226.36 47.9 226.42 48.06 226.55C48.31 226.78 48.59 226.98 48.86 227.2L49.59 227.77C49.76 227.9 49.85 228.09 49.87 228.28L49.62 228.08V228.1ZM54.47 231.8C54.24 231.64 53.91 231.69 53.74 231.92C53.57 232.15 53.62 232.47 53.86 232.64L54.12 232.83C53.92 232.87 53.71 232.83 53.54 232.7L52.78 232.16C52.5 231.96 52.21 231.77 51.94 231.55C51.77 231.42 51.67 231.23 51.65 231.03L51.91 231.24C52.14 231.42 52.46 231.38 52.63 231.15C52.8 230.92 52.76 230.59 52.53 230.42L52.27 230.21C52.46 230.18 52.67 230.23 52.83 230.36C53.09 230.58 53.38 230.77 53.66 230.97L54.41 231.51C54.58 231.63 54.69 231.82 54.71 232.01L54.45 231.82L54.47 231.8ZM59.48 235.25C59.24 235.1 58.92 235.17 58.76 235.4C58.6 235.64 58.67 235.96 58.91 236.11L59.18 236.28C58.99 236.33 58.77 236.3 58.59 236.18L57.8 235.67C57.51 235.48 57.21 235.3 56.93 235.1C56.76 234.98 56.65 234.79 56.62 234.59L56.89 234.78C57.12 234.95 57.44 234.89 57.6 234.65C57.76 234.41 57.7 234.09 57.47 233.92L57.2 233.73C57.39 233.69 57.6 233.73 57.77 233.85C58.05 234.06 58.34 234.23 58.63 234.42L59.41 234.92C59.59 235.03 59.7 235.21 59.74 235.41L59.47 235.24L59.48 235.25ZM64.65 238.46C64.4 238.32 64.09 238.4 63.94 238.65C63.79 238.9 63.88 239.21 64.13 239.35L64.41 239.51C64.22 239.56 64.01 239.55 63.82 239.44L63.01 238.97C62.71 238.8 62.4 238.63 62.12 238.44C61.94 238.32 61.82 238.14 61.78 237.95L62.06 238.13C62.3 238.29 62.62 238.21 62.77 237.97C62.92 237.73 62.84 237.4 62.61 237.25L62.33 237.07C62.52 237.02 62.73 237.05 62.91 237.16C63.19 237.35 63.5 237.51 63.79 237.69L64.59 238.15C64.77 238.26 64.89 238.43 64.94 238.62L64.66 238.46H64.65ZM69.98 241.42C69.73 241.29 69.41 241.39 69.28 241.64C69.15 241.89 69.24 242.2 69.5 242.33L69.79 242.48C69.6 242.54 69.39 242.54 69.2 242.44L68.37 242.01C68.06 241.85 67.75 241.7 67.45 241.52C67.26 241.41 67.14 241.24 67.09 241.04L67.38 241.21C67.63 241.35 67.94 241.27 68.08 241.01C68.22 240.76 68.13 240.44 67.88 240.3L67.59 240.13C67.78 240.07 67.99 240.09 68.17 240.19C68.46 240.37 68.77 240.52 69.08 240.68L69.9 241.1C70.09 241.2 70.22 241.36 70.27 241.55L69.98 241.4V241.42ZM75.43 244.12C75.17 244 74.86 244.12 74.74 244.38C74.62 244.64 74.74 244.94 74.99 245.06L75.28 245.19C75.09 245.26 74.88 245.27 74.69 245.18L73.84 244.79C73.52 244.65 73.21 244.51 72.9 244.34C72.71 244.24 72.58 244.07 72.52 243.88L72.82 244.03C73.08 244.16 73.38 244.06 73.51 243.8C73.64 243.54 73.53 243.23 73.28 243.1L72.98 242.95C73.16 242.88 73.37 242.89 73.56 242.99C73.86 243.15 74.17 243.29 74.49 243.43L75.33 243.81C75.52 243.9 75.66 244.06 75.72 244.24L75.43 244.11V244.12ZM81.01 246.56C80.75 246.46 80.44 246.59 80.33 246.85C80.22 247.11 80.35 247.41 80.62 247.52L80.92 247.64C80.74 247.72 80.52 247.73 80.33 247.66L79.46 247.32C79.14 247.2 78.82 247.06 78.5 246.91C78.31 246.82 78.16 246.66 78.1 246.47L78.41 246.61C78.67 246.73 78.97 246.61 79.09 246.35C79.2 246.09 79.09 245.78 78.82 245.66L78.52 245.52C78.7 245.44 78.91 245.44 79.1 245.52C79.41 245.67 79.73 245.8 80.05 245.92L80.91 246.26C81.11 246.34 81.25 246.49 81.32 246.67L81.02 246.55L81.01 246.56ZM86.71 248.72C86.44 248.63 86.14 248.77 86.05 249.04C85.95 249.31 86.1 249.6 86.37 249.69L86.68 249.79C86.5 249.88 86.29 249.9 86.09 249.84L85.2 249.54C84.87 249.44 84.55 249.3 84.22 249.18C84.02 249.1 83.87 248.95 83.8 248.76L84.11 248.88C84.38 248.99 84.67 248.85 84.77 248.58C84.87 248.31 84.73 248.01 84.47 247.9L84.16 247.78C84.34 247.7 84.55 247.68 84.74 247.76C85.06 247.89 85.38 248.02 85.7 248.12L86.58 248.42C86.78 248.49 86.93 248.63 87.01 248.81L86.71 248.71V248.72ZM92.2 251.6L92.51 251.69C92.34 251.79 92.13 251.82 91.92 251.76L91.02 251.5C90.68 251.41 90.36 251.28 90.03 251.18C89.83 251.11 89.67 250.96 89.59 250.78L89.91 250.89C90.18 250.98 90.47 250.84 90.56 250.56C90.65 250.29 90.5 249.99 90.23 249.9L89.91 249.79C90.08 249.7 90.29 249.67 90.49 249.74C90.82 249.84 91.14 249.97 91.47 250.06L92.36 250.31C92.56 250.37 92.72 250.51 92.81 250.68L92.5 250.59C92.23 250.51 91.94 250.67 91.85 250.94C91.76 251.21 91.92 251.5 92.2 251.58V251.6ZM98.12 253.21L98.44 253.28C98.27 253.39 98.06 253.43 97.85 253.38L96.94 253.17L95.94 252.89C95.73 252.83 95.57 252.69 95.48 252.52L95.8 252.61C96.08 252.69 96.36 252.53 96.43 252.25C96.5 251.97 96.34 251.69 96.07 251.61L95.75 251.52C95.92 251.42 96.12 251.38 96.33 251.44L97.32 251.72L98.22 251.93C98.43 251.98 98.59 252.11 98.69 252.28L98.38 252.21C98.1 252.15 97.82 252.32 97.75 252.6C97.68 252.88 97.85 253.15 98.13 253.22L98.12 253.21ZM104.12 254.54L104.44 254.6C104.28 254.72 104.07 254.77 103.86 254.73C103.55 254.67 103.24 254.63 102.94 254.56L101.93 254.33C101.72 254.28 101.55 254.15 101.45 253.98L101.78 254.06C102.06 254.12 102.33 253.95 102.39 253.67C102.45 253.39 102.27 253.11 102 253.05L101.68 252.98C101.84 252.87 102.05 252.83 102.25 252.87L103.25 253.1C103.55 253.17 103.86 253.21 104.16 253.27C104.37 253.31 104.54 253.43 104.65 253.59L104.33 253.53C104.05 253.48 103.78 253.67 103.72 253.95C103.66 254.23 103.85 254.5 104.13 254.55L104.12 254.54ZM110.17 255.59L110.49 255.63C110.33 255.75 110.13 255.82 109.92 255.79C109.61 255.75 109.3 255.71 108.99 255.65L107.96 255.47C107.75 255.43 107.57 255.31 107.46 255.14L107.79 255.2C108.07 255.25 108.34 255.06 108.38 254.78C108.43 254.5 108.24 254.23 107.96 254.18L107.63 254.12C107.79 254 107.99 253.95 108.2 253.98L109.21 254.16C109.51 254.22 109.82 254.26 110.13 254.3C110.34 254.33 110.52 254.44 110.63 254.6L110.31 254.56C110.03 254.52 109.76 254.72 109.72 255.01C109.68 255.29 109.87 255.55 110.16 255.59H110.17ZM116.26 256.34L116.58 256.36C116.43 256.49 116.23 256.57 116.01 256.55C115.7 256.53 115.39 256.48 115.08 256.44L114.05 256.31C113.84 256.28 113.66 256.17 113.54 256.01L113.87 256.05C114.15 256.09 114.41 255.88 114.44 255.6C114.47 255.32 114.27 255.06 113.99 255.02L113.66 254.98C113.81 254.86 114.01 254.79 114.22 254.82L115.24 254.95C115.55 254.98 115.85 255.04 116.16 255.06C116.37 255.08 116.55 255.18 116.67 255.33L116.35 255.31C116.07 255.29 115.81 255.5 115.78 255.78C115.75 256.07 115.96 256.32 116.24 256.34H116.26ZM122.38 256.8H122.7C122.56 256.94 122.36 257.04 122.14 257.02L121.21 256.95L120.17 256.87C119.96 256.85 119.77 256.75 119.64 256.6L119.97 256.63C120.26 256.65 120.5 256.44 120.52 256.15C120.54 255.86 120.32 255.62 120.04 255.59L119.71 255.56C119.86 255.43 120.05 255.35 120.26 255.37L121.29 255.45L122.21 255.52C122.42 255.54 122.61 255.62 122.74 255.77H122.42C122.14 255.75 121.89 255.96 121.88 256.24C121.86 256.52 122.08 256.78 122.37 256.79L122.38 256.8ZM128.52 256.95H128.84C128.7 257.1 128.51 257.18 128.3 257.18L127.36 257.16L126.32 257.13C126.11 257.13 125.91 257.03 125.78 256.88H126.12C126.41 256.9 126.64 256.67 126.65 256.38C126.65 256.09 126.43 255.86 126.14 255.85H125.81C125.95 255.7 126.14 255.62 126.35 255.62L127.38 255.65L128.31 255.67C128.52 255.67 128.71 255.77 128.85 255.92H128.53C128.25 255.9 128.01 256.13 128.01 256.42C128.01 256.71 128.24 256.94 128.53 256.95H128.52ZM134.45 257.06L133.51 257.08L132.47 257.11C132.26 257.11 132.06 257.03 131.92 256.89H132.26C132.55 256.87 132.77 256.64 132.76 256.35C132.75 256.06 132.51 255.84 132.23 255.85H131.9C132.03 255.71 132.22 255.62 132.43 255.61L133.46 255.58L134.39 255.56C134.6 255.56 134.8 255.64 134.94 255.78H134.62C134.34 255.8 134.11 256.03 134.13 256.32C134.14 256.61 134.38 256.83 134.67 256.82H134.99C134.86 256.96 134.67 257.05 134.46 257.06H134.45ZM140.59 256.64L139.66 256.71L138.62 256.79C138.41 256.81 138.21 256.73 138.06 256.6L138.39 256.57C138.68 256.55 138.89 256.3 138.87 256.01C138.85 255.72 138.6 255.51 138.32 255.53L137.99 255.56C138.12 255.41 138.3 255.3 138.51 255.29L139.54 255.21L140.46 255.14C140.67 255.12 140.87 255.2 141.02 255.33L140.7 255.35C140.42 255.37 140.21 255.62 140.23 255.91C140.25 256.19 140.51 256.41 140.79 256.39L141.11 256.37C140.99 256.52 140.8 256.63 140.59 256.64ZM146.7 255.94L145.77 256.06L144.74 256.19C144.53 256.22 144.32 256.15 144.17 256.03L144.5 255.99C144.78 255.95 144.99 255.69 144.95 255.41C144.91 255.13 144.66 254.93 144.37 254.96L144.04 255C144.16 254.84 144.34 254.73 144.55 254.7L145.57 254.57L146.49 254.45C146.7 254.42 146.9 254.49 147.06 254.61L146.74 254.65C146.46 254.69 146.26 254.94 146.3 255.23C146.34 255.51 146.6 255.71 146.89 255.68L147.21 255.64C147.09 255.8 146.91 255.91 146.7 255.94ZM152.77 254.94L151.85 255.1L150.83 255.28C150.62 255.32 150.41 255.26 150.26 255.15L150.59 255.09C150.87 255.04 151.06 254.77 151.01 254.49C150.96 254.21 150.69 254.02 150.41 254.07L150.08 254.13C150.19 253.96 150.36 253.84 150.57 253.81L151.58 253.63L152.49 253.47C152.7 253.43 152.9 253.49 153.06 253.6L152.74 253.66C152.46 253.71 152.28 253.98 152.33 254.26C152.38 254.54 152.65 254.73 152.94 254.68L153.26 254.62C153.15 254.78 152.98 254.91 152.77 254.94ZM158.78 253.66L157.87 253.87L156.86 254.1C156.65 254.15 156.44 254.1 156.28 253.99L156.61 253.91C156.89 253.85 157.07 253.57 157 253.29C156.94 253.01 156.66 252.84 156.38 252.9L156.06 252.97C156.16 252.8 156.33 252.67 156.53 252.62L157.53 252.39L158.43 252.18C158.64 252.13 158.84 252.18 159.01 252.29L158.7 252.36C158.42 252.42 158.25 252.7 158.32 252.98C158.39 253.26 158.67 253.43 158.94 253.37L159.26 253.3C159.16 253.47 158.99 253.6 158.78 253.65V253.66ZM164.73 252.09L163.83 252.35L162.83 252.63C162.62 252.69 162.41 252.65 162.25 252.55L162.57 252.46C162.85 252.38 163.01 252.09 162.93 251.82C162.85 251.55 162.57 251.38 162.3 251.46L161.98 251.55C162.07 251.37 162.23 251.24 162.44 251.18L163.43 250.9L164.32 250.65C164.52 250.59 164.73 250.63 164.9 250.73L164.59 250.82C164.32 250.9 164.16 251.18 164.24 251.46C164.32 251.74 164.61 251.89 164.88 251.82L165.19 251.73C165.1 251.9 164.94 252.04 164.73 252.1V252.09ZM170.59 250.23L169.7 250.53L168.71 250.86C168.51 250.93 168.3 250.9 168.12 250.81L168.44 250.7C168.71 250.61 168.86 250.31 168.77 250.04C168.68 249.77 168.39 249.62 168.12 249.71L167.8 249.82C167.88 249.64 168.04 249.49 168.24 249.43L169.21 249.1L170.09 248.8C170.29 248.73 170.5 248.76 170.68 248.85L170.38 248.95C170.11 249.04 169.97 249.33 170.06 249.61C170.15 249.88 170.45 250.03 170.72 249.93L171.03 249.83C170.95 250.01 170.79 250.16 170.59 250.22V250.23ZM176.36 248.09L175.49 248.43L174.52 248.81C174.32 248.89 174.11 248.88 173.93 248.79L174.24 248.67C174.51 248.56 174.64 248.26 174.54 248C174.44 247.73 174.14 247.6 173.88 247.71L173.57 247.83C173.65 247.65 173.79 247.49 173.99 247.41L174.95 247.03L175.81 246.69C176.01 246.61 176.22 246.63 176.4 246.71L176.1 246.83C175.84 246.93 175.71 247.23 175.81 247.5C175.91 247.77 176.22 247.9 176.48 247.79L176.78 247.67C176.71 247.85 176.56 248.01 176.36 248.09ZM182.01 245.68L181.16 246.07L180.21 246.5C180.02 246.59 179.8 246.59 179.62 246.51L179.93 246.37C180.19 246.25 180.31 245.94 180.19 245.68C180.07 245.42 179.77 245.3 179.51 245.42L179.21 245.56C179.28 245.37 179.42 245.21 179.61 245.12L180.55 244.7L181.39 244.32C181.58 244.23 181.79 244.24 181.98 244.31L181.69 244.44C181.43 244.56 181.32 244.86 181.43 245.12C181.55 245.38 181.86 245.5 182.12 245.38L182.41 245.25C182.34 245.44 182.21 245.6 182.01 245.69V245.68ZM187.55 242.99L186.72 243.42L185.79 243.89C185.6 243.99 185.39 243.99 185.2 243.93L185.5 243.78C185.76 243.65 185.86 243.34 185.73 243.08C185.6 242.82 185.29 242.72 185.04 242.85L184.74 243C184.8 242.81 184.93 242.64 185.12 242.55L186.04 242.08L186.86 241.66C187.05 241.56 187.26 241.56 187.45 241.62L187.16 241.77C186.91 241.9 186.81 242.21 186.94 242.47C187.07 242.72 187.38 242.83 187.64 242.69L187.93 242.54C187.87 242.73 187.74 242.9 187.55 243V242.99ZM192.94 240.05L192.13 240.52L191.23 241.04C191.04 241.15 190.83 241.16 190.65 241.11L190.94 240.94C191.19 240.8 191.28 240.48 191.14 240.23C191 239.98 190.69 239.89 190.44 240.03L190.15 240.2C190.2 240.01 190.32 239.83 190.5 239.73L191.39 239.22L192.19 238.76C192.37 238.65 192.58 238.64 192.77 238.69L192.49 238.85C192.24 238.99 192.16 239.31 192.3 239.56C192.44 239.81 192.76 239.89 193.01 239.75L193.29 239.59C193.24 239.78 193.12 239.96 192.94 240.06V240.05ZM198.19 236.84L197.4 237.35L196.52 237.91C196.34 238.03 196.13 238.05 195.94 238.01L196.22 237.83C196.46 237.67 196.53 237.35 196.38 237.11C196.23 236.87 195.91 236.8 195.67 236.95L195.39 237.13C195.43 236.93 195.54 236.76 195.72 236.64L196.59 236.08L197.37 235.58C197.55 235.47 197.76 235.44 197.95 235.48L197.68 235.65C197.44 235.8 197.37 236.12 197.53 236.36C197.69 236.6 198.01 236.67 198.25 236.52L198.52 236.35C198.48 236.54 198.37 236.72 198.19 236.84ZM203.28 233.39L202.52 233.93L201.67 234.53C201.5 234.65 201.29 234.69 201.09 234.65L201.36 234.46C201.59 234.29 201.65 233.97 201.49 233.73C201.33 233.49 201.01 233.44 200.77 233.6L200.5 233.79C200.53 233.59 200.63 233.41 200.81 233.29L201.65 232.69L202.4 232.15C202.57 232.03 202.78 231.99 202.97 232.03L202.71 232.22C202.48 232.38 202.42 232.71 202.59 232.94C202.76 233.17 203.08 233.23 203.31 233.06L203.57 232.87C203.54 233.07 203.44 233.25 203.26 233.37L203.28 233.39ZM208.2 229.7L207.46 230.28L206.64 230.92C206.47 231.05 206.27 231.1 206.07 231.07L206.33 230.86C206.56 230.68 206.6 230.36 206.42 230.13C206.24 229.9 205.92 229.86 205.7 230.04L205.44 230.25C205.46 230.05 205.56 229.86 205.72 229.73L206.53 229.09L207.26 228.52C207.43 228.39 207.63 228.34 207.83 228.37L207.58 228.57C207.36 228.75 207.32 229.07 207.49 229.3C207.67 229.53 207.99 229.56 208.22 229.39L208.47 229.19C208.45 229.39 208.35 229.58 208.19 229.71L208.2 229.7ZM212.94 225.78L212.23 226.39L211.44 227.07C211.28 227.21 211.07 227.27 210.88 227.25L211.13 227.03C211.35 226.84 211.37 226.51 211.19 226.29C211 226.07 210.68 226.05 210.47 226.23L210.22 226.45C210.23 226.25 210.32 226.06 210.48 225.92L211.26 225.25L211.96 224.64C212.12 224.5 212.32 224.44 212.52 224.46L212.28 224.67C212.07 224.86 212.04 225.18 212.23 225.4C212.42 225.62 212.74 225.64 212.96 225.45L213.2 225.24C213.2 225.44 213.1 225.63 212.94 225.77V225.78ZM217.49 221.64L216.81 222.29L216.06 223.01C215.91 223.16 215.7 223.23 215.51 223.21L215.75 222.98C215.96 222.78 215.97 222.45 215.77 222.24C215.57 222.03 215.25 222.02 215.04 222.22L214.8 222.45C214.8 222.25 214.88 222.05 215.03 221.91L215.77 221.2L216.44 220.56C216.59 220.41 216.79 220.35 216.99 220.36L216.76 220.58C216.55 220.78 216.55 221.1 216.74 221.31C216.94 221.52 217.27 221.52 217.47 221.33L217.7 221.11C217.7 221.31 217.62 221.51 217.47 221.65L217.49 221.64ZM221.83 217.28L221.18 217.96L220.46 218.71C220.31 218.87 220.11 218.94 219.92 218.94L220.15 218.7C220.35 218.49 220.34 218.16 220.14 217.96C219.94 217.76 219.61 217.77 219.41 217.97L219.18 218.21C219.18 218.01 219.24 217.81 219.39 217.66L220.1 216.92L220.74 216.25C220.89 216.1 221.08 216.02 221.28 216.02L221.06 216.25C220.86 216.46 220.87 216.78 221.08 216.98C221.29 217.18 221.61 217.17 221.81 216.96L222.03 216.73C222.03 216.93 221.97 217.13 221.82 217.28H221.83ZM225.96 212.73L225.35 213.44L224.67 214.23C224.53 214.39 224.34 214.48 224.14 214.49L224.36 214.24C224.55 214.02 224.53 213.69 224.31 213.5C224.09 213.31 223.77 213.33 223.59 213.55L223.37 213.8C223.35 213.6 223.41 213.4 223.55 213.24L224.22 212.46L224.83 211.76C224.97 211.6 225.16 211.51 225.36 211.5L225.15 211.74C224.96 211.95 224.99 212.28 225.2 212.47C225.42 212.66 225.74 212.63 225.93 212.42L226.14 212.18C226.16 212.38 226.1 212.58 225.96 212.74V212.73ZM229.87 207.98L229.29 208.72L228.65 209.54C228.52 209.71 228.33 209.8 228.13 209.82L228.34 209.56C228.52 209.33 228.48 209.01 228.26 208.83C228.04 208.65 227.71 208.69 227.54 208.91L227.33 209.17C227.3 208.97 227.35 208.77 227.48 208.6L228.12 207.79L228.69 207.06C228.82 206.89 229.01 206.8 229.21 206.78L229.01 207.03C228.83 207.25 228.87 207.58 229.1 207.76C229.32 207.94 229.65 207.9 229.83 207.67L230.03 207.42C230.06 207.62 230.01 207.82 229.88 207.99L229.87 207.98ZM233.55 203.05L233.01 203.81L232.41 204.66C232.29 204.83 232.1 204.94 231.91 204.97L232.1 204.7C232.27 204.47 232.21 204.14 231.98 203.97C231.75 203.8 231.43 203.85 231.26 204.08L231.07 204.35C231.03 204.15 231.07 203.95 231.19 203.77L231.79 202.93L232.33 202.18C232.45 202.01 232.64 201.9 232.83 201.88L232.64 202.14C232.48 202.37 232.53 202.69 232.76 202.86C232.99 203.03 233.32 202.97 233.48 202.74L233.67 202.48C233.71 202.67 233.67 202.88 233.55 203.06V203.05ZM236.98 197.95L236.47 198.74L235.91 199.62C235.79 199.8 235.62 199.91 235.42 199.95L235.6 199.67C235.75 199.43 235.69 199.11 235.45 198.95C235.21 198.79 234.89 198.86 234.74 199.1L234.56 199.38C234.51 199.19 234.54 198.98 234.66 198.8L235.22 197.93L235.72 197.15C235.83 196.97 236.01 196.86 236.21 196.82L236.04 197.09C235.89 197.33 235.96 197.65 236.2 197.8C236.44 197.95 236.76 197.88 236.92 197.64L237.09 197.37C237.14 197.56 237.11 197.77 236.99 197.95H236.98ZM239.19 194.41C239.08 194.6 238.91 194.72 238.72 194.76L238.89 194.47C239.03 194.22 238.95 193.9 238.7 193.76C238.45 193.61 238.14 193.7 238 193.94L237.83 194.23C237.78 194.04 237.79 193.83 237.9 193.64L238.41 192.75L238.87 191.95C238.98 191.77 239.15 191.65 239.34 191.6L239.18 191.88C239.04 192.13 239.12 192.44 239.37 192.59C239.62 192.73 239.93 192.65 240.08 192.4L240.24 192.12C240.3 192.31 240.28 192.52 240.17 192.71L239.7 193.52L239.18 194.42L239.19 194.41ZM242.2 189.05C242.1 189.24 241.93 189.37 241.75 189.42L241.9 189.12C242.03 188.86 241.93 188.55 241.68 188.42C241.43 188.29 241.12 188.38 240.99 188.64L240.84 188.94C240.78 188.75 240.78 188.54 240.88 188.35L241.35 187.43L241.77 186.61C241.87 186.42 242.03 186.29 242.22 186.24L242.07 186.53C241.94 186.78 242.04 187.09 242.3 187.23C242.56 187.37 242.87 187.26 243 187L243.15 186.71C243.21 186.9 243.21 187.11 243.11 187.3L242.68 188.13L242.21 189.06L242.2 189.05ZM242.97 182.61C242.72 183.16 242.86 183.81 243.25 184.23L242.59 185.51C242.01 185.45 241.42 185.74 241.15 186.28L240.73 187.1L240.26 188.01C239.98 188.55 240.09 189.2 240.46 189.64L239.74 190.89C239.16 190.8 238.56 191.07 238.26 191.59L237.8 192.39L237.29 193.28C236.98 193.81 237.07 194.46 237.41 194.92L236.63 196.13C236.06 196.02 235.45 196.25 235.12 196.76L234.62 197.53L234.07 198.39C233.74 198.9 233.79 199.56 234.12 200.03L233.29 201.2C232.72 201.06 232.1 201.26 231.75 201.76L231.22 202.51L230.63 203.34C230.28 203.83 230.29 204.5 230.6 204.99L229.71 206.12C229.15 205.95 228.52 206.12 228.14 206.6L227.57 207.32L226.94 208.12C226.56 208.6 226.55 209.26 226.83 209.76L225.89 210.85C225.34 210.66 224.7 210.8 224.3 211.26L223.7 211.96L223.03 212.73C222.63 213.19 222.58 213.85 222.84 214.36L221.85 215.4C221.31 215.18 220.67 215.29 220.25 215.73L219.61 216.4L218.9 217.14C218.48 217.58 218.4 218.23 218.63 218.76L217.59 219.75C217.06 219.5 216.41 219.59 215.97 220.01L215.3 220.65L214.56 221.36C214.12 221.78 214.01 222.43 214.22 222.97L213.13 223.91C212.61 223.64 211.96 223.69 211.5 224.09L210.8 224.69L210.03 225.36C209.57 225.76 209.43 226.4 209.61 226.95L208.48 227.84C207.97 227.54 207.32 227.56 206.84 227.94L206.12 228.51L205.32 229.14C204.84 229.51 204.67 230.15 204.82 230.71L203.65 231.54C203.16 231.22 202.51 231.21 202.01 231.56L201.26 232.09L200.43 232.68C199.93 233.03 199.73 233.66 199.86 234.23L198.65 235.01C198.17 234.67 197.52 234.62 197.01 234.95L196.23 235.45L195.37 236C194.86 236.33 194.62 236.94 194.73 237.52L193.48 238.24C193.02 237.88 192.37 237.8 191.85 238.1L191.05 238.56L190.16 239.07C189.63 239.37 189.37 239.97 189.45 240.56L188.17 241.22C187.73 240.83 187.09 240.73 186.54 241.01L185.72 241.43L184.81 241.9C184.27 242.18 183.97 242.76 184.03 243.35L182.72 243.95C182.3 243.54 181.66 243.41 181.11 243.66L180.27 244.04L179.34 244.46C178.79 244.71 178.46 245.28 178.49 245.87C178.05 246.06 177.6 246.23 177.15 246.41C176.75 245.98 176.12 245.82 175.55 246.04L174.69 246.38L173.74 246.76C173.17 246.98 172.82 247.54 172.82 248.12C172.37 248.3 171.91 248.43 171.46 248.59C171.08 248.14 170.46 247.95 169.88 248.14L169.01 248.43L168.04 248.76C167.46 248.96 167.09 249.49 167.05 250.08C166.6 250.24 166.13 250.36 165.67 250.49C165.31 250.03 164.7 249.8 164.11 249.96L163.22 250.21L162.24 250.49C161.65 250.66 161.25 251.17 161.19 251.76C160.73 251.9 160.26 252.01 159.79 252.11C159.45 251.63 158.85 251.37 158.26 251.51L157.36 251.72L156.36 251.95C155.77 252.09 155.34 252.58 155.25 253.16C154.78 253.27 154.31 253.38 153.84 253.45C153.53 252.95 152.94 252.66 152.34 252.77L151.43 252.93L150.42 253.11C149.82 253.22 149.37 253.69 149.25 254.27C148.78 254.35 148.31 254.46 147.83 254.5C147.54 253.99 146.97 253.67 146.37 253.75L145.46 253.87L144.44 254C143.84 254.08 143.36 254.53 143.22 255.09L141.79 255.27C141.53 254.74 140.97 254.4 140.36 254.44L139.44 254.51L138.42 254.59C137.81 254.64 137.32 255.06 137.15 255.62L135.71 255.73C135.47 255.21 134.93 254.83 134.32 254.85L133.4 254.87L132.38 254.9C131.77 254.92 131.26 255.32 131.06 255.87L129.62 255.91C129.41 255.37 128.89 255.01 128.28 254.98L127.36 254.96L126.34 254.93C125.73 254.91 125.2 255.29 124.98 255.83L123.54 255.79C123.35 255.24 122.85 254.85 122.24 254.82L121.32 254.75L120.3 254.67C119.69 254.62 119.14 254.97 118.89 255.5L117.45 255.39C117.29 254.83 116.81 254.41 116.2 254.36C115.89 254.34 115.59 254.29 115.29 254.26L114.27 254.13C113.67 254.05 113.1 254.37 112.83 254.89L111.4 254.71C111.27 254.14 110.8 253.69 110.2 253.62C109.9 253.58 109.59 253.55 109.29 253.48L108.28 253.3C107.68 253.19 107.1 253.48 106.8 253.98L105.38 253.73C105.27 253.16 104.83 252.69 104.24 252.58C103.94 252.52 103.63 252.48 103.33 252.41L102.33 252.18C101.74 252.04 101.15 252.3 100.82 252.79L99.42 252.47C99.34 251.89 98.93 251.4 98.33 251.26L97.43 251.05L96.44 250.77C95.85 250.6 95.25 250.84 94.91 251.3L93.53 250.91C93.48 250.33 93.09 249.82 92.5 249.65L91.61 249.4C91.28 249.32 90.96 249.19 90.64 249.08C90.06 248.88 89.45 249.08 89.08 249.54L87.72 249.08C87.7 248.5 87.33 247.96 86.76 247.77L85.89 247.48C85.56 247.38 85.25 247.25 84.93 247.12C84.36 246.9 83.74 247.07 83.35 247.5L82.01 246.97C82.01 246.39 81.68 245.84 81.11 245.61L80.25 245.27C79.93 245.15 79.62 245.02 79.31 244.87C78.76 244.62 78.13 244.76 77.72 245.17L76.41 244.58C76.45 244 76.13 243.43 75.58 243.18L74.74 242.8C74.43 242.66 74.12 242.52 73.82 242.36C73.28 242.08 72.64 242.19 72.21 242.58L70.93 241.92C70.99 241.34 70.71 240.76 70.17 240.48L69.35 240.06C69.05 239.9 68.74 239.75 68.45 239.58C67.92 239.28 67.28 239.36 66.84 239.73L65.59 239.01C65.68 238.43 65.42 237.84 64.9 237.54L64.1 237.08C63.81 236.91 63.5 236.75 63.22 236.56C62.71 236.23 62.06 236.28 61.6 236.63L60.39 235.85C60.51 235.28 60.28 234.67 59.77 234.34L58.99 233.84C58.7 233.65 58.41 233.48 58.14 233.28C57.64 232.93 57 232.94 56.52 233.28L55.35 232.45C55.5 231.89 55.3 231.27 54.8 230.92L54.05 230.39C53.77 230.19 53.49 230 53.22 229.79C52.74 229.41 52.1 229.4 51.6 229.7L50.47 228.81C50.64 228.25 50.47 227.63 49.99 227.25L49.27 226.68C49 226.47 48.73 226.27 48.47 226.04C48.01 225.64 47.37 225.6 46.86 225.88L45.77 224.94C45.97 224.39 45.83 223.76 45.37 223.36L44.67 222.76C44.42 222.53 44.15 222.32 43.91 222.08C43.47 221.66 42.83 221.58 42.31 221.84L41.27 220.85C41.49 220.31 41.39 219.67 40.95 219.25L40.28 218.61C40.04 218.37 39.78 218.15 39.55 217.89C39.13 217.45 38.49 217.34 37.96 217.57L36.97 216.53C37.22 216 37.14 215.36 36.72 214.92L36.08 214.25C35.85 214 35.6 213.76 35.38 213.5C34.98 213.04 34.35 212.9 33.81 213.11L32.87 212.02C33.15 211.51 33.1 210.86 32.7 210.4L32.1 209.7C31.88 209.44 31.64 209.19 31.44 208.92C31.06 208.44 30.44 208.28 29.89 208.45L29 207.32C29.3 206.82 29.28 206.17 28.91 205.69L28.34 204.97C28.13 204.7 27.91 204.44 27.72 204.16C27.37 203.66 26.75 203.47 26.19 203.62L25.36 202.45C25.68 201.96 25.7 201.32 25.34 200.82L24.81 200.07C24.62 199.79 24.41 199.52 24.23 199.23C23.9 198.72 23.3 198.49 22.73 198.62L21.95 197.41C22.3 196.94 22.34 196.29 22.01 195.78L21.51 195.01C21.33 194.72 21.13 194.44 20.97 194.14C20.67 193.61 20.07 193.36 19.5 193.46L18.78 192.21C19.15 191.76 19.22 191.11 18.92 190.59L18.46 189.79C18.29 189.49 18.11 189.2 17.96 188.9C17.68 188.36 17.1 188.08 16.53 188.15L15.87 186.87C16.26 186.44 16.37 185.8 16.09 185.25L15.67 184.43L15.21 183.52C14.96 182.97 14.39 182.66 13.82 182.7L13.23 181.39C13.64 180.97 13.78 180.34 13.53 179.79L13.15 178.95L12.73 178.02C12.51 177.45 11.96 177.12 11.38 177.13L10.85 175.79C11.28 175.39 11.45 174.77 11.23 174.2L10.89 173.34L10.51 172.39C10.31 171.82 9.78001 171.45 9.20001 171.44L8.74001 170.08C9.19001 169.71 9.39001 169.09 9.19001 168.51L8.90001 167.64L8.57001 166.67C8.38001 166.09 7.89001 165.7 7.30001 165.66L6.91001 164.28C7.38001 163.93 7.61001 163.32 7.44001 162.74L7.19001 161.85L6.91001 160.87C6.73001 160.29 6.27001 159.87 5.69001 159.8L5.37001 158.4C5.85001 158.07 6.11001 157.48 5.98001 156.88L5.77001 155.98L5.54001 154.98C5.39001 154.39 4.93001 153.95 4.36001 153.85L4.11001 152.43C4.61001 152.12 4.90001 151.54 4.79001 150.94L4.63001 150.03L4.45001 149.02C4.34001 148.42 3.87001 147.97 3.32001 147.84L3.14001 146.41C3.65001 146.13 3.97001 145.56 3.89001 144.96L3.77001 144.05L3.64001 143.03C3.57001 142.43 3.10001 141.95 2.55001 141.8L2.44001 140.36C2.97001 140.1 3.31001 139.55 3.27001 138.94L3.20001 138.02L3.12001 137C3.07001 136.39 2.65001 135.9 2.09001 135.72C2.06001 135.24 2.06001 134.76 2.04001 134.28C2.58001 134.05 2.95001 133.51 2.94001 132.91L2.92001 131.99L2.89001 130.97C2.87001 130.36 2.47001 129.84 1.92001 129.64C1.90001 129.16 1.90001 128.68 1.92001 128.2C2.47001 127.99 2.87001 127.48 2.89001 126.87L2.91001 125.95L2.94001 124.93C2.96001 124.32 2.58001 123.79 2.04001 123.55C2.06001 123.07 2.04001 122.59 2.09001 122.11C2.65001 121.93 3.08001 121.43 3.12001 120.83L3.19001 119.91L3.27001 118.89C3.32001 118.28 2.97001 117.73 2.44001 117.47L2.55001 116.03C3.11001 115.88 3.57001 115.4 3.64001 114.8L3.76001 113.89L3.89001 112.87C3.97001 112.27 3.65001 111.7 3.14001 111.42L3.32001 109.99C3.88001 109.86 4.35001 109.41 4.46001 108.81L4.62001 107.9L4.80001 106.89C4.91001 106.29 4.62001 105.71 4.12001 105.4L4.37001 103.98C4.94001 103.88 5.41001 103.44 5.55001 102.85L5.76001 101.95L5.99001 100.95C6.13001 100.36 5.87001 99.76 5.38001 99.43L5.70001 98.03C6.28001 97.96 6.75001 97.54 6.93001 96.96L7.18001 96.07L7.46001 95.09C7.63001 94.5 7.40001 93.9 6.93001 93.54L7.32001 92.16C7.91001 92.12 8.40001 91.72 8.59001 91.15L8.89001 90.28L9.22001 89.31C9.42001 88.73 9.22001 88.12 8.77001 87.74L9.23001 86.38C9.81001 86.37 10.33 86 10.54 85.43L10.88 84.57L11.26 83.62C11.48 83.05 11.31 82.43 10.88 82.03L11.41 80.69C11.99 80.7 12.53 80.37 12.77 79.8L13.15 78.96L13.57 78.03C13.82 77.48 13.68 76.84 13.27 76.43L13.86 75.12C14.44 75.16 15 74.85 15.25 74.3L15.67 73.48L16.14 72.57C16.42 72.03 16.31 71.39 15.92 70.95L16.58 69.67C17.16 69.74 17.74 69.46 18.01 68.92L18.47 68.12L18.98 67.23C19.28 66.7 19.21 66.06 18.84 65.61L19.56 64.36C20.13 64.46 20.72 64.2 21.03 63.68L21.52 62.9L22.07 62.04C22.4 61.53 22.35 60.88 22.01 60.41L22.79 59.2C23.36 59.32 23.96 59.1 24.29 58.59C24.46 58.33 24.64 58.09 24.82 57.84L25.41 57.01C25.76 56.51 25.75 55.87 25.43 55.38L26.26 54.21C26.82 54.36 27.43 54.17 27.79 53.67C27.97 53.42 28.17 53.19 28.35 52.94L28.98 52.14C29.36 51.66 29.37 51.01 29.07 50.51L29.96 49.38C30.51 49.56 31.14 49.39 31.51 48.91C31.7 48.67 31.91 48.44 32.11 48.21L32.78 47.44C33.18 46.98 33.23 46.33 32.95 45.82L33.89 44.73C34.43 44.93 35.06 44.8 35.46 44.34C35.66 44.11 35.88 43.89 36.09 43.67L36.8 42.93C37.22 42.49 37.3 41.85 37.05 41.32L38.04 40.28C38.57 40.51 39.21 40.4 39.63 39.96C39.84 39.74 40.07 39.53 40.29 39.32L41.03 38.61C41.47 38.19 41.58 37.55 41.35 37.01L42.39 36.02C42.91 36.27 43.55 36.2 43.99 35.78C44.21 35.57 44.45 35.37 44.68 35.17L45.45 34.5C45.91 34.1 46.05 33.47 45.85 32.92L46.94 31.98C47.45 32.26 48.09 32.21 48.55 31.82C48.78 31.62 49.03 31.44 49.27 31.25L50.07 30.62C50.55 30.24 50.72 29.62 50.55 29.06L51.68 28.17C52.18 28.47 52.82 28.46 53.3 28.08C53.54 27.89 53.8 27.72 54.05 27.54L54.88 26.95C55.38 26.6 55.58 25.98 55.43 25.42L56.6 24.59C57.08 24.92 57.72 24.93 58.22 24.59C58.47 24.41 58.73 24.25 58.99 24.09L59.85 23.54C60.36 23.21 60.59 22.6 60.47 22.03L61.68 21.25C62.14 21.6 62.79 21.65 63.3 21.32C63.55 21.15 63.83 21.01 64.09 20.85L64.98 20.34C65.51 20.04 65.76 19.44 65.67 18.87L66.92 18.15C67.37 18.52 68.01 18.6 68.53 18.3C68.79 18.14 69.07 18.01 69.34 17.87L70.25 17.4C70.79 17.12 71.08 16.54 71.01 15.96L72.29 15.3C72.72 15.69 73.35 15.8 73.9 15.52C74.17 15.37 74.45 15.25 74.73 15.13L75.66 14.71C76.21 14.46 76.53 13.89 76.49 13.31L77.8 12.72C78.21 13.13 78.84 13.27 79.39 13.02C79.67 12.89 79.95 12.77 80.24 12.66L81.19 12.28C81.76 12.06 82.1 11.51 82.09 10.92L83.43 10.39C83.82 10.82 84.44 10.99 85.01 10.77C85.29 10.66 85.58 10.54 85.87 10.45L86.84 10.12C87.42 9.92 87.78 9.39 87.81 8.81L89.17 8.35C89.54 8.8 90.15 9 90.73 8.81C91.02 8.72 91.31 8.6 91.61 8.53L92.59 8.25C93.18 8.08 93.57 7.57 93.62 6.99L95 6.6C95.35 7.07 95.95 7.3 96.53 7.13L97.42 6.88L98.42 6.65C99.01 6.51 99.43 6.02 99.51 5.44L100.91 5.12C101.23 5.6 101.82 5.87 102.42 5.73L103.32 5.52C103.65 5.45 103.99 5.4 104.33 5.33C104.93 5.22 105.37 4.75 105.48 4.18L106.9 3.93C107.2 4.43 107.78 4.72 108.38 4.61L109.29 4.45C109.62 4.38 109.96 4.35 110.3 4.3C110.9 4.22 111.37 3.77 111.5 3.21L112.93 3.03C113.2 3.54 113.77 3.86 114.37 3.79L115.28 3.67C115.62 3.63 115.96 3.58 116.3 3.56C116.91 3.51 117.39 3.09 117.55 2.53L118.99 2.42C119.24 2.95 119.79 3.29 120.39 3.25L121.31 3.18L122.33 3.1C122.94 3.08 123.44 2.68 123.63 2.13L125.07 2.09C125.29 2.63 125.83 3 126.43 2.99L127.35 2.97L128.37 2.94C128.98 2.91 129.5 2.56 129.71 2.02L131.15 2.06C131.35 2.61 131.86 3.01 132.47 3.03L133.39 3.05L134.41 3.08C135.02 3.09 135.56 2.72 135.8 2.2L137.24 2.31C137.41 2.87 137.91 3.3 138.51 3.34L139.43 3.41L140.45 3.49C141.06 3.54 141.61 3.19 141.88 2.67L143.31 2.85C143.46 3.42 143.93 3.87 144.53 3.94L145.44 4.06L146.46 4.19C147.06 4.27 147.64 3.95 147.92 3.44C148.4 3.5 148.87 3.6 149.34 3.68C149.46 4.25 149.91 4.73 150.51 4.84L151.42 5L152.43 5.18C153.03 5.29 153.62 5 153.93 4.5C154.4 4.57 154.87 4.69 155.34 4.8C155.43 5.38 155.86 5.88 156.45 6.01L157.35 6.22L158.35 6.45C158.94 6.59 159.54 6.33 159.88 5.85C160.35 5.95 160.81 6.07 161.27 6.21C161.33 6.79 161.73 7.31 162.32 7.48L163.21 7.73L164.19 8.01C164.78 8.18 165.39 7.95 165.75 7.48C166.21 7.61 166.68 7.73 167.13 7.9C167.16 8.49 167.54 9.02 168.12 9.22L168.99 9.52L169.96 9.85C170.54 10.05 171.16 9.85 171.54 9.4C171.99 9.56 172.46 9.69 172.9 9.88C172.9 10.47 173.25 11.02 173.82 11.24L174.68 11.58L175.63 11.96C176.2 12.18 176.83 12.02 177.23 11.59C177.67 11.77 178.13 11.93 178.56 12.13C178.54 12.72 178.86 13.29 179.41 13.54L180.25 13.92L181.18 14.34C181.73 14.59 182.37 14.45 182.79 14.05C183.23 14.25 183.67 14.44 184.1 14.65C184.05 15.24 184.34 15.82 184.88 16.1L185.7 16.52L186.61 16.99C187.15 17.27 187.8 17.16 188.24 16.78L189.52 17.44C189.44 18.02 189.71 18.62 190.23 18.93L191.03 19.39L191.92 19.9C192.45 20.2 193.1 20.13 193.55 19.76L194.8 20.48C194.69 21.06 194.93 21.67 195.44 22L196.21 22.5L197.07 23.05C197.58 23.38 198.23 23.34 198.71 22.99L199.92 23.77C199.78 24.34 199.99 24.96 200.49 25.32L201.24 25.85L202.07 26.44C202.57 26.79 203.22 26.78 203.71 26.46L204.88 27.3C204.72 27.86 204.89 28.5 205.37 28.87L206.09 29.44L206.89 30.07C207.37 30.45 208.02 30.47 208.53 30.17L209.66 31.06C209.47 31.62 209.62 32.26 210.08 32.65L210.78 33.25L211.55 33.92C212.01 34.32 212.66 34.37 213.18 34.1L214.27 35.04C214.05 35.59 214.17 36.23 214.61 36.65L215.28 37.29L216.02 38C216.46 38.42 217.11 38.5 217.64 38.26L218.68 39.25C218.44 39.79 218.52 40.44 218.94 40.88L219.58 41.55L220.29 42.29C220.71 42.73 221.35 42.84 221.89 42.62L222.88 43.66C222.61 44.18 222.67 44.84 223.07 45.3L223.67 46L224.34 46.77C224.74 47.23 225.37 47.37 225.93 47.18L226.87 48.27C226.58 48.78 226.6 49.44 226.98 49.91L227.55 50.63L228.18 51.43C228.56 51.91 229.18 52.08 229.75 51.91L230.64 53.04C230.33 53.54 230.32 54.19 230.67 54.69L231.2 55.44L231.79 56.27C232.14 56.77 232.76 56.97 233.33 56.83L234.16 58C233.82 58.48 233.78 59.13 234.11 59.65L234.61 60.43L235.16 61.29C235.49 61.8 236.1 62.03 236.67 61.92L237.45 63.13C237.09 63.59 237.02 64.24 237.32 64.77L237.78 65.57L238.29 66.46C238.59 66.99 239.19 67.25 239.77 67.16L240.49 68.41C240.11 68.85 240.01 69.5 240.28 70.04L240.7 70.86L241.17 71.77C241.45 72.31 242.03 72.6 242.61 72.54L243.27 73.82C242.88 74.24 242.73 74.89 242.99 75.44L243.37 76.28L243.79 77.21C244.04 77.76 244.61 78.08 245.19 78.05L245.78 79.36C245.37 79.76 245.2 80.4 245.42 80.96L245.76 81.82L246.14 82.77C246.36 83.34 246.92 83.68 247.5 83.68L248.03 85.02C247.6 85.4 247.41 86.03 247.6 86.6L247.89 87.47L248.22 88.44C248.42 89.02 248.95 89.39 249.53 89.42L249.99 90.78C249.54 91.14 249.33 91.75 249.49 92.34L249.74 93.23L250.02 94.21C250.19 94.8 250.7 95.19 251.28 95.25L251.67 96.63C251.2 96.97 250.97 97.57 251.1 98.16L251.31 99.06L251.54 100.06C251.68 100.65 252.17 101.07 252.75 101.16L253.07 102.56C252.58 102.88 252.34 103.46 252.44 104.06L252.6 104.97L252.78 105.98C252.89 106.58 253.36 107.02 253.93 107.14L254.18 108.56C253.67 108.85 253.4 109.42 253.48 110.03L253.6 110.94L253.73 111.96C253.81 112.56 254.26 113.03 254.82 113.17L255 114.6C254.49 114.87 254.17 115.43 254.24 116.03L254.31 116.95L254.39 117.97C254.44 118.58 254.86 119.07 255.42 119.23L255.53 120.67C255 120.91 254.66 121.46 254.7 122.06C254.73 122.37 254.75 122.67 254.75 122.98L254.78 124C254.8 124.61 255.2 125.12 255.75 125.31L255.79 126.75C255.25 126.97 254.88 127.49 254.89 128.1L254.91 129.02L254.88 130.04C254.86 130.65 255.24 131.18 255.78 131.39L255.74 132.83C255.19 133.02 254.79 133.53 254.77 134.14L254.75 135.06C254.75 135.4 254.72 135.74 254.69 136.08C254.64 136.69 254.99 137.23 255.52 137.47L255.41 138.91C254.85 139.08 254.43 139.56 254.38 140.17L254.31 141.09C254.28 141.43 254.27 141.77 254.22 142.11C254.14 142.71 254.46 143.27 254.98 143.54L254.8 144.97C254.23 145.11 253.78 145.58 253.71 146.18L253.59 147.09L253.46 148.11C253.36 148.71 253.65 149.28 254.15 149.58L253.9 151C253.33 151.11 252.85 151.56 252.75 152.16L252.59 153.07L252.41 154.08C252.31 154.68 252.55 155.26 253.04 155.58L252.72 156.98C252.14 157.06 251.65 157.49 251.51 158.08L251.3 158.98L251.07 159.98C250.94 160.58 251.16 161.17 251.63 161.51L251.24 162.89C250.66 162.95 250.14 163.34 249.98 163.93L249.73 164.82L249.45 165.8C249.29 166.39 249.5 167 249.95 167.36L249.49 168.72C248.91 168.75 248.37 169.12 248.18 169.69L247.88 170.56L247.55 171.53C247.36 172.11 247.55 172.73 247.97 173.11L247.44 174.45C246.86 174.45 246.3 174.79 246.08 175.36L245.74 176.22L245.36 177.17C245.14 177.74 245.31 178.37 245.71 178.77L245.12 180.08C244.54 180.05 243.97 180.37 243.72 180.92L243.34 181.76L242.92 182.69L242.97 182.61ZM244.96 183.55C244.87 183.75 244.71 183.88 244.53 183.95L244.67 183.64C244.79 183.38 244.67 183.07 244.41 182.95C244.15 182.83 243.85 182.95 243.73 183.2L243.59 183.5C243.52 183.31 243.51 183.1 243.6 182.91L244.02 181.97L244.4 181.13C244.49 180.94 244.65 180.8 244.83 180.73L244.7 181.02C244.58 181.28 244.7 181.59 244.96 181.7C245.22 181.82 245.53 181.7 245.65 181.44L245.78 181.15C245.85 181.33 245.86 181.55 245.77 181.74L245.38 182.59L244.95 183.54L244.96 183.55ZM247.45 177.92C247.37 178.12 247.22 178.26 247.04 178.34L247.16 178.03C247.27 177.76 247.14 177.46 246.87 177.35C246.61 177.24 246.31 177.37 246.2 177.63L246.08 177.94C246 177.76 245.98 177.55 246.06 177.35L246.44 176.39L246.78 175.53C246.86 175.33 247.01 175.19 247.19 175.11L247.07 175.41C246.97 175.67 247.1 175.97 247.36 176.08C247.62 176.19 247.93 176.06 248.03 175.79L248.15 175.49C248.23 175.67 248.25 175.88 248.17 176.08L247.83 176.95L247.45 177.92ZM249.66 172.18C249.59 172.38 249.44 172.54 249.27 172.62L249.38 172.3C249.47 172.03 249.33 171.73 249.06 171.63C248.79 171.53 248.5 171.68 248.41 171.94L248.3 172.26C248.21 172.08 248.19 171.87 248.25 171.67L248.58 170.7L248.88 169.82C248.95 169.62 249.09 169.47 249.27 169.38L249.17 169.68C249.08 169.95 249.22 170.24 249.49 170.34C249.76 170.43 250.05 170.29 250.15 170.02L250.25 169.71C250.34 169.89 250.36 170.1 250.3 170.3L250 171.19L249.67 172.18H249.66ZM251.6 166.35C251.54 166.56 251.4 166.72 251.23 166.8L251.32 166.48C251.4 166.2 251.24 165.91 250.97 165.83C250.7 165.75 250.41 165.9 250.33 166.18L250.24 166.5C250.14 166.33 250.11 166.12 250.16 165.91L250.44 164.92L250.69 164.03C250.75 163.83 250.89 163.67 251.06 163.58L250.97 163.89C250.89 164.16 251.05 164.45 251.33 164.53C251.61 164.61 251.89 164.45 251.97 164.17L252.06 163.86C252.16 164.03 252.19 164.24 252.14 164.45L251.88 165.35L251.6 166.35ZM253.25 160.42C253.2 160.63 253.07 160.79 252.9 160.89L252.98 160.56C253.04 160.28 252.87 160 252.59 159.93C252.31 159.86 252.04 160.03 251.97 160.31L251.9 160.63C251.79 160.46 251.75 160.25 251.8 160.05L252.03 159.05L252.24 158.15C252.29 157.94 252.42 157.78 252.59 157.68L252.52 157.99C252.46 158.27 252.63 158.55 252.91 158.61C253.19 158.68 253.47 158.5 253.53 158.22L253.6 157.91C253.71 158.08 253.75 158.29 253.7 158.49L253.49 159.4L253.26 160.41L253.25 160.42ZM254.62 154.42C254.58 154.63 254.46 154.8 254.29 154.91C254.32 154.8 254.34 154.69 254.36 154.58C254.41 154.3 254.22 154.02 253.94 153.97C253.66 153.92 253.39 154.1 253.34 154.38C253.32 154.49 253.3 154.6 253.27 154.71C253.16 154.55 253.11 154.34 253.14 154.14L253.32 153.13L253.48 152.22C253.52 152.01 253.64 151.84 253.8 151.73L253.74 152.05C253.69 152.33 253.88 152.6 254.16 152.65C254.44 152.7 254.71 152.52 254.76 152.23L254.82 151.91C254.94 152.07 254.99 152.28 254.95 152.49L254.79 153.41L254.61 154.43L254.62 154.42ZM255.94 146.4L255.82 147.33L255.69 148.36C255.66 148.57 255.53 148.75 255.37 148.86L255.43 148.53C255.48 148.25 255.27 147.98 254.99 147.94C254.7 147.9 254.45 148.09 254.41 148.37L254.35 148.7C254.23 148.54 254.18 148.34 254.21 148.13L254.34 147.11L254.46 146.19C254.49 145.98 254.6 145.8 254.76 145.69L254.72 146.01C254.68 146.29 254.88 146.55 255.17 146.59C255.45 146.63 255.71 146.43 255.75 146.15L255.79 145.83C255.91 145.99 255.98 146.19 255.95 146.4H255.94ZM256.63 140.29L256.56 141.22C256.53 141.57 256.52 141.91 256.47 142.26C256.44 142.47 256.33 142.65 256.17 142.78L256.21 142.45C256.25 142.17 256.04 141.91 255.75 141.88C255.47 141.85 255.21 142.06 255.17 142.34L255.13 142.67C255 142.52 254.94 142.32 254.97 142.11C255.02 141.77 255.03 141.43 255.06 141.09L255.13 140.17C255.15 139.96 255.25 139.78 255.4 139.65L255.38 139.97C255.36 140.25 255.57 140.5 255.86 140.53C256.14 140.56 256.39 140.34 256.42 140.06L256.44 139.74C256.57 139.89 256.65 140.09 256.63 140.3V140.29ZM257.02 134.16L257 135.1C257 135.45 256.97 135.79 256.94 136.14C256.92 136.35 256.82 136.54 256.67 136.67L256.7 136.34C256.72 136.05 256.51 135.81 256.22 135.79C255.93 135.78 255.69 135.99 255.66 136.28L255.63 136.61C255.5 136.47 255.42 136.27 255.44 136.06C255.47 135.72 255.49 135.38 255.5 135.03L255.52 134.1C255.52 133.89 255.62 133.7 255.77 133.57V133.89C255.75 134.17 255.98 134.41 256.27 134.43C256.56 134.44 256.79 134.22 256.8 133.93V133.61C256.95 133.75 257.03 133.95 257.03 134.16H257.02ZM256.39 129.67C256.1 129.67 255.87 129.9 255.86 130.18V130.51C255.71 130.37 255.63 130.18 255.63 129.97L255.66 128.94L255.64 128.01C255.64 127.8 255.72 127.61 255.86 127.47V127.79C255.88 128.07 256.11 128.3 256.4 128.3C256.69 128.3 256.91 128.07 256.9 127.78V127.46C257.04 127.6 257.13 127.79 257.14 128L257.16 128.94L257.13 129.98C257.13 130.19 257.03 130.39 256.88 130.52V130.18C256.9 129.89 256.67 129.66 256.38 129.66L256.39 129.67Z" fill="#BE802E"/>
</svg>
