<svg width="10" height="10" viewBox="0 0 10 10" fill="none" xmlns="http://www.w3.org/2000/svg">
<path d="M0.739765 3.59683C0.766956 3.42173 0.813972 3.244 0.872217 3.07486C0.885462 3.02266 0.909937 2.97906 0.924498 2.93678C0.947656 2.88326 0.972131 2.83966 0.995289 2.78615C1.51328 1.74895 2.77767 1.31879 3.85723 1.70002C4.33359 1.86879 4.65722 2.1789 4.854 2.44532C5.02437 2.6648 5.3336 2.71453 5.55309 2.54416C5.81819 2.33747 6.21348 2.12359 6.71439 2.09743C7.85501 2.02669 8.95353 2.77865 9.1756 3.91935C9.18218 3.96891 9.19008 4.02839 9.19666 4.07795C9.20324 4.12752 9.20982 4.17708 9.2164 4.22665C9.23018 4.4064 9.22413 4.58878 9.20685 4.76257C9.16037 5.17225 9.02204 5.57395 8.83879 5.94127C8.56027 6.50281 8.20184 6.99426 7.77471 7.42421C7.23319 7.98032 6.57675 8.43064 5.83512 8.77121C4.8562 9.224 3.71506 9.06278 2.89603 8.36451C2.28044 7.83089 1.766 7.22331 1.39367 6.54643C1.10056 6.01034 0.884125 5.4439 0.771468 4.82333C0.697679 4.41953 0.672139 3.99923 0.738449 3.58692L0.739765 3.59683Z" fill="#DAE8FF" stroke="#2E1E5C" stroke-miterlimit="10" stroke-linejoin="round"/>
</svg>
