<svg width="12" height="11" viewBox="0 0 12 11" fill="none" xmlns="http://www.w3.org/2000/svg">
<g clip-path="url(#clip0_11_361)">
<path d="M0.59 5.24C0.54 5.03 0.51 4.81 0.5 4.59C0.5 4.53 0.5 4.47 0.5 4.4C0.5 4.33 0.5 4.27 0.5 4.2C0.61 2.78 1.84 1.73 3.23 1.65C3.84 1.62 4.35 1.82 4.7 2.04C4.99 2.21 5.36 2.12 5.54 1.83C5.75 1.47 6.1 1.05 6.65 0.79C7.91 0.19 9.5 0.53 10.27 1.72C10.31 1.78 10.34 1.83 10.37 1.89C10.4 1.94 10.43 2 10.46 2.06C10.56 2.26 10.63 2.46 10.69 2.67C10.82 3.16 10.86 3.67 10.82 4.17C10.76 4.93 10.58 5.65 10.3 6.34C9.94 7.21 9.41 8.03 8.73 8.75C7.84 9.71 6.47 10.06 5.22 9.64C4.28 9.32 3.42 8.87 2.69 8.27C2.11 7.8 1.61 7.25 1.19 6.61C0.91 6.19 0.7 5.72 0.58 5.23L0.59 5.24Z" fill="#F3BBE7" stroke="#2E1E5C" stroke-miterlimit="10"/>
</g>
<defs>
<clipPath id="clip0_11_361">
<rect width="11.34" height="10.32" fill="white"/>
</clipPath>
</defs>
</svg>
