<svg width="255" height="89" viewBox="0 0 255 89" fill="none" xmlns="http://www.w3.org/2000/svg">
<g clip-path="url(#clip0_4_2)">
<path d="M70.23 35.7C62.63 35.84 55.05 35.59 47.51 34.81C48 27.83 48.5 20.85 48.99 13.87C56.54 14.49 64.13 14.57 71.74 14.27C71.24 21.41 70.73 28.56 70.23 35.7Z" fill="#DAE8FF"/>
<path d="M25.02 30.69C17.57 28.68 10.16 25.98 2.82001 22.44C3.29001 15.79 3.76001 9.14 4.23001 2.49C11.59 5.87 19 8.4 26.46 10.25C25.98 17.06 25.5 23.88 25.02 30.69Z" fill="#DAE8FF"/>
<path d="M116.09 31.51C108.42 32.57 100.76 33.55 93.11 34.29C93.63 26.98 94.14 19.67 94.66 12.36C102.32 11.45 109.99 10.3 117.67 9.08C117.14 16.55 116.61 24.03 116.09 31.5V31.51Z" fill="#DAE8FF"/>
<path d="M46.03 55.74C38.5 54.79 31.01 53.31 23.57 51.13C24.05 44.32 24.53 37.5 25.01 30.69C32.46 32.7 39.96 34.02 47.5 34.8C47.01 41.78 46.51 48.76 46.02 55.74H46.03Z" fill="#DAE8FF"/>
<path d="M22.13 71.58C14.7 69.24 7.32 66.21 0 62.34C0.47 55.69 0.94 49.04 1.41 42.39C8.74 46.1 16.13 48.96 23.57 51.14C23.09 57.95 22.61 64.77 22.13 71.58Z" fill="#DAE8FF"/>
<path d="M67.2 78.56C59.62 78.37 52.07 77.79 44.55 76.68C45.04 69.7 45.54 62.72 46.03 55.74C53.56 56.69 61.12 57.1 68.71 57.13C68.21 64.27 67.7 71.42 67.2 78.56Z" fill="#DAE8FF"/>
<path d="M91.56 56.22C83.92 56.8 76.31 57.16 68.71 57.13C69.21 49.99 69.72 42.84 70.22 35.7C77.82 35.56 85.45 35.04 93.1 34.3C92.58 41.61 92.07 48.92 91.55 56.23L91.56 56.22Z" fill="#DAE8FF"/>
<path d="M162.07 25.48C154.42 26.23 146.76 27.21 139.09 28.26C139.63 20.62 140.17 12.98 140.71 5.34C148.39 4.12 156.06 2.98 163.72 2.06C163.17 9.86 162.62 17.67 162.07 25.47V25.48Z" fill="#DAE8FF"/>
<path d="M112.92 76.35C105.27 77.08 97.64 77.73 90.01 78.15C90.53 70.84 91.04 63.53 91.56 56.22C99.2 55.64 106.85 54.82 114.5 53.93C113.97 61.4 113.44 68.88 112.92 76.35Z" fill="#DAE8FF"/>
<path d="M158.77 72.3C151.15 72.72 143.51 73.37 135.86 74.1C136.4 66.46 136.94 58.82 137.48 51.18C145.14 50.29 152.79 49.47 160.42 48.89C159.87 56.69 159.32 64.5 158.77 72.3Z" fill="#DAE8FF"/>
<path d="M137.48 51.18C129.82 52.07 122.16 53.04 114.5 53.93C115.03 46.46 115.56 38.98 116.08 31.51C123.75 30.45 131.42 29.32 139.09 28.27C138.55 35.91 138.01 43.55 137.47 51.19L137.48 51.18Z" fill="#DAE8FF"/>
<path d="M207.67 24.97C200.13 24.19 192.55 23.94 184.95 24.08C185.51 16.11 186.08 8.14 186.64 0.18C194.26 -0.12 201.84 -0.0399998 209.39 0.58C208.82 8.71 208.24 16.85 207.67 24.98V24.97Z" fill="#DAE8FF"/>
<path d="M204.23 73.77C196.71 72.66 189.16 72.08 181.58 71.89C182.14 63.92 182.71 55.95 183.27 47.99C190.86 48.02 198.43 48.43 205.95 49.38C205.38 57.51 204.8 65.65 204.23 73.78V73.77Z" fill="#DAE8FF"/>
<path d="M183.27 47.98C175.68 47.95 168.06 48.31 160.42 48.89C160.97 41.09 161.52 33.28 162.07 25.48C169.72 24.73 177.35 24.21 184.95 24.08C184.39 32.05 183.82 40.02 183.26 47.98H183.27Z" fill="#DAE8FF"/>
<path d="M252.36 37.33C245.02 33.79 237.61 31.09 230.16 29.08C230.75 20.78 231.33 12.48 231.92 4.19C239.38 6.03 246.8 8.57 254.15 11.95C253.55 20.41 252.95 28.88 252.36 37.34V37.33Z" fill="#DAE8FF"/>
<path d="M248.78 88.11C241.46 84.24 234.08 81.21 226.65 78.87C227.24 70.57 227.82 62.27 228.41 53.98C235.85 56.15 243.24 59.02 250.57 62.73C249.97 71.19 249.37 79.66 248.78 88.12V88.11Z" fill="#DAE8FF"/>
<path d="M228.41 53.98C220.97 51.81 213.48 50.32 205.95 49.37C206.52 41.24 207.1 33.1 207.67 24.97C215.21 25.75 222.71 27.07 230.16 29.08C229.57 37.38 228.99 45.68 228.4 53.97L228.41 53.98Z" fill="#DAE8FF"/>
</g>
<defs>
<clipPath id="clip0_4_2">
<rect width="254.16" height="88.11" fill="white"/>
</clipPath>
</defs>
</svg>
