<svg width="124" height="132" viewBox="0 0 124 132" fill="none" xmlns="http://www.w3.org/2000/svg">
<g clip-path="url(#clip0_19_5)">
<path fill-rule="evenodd" clip-rule="evenodd" d="M21.7 93.73C19.07 95.93 -5.37 101.81 1.81 121.03C5.21 130.13 19.19 136.97 29.56 124.01C37.76 113.75 30.4 107.38 22.09 111C24.89 111.2 24.6 115.03 21.8 116.02C16.52 117.88 16.17 110.25 19.11 107.4C28.23 98.54 53.12 127.37 62.82 85.79C65.28 75.23 74.3 75.95 77.73 80.4C74.33 68.85 62.61 72.36 56.13 82.85C52.33 89 47.34 86.74 48.51 82C52.08 67.54 72.33 66.81 74.99 65.45C83.78 60.97 93.37 49.23 101.72 44.48C114.01 37.49 122.36 39.51 121.6 44.21C125.04 37.67 119.06 29.57 109.73 31.4C91.14 35.05 85.95 51.58 76.68 52.02C66.56 52.5 77.57 32.08 90.51 30.47C93.65 30.08 122.58 27.28 119.71 4.54999C119.32 8.64999 117.22 14.71 107.02 19.58C95.65 25 81.4 16.19 69.44 44.28C58.44 70.11 53.69 59 53.3 57.64C51.74 52.31 56.77 46.5 63.59 48.87C48.71 38.03 43.58 54.66 43.87 67.71C44.23 83.61 38 88.11 33.6 83.4C31.15 80.78 29.73 73.75 22.22 78.01C15.78 81.67 16.2 88.86 16.2 88.86C16.2 88.86 18.59 82.71 23.02 82.04C26.19 81.56 28.15 90.19 21.69 93.73H21.7Z" fill="url(#paint0_radial_19_5)" stroke="#2E1E5C" stroke-miterlimit="10"/>
</g>
<defs>
<radialGradient id="paint0_radial_19_5" cx="0" cy="0" r="1" gradientUnits="userSpaceOnUse" gradientTransform="translate(39.0097 52.3451) rotate(-129.08) scale(46.09 77.8921)">
<stop stop-color="#FCFEFF"/>
<stop offset="0.56" stop-color="#FAFCFF"/>
<stop offset="0.76" stop-color="#F3F8FF"/>
<stop offset="0.9" stop-color="#E7F0FF"/>
<stop offset="1" stop-color="#DAE8FF"/>
</radialGradient>
<clipPath id="clip0_19_5">
<rect width="123.09" height="131.68" fill="white"/>
</clipPath>
</defs>
</svg>
