<svg width="119" height="93" viewBox="0 0 119 93" fill="none" xmlns="http://www.w3.org/2000/svg">
<g clip-path="url(#clip0_20_8)">
<path fill-rule="evenodd" clip-rule="evenodd" d="M82.42 43.63C78.5 29.89 116.4 32.79 118.29 14.3C119.42 3.21 101.56 -8.29 97.18 10.44C100.23 5.13 108 9.61 104.15 14.53C100.25 19.53 94.58 6.64 75.68 14.83C65.74 19.14 54.53 39.75 43.87 35.01C57.16 46.92 62.31 28.36 69.54 31.31C74.62 33.38 65.18 43.62 50.55 44.32C41.93 44.73 32.97 40.24 21.49 49.75C5.87998 62.68 21.58 74.81 16.53 84.98C14.5 89.06 7.58998 90.81 1.84998 88.16C6.78998 93.96 19.99 94.63 24.69 81.71C26.14 77.72 26.52 51.35 42 53.45C48.04 54.27 50.26 57.03 48.29 61.38C46.01 66.42 37.95 66.36 37.19 65.89C43.94 73.67 52.57 67.69 56.49 60.5C60.68 52.82 64.16 45.38 68.61 46.19C71.55 46.73 71.3 51.24 67.91 53.97C61.38 59.23 57.23 62.97 57.79 68.89C61.26 63.34 72.76 57.93 79.83 55.98C93.13 52.33 90.36 34.03 104.05 38.29C91.69 31.05 90.23 47.32 82.77 47.2C72.18 47.03 72.78 26.94 91.65 20.19C99.08 17.53 99.22 26.34 91.76 27.54C82.13 29.09 75.26 35.59 82.42 43.62V43.63Z" fill="url(#paint0_radial_20_8)" stroke="#2E1E5C" stroke-miterlimit="10"/>
</g>
<defs>
<radialGradient id="paint0_radial_20_8" cx="0" cy="0" r="1" gradientUnits="userSpaceOnUse" gradientTransform="translate(78.952 47.1004) rotate(53.82) scale(34.58 50.4868)">
<stop stop-color="#FCFEFF"/>
<stop offset="0.56" stop-color="#FAFCFF"/>
<stop offset="0.76" stop-color="#F3F8FF"/>
<stop offset="0.9" stop-color="#E7F0FF"/>
<stop offset="1" stop-color="#DAE8FF"/>
</radialGradient>
<clipPath id="clip0_20_8">
<rect width="118.84" height="92.63" fill="white"/>
</clipPath>
</defs>
</svg>
