<svg width="18" height="40" viewBox="0 0 18 40" fill="none" xmlns="http://www.w3.org/2000/svg">
<g clip-path="url(#clip0_10_301)">
<path d="M2.86001 39.13C3.57245 39.13 4.15001 38.5525 4.15001 37.84C4.15001 37.1276 3.57245 36.55 2.86001 36.55C2.14756 36.55 1.57001 37.1276 1.57001 37.84C1.57001 38.5525 2.14756 39.13 2.86001 39.13Z" fill="url(#paint0_linear_10_301)" stroke="#2E1E5C" stroke-miterlimit="10"/>
<path d="M15.6 21.76C16.3124 21.76 16.89 21.1824 16.89 20.47C16.89 19.7575 16.3124 19.18 15.6 19.18C14.8876 19.18 14.31 19.7575 14.31 20.47C14.31 21.1824 14.8876 21.76 15.6 21.76Z" fill="url(#paint1_linear_10_301)" stroke="#2E1E5C" stroke-miterlimit="10"/>
<path d="M7.86001 3.08C8.57245 3.08 9.15001 2.50245 9.15001 1.79C9.15001 1.07755 8.57245 0.5 7.86001 0.5C7.14756 0.5 6.57001 1.07755 6.57001 1.79C6.57001 2.50245 7.14756 3.08 7.86001 3.08Z" fill="url(#paint2_linear_10_301)" stroke="#2E1E5C" stroke-miterlimit="10"/>
<path d="M5.98 30.04C6.03 29.87 6.1 29.7 6.18 29.54C6.2 29.49 6.23 29.45 6.25 29.41C6.28 29.36 6.31 29.32 6.34 29.27C6.99 28.31 8.3 28.05 9.32 28.57C9.77 28.8 10.05 29.15 10.21 29.44C10.35 29.68 10.65 29.77 10.89 29.63C11.18 29.46 11.6 29.3 12.1 29.34C13.24 29.42 14.23 30.31 14.3 31.47C14.3 31.52 14.3 31.58 14.3 31.63C14.3 31.68 14.3 31.73 14.3 31.78C14.29 31.96 14.26 32.14 14.22 32.31C14.12 32.71 13.93 33.09 13.7 33.43C13.35 33.95 12.93 34.39 12.45 34.76C11.84 35.24 11.13 35.6 10.35 35.84C9.32 36.16 8.21 35.85 7.49 35.05C6.95 34.44 6.52 33.77 6.24 33.05C6.02 32.48 5.88 31.89 5.85 31.26C5.83 30.85 5.86 30.43 5.98 30.03V30.04Z" fill="#DAE8FF" stroke="#2E1E5C" stroke-miterlimit="10"/>
<path d="M0.579994 17.49C0.539995 17.32 0.509995 17.14 0.509995 16.96C0.509995 16.91 0.509995 16.86 0.509995 16.81C0.509995 16.76 0.509995 16.7 0.509995 16.65C0.599995 15.49 1.60999 14.62 2.74999 14.56C3.24999 14.53 3.66999 14.7 3.95999 14.88C4.19999 15.02 4.49999 14.94 4.63999 14.71C4.80999 14.42 5.09999 14.07 5.54999 13.85C6.57999 13.35 7.87999 13.63 8.51999 14.61C8.54999 14.66 8.57999 14.7 8.59999 14.75C8.62999 14.79 8.64999 14.84 8.66999 14.89C8.74999 15.05 8.80999 15.22 8.85999 15.39C8.96999 15.79 8.99999 16.21 8.95999 16.62C8.90999 17.24 8.75999 17.84 8.52999 18.4C8.22999 19.12 7.79999 19.78 7.23999 20.38C6.50999 21.17 5.38999 21.46 4.36999 21.11C3.59999 20.85 2.89999 20.48 2.28999 19.99C1.81999 19.61 1.39999 19.16 1.05999 18.63C0.829994 18.28 0.659995 17.9 0.559995 17.5L0.579994 17.49Z" fill="#F3BBE7" stroke="#2E1E5C" stroke-miterlimit="10"/>
</g>
<defs>
<linearGradient id="paint0_linear_10_301" x1="1.57001" y1="37.84" x2="4.15001" y2="37.84" gradientUnits="userSpaceOnUse">
<stop stop-color="#FCFEFF"/>
<stop offset="0.71" stop-color="#FAFCFE"/>
<stop offset="0.97" stop-color="#F6F5FC"/>
<stop offset="1" stop-color="#F6F4FC"/>
</linearGradient>
<linearGradient id="paint1_linear_10_301" x1="14.31" y1="20.47" x2="16.89" y2="20.47" gradientUnits="userSpaceOnUse">
<stop stop-color="#FCFEFF"/>
<stop offset="0.71" stop-color="#FAFCFE"/>
<stop offset="0.97" stop-color="#F6F5FC"/>
<stop offset="1" stop-color="#F6F4FC"/>
</linearGradient>
<linearGradient id="paint2_linear_10_301" x1="6.57001" y1="1.79" x2="9.15001" y2="1.79" gradientUnits="userSpaceOnUse">
<stop stop-color="#FCFEFF"/>
<stop offset="0.71" stop-color="#FAFCFE"/>
<stop offset="0.97" stop-color="#F6F5FC"/>
<stop offset="1" stop-color="#F6F4FC"/>
</linearGradient>
<clipPath id="clip0_10_301">
<rect width="17.39" height="39.63" fill="white"/>
</clipPath>
</defs>
</svg>
