<svg width="125" height="108" viewBox="0 0 125 108" fill="none" xmlns="http://www.w3.org/2000/svg">
<g clip-path="url(#clip0_6_21)">
<path d="M48.36 15.36C48.6693 15.36 48.92 15.1093 48.92 14.8C48.92 14.4907 48.6693 14.24 48.36 14.24C48.0507 14.24 47.8 14.4907 47.8 14.8C47.8 15.1093 48.0507 15.36 48.36 15.36Z" fill="#DAE8FF"/>
<path d="M35.58 36.11C35.93 37.8 34.64 39.3 33.16 39.55C31.68 39.8 30.03 38.77 29.74 37.08C29.47 35.48 30.63 33.9 32.17 33.64C33.73 33.38 35.38 34.52 35.57 36.11H35.58Z" fill="#DAE8FF"/>
<path d="M26.96 40.92C28.5 40.61 30.11 41.79 30.37 43.38C30.64 45.08 29.4 46.57 27.93 46.81C26.45 47.05 24.8 46.03 24.52 44.33C24.26 42.74 25.41 41.11 26.97 40.91L26.96 40.92Z" fill="#DAE8FF"/>
<path d="M31.37 49.65C31.64 51.42 30.42 52.84 28.91 53.06C27.33 53.29 25.8 52.24 25.54 50.54C25.3 48.94 26.38 47.44 27.98 47.18C29.79 46.88 31.23 48.28 31.37 49.66V49.65Z" fill="#DAE8FF"/>
<path d="M32.26 55.89C32.52 57.3 31.67 59.02 29.82 59.32C28.33 59.57 26.77 58.64 26.45 56.87C26.15 55.18 27.32 53.7 28.88 53.44C30.47 53.18 31.98 54.28 32.25 55.88L32.26 55.89Z" fill="#DAE8FF"/>
<path d="M40.67 67.35C40.91 68.99 39.92 70.47 38.26 70.75C36.58 71.03 35.14 69.92 34.87 68.25C34.62 66.69 35.74 65.17 37.29 64.91C38.86 64.65 40.42 65.77 40.67 67.35Z" fill="#DAE8FF"/>
<path d="M68.73 82.05C68.99 83.85 67.67 85.22 66.29 85.43C64.85 85.64 63.19 84.71 62.95 82.95C62.69 81.06 63.95 79.81 65.39 79.6C66.92 79.37 68.39 80.27 68.74 82.06L68.73 82.05Z" fill="#DAE8FF"/>
<path d="M55.2 77.82C55.47 79.6 54.19 80.99 52.78 81.22C51.37 81.45 49.68 80.55 49.42 78.77C49.15 76.92 50.35 75.64 51.83 75.4C53.31 75.16 54.83 76.01 55.2 77.83V77.82Z" fill="#DAE8FF"/>
<path d="M40.8 28.86C41.06 30.66 39.75 32.03 38.36 32.24C36.93 32.46 35.26 31.54 35.02 29.77C34.76 27.9 36 26.63 37.45 26.41C38.96 26.18 40.45 27.06 40.8 28.86Z" fill="#DAE8FF"/>
<path d="M33.27 62.19C33.48 63.88 32.35 65.28 30.86 65.53C29.36 65.78 27.77 64.82 27.5 63.09C27.25 61.52 28.17 60.04 29.93 59.73C31.5 59.45 33.04 60.62 33.28 62.2L33.27 62.19Z" fill="#DAE8FF"/>
<path d="M60.03 86.39C58.72 86.69 56.97 85.77 56.7 83.93C56.48 82.41 57.33 81.01 59.12 80.61C61.03 80.44 62.2 81.6 62.44 83.03C62.74 84.83 61.4 86.26 60.02 86.39H60.03Z" fill="#DAE8FF"/>
<path d="M45.5 75.93C44.18 76.23 42.44 75.31 42.17 73.48C41.95 71.98 42.78 70.57 44.58 70.15C46.47 69.98 47.66 71.11 47.91 72.56C48.22 74.37 46.87 75.79 45.5 75.92V75.93Z" fill="#DAE8FF"/>
<path d="M44.6 31.15C43.2 31.42 41.6 30.54 41.29 28.75C41.05 27.33 41.86 25.72 43.69 25.43C45.48 25.14 46.75 26.36 46.99 27.78C47.3 29.56 46.07 30.96 44.6 31.15Z" fill="#DAE8FF"/>
<path d="M29.22 37.19C29.47 38.78 28.45 40.2 26.86 40.45C25.28 40.7 23.92 39.66 23.61 38.06C23.33 36.6 24.36 35.01 26 34.77C27.5 34.55 29.05 35.62 29.21 37.19H29.22Z" fill="#DAE8FF"/>
<path d="M41.71 35.12C41.97 36.72 40.96 38.14 39.39 38.41C37.81 38.67 36.43 37.64 36.12 36.06C35.82 34.54 36.9 32.99 38.48 32.74C40.02 32.5 41.55 33.6 41.71 35.12Z" fill="#DAE8FF"/>
<path d="M33.24 40.03C34.74 39.72 36.26 40.89 36.49 42.39C36.72 43.86 35.73 45.42 34.14 45.67C32.55 45.92 31.13 44.75 30.88 43.29C30.63 41.82 31.68 40.21 33.23 40.03H33.24Z" fill="#DAE8FF"/>
<path d="M41.58 73.64C41.82 74.94 41.05 76.59 39.27 76.89C37.49 77.19 36.2 75.87 36 74.52C35.77 72.93 36.8 71.51 38.38 71.27C39.93 71.04 41.33 72.08 41.58 73.64Z" fill="#DAE8FF"/>
<path d="M48.84 78.86C49.1 80.28 48.16 81.84 46.54 82.12C44.92 82.4 43.48 81.23 43.27 79.76C43.05 78.22 43.95 76.8 45.57 76.52C47.18 76.24 48.55 77.28 48.84 78.86Z" fill="#DAE8FF"/>
<path d="M39.53 61.13C39.8 62.67 38.72 64.14 37.23 64.39C35.77 64.64 34.24 63.63 33.98 62.06C33.72 60.51 34.72 59.02 36.31 58.78C37.88 58.53 39.27 59.61 39.53 61.13Z" fill="#DAE8FF"/>
<path d="M28.87 30.81C28.63 29.3 29.58 27.83 31.16 27.55C32.74 27.27 34.17 28.35 34.43 29.91C34.69 31.47 33.58 32.92 32.1 33.16C30.62 33.4 29.11 32.37 28.87 30.81Z" fill="#DAE8FF"/>
<path d="M48.64 33.98C48.43 32.59 49.2 31.04 50.96 30.75C52.66 30.47 53.92 31.61 54.17 33.02C54.49 34.8 53.27 36.1 51.87 36.33C50.5 36.55 48.96 35.74 48.64 33.98Z" fill="#DAE8FF"/>
<path d="M61.32 76.8C61.51 78.51 60.52 79.7 58.99 80.07C57.34 80.17 56.11 79.29 55.81 77.71C55.57 76.4 56.34 74.81 58.1 74.51C59.85 74.22 61.04 75.47 61.31 76.8H61.32Z" fill="#DAE8FF"/>
<path d="M47.93 34.09C48.11 35.86 47.05 37 45.59 37.34C43.88 37.44 42.7 36.5 42.43 34.96C42.19 33.61 43 32.05 44.74 31.78C46.52 31.5 47.69 32.79 47.94 34.09H47.93Z" fill="#DAE8FF"/>
<path d="M32.04 49.49C31.75 48.08 32.77 46.61 34.3 46.37C35.73 46.15 37.15 47.14 37.41 48.66C37.65 50.06 36.59 51.57 35.14 51.8C33.76 52.01 32.18 50.98 32.05 49.49H32.04Z" fill="#DAE8FF"/>
<path d="M34.07 68.49C34.39 69.85 33.26 71.39 31.79 71.6C30.45 71.79 28.92 70.79 28.7 69.26C28.51 67.9 29.42 66.4 31 66.16C32.36 65.96 33.89 66.88 34.06 68.49H34.07Z" fill="#DAE8FF"/>
<path d="M24.75 50.73C25.05 52.05 24.07 53.59 22.55 53.85C20.81 54.15 19.58 52.77 19.4 51.6C19.17 50.14 20.15 48.7 21.64 48.46C22.99 48.24 24.55 49.12 24.74 50.74L24.75 50.73Z" fill="#DAE8FF"/>
<path d="M38.4 54.92C38.64 56.41 37.67 57.78 36.19 58.03C34.45 58.32 33.23 56.94 33.05 55.77C32.81 54.19 33.92 52.85 35.3 52.63C36.66 52.41 38.2 53.31 38.4 54.92Z" fill="#DAE8FF"/>
<path d="M55.99 84.1C56.27 85.67 55.16 87.02 53.74 87.24C52.29 87.46 50.91 86.49 50.66 84.98C50.4 83.41 51.51 82.07 52.92 81.85C54.32 81.64 55.77 82.56 55.99 84.1Z" fill="#DAE8FF"/>
<path d="M61.35 38.36C61.59 39.92 60.5 41.23 59.11 41.45C57.67 41.67 56.27 40.72 56.03 39.2C55.79 37.7 56.81 36.29 58.3 36.07C59.76 35.85 61.13 36.88 61.35 38.36Z" fill="#DAE8FF"/>
<path d="M69.53 88.45C69.77 89.91 68.82 91.3 67.32 91.56C65.87 91.81 64.48 90.84 64.22 89.34C63.97 87.85 64.98 86.43 66.46 86.19C67.91 85.96 69.3 86.98 69.53 88.45Z" fill="#DAE8FF"/>
<path d="M41.36 67.22C41.15 65.89 41.99 64.39 43.61 64.15C45.25 63.9 46.49 65.1 46.67 66.42C46.91 68.23 45.61 69.33 44.42 69.5C43.13 69.68 41.66 68.94 41.36 67.22Z" fill="#DAE8FF"/>
<path d="M23.55 60.01C21.82 60.32 20.68 59.06 20.47 57.87C20.21 56.41 21.11 55.01 22.64 54.74C24.06 54.49 25.44 55.36 25.73 56.96C25.95 58.18 25.23 59.73 23.55 60V60.01Z" fill="#DAE8FF"/>
<path d="M51.72 74.66C50.04 74.95 48.86 73.74 48.66 72.5C48.42 70.95 49.36 69.64 50.85 69.39C52.32 69.15 53.65 70.07 53.92 71.64C54.13 72.88 53.41 74.4 51.71 74.66H51.72Z" fill="#DAE8FF"/>
<path d="M21.49 47.51C20 47.81 18.61 46.63 18.44 45.34C18.22 43.74 19.18 42.48 20.67 42.26C22.36 42.02 23.47 43.13 23.7 44.48C23.97 46.07 22.76 47.38 21.5 47.51H21.49Z" fill="#DAE8FF"/>
<path d="M64.37 73.68C65.67 73.38 67.15 74.31 67.39 75.86C67.62 77.29 66.65 78.6 65.22 78.85C64.01 79.05 62.51 78.33 62.23 76.68C61.97 75.14 63.09 73.82 64.36 73.68H64.37Z" fill="#DAE8FF"/>
<path d="M39.53 39.24C40.79 38.96 42.27 39.85 42.51 41.39C42.78 43.04 41.59 44.2 40.38 44.41C39.13 44.63 37.62 43.87 37.36 42.22C37.12 40.7 38.23 39.38 39.53 39.25V39.24Z" fill="#DAE8FF"/>
<path d="M22.87 31.75C22.65 30.33 23.59 29.02 25 28.8C26.41 28.58 27.68 29.54 27.93 30.96C28.18 32.37 27.15 33.71 25.8 33.92C24.44 34.13 23.05 33.18 22.87 31.75Z" fill="#DAE8FF"/>
<path d="M50.81 29.75C49.45 29.97 48.14 29.07 47.93 27.71C47.71 26.26 48.54 25.03 49.99 24.79C51.43 24.55 52.62 25.44 52.88 26.9C53.12 28.25 52.17 29.53 50.81 29.76V29.75Z" fill="#DAE8FF"/>
<path d="M19.65 36.21C20.89 35.96 22.23 36.75 22.5 38.27C22.74 39.62 21.77 40.91 20.41 41.12C19.08 41.32 17.8 40.39 17.6 39.06C17.34 37.36 18.59 36.31 19.65 36.21Z" fill="#DAE8FF"/>
<path d="M23.73 61.21C24.98 60.96 26.31 61.76 26.58 63.27C26.82 64.61 25.85 65.91 24.5 66.12C23.17 66.32 21.89 65.4 21.69 64.07C21.43 62.37 22.68 61.32 23.74 61.22L23.73 61.21Z" fill="#DAE8FF"/>
<path d="M63.03 89.52C63.32 90.97 62.15 92.17 61.02 92.35C59.9 92.53 58.42 91.78 58.19 90.25C58.01 89.09 58.81 87.68 60.25 87.46C61.61 87.25 62.91 88.25 63.03 89.52Z" fill="#DAE8FF"/>
<path d="M39.28 22.61C39.62 24.14 38.41 25.33 37.3 25.52C36.15 25.72 34.72 24.94 34.46 23.5C34.24 22.25 35.07 20.89 36.43 20.65C37.95 20.38 39.16 21.52 39.27 22.62L39.28 22.61Z" fill="#DAE8FF"/>
<path d="M45.41 60.18C45.7 61.63 44.54 62.83 43.41 63.02C42.28 63.21 40.81 62.45 40.57 60.92C40.4 59.79 41.15 58.36 42.63 58.13C44.04 57.91 45.3 58.96 45.41 60.18Z" fill="#DAE8FF"/>
<path d="M42.21 79.93C42.43 81.44 41.44 82.57 40.19 82.76C38.77 82.97 37.62 82.04 37.41 80.69C37.21 79.4 38.15 78.12 39.44 77.92C40.73 77.72 42.01 78.65 42.22 79.94L42.21 79.93Z" fill="#DAE8FF"/>
<path d="M48.59 40.4C48.81 41.98 47.74 43.06 46.56 43.22C45.1 43.41 43.99 42.46 43.78 41.13C43.58 39.84 44.53 38.57 45.82 38.37C47.11 38.18 48.38 39.11 48.59 40.4Z" fill="#DAE8FF"/>
<path d="M54.84 39.42C55.03 40.7 54.1 42.05 52.83 42.2C51.62 42.34 50.3 41.71 50.04 40.13C49.83 38.84 50.77 37.56 52.04 37.35C53.34 37.14 54.63 38.09 54.83 39.41L54.84 39.42Z" fill="#DAE8FF"/>
<path d="M38.57 48.48C38.35 47.16 39.27 45.85 40.58 45.65C41.86 45.45 43.15 46.36 43.35 47.66C43.6 49.28 42.49 50.3 41.35 50.48C40.2 50.66 38.89 50.05 38.57 48.48Z" fill="#DAE8FF"/>
<path d="M55.28 32.91C55.07 31.61 55.96 30.34 57.25 30.11C58.55 29.87 59.87 30.82 60.06 32.14C60.27 33.57 59.31 34.71 58.06 34.91C56.8 35.11 55.55 34.33 55.28 32.91Z" fill="#DAE8FF"/>
<path d="M57.95 73.38C56.57 73.62 55.42 72.64 55.18 71.47C54.92 70.2 55.84 68.85 57.13 68.66C58.63 68.45 59.68 69.38 59.91 70.64C60.12 71.79 59.35 73.14 57.96 73.38H57.95Z" fill="#DAE8FF"/>
<path d="M32.79 77.47C31.39 77.66 30.31 76.76 30.06 75.51C29.81 74.27 30.76 72.93 32.01 72.77C33.51 72.58 34.53 73.42 34.77 74.76C34.99 76.01 34.19 77.23 32.8 77.47H32.79Z" fill="#DAE8FF"/>
<path d="M41.6 51.99C42.96 51.75 44.08 52.57 44.32 53.92C44.58 55.43 43.51 56.45 42.37 56.64C41.25 56.83 39.89 56.21 39.65 54.69C39.44 53.35 40.23 52.2 41.6 51.99Z" fill="#DAE8FF"/>
<path d="M32.96 23.73C33.16 25.01 32.25 26.24 30.97 26.43C29.7 26.61 28.5 25.74 28.3 24.48C28.09 23.11 29.08 21.95 30.25 21.76C31.4 21.58 32.72 22.34 32.96 23.74V23.73Z" fill="#DAE8FF"/>
<path d="M47.99 66.19C47.69 64.74 48.88 63.65 49.86 63.48C50.93 63.29 52.33 64.02 52.56 65.39C52.76 66.55 52.07 67.85 50.68 68.09C49.29 68.34 48.16 67.36 48 66.19H47.99Z" fill="#DAE8FF"/>
<path d="M49.37 85.19C49.6 86.35 48.86 87.64 47.46 87.87C46.06 88.1 44.99 87.1 44.79 85.94C44.55 84.53 45.68 83.41 46.71 83.25C47.74 83.08 49.19 83.77 49.37 85.2V85.19Z" fill="#DAE8FF"/>
<path d="M43.52 24.29C42.37 24.56 41.07 23.7 40.87 22.44C40.67 21.21 41.53 19.98 42.74 19.77C43.95 19.56 45.17 20.43 45.4 21.66C45.64 22.96 44.65 24.18 43.53 24.3L43.52 24.29Z" fill="#DAE8FF"/>
<path d="M18.67 30.22C19.88 30.01 21.01 30.86 21.18 32.05C21.35 33.23 20.54 34.41 19.41 34.56C18 34.75 17 33.75 16.86 32.75C16.69 31.51 17.45 30.41 18.67 30.21V30.22Z" fill="#DAE8FF"/>
<path d="M13.68 52.5C13.51 51.37 14.14 50.26 15.46 50.01C16.66 49.78 17.83 50.72 17.99 51.84C18.17 53.1 17.31 54.15 16.2 54.34C15.07 54.53 13.88 53.81 13.68 52.51V52.5Z" fill="#DAE8FF"/>
<path d="M27.3 69.56C27.51 70.81 26.63 71.87 25.52 72.06C24.39 72.25 23.19 71.53 23 70.23C22.82 69.04 23.53 67.94 24.84 67.73C26.04 67.54 27.19 68.48 27.3 69.56Z" fill="#DAE8FF"/>
<path d="M65.93 69.62C66.17 70.94 65.23 71.99 64.14 72.17C63.05 72.35 61.86 71.66 61.64 70.38C61.43 69.18 62.24 68.03 63.43 67.83C64.6 67.64 65.73 68.45 65.92 69.62H65.93Z" fill="#DAE8FF"/>
<path d="M60.05 47.12C59.04 47.27 57.86 46.76 57.58 45.38C57.35 44.24 58.21 43.04 59.35 42.85C60.48 42.67 61.68 43.53 61.83 44.68C62.01 46.08 61.05 46.94 60.05 47.11V47.12Z" fill="#DAE8FF"/>
<path d="M15.16 48.03C14.07 48.19 12.93 47.6 12.68 46.22C12.48 45.11 13.35 43.91 14.46 43.77C15.55 43.63 16.74 44.26 16.94 45.6C17.14 46.95 16.21 47.84 15.16 48.03Z" fill="#DAE8FF"/>
<path d="M24.74 27.21C23.6 27.41 22.42 26.6 22.28 25.47C22.12 24.22 22.79 23.23 24.02 23.01C25.09 22.81 26.17 23.37 26.48 24.75C26.73 25.86 25.88 27.01 24.74 27.21Z" fill="#DAE8FF"/>
<path d="M47.58 49.14C46.44 49.34 45.26 48.55 45.11 47.41C44.95 46.19 45.58 45.18 46.84 44.94C47.87 44.74 48.98 45.26 49.31 46.67C49.56 47.77 48.72 48.94 47.58 49.14Z" fill="#DAE8FF"/>
<path d="M54.66 92.89C53.68 93.03 52.43 92.43 52.25 91.07C52.1 89.9 52.88 88.87 54.04 88.7C55.24 88.52 56.26 89.34 56.44 90.45C56.66 91.83 55.61 92.76 54.66 92.89Z" fill="#DAE8FF"/>
<path d="M14.82 58.75C14.55 57.55 15.58 56.5 16.53 56.35C17.58 56.19 18.75 57.01 18.9 58.12C19.06 59.26 18.28 60.28 17.19 60.48C16.23 60.65 14.98 60.08 14.81 58.75H14.82Z" fill="#DAE8FF"/>
<path d="M68.25 97.12C67.19 97.37 66.06 96.62 65.88 95.48C65.7 94.36 66.44 93.28 67.54 93.09C68.64 92.89 69.71 93.65 69.92 94.77C70.15 95.98 69.26 97.02 68.26 97.12H68.25Z" fill="#DAE8FF"/>
<path d="M49.55 61.55C48.4 61.73 47.39 60.98 47.23 59.84C47.07 58.71 47.83 57.67 48.95 57.5C50.07 57.33 51.1 58.1 51.28 59.23C51.46 60.36 50.71 61.37 49.56 61.54L49.55 61.55Z" fill="#DAE8FF"/>
<path d="M15.77 39.33C15.94 40.41 15.14 41.52 14.08 41.62C12.8 41.74 12.04 41.03 11.84 39.96C11.64 38.9 12.43 37.87 13.48 37.71C14.4 37.57 15.5 38.11 15.77 39.33Z" fill="#DAE8FF"/>
<path d="M58.44 64.5C58.61 65.59 57.94 66.49 56.83 66.67C55.53 66.89 54.73 65.94 54.59 65.06C54.43 64.08 55.12 62.99 56.23 62.82C57.2 62.67 58.32 63.37 58.43 64.49L58.44 64.5Z" fill="#DAE8FF"/>
<path d="M50.15 53.04C50.31 54.13 49.63 55.02 48.53 55.2C47.25 55.41 46.44 54.48 46.31 53.57C46.16 52.63 46.82 51.51 47.97 51.34C48.92 51.2 50.05 51.88 50.16 53.03L50.15 53.04Z" fill="#DAE8FF"/>
<path d="M53.74 47.9C52.7 48.06 51.73 47.37 51.57 46.35C51.38 45.18 52.25 44.27 53.15 44.12C54.04 43.97 55.16 44.55 55.36 45.73C55.54 46.77 54.81 47.74 53.74 47.91V47.9Z" fill="#DAE8FF"/>
<path d="M31.61 81.69C31.47 80.49 32.23 79.71 33.12 79.56C34.13 79.4 35.07 80.05 35.26 81.06C35.44 82.02 34.73 83.05 33.75 83.2C32.84 83.34 31.85 82.85 31.61 81.69Z" fill="#DAE8FF"/>
<path d="M16.09 64.95C15.87 63.98 16.64 62.98 17.61 62.84C18.47 62.71 19.51 63.33 19.67 64.36C19.82 65.35 19.19 66.31 18.14 66.46C17.12 66.61 16.18 65.89 16.09 64.94V64.95Z" fill="#DAE8FF"/>
<path d="M42.6 86.26C42.82 87.26 42.06 88.19 41.15 88.34C40.11 88.52 39.2 87.78 39.06 86.89C38.91 85.91 39.56 84.98 40.52 84.78C41.26 84.63 42.5 85.19 42.61 86.26H42.6Z" fill="#DAE8FF"/>
<path d="M18.3 27.87C17.37 28.03 16.36 27.35 16.27 26.41C16.16 25.36 16.72 24.65 17.7 24.41C18.56 24.2 19.59 24.98 19.74 25.88C19.89 26.77 19.2 27.72 18.3 27.88V27.87Z" fill="#DAE8FF"/>
<path d="M27.88 75.84C28.03 76.77 27.39 77.7 26.46 77.84C25.63 77.97 24.66 77.55 24.45 76.45C24.28 75.56 24.93 74.61 25.86 74.45C26.87 74.27 27.73 75.05 27.88 75.84Z" fill="#DAE8FF"/>
<path d="M61.35 94.46C62.3 94.25 63.24 95.02 63.35 95.85C63.51 96.99 62.77 97.69 61.94 97.84C61.11 97.99 60.13 97.56 59.93 96.38C59.79 95.54 60.44 94.56 61.35 94.45V94.46Z" fill="#DAE8FF"/>
<path d="M13.01 35.05C12.03 35.2 11.26 34.63 11.12 33.65C10.99 32.73 11.6 31.9 12.49 31.77C13.44 31.63 14.24 32.23 14.42 33.16C14.58 33.97 13.98 34.96 13 35.05H13.01Z" fill="#DAE8FF"/>
<path d="M29.86 19.33C28.97 19.55 28.05 18.78 27.94 18.02C27.81 17.09 28.39 16.21 29.3 16.06C30.21 15.91 31.05 16.54 31.23 17.46C31.39 18.25 30.73 19.25 29.85 19.33H29.86Z" fill="#DAE8FF"/>
<path d="M37.47 16.43C37.6 17.34 37 18.16 36.08 18.3C35.17 18.44 34.34 17.84 34.19 16.93C34.03 15.97 34.76 15.16 35.57 15.04C36.43 14.92 37.32 15.49 37.46 16.42L37.47 16.43Z" fill="#DAE8FF"/>
<path d="M63.03 65.36C62.15 65.5 61.26 64.86 61.14 64C61.02 63.17 61.66 62.29 62.48 62.13C63.31 61.97 64.25 62.63 64.4 63.48C64.55 64.34 63.91 65.22 63.03 65.37V65.36Z" fill="#DAE8FF"/>
<path d="M47.86 90.23C48.81 90.05 49.56 90.77 49.71 91.55C49.87 92.39 49.23 93.25 48.37 93.4C47.51 93.55 46.63 92.95 46.49 92.1C46.37 91.34 46.83 90.36 47.86 90.23Z" fill="#DAE8FF"/>
<path d="M57.01 58.27C57.14 59.13 56.6 59.87 55.73 60.01C54.87 60.15 54.12 59.61 53.98 58.76C53.84 57.95 54.44 57.13 55.25 57C56.06 56.87 56.88 57.47 57.01 58.27Z" fill="#DAE8FF"/>
<path d="M49.65 22.5C48.81 22.65 48.01 22.1 47.87 21.28C47.74 20.48 48.34 19.64 49.13 19.51C49.92 19.38 50.76 19.99 50.88 20.79C51.01 21.58 50.45 22.35 49.64 22.49L49.65 22.5Z" fill="#DAE8FF"/>
<path d="M54.75 53.75C53.91 53.9 53.11 53.35 52.98 52.53C52.85 51.73 53.45 50.89 54.24 50.76C55.03 50.63 55.87 51.24 55.99 52.04C56.12 52.84 55.56 53.6 54.75 53.74V53.75Z" fill="#DAE8FF"/>
<path d="M24.74 18.53C24.86 19.34 24.34 20.03 23.52 20.14C22.72 20.25 22.06 19.76 21.93 18.96C21.8 18.15 22.31 17.43 23.11 17.31C23.91 17.19 24.61 17.72 24.74 18.53Z" fill="#DAE8FF"/>
<path d="M9.82 54.56C8.97 54.75 8.28 54.08 8.19 53.45C8.08 52.65 8.59 51.9 9.37 51.78C10.13 51.66 10.86 52.2 10.97 52.96C11.1 53.78 10.64 54.42 9.82 54.56Z" fill="#DAE8FF"/>
<path d="M8.76 48.31C8 48.47 7.25 47.88 7.16 47.15C7.07 46.38 7.57 45.66 8.33 45.53C9.09 45.4 9.83 45.93 9.95 46.69C10.09 47.54 9.62 48.18 8.76 48.31Z" fill="#DAE8FF"/>
<path d="M20.29 70.7C20.41 71.54 19.92 72.18 19.06 72.29C18.27 72.4 17.61 71.89 17.5 71.09C17.4 70.33 17.95 69.61 18.7 69.5C19.46 69.4 20.18 69.93 20.29 70.7Z" fill="#DAE8FF"/>
<path d="M57.99 26.03C58.09 26.76 57.56 27.49 56.84 27.59C56.12 27.69 55.39 27.14 55.29 26.42C55.2 25.73 55.74 25.04 56.45 24.94C57.16 24.84 57.89 25.35 57.98 26.03H57.99Z" fill="#DAE8FF"/>
<path d="M60.92 52.59C60.2 52.69 59.47 52.13 59.38 51.41C59.29 50.72 59.84 50.03 60.55 49.93C61.26 49.83 61.99 50.35 62.08 51.03C62.18 51.76 61.63 52.49 60.92 52.59Z" fill="#DAE8FF"/>
<path d="M41.94 14.59C42.64 14.49 43.26 14.94 43.37 15.62C43.47 16.29 43.01 16.92 42.32 17.03C41.6 17.15 40.95 16.68 40.86 15.97C40.77 15.29 41.24 14.69 41.94 14.59Z" fill="#DAE8FF"/>
<path d="M10.4 58.23C11.1 58.12 11.74 58.55 11.86 59.21C11.98 59.88 11.48 60.57 10.79 60.67C10.1 60.77 9.48 60.31 9.36 59.64C9.27 59.1 9.63 58.31 10.4 58.23Z" fill="#DAE8FF"/>
<path d="M7.72 41.91C7.06 42 6.38 41.5 6.31 40.85C6.23 40.16 6.71 39.57 7.41 39.48C8.08 39.4 8.71 39.85 8.79 40.5C8.88 41.25 8.38 41.79 7.73 41.91H7.72Z" fill="#DAE8FF"/>
<path d="M55.19 95.97C55.88 95.86 56.52 96.31 56.63 96.98C56.73 97.63 56.22 98.3 55.56 98.39C54.92 98.48 54.27 98.01 54.16 97.39C54.04 96.72 54.51 96.08 55.2 95.97H55.19Z" fill="#DAE8FF"/>
<path d="M11.92 28.29C11.24 28.39 10.73 27.99 10.61 27.32C10.5 26.7 11.04 26.09 11.55 26.02C12.2 25.93 12.79 26.34 12.89 26.98C13 27.64 12.6 28.18 11.91 28.29H11.92Z" fill="#DAE8FF"/>
<path d="M68.74 100.3C69.35 100.2 69.91 100.58 70.02 101.15C70.13 101.73 69.7 102.36 69.11 102.47C68.5 102.59 67.85 102.12 67.78 101.5C67.71 100.92 68.13 100.39 68.74 100.29V100.3Z" fill="#DAE8FF"/>
<path d="M35.55 87.42C35.65 88.01 35.21 88.63 34.62 88.71C34.05 88.79 33.44 88.36 33.36 87.81C33.27 87.26 33.71 86.66 34.27 86.56C34.83 86.46 35.46 86.88 35.55 87.42Z" fill="#DAE8FF"/>
<path d="M61.57 56.46C62.14 56.36 62.76 56.8 62.83 57.35C62.9 57.88 62.46 58.47 61.93 58.56C61.38 58.66 60.74 58.2 60.67 57.66C60.6 57.12 61.02 56.55 61.57 56.46Z" fill="#DAE8FF"/>
<path d="M27.06 81.35C27.63 81.29 28.14 81.71 28.2 82.29C28.26 82.86 27.83 83.38 27.26 83.42C26.7 83.46 26.23 83.08 26.16 82.52C26.09 81.94 26.5 81.41 27.06 81.35Z" fill="#DAE8FF"/>
<path d="M16.83 18.77C17.35 18.7 17.9 19.13 17.97 19.63C18.03 20.07 17.75 20.71 17.05 20.77C16.5 20.82 16.01 20.43 15.95 19.88C15.89 19.33 16.28 18.84 16.83 18.77Z" fill="#DAE8FF"/>
<path d="M42.03 93.77C41.54 93.87 40.98 93.48 40.9 92.99C40.82 92.51 41.16 92.01 41.65 91.9C42.16 91.78 42.69 92.12 42.8 92.63C42.91 93.11 42.53 93.67 42.03 93.77Z" fill="#DAE8FF"/>
<path d="M11.5 64.78C11.99 64.72 12.47 65.09 12.53 65.59C12.59 66.08 12.2 66.58 11.73 66.63C11.26 66.68 10.75 66.28 10.69 65.81C10.62 65.33 11.01 64.84 11.5 64.78Z" fill="#DAE8FF"/>
<path d="M6.37 33.54C6.85 33.46 7.35 33.82 7.43 34.31C7.51 34.8 7.14 35.31 6.67 35.38C6.2 35.45 5.69 35.07 5.6 34.6C5.51 34.13 5.88 33.63 6.37 33.54Z" fill="#DAE8FF"/>
<path d="M20.07 78.01C19.61 78.09 19.17 77.81 19.07 77.36C18.96 76.88 19.27 76.44 19.76 76.35C20.25 76.26 20.71 76.58 20.78 77.05C20.84 77.47 20.49 77.94 20.06 78.02L20.07 78.01Z" fill="#DAE8FF"/>
<path d="M62.78 103.13C62.37 103.2 61.98 102.92 61.91 102.5C61.84 102.1 62.09 101.76 62.51 101.68C62.95 101.59 63.34 101.84 63.4 102.25C63.47 102.67 63.19 103.06 62.78 103.13Z" fill="#DAE8FF"/>
<path d="M28.69 12.14C28.37 12.2 27.96 11.91 27.88 11.57C27.81 11.26 28.07 10.9 28.41 10.81C28.76 10.72 29.18 10.98 29.24 11.32C29.3 11.65 29.01 12.08 28.69 12.14Z" fill="#DAE8FF"/>
<path d="M49.04 97.53C49.38 97.48 49.75 97.72 49.82 98.03C49.88 98.36 49.61 98.79 49.28 98.86C48.94 98.94 48.5 98.6 48.45 98.24C48.41 97.92 48.7 97.58 49.04 97.52V97.53Z" fill="#DAE8FF"/>
<path d="M35.39 10.36C35.43 10.64 35.19 10.96 34.91 11.01C34.63 11.06 34.3 10.83 34.25 10.55C34.19 10.23 34.42 9.92001 34.76 9.88001C35.07 9.84001 35.36 10.06 35.4 10.36H35.39Z" fill="#DAE8FF"/>
<path d="M13.15 71.86C13.19 72.14 13 72.41 12.73 72.45C12.46 72.49 12.19 72.29 12.14 72.01C12.1 71.74 12.3 71.45 12.56 71.41C12.83 71.37 13.1 71.58 13.15 71.85V71.86Z" fill="#DAE8FF"/>
<path d="M22.25 11.97C22.52 11.93 22.79 12.14 22.83 12.42C22.87 12.7 22.67 12.97 22.4 13.01C22.13 13.05 21.86 12.84 21.82 12.56C21.78 12.28 21.98 12.01 22.25 11.97Z" fill="#DAE8FF"/>
<path d="M11.17 20.76C11.19 20.99 11.01 21.21 10.77 21.24C10.53 21.27 10.31 21.11 10.27 20.87C10.23 20.63 10.39 20.41 10.63 20.37C10.89 20.33 11.15 20.51 11.17 20.76Z" fill="#DAE8FF"/>
<path d="M3.79 54.17C3.81 54.4 3.63 54.62 3.4 54.66C3.14 54.7 2.9 54.5 2.89 54.24C2.89 54 3.07 53.8 3.31 53.78C3.55 53.77 3.77 53.94 3.79 54.17Z" fill="#DAE8FF"/>
<path d="M2.37 48.41C2.14 48.44 1.91 48.27 1.87 48.04C1.83 47.81 2 47.58 2.23 47.54C2.49 47.49 2.75 47.68 2.77 47.93C2.79 48.16 2.6 48.38 2.37 48.41Z" fill="#DAE8FF"/>
<path d="M5.45 27.77C5.69 27.74 5.92 27.91 5.95 28.13C5.99 28.38 5.78 28.63 5.53 28.65C5.29 28.66 5.08 28.48 5.06 28.25C5.04 28.02 5.21 27.8 5.45 27.77Z" fill="#DAE8FF"/>
<path d="M28.25 89.03C28.05 89.05 27.84 88.86 27.84 88.65C27.84 88.46 27.99 88.29 28.19 88.28C28.39 88.28 28.56 88.43 28.57 88.62C28.57 88.82 28.43 89.01 28.26 89.03H28.25Z" fill="#DAE8FF"/>
<path d="M1.66 41.66C1.67 41.86 1.54 42.05 1.36 42.08C1.16 42.12 0.95 41.94 0.93 41.72C0.91 41.53 1.07 41.35 1.26 41.34C1.46 41.32 1.64 41.47 1.65 41.66H1.66Z" fill="#DAE8FF"/>
<path d="M35.83 93.78C35.88 93.99 35.74 94.23 35.54 94.26C35.36 94.29 35.17 94.15 35.12 93.95C35.07 93.77 35.2 93.57 35.39 93.52C35.58 93.47 35.78 93.59 35.83 93.78Z" fill="#DAE8FF"/>
<path d="M69.99 107.9C69.85 107.93 69.69 107.82 69.66 107.68C69.63 107.54 69.74 107.38 69.88 107.35C70.02 107.32 70.18 107.42 70.21 107.57C70.24 107.71 70.13 107.87 69.99 107.9Z" fill="#DAE8FF"/>
<path d="M41.11 9.69001C40.96 9.71001 40.82 9.60001 40.79 9.46001C40.77 9.32001 40.88 9.17001 41.03 9.15001C41.18 9.13001 41.33 9.24001 41.35 9.38001C41.37 9.52001 41.25 9.67001 41.11 9.69001Z" fill="#DAE8FF"/>
<path d="M56.69 103.38C56.71 103.52 56.59 103.68 56.45 103.69C56.31 103.71 56.16 103.6 56.13 103.45C56.11 103.31 56.22 103.16 56.37 103.14C56.52 103.12 56.67 103.23 56.69 103.37V103.38Z" fill="#DAE8FF"/>
<path d="M4.6 60.4C4.63 60.55 4.53 60.7 4.38 60.72C4.23 60.74 4.09 60.63 4.08 60.48C4.08 60.34 4.14 60.24 4.27 60.2C4.41 60.15 4.57 60.25 4.6 60.4Z" fill="#DAE8FF"/>
<path d="M5.62 66.64C5.65 66.79 5.56 66.94 5.42 66.97C5.28 67 5.12 66.89 5.11 66.74C5.1 66.6 5.16 66.5 5.29 66.45C5.43 66.4 5.59 66.49 5.62 66.64Z" fill="#DAE8FF"/>
<path d="M4.71 21.76C4.74 21.91 4.64 22.06 4.5 22.08C4.36 22.1 4.21 21.99 4.2 21.84C4.2 21.7 4.26 21.6 4.39 21.56C4.53 21.51 4.69 21.61 4.72 21.76H4.71Z" fill="#DAE8FF"/>
<path d="M13.7 78.45C13.55 78.47 13.41 78.36 13.39 78.21C13.37 78.06 13.49 77.92 13.64 77.91C13.76 77.91 13.88 78 13.91 78.12C13.94 78.27 13.84 78.42 13.7 78.44V78.45Z" fill="#DAE8FF"/>
<path d="M20.89 83.15C21.03 83.13 21.17 83.25 21.18 83.4C21.18 83.53 21.1 83.65 20.98 83.68C20.84 83.71 20.68 83.61 20.66 83.47C20.63 83.33 20.75 83.18 20.89 83.16V83.15Z" fill="#DAE8FF"/>
<path d="M15.99 13.79C15.85 13.82 15.69 13.72 15.67 13.57C15.65 13.43 15.76 13.28 15.9 13.26C16.02 13.24 16.15 13.33 16.18 13.45C16.22 13.6 16.13 13.76 15.99 13.79Z" fill="#DAE8FF"/>
<path d="M0.52 35.4C0.55 35.55 0.45 35.7 0.31 35.72C0.17 35.74 0.0200002 35.63 0.0100002 35.48C0.0100002 35.34 0.0700002 35.24 0.2 35.2C0.34 35.15 0.5 35.25 0.53 35.4H0.52Z" fill="#DAE8FF"/>
<path d="M42.82 99.5C42.68 99.53 42.53 99.43 42.5 99.29C42.47 99.15 42.58 98.99 42.72 98.98C42.86 98.98 42.95 99.04 43 99.17C43.05 99.31 42.96 99.48 42.82 99.51V99.5Z" fill="#DAE8FF"/>
<path d="M66.26 11.88C66.31 12.18 66.59 12.39 66.9 12.34C67.21 12.29 67.41 12.01 67.36 11.7C67.31 11.39 67.03 11.19 66.72 11.24C66.41 11.29 66.21 11.57 66.26 11.88Z" fill="#DAE8FF"/>
<path d="M85.7 27.92C85.91 29.63 87.61 30.65 89.08 30.41C90.56 30.17 91.8 28.68 91.53 26.98C91.28 25.38 89.67 24.25 88.13 24.49C86.57 24.74 85.37 26.34 85.69 27.91L85.7 27.92Z" fill="#DAE8FF"/>
<path d="M95.41 29.74C93.85 29.94 92.7 31.57 92.97 33.16C93.25 34.86 94.9 35.88 96.38 35.64C97.86 35.4 99.1 33.9 98.82 32.21C98.56 30.62 96.95 29.44 95.41 29.75V29.74Z" fill="#DAE8FF"/>
<path d="M94 39.42C94.31 41.19 95.92 42.14 97.42 41.87C99 41.59 100.11 40.11 99.81 38.41C99.53 36.81 98.03 35.74 96.43 35.99C94.62 36.28 93.7 38.07 94 39.42Z" fill="#DAE8FF"/>
<path d="M95.14 45.62C95.34 47.03 96.7 48.4 98.54 48.1C100.03 47.86 101.22 46.48 100.96 44.71C100.71 43.01 99.12 41.98 97.56 42.23C95.97 42.49 94.89 44.01 95.14 45.62Z" fill="#DAE8FF"/>
<path d="M90.82 59.17C91.12 60.8 92.52 61.89 94.19 61.62C95.87 61.35 96.89 59.84 96.61 58.17C96.35 56.62 94.81 55.52 93.26 55.77C91.69 56.02 90.57 57.58 90.83 59.16L90.82 59.17Z" fill="#DAE8FF"/>
<path d="M68.89 82.03C69.22 83.82 70.9 84.7 72.28 84.45C73.71 84.2 74.99 82.79 74.66 81.04C74.31 79.17 72.71 78.38 71.28 78.63C69.76 78.9 68.65 80.22 68.89 82.03Z" fill="#DAE8FF"/>
<path d="M80.37 73.71C80.68 75.48 82.33 76.39 83.74 76.16C85.15 75.93 86.46 74.54 86.14 72.77C85.81 70.93 84.26 70.1 82.78 70.34C81.3 70.58 80.13 71.87 80.36 73.72L80.37 73.71Z" fill="#DAE8FF"/>
<path d="M78.46 22.71C78.78 24.5 80.46 25.38 81.84 25.14C83.27 24.89 84.55 23.49 84.22 21.73C83.87 19.87 82.29 19.07 80.85 19.32C79.34 19.58 78.22 20.89 78.45 22.71H78.46Z" fill="#DAE8FF"/>
<path d="M96.19 51.92C96.53 53.59 98.04 54.56 99.54 54.32C101.04 54.08 102.24 52.67 101.95 50.94C101.68 49.37 100.35 48.26 98.58 48.52C97 48.75 95.92 50.35 96.19 51.93V51.92Z" fill="#DAE8FF"/>
<path d="M78.52 83.37C79.86 83.23 81.23 81.81 80.89 79.98C80.61 78.47 79.37 77.42 77.54 77.6C75.67 78.05 74.93 79.52 75.16 80.95C75.45 82.75 77.17 83.68 78.52 83.36V83.37Z" fill="#DAE8FF"/>
<path d="M88.97 68.83C90.31 68.7 91.68 67.27 91.35 65.45C91.08 63.96 89.85 62.88 88 63.06C86.15 63.5 85.39 64.95 85.61 66.41C85.89 68.22 87.62 69.14 88.96 68.83H88.97Z" fill="#DAE8FF"/>
<path d="M75.57 26.1C76.98 25.91 78.22 24.56 77.94 22.77C77.72 21.35 76.44 20.08 74.61 20.38C72.82 20.68 72.01 22.24 72.23 23.65C72.51 25.43 74.11 26.38 75.57 26.09V26.1Z" fill="#DAE8FF"/>
<path d="M92.08 26.93C92.35 28.52 93.77 29.54 95.35 29.27C96.92 29 97.89 27.58 97.67 25.97C97.47 24.5 95.99 23.32 94.36 23.61C92.87 23.88 91.74 25.39 92.09 26.92L92.08 26.93Z" fill="#DAE8FF"/>
<path d="M79.57 28.94C79.83 30.54 81.24 31.57 82.81 31.32C84.39 31.07 85.38 29.65 85.16 28.05C84.96 26.51 83.44 25.39 81.87 25.65C80.33 25.91 79.23 27.45 79.56 28.94H79.57Z" fill="#DAE8FF"/>
<path d="M89.17 30.9C87.65 31.08 86.58 32.68 86.84 34.17C87.09 35.64 88.53 36.8 90.11 36.54C91.69 36.28 92.68 34.71 92.44 33.24C92.2 31.76 90.7 30.58 89.17 30.9Z" fill="#DAE8FF"/>
<path d="M91.95 65.42C92.13 66.73 93.39 68.05 95.18 67.77C96.97 67.49 97.76 65.82 97.52 64.48C97.24 62.9 95.81 61.87 94.23 62.16C92.69 62.43 91.69 63.87 91.95 65.43V65.42Z" fill="#DAE8FF"/>
<path d="M86.73 72.68C86.93 74.11 88.32 75.29 89.94 75.04C91.56 74.79 92.56 73.22 92.29 71.76C92.01 70.23 90.7 69.17 89.08 69.42C87.46 69.67 86.49 71.09 86.73 72.68Z" fill="#DAE8FF"/>
<path d="M89.92 52.91C90.15 54.46 91.65 55.5 93.14 55.27C94.61 55.04 95.73 53.6 95.48 52.03C95.23 50.48 93.81 49.39 92.22 49.66C90.65 49.93 89.68 51.39 89.92 52.91Z" fill="#DAE8FF"/>
<path d="M90.38 20.77C90.13 19.26 88.76 18.17 87.17 18.41C85.59 18.65 84.57 20.12 84.82 21.68C85.07 23.24 86.58 24.26 88.06 24.02C89.54 23.78 90.64 22.32 90.38 20.77Z" fill="#DAE8FF"/>
<path d="M72.64 30.06C72.4 28.67 71.17 27.45 69.41 27.74C67.71 28.02 66.88 29.5 67.09 30.91C67.35 32.7 68.92 33.55 70.33 33.32C71.7 33.1 72.9 31.84 72.65 30.07L72.64 30.06Z" fill="#DAE8FF"/>
<path d="M74.25 74.69C74.62 76.37 75.93 77.18 77.49 77.05C79.09 76.62 79.98 75.4 79.75 73.8C79.56 72.48 78.33 71.21 76.56 71.5C74.81 71.78 74.07 73.35 74.24 74.69H74.25Z" fill="#DAE8FF"/>
<path d="M73.36 29.94C73.75 31.68 75.12 32.42 76.62 32.28C78.27 31.83 79.1 30.56 78.86 29.02C78.66 27.67 77.39 26.44 75.66 26.74C73.88 27.04 73.19 28.63 73.36 29.94Z" fill="#DAE8FF"/>
<path d="M93.32 39.49C93.14 38.06 91.71 37 90.19 37.25C88.77 37.49 87.73 38.89 87.97 40.41C88.19 41.81 89.67 42.91 91.12 42.66C92.49 42.42 93.67 40.95 93.31 39.48L93.32 39.49Z" fill="#DAE8FF"/>
<path d="M97.44 58.14C97.57 59.53 99.12 60.63 100.59 60.36C101.92 60.12 103.06 58.68 102.77 57.16C102.52 55.81 101.18 54.68 99.6 54.96C98.25 55.2 97.09 56.56 97.44 58.14Z" fill="#DAE8FF"/>
<path d="M100.62 38.34C100.75 39.69 102.17 40.84 103.69 40.6C105.43 40.33 106.16 38.63 105.96 37.46C105.71 36 104.33 34.94 102.83 35.19C101.48 35.41 100.28 36.74 100.61 38.34H100.62Z" fill="#DAE8FF"/>
<path d="M89.01 46.66C89.26 48.15 90.62 49.14 92.09 48.9C93.84 48.62 94.55 46.92 94.35 45.76C94.08 44.19 92.59 43.27 91.21 43.5C89.86 43.73 88.68 45.06 89 46.66H89.01Z" fill="#DAE8FF"/>
<path d="M81.62 79.92C81.86 81.5 83.34 82.43 84.75 82.18C86.19 81.92 87.19 80.57 86.95 79.06C86.7 77.48 85.21 76.57 83.81 76.81C82.42 77.05 81.33 78.39 81.61 79.92H81.62Z" fill="#DAE8FF"/>
<path d="M61.98 38.26C62.25 39.82 63.7 40.72 65.09 40.47C66.52 40.22 67.55 38.88 67.3 37.35C67.05 35.85 65.64 34.84 64.15 35.11C62.7 35.37 61.73 36.78 61.98 38.25V38.26Z" fill="#DAE8FF"/>
<path d="M70.17 88.35C70.41 89.82 71.75 90.83 73.25 90.59C74.7 90.36 75.72 89 75.48 87.5C75.25 86 73.83 84.98 72.36 85.23C70.91 85.48 69.92 86.88 70.17 88.35Z" fill="#DAE8FF"/>
<path d="M90.11 59.26C89.89 57.93 88.61 56.78 87 57.06C85.37 57.35 84.57 58.88 84.82 60.18C85.17 61.97 86.75 62.6 87.93 62.39C89.22 62.15 90.37 60.98 90.11 59.26Z" fill="#DAE8FF"/>
<path d="M104.71 46.76C106.45 46.5 107.13 44.94 106.95 43.76C106.73 42.29 105.43 41.26 103.9 41.49C102.47 41.71 101.45 42.97 101.68 44.58C101.86 45.81 103.03 47.05 104.72 46.77L104.71 46.76Z" fill="#DAE8FF"/>
<path d="M82.66 69.61C84.35 69.35 85.08 67.83 84.87 66.59C84.61 65.04 83.3 64.1 81.8 64.34C80.33 64.58 79.36 65.88 79.6 67.45C79.79 68.69 80.97 69.91 82.65 69.61H82.66Z" fill="#DAE8FF"/>
<path d="M102.69 34.26C104.2 34.07 105.14 32.51 104.89 31.23C104.59 29.65 103.28 28.75 101.8 29.02C100.12 29.33 99.42 30.73 99.64 32.08C99.89 33.67 101.45 34.53 102.69 34.26Z" fill="#DAE8FF"/>
<path d="M70.36 72.71C69.03 72.84 67.93 74.19 68.19 75.74C68.43 77.17 69.77 78.1 71.2 77.88C72.41 77.69 73.6 76.53 73.34 74.87C73.1 73.33 71.62 72.43 70.36 72.71Z" fill="#DAE8FF"/>
<path d="M82.96 32.15C81.67 32.29 80.56 33.6 80.81 35.14C81.08 36.79 82.58 37.51 83.79 37.32C85.05 37.12 86.24 35.93 85.96 34.28C85.7 32.76 84.23 31.86 82.96 32.15Z" fill="#DAE8FF"/>
<path d="M96.37 19.75C96.13 18.33 94.82 17.39 93.41 17.63C92.01 17.87 91.1 19.18 91.32 20.61C91.54 22.03 92.93 22.97 94.28 22.74C95.63 22.51 96.65 21.17 96.37 19.75Z" fill="#DAE8FF"/>
<path d="M69.25 26.74C70.61 26.52 71.57 25.25 71.33 23.89C71.08 22.45 69.9 21.54 68.44 21.78C67 22.01 66.15 23.24 66.37 24.7C66.57 26.06 67.88 26.97 69.24 26.75L69.25 26.74Z" fill="#DAE8FF"/>
<path d="M100.84 22.95C99.58 23.11 98.57 24.29 98.8 25.81C99 27.16 100.34 28.08 101.68 27.85C103 27.62 103.92 26.33 103.69 25.01C103.39 23.32 101.88 22.72 100.84 22.96V22.95Z" fill="#DAE8FF"/>
<path d="M104.92 47.95C103.66 48.11 102.64 49.29 102.87 50.81C103.07 52.16 104.4 53.08 105.75 52.85C107.07 52.62 108 51.33 107.76 50.01C107.46 48.31 105.95 47.72 104.91 47.95H104.92Z" fill="#DAE8FF"/>
<path d="M76.66 87.29C76.84 88.75 78.33 89.52 79.47 89.34C80.59 89.16 81.76 87.97 81.49 86.44C81.29 85.28 80.09 84.2 78.64 84.45C77.29 84.68 76.37 86.05 76.66 87.29Z" fill="#DAE8FF"/>
<path d="M77.91 16.3C78.08 17.86 79.6 18.6 80.71 18.43C81.86 18.25 82.97 17.06 82.76 15.61C82.57 14.36 81.35 13.33 79.98 13.53C78.46 13.75 77.67 15.22 77.91 16.3Z" fill="#DAE8FF"/>
<path d="M84.04 53.87C84.22 55.34 85.7 56.1 86.84 55.92C87.97 55.74 89.13 54.55 88.87 53.03C88.67 51.9 87.51 50.78 86.03 51.04C84.63 51.28 83.76 52.67 84.04 53.87Z" fill="#DAE8FF"/>
<path d="M93.36 71.58C93.63 73.08 94.93 73.84 96.17 73.62C97.58 73.36 98.38 72.12 98.15 70.77C97.93 69.48 96.64 68.57 95.35 68.79C94.06 69.01 93.15 70.29 93.36 71.58Z" fill="#DAE8FF"/>
<path d="M74.74 36.13C75.03 37.69 76.39 38.38 77.56 38.15C79.01 37.87 79.76 36.61 79.53 35.29C79.31 34.01 78 33.1 76.72 33.32C75.43 33.55 74.52 34.83 74.74 36.12V36.13Z" fill="#DAE8FF"/>
<path d="M68.5 37.19C68.73 38.47 70.04 39.45 71.29 39.18C72.48 38.93 73.53 37.91 73.28 36.34C73.07 35.05 71.78 34.14 70.5 34.35C69.2 34.56 68.28 35.88 68.51 37.19H68.5Z" fill="#DAE8FF"/>
<path d="M86.81 40.61C86.6 39.29 85.31 38.34 84.01 38.56C82.73 38.77 81.8 40.05 82.02 41.35C82.3 42.96 83.67 43.58 84.82 43.39C85.97 43.19 87.01 42.2 86.82 40.61H86.81Z" fill="#DAE8FF"/>
<path d="M66.01 31.16C65.8 29.86 64.55 28.94 63.25 29.13C61.95 29.32 60.99 30.63 61.23 31.95C61.49 33.38 62.76 34.15 64.01 33.94C65.27 33.73 66.2 32.59 66.01 31.16Z" fill="#DAE8FF"/>
<path d="M76.35 70.37C77.74 70.16 78.52 68.87 78.37 67.67C78.21 66.38 76.91 65.39 75.63 65.63C74.14 65.9 73.44 67.13 73.62 68.39C73.79 69.55 74.94 70.58 76.34 70.37H76.35Z" fill="#DAE8FF"/>
<path d="M101.51 66.26C102.9 66 103.64 64.8 103.48 63.53C103.32 62.27 102 61.31 100.76 61.55C99.28 61.84 98.58 62.97 98.78 64.31C98.97 65.57 100.12 66.46 101.51 66.26Z" fill="#DAE8FF"/>
<path d="M85.05 44.9C83.68 45.11 82.88 46.24 83.09 47.6C83.32 49.11 84.67 49.74 85.8 49.56C86.92 49.38 88.02 48.37 87.76 46.84C87.53 45.5 86.42 44.67 85.05 44.9Z" fill="#DAE8FF"/>
<path d="M84.25 15.36C84.47 16.64 85.72 17.52 86.99 17.28C88.25 17.05 89.11 15.84 88.9 14.58C88.67 13.21 87.35 12.43 86.18 12.62C85.03 12.81 84.03 13.96 84.24 15.35L84.25 15.36Z" fill="#DAE8FF"/>
<path d="M83.51 60.4C83.33 58.93 81.86 58.27 80.87 58.42C79.79 58.58 78.7 59.72 78.92 61.09C79.11 62.26 80.17 63.26 81.57 63.06C82.96 62.85 83.73 61.57 83.51 60.4Z" fill="#DAE8FF"/>
<path d="M88.24 78.84C88.39 80.01 89.51 81 90.9 80.77C92.3 80.54 93 79.25 92.82 78.09C92.6 76.67 91.17 75.98 90.15 76.15C89.12 76.32 87.97 77.43 88.24 78.84Z" fill="#DAE8FF"/>
<path d="M74.42 19.24C75.59 19.13 76.55 17.9 76.35 16.64C76.15 15.41 74.94 14.52 73.73 14.7C72.52 14.88 71.63 16.1 71.81 17.33C72 18.63 73.32 19.48 74.43 19.24H74.42Z" fill="#DAE8FF"/>
<path d="M99.86 16.97C98.65 17.16 97.85 18.32 98.06 19.51C98.27 20.68 99.42 21.54 100.54 21.33C101.94 21.06 102.57 19.79 102.38 18.8C102.15 17.57 101.08 16.77 99.86 16.97Z" fill="#DAE8FF"/>
<path d="M111.68 36.5C111.48 35.38 110.53 34.52 109.2 34.7C107.98 34.86 107.17 36.13 107.38 37.24C107.61 38.49 108.76 39.21 109.87 39.04C111 38.86 111.9 37.8 111.68 36.5Z" fill="#DAE8FF"/>
<path d="M104.2 57C104.4 58.25 105.57 58.98 106.69 58.8C107.82 58.62 108.73 57.56 108.5 56.26C108.29 55.08 107.27 54.25 105.96 54.47C104.76 54.67 103.97 55.93 104.21 56.99L104.2 57Z" fill="#DAE8FF"/>
<path d="M67.59 69.35C67.78 70.68 69 71.37 70.1 71.19C71.19 71.01 72.09 69.98 71.9 68.7C71.71 67.49 70.59 66.66 69.39 66.85C68.22 67.04 67.41 68.17 67.59 69.34V69.35Z" fill="#DAE8FF"/>
<path d="M66 46.15C67.01 45.97 67.96 45.12 67.78 43.72C67.63 42.56 66.43 41.7 65.3 41.89C64.17 42.08 63.3 43.28 63.53 44.42C63.81 45.8 64.98 46.31 66 46.16V46.15Z" fill="#DAE8FF"/>
<path d="M108.86 32.73C109.94 32.53 110.84 31.61 110.63 30.23C110.47 29.11 109.26 28.25 108.16 28.47C107.09 28.68 106.16 29.66 106.4 30.99C106.64 32.33 107.81 32.89 108.86 32.73Z" fill="#DAE8FF"/>
<path d="M93.15 16.04C94.29 15.86 95.15 14.73 94.93 13.61C94.68 12.37 93.74 11.65 92.5 11.83C91.42 11.98 90.58 12.86 90.72 14.27C90.84 15.4 92 16.23 93.15 16.05V16.04Z" fill="#DAE8FF"/>
<path d="M78.47 44.1C79.61 43.93 80.48 42.8 80.26 41.67C80.02 40.46 79.1 39.71 77.83 39.88C76.79 40.02 75.9 40.87 76.04 42.31C76.15 43.44 77.32 44.27 78.46 44.1H78.47Z" fill="#DAE8FF"/>
<path d="M85.67 87.83C86.64 87.65 87.64 86.69 87.37 85.34C87.14 84.18 86.08 83.45 84.92 83.66C83.72 83.88 83.02 84.98 83.2 86.09C83.43 87.46 84.72 88.01 85.66 87.84L85.67 87.83Z" fill="#DAE8FF"/>
<path d="M112.58 42.79C112.45 41.57 111.14 40.9 110.19 41.06C109.15 41.24 108.3 42.39 108.5 43.5C108.71 44.63 109.77 45.35 110.87 45.19C111.83 45.05 112.84 44.11 112.58 42.79Z" fill="#DAE8FF"/>
<path d="M74.14 96.16C75.23 96.06 76.05 94.99 75.87 93.85C75.69 92.73 74.64 91.95 73.54 92.11C72.44 92.27 71.66 93.33 71.82 94.45C71.99 95.67 73.17 96.37 74.14 96.15V96.16Z" fill="#DAE8FF"/>
<path d="M80.55 56.49C81.7 56.29 82.42 55.27 82.21 54.13C82.01 53.01 80.95 52.26 79.84 52.46C78.73 52.66 77.99 53.71 78.18 54.84C78.37 55.97 79.4 56.69 80.55 56.49Z" fill="#DAE8FF"/>
<path d="M105.52 24.68C105.7 25.75 106.81 26.56 107.85 26.32C109.1 26.03 109.6 25.11 109.45 24.03C109.3 22.97 108.22 22.24 107.18 22.42C106.26 22.58 105.39 23.44 105.52 24.68Z" fill="#DAE8FF"/>
<path d="M73.07 62.12C73.26 63.21 74.18 63.85 75.28 63.67C76.58 63.46 77.04 62.31 76.89 61.43C76.73 60.46 75.72 59.64 74.62 59.83C73.65 60 72.81 61.02 73.06 62.12H73.07Z" fill="#DAE8FF"/>
<path d="M77.28 48.61C77.47 49.69 78.4 50.33 79.51 50.14C80.79 49.93 81.26 48.79 81.1 47.89C80.94 46.95 79.96 46.1 78.82 46.31C77.88 46.48 77.02 47.48 77.28 48.61Z" fill="#DAE8FF"/>
<path d="M72.24 44.88C73.27 44.7 73.97 43.74 73.8 42.72C73.6 41.55 72.49 40.96 71.59 41.11C70.7 41.25 69.82 42.16 70.01 43.34C70.17 44.38 71.17 45.07 72.24 44.89V44.88Z" fill="#DAE8FF"/>
<path d="M103.97 69.87C103.72 68.69 102.75 68.19 101.86 68.34C100.85 68.51 100.16 69.42 100.31 70.44C100.44 71.41 101.45 72.16 102.42 71.98C103.33 71.82 104.11 71.04 103.97 69.87Z" fill="#DAE8FF"/>
<path d="M113.36 49.08C113.26 48.09 112.21 47.39 111.25 47.56C110.4 47.71 109.6 48.63 109.78 49.66C109.95 50.65 110.85 51.35 111.9 51.17C112.92 50.99 113.58 50.01 113.36 49.08Z" fill="#DAE8FF"/>
<path d="M95 77.71C95.11 78.73 96.12 79.36 97.04 79.22C98.08 79.06 98.71 78.07 98.56 77.18C98.39 76.21 97.48 75.52 96.51 75.64C95.76 75.73 94.76 76.65 95 77.71Z" fill="#DAE8FF"/>
<path d="M99.47 14.62C100.4 14.48 101.14 13.51 100.93 12.59C100.7 11.57 99.94 11.06 98.94 11.15C98.06 11.22 97.32 12.29 97.47 13.19C97.61 14.08 98.57 14.76 99.47 14.62Z" fill="#DAE8FF"/>
<path d="M105.64 63.15C105.79 64.08 106.7 64.75 107.62 64.6C108.45 64.46 109.23 63.75 109.09 62.64C108.97 61.74 108.05 61.05 107.11 61.19C106.1 61.34 105.53 62.35 105.64 63.15Z" fill="#DAE8FF"/>
<path d="M79.83 91.44C78.86 91.54 78.22 92.57 78.37 93.4C78.58 94.53 79.51 94.96 80.34 94.84C81.17 94.72 81.97 93.99 81.79 92.82C81.66 91.98 80.73 91.26 79.83 91.45V91.44Z" fill="#DAE8FF"/>
<path d="M106.76 19.74C107.73 19.57 108.28 18.78 108.1 17.81C107.93 16.9 107.09 16.3 106.2 16.46C105.25 16.63 104.68 17.45 104.81 18.39C104.92 19.21 105.8 19.95 106.76 19.74Z" fill="#DAE8FF"/>
<path d="M85.79 10.2C86.71 10.12 87.33 9.10001 87.19 8.34001C87.02 7.41001 86.19 6.77001 85.27 6.91001C84.36 7.05001 83.76 7.92001 83.89 8.86001C83.99 9.66001 84.93 10.4 85.79 10.2Z" fill="#DAE8FF"/>
<path d="M77.65 9.87001C77.81 10.77 78.65 11.36 79.56 11.2C80.47 11.04 81.06 10.21 80.91 9.30001C80.75 8.34001 79.8 7.80001 79 7.95001C78.15 8.10001 77.48 8.94001 77.65 9.86001V9.87001Z" fill="#DAE8FF"/>
<path d="M68.99 64.39C69.87 64.24 70.51 63.36 70.35 62.5C70.2 61.68 69.32 61.04 68.49 61.15C67.65 61.27 66.97 62.18 67.1 63.04C67.23 63.9 68.12 64.54 69 64.39H68.99Z" fill="#DAE8FF"/>
<path d="M91.27 83.15C90.32 83.28 89.83 84.2 89.94 84.99C90.06 85.84 90.93 86.45 91.8 86.32C92.66 86.19 93.31 85.34 93.17 84.49C93.04 83.73 92.29 82.95 91.28 83.15H91.27Z" fill="#DAE8FF"/>
<path d="M72.43 55.76C72.58 56.61 73.33 57.14 74.19 57C75.05 56.86 75.59 56.11 75.45 55.25C75.32 54.44 74.5 53.85 73.68 53.99C72.87 54.13 72.28 54.95 72.42 55.76H72.43Z" fill="#DAE8FF"/>
<path d="M68.04 19.5C68.88 19.38 69.47 18.6 69.34 17.78C69.21 16.98 68.38 16.37 67.58 16.5C66.79 16.63 66.19 17.47 66.32 18.27C66.45 19.06 67.22 19.61 68.04 19.49V19.5Z" fill="#DAE8FF"/>
<path d="M73.14 50.75C73.98 50.63 74.57 49.85 74.44 49.03C74.31 48.23 73.47 47.62 72.68 47.76C71.89 47.89 71.29 48.73 71.42 49.53C71.55 50.32 72.32 50.87 73.14 50.75Z" fill="#DAE8FF"/>
<path d="M90.39 7.81001C90.53 8.62001 91.24 9.11001 92.06 8.95001C92.85 8.80001 93.32 8.12001 93.19 7.33001C93.06 6.52001 92.34 6.00001 91.55 6.14001C90.76 6.28001 90.25 7.00001 90.4 7.81001H90.39Z" fill="#DAE8FF"/>
<path d="M115.99 37.22C116.86 37.13 117.3 36.28 117.19 35.65C117.04 34.86 116.32 34.31 115.54 34.45C114.78 34.58 114.26 35.32 114.4 36.08C114.54 36.9 115.18 37.36 116 37.23L115.99 37.22Z" fill="#DAE8FF"/>
<path d="M115.01 30.97C115.78 30.88 116.3 30.09 116.16 29.36C116.01 28.6 115.3 28.08 114.54 28.2C113.78 28.32 113.25 29.05 113.37 29.81C113.51 30.66 114.16 31.12 115.01 30.97Z" fill="#DAE8FF"/>
<path d="M111.21 55.86C111.36 56.7 112.03 57.14 112.88 56.98C113.67 56.83 114.13 56.14 113.98 55.34C113.83 54.59 113.09 54.08 112.33 54.22C111.57 54.36 111.07 55.1 111.21 55.86Z" fill="#DAE8FF"/>
<path d="M61.25 25.5C61.38 26.22 62.13 26.75 62.83 26.62C63.54 26.49 64.06 25.73 63.92 25.02C63.79 24.34 63.06 23.85 62.35 23.98C61.64 24.11 61.12 24.83 61.24 25.5H61.25Z" fill="#DAE8FF"/>
<path d="M66.93 51.61C67.64 51.47 68.16 50.71 68.01 50C67.87 49.32 67.14 48.84 66.43 48.97C65.72 49.1 65.2 49.83 65.33 50.5C65.47 51.22 66.22 51.74 66.92 51.61H66.93Z" fill="#DAE8FF"/>
<path d="M72.83 9.55C72.14 9.68 71.69 10.3 71.81 10.98C71.93 11.65 72.56 12.1 73.25 11.99C73.97 11.88 74.44 11.22 74.3 10.52C74.17 9.85 73.53 9.43 72.83 9.55Z" fill="#DAE8FF"/>
<path d="M116.62 40.89C115.92 41.01 115.45 41.61 115.55 42.28C115.65 42.96 116.34 43.45 117.03 43.32C117.72 43.2 118.16 42.57 118.05 41.89C117.97 41.34 117.37 40.72 116.61 40.88L116.62 40.89Z" fill="#DAE8FF"/>
<path d="M113.96 24.57C114.62 24.45 115.1 23.75 114.96 23.12C114.82 22.44 114.17 22.03 113.48 22.17C112.82 22.3 112.37 22.93 112.5 23.57C112.65 24.31 113.3 24.66 113.96 24.57Z" fill="#DAE8FF"/>
<path d="M86.15 90.92C85.46 91.03 84.99 91.67 85.11 92.34C85.22 92.99 85.92 93.46 86.57 93.34C87.2 93.22 87.68 92.57 87.58 91.94C87.48 91.27 86.83 90.81 86.15 90.92Z" fill="#DAE8FF"/>
<path d="M105.65 12.99C106.32 12.87 106.69 12.33 106.59 11.65C106.5 11.03 105.79 10.62 105.28 10.72C104.63 10.84 104.21 11.42 104.31 12.06C104.41 12.72 104.97 13.11 105.65 12.99Z" fill="#DAE8FF"/>
<path d="M74.68 99.33C74.07 99.43 73.66 99.97 73.73 100.55C73.81 101.13 74.42 101.6 75.01 101.51C75.62 101.43 76.09 100.77 75.97 100.17C75.86 99.6 75.29 99.23 74.68 99.33Z" fill="#DAE8FF"/>
<path d="M102.05 76.56C102.14 77.16 102.76 77.6 103.34 77.49C103.9 77.39 104.34 76.78 104.25 76.24C104.16 75.69 103.55 75.26 102.99 75.34C102.42 75.42 101.96 76.02 102.05 76.56Z" fill="#DAE8FF"/>
<path d="M67.54 55.48C66.97 55.57 66.52 56.18 66.63 56.73C66.73 57.25 67.33 57.67 67.87 57.59C68.42 57.51 68.88 56.87 68.78 56.33C68.68 55.79 68.09 55.39 67.55 55.47L67.54 55.48Z" fill="#DAE8FF"/>
<path d="M108.17 68.11C107.61 68.24 107.26 68.8 107.38 69.36C107.5 69.92 108.08 70.27 108.63 70.13C109.18 69.99 109.5 69.48 109.39 68.92C109.27 68.35 108.72 67.98 108.16 68.1L108.17 68.11Z" fill="#DAE8FF"/>
<path d="M97.97 5.52001C97.46 5.62001 97.07 6.20001 97.17 6.70001C97.25 7.14001 97.73 7.65001 98.4 7.49001C98.94 7.36001 99.28 6.84001 99.16 6.30001C99.04 5.76001 98.51 5.42001 97.97 5.52001Z" fill="#DAE8FF"/>
<path d="M97.93 84.65C98.42 84.59 98.83 84.04 98.76 83.55C98.68 83.06 98.21 82.71 97.7 82.76C97.18 82.81 96.78 83.3 96.84 83.82C96.89 84.31 97.43 84.72 97.93 84.65Z" fill="#DAE8FF"/>
<path d="M117.65 47.45C117.17 47.55 116.83 48.06 116.93 48.54C117.03 49.02 117.55 49.38 118.02 49.27C118.48 49.16 118.84 48.63 118.75 48.16C118.66 47.69 118.14 47.34 117.65 47.44V47.45Z" fill="#DAE8FF"/>
<path d="M112.58 16.2C112.1 16.28 111.74 16.78 111.82 17.26C111.9 17.75 112.41 18.11 112.88 18.03C113.34 17.95 113.72 17.43 113.65 16.95C113.58 16.48 113.07 16.12 112.58 16.2Z" fill="#DAE8FF"/>
<path d="M113.74 62.72C114.2 62.65 114.53 62.25 114.48 61.79C114.43 61.31 113.99 60.98 113.5 61.05C113.01 61.12 112.67 61.57 112.76 62.03C112.84 62.44 113.32 62.78 113.75 62.72H113.74Z" fill="#DAE8FF"/>
<path d="M81.23 100.11C81.64 100.04 81.92 99.65 81.85 99.24C81.79 98.84 81.44 98.6 81.02 98.65C80.57 98.71 80.29 99.06 80.36 99.48C80.43 99.9 80.81 100.18 81.23 100.11Z" fill="#DAE8FF"/>
<path d="M84.61 3.01001C84.93 2.97001 85.23 2.55001 85.19 2.21001C85.15 1.90001 84.8 1.63001 84.45 1.66001C84.09 1.69001 83.77 2.06001 83.83 2.40001C83.88 2.73001 84.29 3.05001 84.61 3.00001V3.01001Z" fill="#DAE8FF"/>
<path d="M92.48 90.44C92.14 90.5 91.86 90.85 91.91 91.16C91.95 91.49 92.35 91.81 92.68 91.78C93.03 91.74 93.34 91.29 93.27 90.93C93.2 90.62 92.82 90.38 92.49 90.44H92.48Z" fill="#DAE8FF"/>
<path d="M77.69 3.46C77.74 3.74 78.07 3.97 78.35 3.92C78.63 3.87 78.87 3.55 78.83 3.27C78.79 2.95 78.46 2.72 78.13 2.8C77.83 2.86 77.62 3.16 77.68 3.46H77.69Z" fill="#DAE8FF"/>
<path d="M118.34 54.69C118.39 54.97 118.66 55.16 118.93 55.12C119.2 55.07 119.39 54.8 119.35 54.52C119.3 54.25 119.02 54.04 118.76 54.09C118.5 54.14 118.3 54.42 118.34 54.69Z" fill="#DAE8FF"/>
<path d="M90.67 0.800014C90.4 0.850014 90.22 1.13001 90.27 1.41001C90.32 1.68001 90.6 1.88001 90.87 1.83001C91.14 1.78001 91.33 1.50001 91.27 1.22001C91.21 0.940014 90.94 0.750014 90.67 0.800014Z" fill="#DAE8FF"/>
<path d="M103.97 5.61001C104.02 5.83001 104.26 5.99001 104.5 5.94001C104.74 5.89001 104.9 5.67001 104.86 5.43001C104.82 5.19001 104.6 5.03001 104.36 5.07001C104.1 5.11001 103.91 5.36001 103.97 5.61001Z" fill="#DAE8FF"/>
<path d="M121.59 34.94C121.64 35.16 121.88 35.32 122.11 35.28C122.37 35.23 122.54 34.96 122.46 34.72C122.39 34.49 122.15 34.36 121.92 34.42C121.69 34.48 121.54 34.72 121.59 34.94Z" fill="#DAE8FF"/>
<path d="M121.1 29.03C121.33 28.98 121.49 28.75 121.46 28.52C121.42 28.29 121.19 28.13 120.96 28.16C120.7 28.2 120.51 28.45 120.58 28.7C120.64 28.92 120.88 29.08 121.11 29.03H121.1Z" fill="#DAE8FF"/>
<path d="M111.62 10.43C111.39 10.48 111.22 10.71 111.26 10.93C111.3 11.18 111.58 11.35 111.82 11.29C112.05 11.23 112.19 10.99 112.14 10.76C112.09 10.53 111.85 10.38 111.62 10.43Z" fill="#DAE8FF"/>
<path d="M109.48 75.77C109.68 75.73 109.81 75.48 109.75 75.28C109.7 75.1 109.49 74.99 109.3 75.04C109.11 75.09 109 75.3 109.05 75.48C109.11 75.67 109.31 75.8 109.48 75.77Z" fill="#DAE8FF"/>
<path d="M119.63 22.41C119.68 22.6 119.87 22.74 120.05 22.72C120.25 22.69 120.39 22.46 120.34 22.24C120.3 22.05 120.09 21.94 119.9 21.98C119.71 22.03 119.58 22.23 119.63 22.41Z" fill="#DAE8FF"/>
<path d="M103.81 82.68C103.83 82.9 104.04 83.07 104.24 83.04C104.42 83.01 104.55 82.82 104.54 82.62C104.53 82.43 104.34 82.28 104.15 82.3C103.95 82.32 103.8 82.49 103.82 82.68H103.81Z" fill="#DAE8FF"/>
<path d="M75.92 106.93C76.06 106.91 76.18 106.76 76.16 106.62C76.14 106.48 75.99 106.36 75.85 106.38C75.7 106.4 75.59 106.55 75.61 106.69C75.63 106.83 75.78 106.95 75.92 106.93Z" fill="#DAE8FF"/>
<path d="M72.06 4.64001C72.21 4.61001 72.31 4.47001 72.29 4.32001C72.27 4.18001 72.11 4.07001 71.97 4.10001C71.83 4.13001 71.72 4.28001 71.74 4.42001C71.77 4.56001 71.92 4.67001 72.07 4.64001H72.06Z" fill="#DAE8FF"/>
<path d="M87.08 98.42C87.11 98.56 87.27 98.67 87.41 98.64C87.55 98.61 87.66 98.46 87.63 98.32C87.61 98.18 87.45 98.07 87.3 98.1C87.16 98.13 87.05 98.28 87.07 98.42H87.08Z" fill="#DAE8FF"/>
<path d="M122.8 41.1C122.82 41.25 122.97 41.36 123.11 41.34C123.25 41.31 123.36 41.16 123.32 41.01C123.28 40.87 123.19 40.81 123.05 40.8C122.9 40.8 122.79 40.95 122.8 41.09V41.1Z" fill="#DAE8FF"/>
<path d="M123.82 47.35C123.84 47.5 123.98 47.62 124.12 47.6C124.26 47.58 124.38 47.43 124.34 47.28C124.31 47.14 124.21 47.07 124.08 47.07C123.93 47.07 123.81 47.2 123.83 47.35H123.82Z" fill="#DAE8FF"/>
<path d="M110.41 4.50001C110.43 4.65001 110.58 4.76001 110.72 4.74001C110.86 4.71001 110.97 4.56001 110.93 4.42001C110.89 4.28001 110.8 4.21001 110.66 4.21001C110.51 4.21001 110.39 4.35001 110.41 4.50001Z" fill="#DAE8FF"/>
<path d="M119.92 61.11C120.07 61.08 120.17 60.93 120.13 60.79C120.1 60.65 119.94 60.55 119.8 60.59C119.68 60.62 119.6 60.75 119.61 60.87C119.63 61.02 119.77 61.13 119.91 61.11H119.92Z" fill="#DAE8FF"/>
<path d="M114.59 67.85C114.45 67.88 114.35 68.03 114.39 68.18C114.42 68.31 114.54 68.39 114.67 68.38C114.82 68.36 114.93 68.22 114.91 68.07C114.89 67.93 114.74 67.82 114.59 67.85Z" fill="#DAE8FF"/>
<path d="M97.18 0.530007C97.33 0.510007 97.44 0.370007 97.42 0.220007C97.4 0.080007 97.24 -0.029993 97.1 6.95791e-06C96.98 0.020007 96.89 0.150007 96.9 0.270007C96.9 0.420007 97.04 0.540007 97.19 0.530007H97.18Z" fill="#DAE8FF"/>
<path d="M118.72 16.11C118.74 16.26 118.89 16.37 119.03 16.35C119.17 16.32 119.28 16.17 119.24 16.03C119.2 15.89 119.11 15.82 118.97 15.82C118.82 15.82 118.7 15.96 118.72 16.11Z" fill="#DAE8FF"/>
<path d="M99 90.32C99.14 90.3 99.26 90.16 99.24 90.02C99.22 89.88 99.07 89.76 98.93 89.79C98.8 89.82 98.73 89.92 98.72 90.06C98.72 90.21 98.86 90.34 99 90.32Z" fill="#DAE8FF"/>
</g>
<defs>
<clipPath id="clip0_6_21">
<rect width="124.35" height="107.9" fill="white"/>
</clipPath>
</defs>
</svg>
