<svg width="19" height="19" viewBox="0 0 19 19" fill="none" xmlns="http://www.w3.org/2000/svg">
<g clip-path="url(#clip0_15_377)">
<path d="M15.31 0.5H3.62C1.89687 0.5 0.5 1.89687 0.5 3.62V15.31C0.5 17.0331 1.89687 18.43 3.62 18.43H15.31C17.0331 18.43 18.43 17.0331 18.43 15.31V3.62C18.43 1.89687 17.0331 0.5 15.31 0.5Z" fill="#DAE8FF" stroke="#2E1E5C" stroke-miterlimit="10"/>
<path d="M7.64999 14.01L8.25999 14.69C8.43999 14.89 8.75999 14.91 8.95999 14.73L9.91999 13.86C10.12 13.68 10.14 13.36 9.95999 13.16L9.54999 12.7C9.34999 12.48 9.38999 12.14 9.61999 11.97L14.87 8.05999C15 7.96999 15.07 7.81999 15.07 7.65999V4.32999C15.07 4.04999 14.85 3.82999 14.58 3.82999H11.25C11.09 3.82999 10.94 3.89999 10.85 4.02999L6.92999 9.27999C6.74999 9.51999 6.40999 9.54999 6.19999 9.34999L5.74999 8.93999C5.54999 8.75999 5.22999 8.76999 5.04999 8.97999L4.17999 9.93999C3.99999 10.14 4.00999 10.46 4.21999 10.64L4.89999 11.25C5.08999 11.42 5.11999 11.71 4.96999 11.92L4.06999 13.12C3.90999 13.33 3.82999 13.59 3.82999 13.85C3.82999 14.52 4.36999 15.07 5.03999 15.07C5.29999 15.07 5.55999 14.99 5.76999 14.83L6.97999 13.93C7.18999 13.78 7.47999 13.81 7.64999 14V14.01Z" fill="#2E1E5C"/>
</g>
<defs>
<clipPath id="clip0_15_377">
<rect width="18.93" height="18.93" fill="white"/>
</clipPath>
</defs>
</svg>
