<svg width="190" height="66" viewBox="0 0 190 66" fill="none" xmlns="http://www.w3.org/2000/svg">
<g clip-path="url(#clip0_20_11)">
<path d="M52.39 26.63C46.72 26.73 41.07 26.55 35.44 25.96C35.81 20.75 36.18 15.55 36.54 10.34C42.17 10.8 47.83 10.86 53.51 10.64C53.13 15.97 52.76 21.3 52.38 26.63H52.39Z" fill="#F3BBE7"/>
<path d="M18.66 22.89C13.1 21.39 7.58001 19.38 2.10001 16.73C2.45001 11.77 2.80001 6.81001 3.15001 1.85001C8.64001 4.37001 14.17 6.26001 19.74 7.64001C19.38 12.72 19.02 17.81 18.66 22.89Z" fill="#F3BBE7"/>
<path d="M86.6 23.5C80.88 24.29 75.16 25.02 69.46 25.58C69.85 20.13 70.23 14.68 70.62 9.21999C76.33 8.53999 82.06 7.67999 87.79 6.76999C87.4 12.35 87 17.92 86.61 23.5H86.6Z" fill="#F3BBE7"/>
<path d="M34.34 41.58C28.73 40.87 23.14 39.76 17.59 38.14C17.95 33.06 18.31 27.97 18.67 22.89C24.23 24.39 29.82 25.37 35.45 25.96C35.08 31.17 34.71 36.37 34.35 41.58H34.34Z" fill="#F3BBE7"/>
<path d="M16.51 53.39C10.97 51.64 5.46 49.39 0 46.5C0.35 41.54 0.7 36.58 1.05 31.62C6.52 34.39 12.03 36.52 17.58 38.14C17.22 43.22 16.86 48.31 16.5 53.39H16.51Z" fill="#F3BBE7"/>
<path d="M50.13 58.6C44.48 58.46 38.84 58.03 33.24 57.2C33.61 51.99 33.98 46.79 34.34 41.58C39.95 42.29 45.6 42.59 51.26 42.62C50.88 47.95 50.51 53.28 50.13 58.61V58.6Z" fill="#F3BBE7"/>
<path d="M68.3 41.94C62.6 42.38 56.92 42.64 51.26 42.62C51.64 37.29 52.01 31.96 52.39 26.63C58.06 26.53 63.75 26.14 69.46 25.58C69.07 31.03 68.69 36.48 68.3 41.94Z" fill="#F3BBE7"/>
<path d="M120.9 19.01C115.2 19.57 109.48 20.3 103.76 21.09C104.16 15.39 104.57 9.68999 104.97 3.99999C110.7 3.08999 116.42 2.23999 122.14 1.54999C121.73 7.36999 121.32 13.19 120.91 19.01H120.9Z" fill="#F3BBE7"/>
<path d="M84.23 56.95C78.53 57.49 72.83 57.98 67.14 58.29C67.53 52.84 67.91 47.39 68.3 41.93C74 41.49 79.7 40.89 85.41 40.22C85.02 45.8 84.62 51.37 84.23 56.95Z" fill="#F3BBE7"/>
<path d="M118.43 53.93C112.74 54.24 107.04 54.73 101.34 55.27C101.74 49.57 102.15 43.87 102.55 38.18C108.26 37.52 113.97 36.91 119.66 36.47C119.25 42.29 118.84 48.11 118.43 53.93Z" fill="#F3BBE7"/>
<path d="M102.55 38.18C96.84 38.84 91.12 39.57 85.41 40.23C85.8 34.65 86.2 29.08 86.59 23.5C92.31 22.71 98.03 21.87 103.76 21.08C103.36 26.78 102.95 32.48 102.55 38.17V38.18Z" fill="#F3BBE7"/>
<path d="M154.92 18.63C149.3 18.05 143.64 17.86 137.97 17.96C138.39 12.02 138.81 6.06999 139.23 0.129992C144.91 -0.090008 150.57 -0.030008 156.2 0.429992C155.77 6.49999 155.34 12.56 154.91 18.63H154.92Z" fill="#F3BBE7"/>
<path d="M152.35 55.03C146.74 54.2 141.11 53.77 135.45 53.62C135.87 47.68 136.29 41.73 136.71 35.79C142.37 35.81 148.02 36.12 153.63 36.83C153.2 42.9 152.77 48.96 152.34 55.03H152.35Z" fill="#F3BBE7"/>
<path d="M136.71 35.79C131.05 35.77 125.36 36.03 119.67 36.47C120.08 30.65 120.49 24.83 120.9 19.01C126.6 18.45 132.3 18.06 137.97 17.96C137.55 23.9 137.13 29.85 136.71 35.79Z" fill="#F3BBE7"/>
<path d="M188.25 27.85C182.77 25.21 177.25 23.19 171.69 21.69C172.13 15.5 172.56 9.31 173 3.12C178.57 4.5 184.1 6.39 189.59 8.91C189.14 15.22 188.7 21.54 188.25 27.85Z" fill="#F3BBE7"/>
<path d="M185.58 65.73C180.12 62.84 174.61 60.58 169.07 58.84C169.51 52.65 169.94 46.46 170.38 40.27C175.93 41.89 181.44 44.03 186.91 46.79C186.46 53.1 186.02 59.42 185.57 65.73H185.58Z" fill="#F3BBE7"/>
<path d="M170.38 40.26C164.83 38.64 159.24 37.53 153.63 36.82C154.06 30.75 154.49 24.69 154.92 18.62C160.54 19.2 166.14 20.19 171.7 21.69C171.26 27.88 170.83 34.07 170.39 40.26H170.38Z" fill="#F3BBE7"/>
</g>
<defs>
<clipPath id="clip0_20_11">
<rect width="189.59" height="65.73" fill="white"/>
</clipPath>
</defs>
</svg>
