<svg width="10" height="9" viewBox="0 0 10 9" fill="none" xmlns="http://www.w3.org/2000/svg">
<path d="M0.58001 4.49C0.54001 4.32 0.51001 4.14 0.51001 3.96C0.51001 3.91 0.51001 3.86 0.51001 3.81C0.51001 3.76 0.51001 3.7 0.51001 3.65C0.60001 2.49 1.61001 1.62 2.75001 1.56C3.25001 1.53 3.67001 1.7 3.96001 1.88C4.20001 2.02 4.50001 1.94 4.64001 1.71C4.81001 1.42 5.10001 1.07 5.55001 0.850004C6.58001 0.350004 7.88001 0.630004 8.52001 1.61C8.55001 1.66 8.58001 1.7 8.60001 1.75C8.63001 1.79 8.65001 1.84 8.67001 1.89C8.75001 2.05 8.81001 2.22 8.86001 2.39C8.97001 2.79 9.00001 3.21 8.96001 3.62C8.91001 4.24 8.76001 4.84 8.53001 5.4C8.23001 6.12 7.80001 6.78 7.24001 7.38C6.51001 8.17 5.39001 8.46 4.37001 8.11C3.60001 7.85 2.90001 7.48 2.29001 6.99C1.82001 6.61 1.40001 6.16 1.06001 5.63C0.83001 5.28 0.66001 4.9 0.56001 4.5L0.58001 4.49Z" fill="#F3BBE7" stroke="#2E1E5C" stroke-miterlimit="10" stroke-linejoin="round"/>
</svg>
