<svg width="122" height="103" viewBox="0 0 122 103" fill="none" xmlns="http://www.w3.org/2000/svg">
<g clip-path="url(#clip0_22_30)">
<path d="M51.24 7.71C51.5493 7.71 51.8 7.45928 51.8 7.15C51.8 6.84072 51.5493 6.59 51.24 6.59C50.9307 6.59 50.68 6.84072 50.68 7.15C50.68 7.45928 50.9307 7.71 51.24 7.71Z" fill="#F3BBE7"/>
<path d="M35.19 26.12C35.26 27.84 33.74 29.12 32.25 29.13C30.75 29.13 29.28 27.86 29.28 26.14C29.28 24.52 30.68 23.14 32.23 23.14C33.81 23.14 35.26 24.52 35.19 26.12Z" fill="#F3BBE7"/>
<path d="M25.91 29.48C27.48 29.42 28.88 30.85 28.87 32.46C28.87 34.18 27.4 35.46 25.91 35.46C24.41 35.46 22.95 34.18 22.95 32.46C22.95 30.85 24.35 29.42 25.91 29.48Z" fill="#F3BBE7"/>
<path d="M28.85 38.8C28.83 40.59 27.4 41.79 25.87 41.77C24.27 41.75 22.94 40.47 22.95 38.74C22.97 37.12 24.27 35.82 25.9 35.81C27.73 35.81 28.93 37.42 28.85 38.8Z" fill="#F3BBE7"/>
<path d="M28.72 45.1C28.75 46.53 27.63 48.09 25.76 48.1C24.25 48.1 22.86 46.94 22.83 45.14C22.8 43.42 24.2 42.15 25.78 42.15C27.39 42.15 28.7 43.48 28.71 45.1H28.72Z" fill="#F3BBE7"/>
<path d="M35.18 57.78C35.15 59.44 33.94 60.74 32.25 60.74C30.54 60.74 29.3 59.41 29.31 57.73C29.31 56.15 30.66 54.83 32.23 54.82C33.82 54.82 35.18 56.17 35.17 57.77L35.18 57.78Z" fill="#F3BBE7"/>
<path d="M60.5 76.8C60.47 78.62 58.94 79.76 57.55 79.74C56.1 79.72 54.61 78.53 54.65 76.75C54.7 74.85 56.14 73.81 57.59 73.83C59.13 73.85 60.44 74.97 60.5 76.8Z" fill="#F3BBE7"/>
<path d="M47.84 70.45C47.82 72.25 46.33 73.41 44.91 73.41C43.48 73.41 41.96 72.25 41.99 70.45C42.02 68.58 43.42 67.51 44.91 67.51C46.41 67.51 47.77 68.59 47.84 70.45Z" fill="#F3BBE7"/>
<path d="M41.5 19.81C41.47 21.63 39.95 22.77 38.55 22.75C37.1 22.73 35.61 21.56 35.65 19.77C35.69 17.88 37.13 16.83 38.59 16.85C40.12 16.87 41.44 17.97 41.5 19.81Z" fill="#F3BBE7"/>
<path d="M28.71 51.49C28.64 53.19 27.31 54.39 25.79 54.4C24.27 54.4 22.85 53.21 22.87 51.45C22.88 49.86 24.02 48.55 25.81 48.52C27.4 48.49 28.73 49.9 28.72 51.5L28.71 51.49Z" fill="#F3BBE7"/>
<path d="M51.22 79.68C49.88 79.76 48.3 78.58 48.33 76.72C48.36 75.18 49.42 73.94 51.26 73.83C53.17 73.97 54.14 75.3 54.15 76.76C54.15 78.59 52.6 79.78 51.22 79.68Z" fill="#F3BBE7"/>
<path d="M38.56 67.02C37.21 67.1 35.64 65.92 35.67 64.07C35.69 62.55 36.74 61.29 38.59 61.18C40.49 61.31 41.48 62.63 41.49 64.1C41.5 65.93 39.94 67.12 38.57 67.03L38.56 67.02Z" fill="#F3BBE7"/>
<path d="M44.89 22.68C43.47 22.72 42.03 21.59 42.01 19.78C42 18.34 43.06 16.88 44.91 16.89C46.72 16.89 47.78 18.3 47.79 19.74C47.81 21.55 46.37 22.73 44.89 22.68Z" fill="#F3BBE7"/>
<path d="M28.74 26.16C28.74 27.77 27.49 29.01 25.89 29C24.3 29 23.11 27.74 23.07 26.12C23.03 24.64 24.3 23.23 25.96 23.26C27.48 23.28 28.83 24.59 28.74 26.16Z" fill="#F3BBE7"/>
<path d="M41.4 26.13C41.4 27.75 40.18 29 38.58 29C36.98 29 35.78 27.76 35.73 26.15C35.68 24.6 36.99 23.25 38.59 23.26C40.15 23.26 41.48 24.61 41.4 26.13Z" fill="#F3BBE7"/>
<path d="M32.25 29.61C33.78 29.55 35.09 30.94 35.08 32.47C35.07 33.96 33.84 35.34 32.23 35.33C30.62 35.33 29.4 33.94 29.4 32.45C29.4 30.96 30.69 29.54 32.25 29.61Z" fill="#F3BBE7"/>
<path d="M35.06 64.13C35.09 65.45 34.06 66.96 32.25 66.97C30.44 66.98 29.39 65.47 29.41 64.1C29.43 62.5 30.68 61.25 32.28 61.28C33.85 61.3 35.06 62.55 35.05 64.14L35.06 64.13Z" fill="#F3BBE7"/>
<path d="M41.39 70.45C41.42 71.89 40.24 73.28 38.6 73.3C36.96 73.32 35.73 71.93 35.75 70.44C35.78 68.88 36.9 67.63 38.54 67.61C40.17 67.59 41.36 68.84 41.39 70.45Z" fill="#F3BBE7"/>
<path d="M35.06 51.46C35.08 53.03 33.77 54.3 32.26 54.31C30.77 54.32 29.43 53.08 29.43 51.49C29.43 49.92 30.65 48.61 32.26 48.63C33.85 48.64 35.05 49.93 35.06 51.47V51.46Z" fill="#F3BBE7"/>
<path d="M29.43 19.81C29.43 18.28 30.61 16.98 32.22 16.96C33.82 16.94 35.06 18.23 35.06 19.81C35.06 21.39 33.73 22.64 32.24 22.64C30.74 22.64 29.42 21.38 29.43 19.8V19.81Z" fill="#F3BBE7"/>
<path d="M48.43 26.12C48.45 24.71 49.46 23.31 51.24 23.31C52.96 23.31 54.02 24.64 54.04 26.06C54.07 27.87 52.66 28.96 51.23 28.96C49.84 28.96 48.46 27.91 48.42 26.12H48.43Z" fill="#F3BBE7"/>
<path d="M54.03 70.43C53.94 72.15 52.78 73.16 51.21 73.28C49.56 73.12 48.49 72.05 48.46 70.44C48.43 69.1 49.45 67.66 51.24 67.65C53.01 67.65 53.99 69.07 54.04 70.43H54.03Z" fill="#F3BBE7"/>
<path d="M47.7 26.12C47.59 27.9 46.37 28.85 44.86 28.95C43.16 28.77 42.14 27.65 42.12 26.09C42.1 24.72 43.15 23.31 44.91 23.32C46.71 23.33 47.66 24.79 47.69 26.11L47.7 26.12Z" fill="#F3BBE7"/>
<path d="M29.54 38.76C29.48 37.32 30.73 36.04 32.27 36.05C33.71 36.06 34.96 37.27 34.97 38.81C34.97 40.23 33.69 41.55 32.22 41.54C30.83 41.53 29.43 40.26 29.54 38.76Z" fill="#F3BBE7"/>
<path d="M28.48 57.83C28.57 59.22 27.22 60.56 25.73 60.53C24.38 60.51 23.02 59.27 23.06 57.72C23.09 56.35 24.23 55.01 25.83 55.04C27.2 55.06 28.56 56.21 28.48 57.83Z" fill="#F3BBE7"/>
<path d="M22.14 38.8C22.23 40.15 21.01 41.51 19.47 41.52C17.71 41.53 16.72 39.98 16.73 38.79C16.73 37.31 17.94 36.04 19.45 36.05C20.82 36.05 22.21 37.17 22.15 38.8H22.14Z" fill="#F3BBE7"/>
<path d="M34.94 45.14C34.94 46.65 33.76 47.84 32.26 47.85C30.49 47.85 29.51 46.3 29.52 45.11C29.54 43.51 30.85 42.37 32.25 42.38C33.62 42.38 35 43.52 34.94 45.14Z" fill="#F3BBE7"/>
<path d="M47.6 76.78C47.62 78.38 46.31 79.53 44.87 79.51C43.41 79.49 42.2 78.31 42.19 76.78C42.19 75.18 43.5 74.04 44.92 74.06C46.33 74.08 47.62 75.22 47.59 76.78H47.6Z" fill="#F3BBE7"/>
<path d="M60.26 32.49C60.25 34.07 58.96 35.19 57.55 35.18C56.09 35.17 54.87 34.01 54.87 32.46C54.87 30.94 56.1 29.72 57.61 29.74C59.08 29.76 60.27 30.99 60.26 32.49Z" fill="#F3BBE7"/>
<path d="M60.26 83.25C60.26 84.73 59.1 85.95 57.58 85.96C56.11 85.96 54.89 84.79 54.88 83.27C54.88 81.76 56.1 80.52 57.59 80.53C59.06 80.54 60.26 81.77 60.26 83.26V83.25Z" fill="#F3BBE7"/>
<path d="M35.89 57.75C35.89 56.41 36.97 55.06 38.61 55.08C40.27 55.1 41.3 56.49 41.26 57.81C41.21 59.63 39.74 60.51 38.54 60.49C37.23 60.46 35.9 59.49 35.88 57.75H35.89Z" fill="#F3BBE7"/>
<path d="M19.47 47.77C17.71 47.8 16.79 46.37 16.78 45.17C16.76 43.69 17.87 42.45 19.43 42.44C20.87 42.42 22.09 43.51 22.12 45.13C22.14 46.37 21.18 47.78 19.47 47.78V47.77Z" fill="#F3BBE7"/>
<path d="M44.91 66.77C43.2 66.79 42.23 65.41 42.24 64.15C42.24 62.58 43.39 61.44 44.9 61.44C46.39 61.44 47.55 62.56 47.57 64.15C47.58 65.4 46.62 66.79 44.91 66.78V66.77Z" fill="#F3BBE7"/>
<path d="M19.45 35.1C17.93 35.16 16.75 33.77 16.79 32.46C16.83 30.85 17.98 29.75 19.48 29.78C21.18 29.81 22.1 31.09 22.11 32.46C22.11 34.07 20.71 35.17 19.45 35.1Z" fill="#F3BBE7"/>
<path d="M57.55 67.84C58.89 67.76 60.19 68.91 60.18 70.48C60.18 71.93 59 73.07 57.56 73.08C56.34 73.08 54.97 72.13 54.96 70.46C54.96 68.9 56.27 67.78 57.55 67.85V67.84Z" fill="#F3BBE7"/>
<path d="M38.58 29.85C39.87 29.78 41.18 30.9 41.18 32.45C41.18 34.12 39.82 35.07 38.59 35.08C37.32 35.09 35.95 34.1 35.96 32.43C35.96 30.89 37.27 29.77 38.58 29.85Z" fill="#F3BBE7"/>
<path d="M23.35 19.77C23.36 18.33 24.5 17.19 25.93 17.2C27.35 17.2 28.46 18.36 28.48 19.8C28.5 21.23 27.27 22.39 25.9 22.37C24.53 22.36 23.31 21.2 23.36 19.76L23.35 19.77Z" fill="#F3BBE7"/>
<path d="M51.24 22.3C49.86 22.3 48.71 21.2 48.73 19.82C48.75 18.36 49.77 17.27 51.24 17.27C52.7 17.27 53.73 18.34 53.75 19.81C53.77 21.18 52.62 22.29 51.24 22.29V22.3Z" fill="#F3BBE7"/>
<path d="M19.45 23.65C20.72 23.61 21.91 24.6 21.93 26.14C21.95 27.51 20.78 28.63 19.41 28.61C18.07 28.59 16.95 27.47 16.97 26.13C16.99 24.41 18.38 23.58 19.45 23.64V23.65Z" fill="#F3BBE7"/>
<path d="M19.45 48.98C20.72 48.93 21.91 49.93 21.93 51.47C21.95 52.84 20.78 53.96 19.41 53.95C18.07 53.93 16.95 52.82 16.96 51.47C16.98 49.75 18.38 48.92 19.44 48.98H19.45Z" fill="#F3BBE7"/>
<path d="M53.68 83.25C53.74 84.73 52.39 85.72 51.24 85.72C50.11 85.72 48.76 84.74 48.78 83.19C48.79 82.02 49.8 80.75 51.27 80.77C52.64 80.78 53.76 81.98 53.68 83.25Z" fill="#F3BBE7"/>
<path d="M41.01 13.39C41.1 14.96 39.71 15.93 38.59 15.94C37.43 15.94 36.14 14.95 36.12 13.49C36.1 12.22 37.14 11.01 38.53 10.99C40.07 10.97 41.08 12.28 41.02 13.39H41.01Z" fill="#F3BBE7"/>
<path d="M41.01 51.46C41.07 52.94 39.73 53.93 38.58 53.94C37.44 53.94 36.1 52.96 36.12 51.41C36.13 50.26 37.1 48.97 38.6 48.98C40.02 48.99 41.1 50.23 41.02 51.45L41.01 51.46Z" fill="#F3BBE7"/>
<path d="M34.67 70.44C34.64 71.97 33.49 72.93 32.22 72.9C30.78 72.87 29.8 71.78 29.81 70.4C29.81 69.1 30.95 67.99 32.26 68C33.57 68 34.68 69.13 34.67 70.44Z" fill="#F3BBE7"/>
<path d="M47.34 32.45C47.3 34.04 46.07 34.94 44.88 34.9C43.41 34.85 42.47 33.73 42.48 32.39C42.49 31.09 43.63 29.98 44.94 30C46.25 30.02 47.35 31.14 47.34 32.45Z" fill="#F3BBE7"/>
<path d="M53.66 32.5C53.64 33.8 52.51 34.98 51.23 34.92C50.02 34.86 48.82 34.03 48.81 32.43C48.81 31.12 49.94 30.01 51.23 30.01C52.55 30.01 53.67 31.16 53.65 32.5H53.66Z" fill="#F3BBE7"/>
<path d="M36.15 38.81C36.15 37.47 37.27 36.33 38.59 36.34C39.89 36.34 41.01 37.46 41 38.77C40.99 40.4 39.73 41.24 38.57 41.23C37.41 41.23 36.22 40.41 36.15 38.81Z" fill="#F3BBE7"/>
<path d="M55.15 26.14C55.15 24.83 56.23 23.71 57.54 23.69C58.86 23.67 60.01 24.81 59.99 26.15C59.96 27.6 58.83 28.56 57.57 28.56C56.29 28.56 55.19 27.58 55.15 26.14Z" fill="#F3BBE7"/>
<path d="M51.26 66.5C49.86 66.52 48.88 65.36 48.83 64.16C48.78 62.87 49.9 61.68 51.21 61.7C52.72 61.73 53.61 62.82 53.63 64.1C53.65 65.27 52.68 66.48 51.26 66.49V66.5Z" fill="#F3BBE7"/>
<path d="M25.77 66.5C24.36 66.47 23.43 65.4 23.39 64.12C23.34 62.86 24.5 61.69 25.76 61.73C27.27 61.78 28.15 62.78 28.16 64.14C28.17 65.41 27.19 66.48 25.78 66.5H25.77Z" fill="#F3BBE7"/>
<path d="M38.57 42.77C39.95 42.75 40.93 43.75 40.94 45.11C40.96 46.64 39.73 47.48 38.58 47.48C37.44 47.48 36.2 46.66 36.21 45.11C36.21 43.75 37.19 42.75 38.57 42.76V42.77Z" fill="#F3BBE7"/>
<path d="M34.6 13.48C34.6 14.78 33.5 15.85 32.2 15.82C30.92 15.8 29.87 14.74 29.88 13.47C29.88 12.08 31.06 11.09 32.24 11.1C33.4 11.1 34.58 12.07 34.59 13.49L34.6 13.48Z" fill="#F3BBE7"/>
<path d="M42.59 57.81C42.53 56.33 43.88 55.44 44.88 55.43C45.97 55.42 47.23 56.36 47.23 57.75C47.23 58.93 46.35 60.1 44.93 60.12C43.52 60.14 42.56 59 42.59 57.81Z" fill="#F3BBE7"/>
<path d="M40.89 76.78C40.93 77.96 39.99 79.12 38.58 79.12C37.17 79.12 36.26 77.96 36.26 76.78C36.26 75.35 37.54 74.43 38.58 74.43C39.62 74.43 40.94 75.35 40.89 76.78Z" fill="#F3BBE7"/>
<path d="M44.93 15.73C43.76 15.81 42.61 14.75 42.61 13.47C42.61 12.23 43.66 11.15 44.89 11.14C46.12 11.13 47.19 12.18 47.21 13.43C47.24 14.75 46.06 15.8 44.93 15.73Z" fill="#F3BBE7"/>
<path d="M19.45 17.59C20.67 17.59 21.65 18.59 21.63 19.81C21.61 21 20.62 22.04 19.48 22.01C18.06 21.97 17.23 20.82 17.26 19.81C17.29 18.56 18.22 17.6 19.45 17.6V17.59Z" fill="#F3BBE7"/>
<path d="M10.94 38.76C10.96 37.62 11.76 36.62 13.1 36.59C14.33 36.56 15.33 37.67 15.3 38.8C15.27 40.07 14.25 40.97 13.13 40.98C11.99 40.98 10.93 40.08 10.94 38.77V38.76Z" fill="#F3BBE7"/>
<path d="M21.62 57.8C21.62 59.07 20.59 59.97 19.46 59.98C18.31 59.98 17.25 59.08 17.27 57.77C17.28 56.57 18.16 55.59 19.49 55.6C20.71 55.6 21.69 56.72 21.63 57.81L21.62 57.8Z" fill="#F3BBE7"/>
<path d="M59.74 64.08C59.77 65.42 58.67 66.31 57.56 66.3C56.45 66.3 55.4 65.43 55.39 64.13C55.38 62.91 56.36 61.9 57.57 61.9C58.76 61.9 59.74 62.88 59.74 64.07V64.08Z" fill="#F3BBE7"/>
<path d="M57.57 40.93C56.55 40.92 55.47 40.22 55.42 38.81C55.38 37.65 56.42 36.6 57.57 36.6C58.72 36.6 59.76 37.65 59.72 38.81C59.67 40.22 58.59 40.91 57.57 40.92V40.93Z" fill="#F3BBE7"/>
<path d="M13.11 34.6C12.01 34.58 10.98 33.82 10.96 32.42C10.94 31.29 11.99 30.25 13.12 30.29C14.21 30.33 15.29 31.14 15.27 32.5C15.25 33.86 14.19 34.6 13.12 34.61L13.11 34.6Z" fill="#F3BBE7"/>
<path d="M25.93 15.59C24.77 15.6 23.74 14.62 23.78 13.47C23.83 12.21 24.64 11.34 25.89 11.32C26.98 11.3 27.95 12.03 28.04 13.44C28.11 14.57 27.09 15.58 25.93 15.59Z" fill="#F3BBE7"/>
<path d="M44.93 40.91C43.77 40.93 42.74 39.95 42.77 38.8C42.81 37.57 43.6 36.67 44.87 36.64C45.92 36.61 46.93 37.3 47.02 38.75C47.09 39.88 46.08 40.89 44.92 40.91H44.93Z" fill="#F3BBE7"/>
<path d="M44.87 85.23C43.89 85.21 42.74 84.42 42.79 83.04C42.83 81.86 43.76 80.97 44.93 80.98C46.15 81 47.01 81.97 47.01 83.1C47.01 84.49 45.82 85.24 44.86 85.22L44.87 85.23Z" fill="#F3BBE7"/>
<path d="M11.06 45.12C10.99 43.9 12.17 43.02 13.14 43.03C14.2 43.03 15.22 44.04 15.2 45.16C15.18 46.31 14.24 47.19 13.14 47.21C12.17 47.22 11.02 46.46 11.07 45.12H11.06Z" fill="#F3BBE7"/>
<path d="M57.6 91.6C56.51 91.67 55.52 90.75 55.52 89.6C55.52 88.47 56.42 87.52 57.54 87.51C58.66 87.49 59.59 88.42 59.62 89.55C59.65 90.78 58.6 91.66 57.6 91.61V91.6Z" fill="#F3BBE7"/>
<path d="M44.88 53.48C43.72 53.47 42.84 52.57 42.86 51.42C42.88 50.28 43.8 49.37 44.93 49.39C46.06 49.41 46.95 50.33 46.95 51.48C46.95 52.63 46.05 53.5 44.88 53.49V53.48Z" fill="#F3BBE7"/>
<path d="M15.11 26.11C15.11 27.2 14.14 28.17 13.07 28.1C11.79 28.01 11.15 27.19 11.12 26.1C11.09 25.03 12.04 24.14 13.11 24.15C14.04 24.15 15.04 24.87 15.11 26.12V26.11Z" fill="#F3BBE7"/>
<path d="M53.17 57.83C53.16 58.93 52.36 59.71 51.24 59.72C49.92 59.72 49.29 58.66 49.29 57.77C49.29 56.78 50.15 55.81 51.27 55.83C52.25 55.84 53.24 56.71 53.17 57.84V57.83Z" fill="#F3BBE7"/>
<path d="M46.84 45.18C46.82 46.28 46.01 47.05 44.89 47.05C43.59 47.05 42.95 46 42.96 45.09C42.96 44.14 43.8 43.14 44.95 43.16C45.91 43.18 46.91 44.03 46.84 45.18Z" fill="#F3BBE7"/>
<path d="M51.21 40.68C50.16 40.67 49.32 39.83 49.32 38.8C49.32 37.61 50.33 36.85 51.24 36.85C52.14 36.85 53.15 37.6 53.16 38.79C53.16 39.85 52.29 40.69 51.21 40.68Z" fill="#F3BBE7"/>
<path d="M23.92 70.46C23.98 69.26 24.85 68.6 25.76 68.61C26.78 68.61 27.61 69.4 27.63 70.43C27.65 71.41 26.78 72.31 25.79 72.29C24.87 72.28 23.97 71.64 23.92 70.46Z" fill="#F3BBE7"/>
<path d="M11.31 51.45C11.25 50.46 12.17 49.6 13.15 49.61C14.02 49.62 14.95 50.4 14.94 51.45C14.94 52.46 14.15 53.29 13.09 53.28C12.06 53.26 11.24 52.4 11.31 51.45Z" fill="#F3BBE7"/>
<path d="M34.04 76.75C34.09 77.77 33.2 78.56 32.27 78.57C31.22 78.57 30.43 77.71 30.44 76.8C30.45 75.81 31.24 74.99 32.22 74.95C32.98 74.92 34.11 75.67 34.04 76.75Z" fill="#F3BBE7"/>
<path d="M19.46 15.2C18.52 15.2 17.63 14.37 17.69 13.43C17.75 12.38 18.42 11.76 19.43 11.68C20.31 11.61 21.21 12.54 21.21 13.46C21.21 14.36 20.38 15.19 19.46 15.2Z" fill="#F3BBE7"/>
<path d="M21.19 64.1C21.19 65.04 20.4 65.85 19.47 65.85C18.63 65.85 17.74 65.27 17.71 64.15C17.68 63.24 18.48 62.41 19.43 62.4C20.45 62.39 21.18 63.29 21.2 64.1H21.19Z" fill="#F3BBE7"/>
<path d="M51.22 87.86C52.2 87.8 52.99 88.71 52.97 89.56C52.94 90.71 52.1 91.29 51.25 91.3C50.41 91.31 49.51 90.73 49.5 89.54C49.5 88.69 50.3 87.83 51.22 87.87V87.86Z" fill="#F3BBE7"/>
<path d="M13.09 21.44C12.1 21.43 11.43 20.74 11.45 19.75C11.47 18.83 12.21 18.1 13.1 18.11C14.06 18.13 14.76 18.84 14.79 19.79C14.81 20.61 14.06 21.49 13.09 21.43V21.44Z" fill="#F3BBE7"/>
<path d="M32.25 8.62999C31.33 8.69999 30.55 7.78999 30.57 7.01999C30.59 6.07999 31.31 5.30999 32.23 5.29999C33.15 5.29999 33.88 6.05999 33.91 6.99999C33.94 7.80999 33.13 8.68999 32.25 8.62999Z" fill="#F3BBE7"/>
<path d="M40.23 7.00001C40.22 7.92001 39.48 8.63001 38.56 8.62001C37.64 8.62001 36.92 7.89001 36.92 6.97001C36.92 6.00001 37.77 5.31001 38.59 5.33001C39.46 5.35001 40.25 6.06001 40.23 7.00001Z" fill="#F3BBE7"/>
<path d="M57.57 59.41C56.68 59.41 55.91 58.63 55.93 57.76C55.95 56.92 56.72 56.15 57.55 56.13C58.4 56.11 59.21 56.91 59.23 57.77C59.24 58.64 58.47 59.41 57.58 59.41H57.57Z" fill="#F3BBE7"/>
<path d="M38.59 81.52C39.55 81.5 40.18 82.32 40.2 83.12C40.22 83.97 39.46 84.72 38.58 84.73C37.71 84.73 36.94 84.01 36.94 83.15C36.94 82.38 37.55 81.48 38.59 81.52Z" fill="#F3BBE7"/>
<path d="M52.77 51.45C52.77 52.32 52.1 52.96 51.23 52.96C50.36 52.96 49.71 52.31 49.7 51.44C49.7 50.62 50.42 49.9 51.24 49.91C52.06 49.91 52.78 50.63 52.77 51.45Z" fill="#F3BBE7"/>
<path d="M51.27 14.96C50.42 14.98 49.72 14.3 49.71 13.47C49.71 12.66 50.44 11.93 51.24 11.93C52.04 11.93 52.77 12.67 52.77 13.48C52.77 14.28 52.1 14.95 51.27 14.96Z" fill="#F3BBE7"/>
<path d="M51.27 46.62C50.42 46.64 49.72 45.96 49.71 45.13C49.71 44.32 50.44 43.59 51.24 43.59C52.04 43.59 52.77 44.33 52.76 45.14C52.76 45.95 52.09 46.61 51.26 46.62H51.27Z" fill="#F3BBE7"/>
<path d="M27.33 7.01999C27.33 7.83999 26.7 8.43999 25.87 8.41999C25.07 8.39999 24.49 7.80999 24.49 6.99999C24.49 6.17999 25.11 5.54999 25.92 5.55999C26.73 5.55999 27.34 6.19999 27.33 7.02999V7.01999Z" fill="#F3BBE7"/>
<path d="M6.80001 40.18C5.93001 40.23 5.35001 39.46 5.37001 38.82C5.39001 38.01 6.01001 37.36 6.80001 37.37C7.57001 37.37 8.20001 38.02 8.19001 38.79C8.19001 39.62 7.63001 40.17 6.80001 40.18Z" fill="#F3BBE7"/>
<path d="M6.76002 33.84C5.99002 33.88 5.34002 33.18 5.37002 32.44C5.40002 31.67 6.01002 31.03 6.78002 31.03C7.55002 31.03 8.19002 31.66 8.19002 32.43C8.19002 33.29 7.62002 33.85 6.76002 33.84Z" fill="#F3BBE7"/>
<path d="M14.52 57.8C14.5 58.65 13.92 59.2 13.05 59.17C12.25 59.15 11.68 58.54 11.7 57.73C11.72 56.96 12.38 56.34 13.14 56.36C13.91 56.38 14.53 57.03 14.51 57.8H14.52Z" fill="#F3BBE7"/>
<path d="M58.93 19.78C58.92 20.52 58.27 21.15 57.55 21.14C56.83 21.12 56.19 20.46 56.21 19.74C56.23 19.05 56.87 18.45 57.59 18.46C58.31 18.47 58.94 19.1 58.93 19.78Z" fill="#F3BBE7"/>
<path d="M57.54 46.47C56.82 46.45 56.19 45.78 56.21 45.06C56.23 44.37 56.88 43.77 57.6 43.79C58.32 43.81 58.95 44.44 58.93 45.12C58.91 45.85 58.25 46.49 57.54 46.47Z" fill="#F3BBE7"/>
<path d="M44.93 5.90999C45.63 5.91999 46.18 6.46999 46.17 7.14999C46.17 7.82999 45.61 8.36999 44.91 8.37999C44.18 8.37999 43.62 7.80999 43.64 7.09999C43.66 6.41999 44.22 5.89999 44.93 5.90999Z" fill="#F3BBE7"/>
<path d="M6.77001 43.9C7.48001 43.9 8.04001 44.43 8.05001 45.1C8.06001 45.78 7.45001 46.38 6.75001 46.37C6.05001 46.36 5.51001 45.81 5.51001 45.12C5.51001 44.57 5.99001 43.86 6.76001 43.9H6.77001Z" fill="#F3BBE7"/>
<path d="M6.75999 27.36C6.08999 27.35 5.50999 26.74 5.53999 26.09C5.56999 25.4 6.13999 24.89 6.83999 24.91C7.50999 24.94 8.05999 25.48 8.02999 26.13C7.99999 26.88 7.40999 27.34 6.75999 27.35V27.36Z" fill="#F3BBE7"/>
<path d="M44.9 88.36C45.6 88.36 46.16 88.91 46.16 89.59C46.16 90.24 45.54 90.83 44.88 90.81C44.24 90.79 43.67 90.23 43.66 89.6C43.66 88.92 44.21 88.37 44.91 88.36H44.9Z" fill="#F3BBE7"/>
<path d="M13.09 14.59C12.4 14.59 11.96 14.11 11.95 13.42C11.95 12.79 12.57 12.28 13.09 12.29C13.75 12.31 14.26 12.81 14.26 13.46C14.26 14.13 13.78 14.6 13.09 14.59Z" fill="#F3BBE7"/>
<path d="M57.57 94.81C58.18 94.81 58.68 95.28 58.7 95.86C58.72 96.45 58.19 97 57.59 97.02C56.97 97.04 56.41 96.47 56.43 95.85C56.45 95.27 56.95 94.81 57.57 94.81Z" fill="#F3BBE7"/>
<path d="M26.89 76.75C26.89 77.35 26.36 77.89 25.76 77.88C25.19 77.87 24.66 77.34 24.66 76.79C24.66 76.24 25.2 75.71 25.76 75.7C26.33 75.7 26.88 76.21 26.89 76.75Z" fill="#F3BBE7"/>
<path d="M57.56 50.39C58.14 50.39 58.68 50.91 58.66 51.48C58.65 52.01 58.12 52.52 57.58 52.53C57.02 52.53 56.46 51.98 56.48 51.44C56.5 50.89 57 50.4 57.56 50.4V50.39Z" fill="#F3BBE7"/>
<path d="M19.49 69.4C20.06 69.43 20.5 69.93 20.47 70.51C20.44 71.08 19.93 71.52 19.36 71.47C18.8 71.42 18.4 70.97 18.42 70.4C18.44 69.82 18.93 69.36 19.5 69.39L19.49 69.4Z" fill="#F3BBE7"/>
<path d="M19.48 5.98001C20 6.00001 20.48 6.50001 20.46 7.02001C20.45 7.47001 20.07 8.05001 19.37 8.00001C18.82 7.96001 18.4 7.50001 18.43 6.95001C18.46 6.40001 18.93 5.97001 19.48 5.99001V5.98001Z" fill="#F3BBE7"/>
<path d="M32.26 84.07C31.76 84.09 31.27 83.61 31.27 83.12C31.27 82.63 31.68 82.2 32.18 82.17C32.7 82.14 33.17 82.56 33.2 83.08C33.23 83.57 32.77 84.06 32.26 84.08V84.07Z" fill="#F3BBE7"/>
<path d="M6.81002 50.54C7.30002 50.56 7.72002 51.01 7.70002 51.5C7.68002 51.99 7.22002 52.43 6.75002 52.4C6.28002 52.37 5.84002 51.9 5.85002 51.43C5.86002 50.95 6.32002 50.53 6.82002 50.55L6.81002 50.54Z" fill="#F3BBE7"/>
<path d="M6.77001 18.88C7.26001 18.88 7.69001 19.32 7.69001 19.81C7.69001 20.3 7.25001 20.75 6.77001 20.74C6.30001 20.74 5.85001 20.28 5.84001 19.8C5.83001 19.33 6.28001 18.89 6.77001 18.88Z" fill="#F3BBE7"/>
<path d="M13.13 64.97C12.66 64.97 12.28 64.63 12.25 64.17C12.22 63.68 12.6 63.29 13.1 63.28C13.6 63.28 14 63.66 13.99 64.13C13.99 64.55 13.56 64.96 13.13 64.97Z" fill="#F3BBE7"/>
<path d="M51.24 96.64C50.82 96.64 50.48 96.3 50.48 95.88C50.48 95.48 50.78 95.18 51.2 95.17C51.65 95.15 51.99 95.46 51.99 95.88C51.99 96.3 51.65 96.64 51.23 96.65L51.24 96.64Z" fill="#F3BBE7"/>
<path d="M32.25 1.36001C31.93 1.36001 31.56 1.01001 31.55 0.670012C31.53 0.350012 31.85 0.040012 32.19 0.010012C32.55 -0.019988 32.92 0.300012 32.92 0.640012C32.92 0.980012 32.57 1.35001 32.24 1.36001H32.25Z" fill="#F3BBE7"/>
<path d="M38.58 88.91C38.92 88.91 39.25 89.21 39.26 89.53C39.26 89.87 38.93 90.25 38.6 90.26C38.25 90.28 37.87 89.88 37.89 89.52C37.91 89.2 38.24 88.9 38.58 88.91Z" fill="#F3BBE7"/>
<path d="M39.15 0.680013C39.15 0.960013 38.85 1.24001 38.57 1.24001C38.29 1.24001 38 0.960013 37.99 0.680013C37.98 0.350013 38.26 0.0800126 38.6 0.100013C38.91 0.110013 39.16 0.380013 39.15 0.680013Z" fill="#F3BBE7"/>
<path d="M7.29002 57.79C7.29002 58.07 7.05002 58.31 6.78002 58.31C6.50002 58.31 6.27002 58.07 6.27002 57.79C6.27002 57.51 6.52002 57.26 6.78002 57.27C7.05002 57.27 7.29002 57.52 7.29002 57.8V57.79Z" fill="#F3BBE7"/>
<path d="M25.92 0.140011C26.19 0.140011 26.42 0.400011 26.42 0.680011C26.42 0.960011 26.17 1.20001 25.9 1.19001C25.62 1.19001 25.39 0.930011 25.4 0.650011C25.41 0.370011 25.65 0.130011 25.92 0.140011Z" fill="#F3BBE7"/>
<path d="M13.57 7.04001C13.56 7.27001 13.34 7.46001 13.1 7.45001C12.86 7.45001 12.66 7.24001 12.66 7.01001C12.66 6.77001 12.85 6.57001 13.09 6.57001C13.36 6.57001 13.58 6.79001 13.56 7.04001H13.57Z" fill="#F3BBE7"/>
<path d="M0.899992 38.82C0.889992 39.05 0.669992 39.24 0.439992 39.24C0.179992 39.24 -0.030008 39 -7.95396e-06 38.74C0.029992 38.51 0.249992 38.33 0.489992 38.36C0.729992 38.38 0.919992 38.6 0.899992 38.82Z" fill="#F3BBE7"/>
<path d="M0.43 32.91C0.2 32.9 0 32.7 0 32.47C0 32.24 0.2 32.04 0.44 32.03C0.7 32.03 0.93 32.25 0.91 32.5C0.89 32.73 0.67 32.92 0.44 32.91H0.43Z" fill="#F3BBE7"/>
<path d="M6.80001 13.03C7.04001 13.04 7.24001 13.24 7.24001 13.47C7.24001 13.72 6.99001 13.94 6.74001 13.91C6.51001 13.89 6.32001 13.67 6.34001 13.44C6.36001 13.21 6.56001 13.02 6.80001 13.03Z" fill="#F3BBE7"/>
<path d="M19.43 77.16C19.23 77.15 19.06 76.93 19.08 76.72C19.1 76.53 19.29 76.39 19.49 76.41C19.68 76.43 19.83 76.62 19.81 76.81C19.78 77.01 19.61 77.17 19.43 77.16Z" fill="#F3BBE7"/>
<path d="M0.819997 26.14C0.799997 26.34 0.639998 26.51 0.459998 26.51C0.259998 26.51 0.0799975 26.31 0.0899975 26.09C0.0999975 25.9 0.279997 25.75 0.479997 25.77C0.679997 25.78 0.829997 25.96 0.819997 26.15V26.14Z" fill="#F3BBE7"/>
<path d="M26.14 83.07C26.16 83.29 25.97 83.5 25.77 83.49C25.59 83.49 25.43 83.32 25.41 83.12C25.39 82.93 25.55 82.76 25.75 82.74C25.95 82.73 26.13 82.88 26.14 83.06V83.07Z" fill="#F3BBE7"/>
<path d="M57.58 102.52C57.44 102.52 57.3 102.4 57.29 102.25C57.29 102.11 57.41 101.97 57.56 101.96C57.71 101.96 57.85 102.08 57.85 102.23C57.85 102.38 57.73 102.51 57.58 102.52Z" fill="#F3BBE7"/>
<path d="M44.9 0.940015C44.75 0.940015 44.62 0.810015 44.62 0.660015C44.62 0.520015 44.76 0.390015 44.91 0.390015C45.06 0.390015 45.19 0.530015 45.19 0.670015C45.19 0.810015 45.05 0.940015 44.9 0.940015Z" fill="#F3BBE7"/>
<path d="M45.19 95.91C45.19 96.05 45.04 96.19 44.9 96.18C44.75 96.18 44.62 96.04 44.63 95.9C44.63 95.76 44.77 95.63 44.92 95.63C45.07 95.63 45.2 95.77 45.19 95.91Z" fill="#F3BBE7"/>
<path d="M0.700016 45.1C0.700016 45.25 0.580016 45.39 0.430016 45.38C0.280016 45.38 0.160016 45.24 0.170016 45.09C0.180016 44.95 0.270016 44.87 0.410016 44.84C0.550016 44.82 0.690016 44.94 0.700016 45.09V45.1Z" fill="#F3BBE7"/>
<path d="M0.699985 51.43C0.699985 51.58 0.589985 51.72 0.449985 51.72C0.299985 51.72 0.169985 51.59 0.179985 51.44C0.179985 51.3 0.269985 51.21 0.409985 51.19C0.559985 51.16 0.699985 51.28 0.709985 51.43H0.699985Z" fill="#F3BBE7"/>
<path d="M7.02998 6.97999C7.02998 7.12999 6.90998 7.26999 6.76998 7.25999C6.61998 7.25999 6.49998 7.11999 6.50998 6.96999C6.51998 6.82999 6.60998 6.74999 6.73998 6.71999C6.88998 6.69999 7.01998 6.81999 7.02998 6.96999V6.97999Z" fill="#F3BBE7"/>
<path d="M6.76998 64.38C6.61998 64.38 6.49998 64.24 6.50998 64.1C6.50998 63.95 6.65998 63.83 6.79998 63.85C6.91998 63.86 7.02998 63.97 7.02998 64.1C7.02998 64.25 6.90998 64.39 6.76998 64.39V64.38Z" fill="#F3BBE7"/>
<path d="M13.11 70.18C13.26 70.18 13.37 70.32 13.36 70.47C13.35 70.6 13.24 70.7 13.12 70.71C12.97 70.71 12.84 70.59 12.84 70.45C12.84 70.31 12.97 70.17 13.12 70.18H13.11Z" fill="#F3BBE7"/>
<path d="M19.45 0.930015C19.3 0.930015 19.17 0.810015 19.17 0.660015C19.17 0.510015 19.3 0.390015 19.45 0.390015C19.57 0.390015 19.68 0.500015 19.7 0.620015C19.72 0.770015 19.6 0.910015 19.46 0.920015L19.45 0.930015Z" fill="#F3BBE7"/>
<path d="M0.699965 19.77C0.699965 19.92 0.579965 20.06 0.439965 20.05C0.289965 20.05 0.169965 19.91 0.179965 19.76C0.189965 19.62 0.279965 19.54 0.409965 19.51C0.559965 19.49 0.689965 19.61 0.699965 19.76V19.77Z" fill="#F3BBE7"/>
<path d="M32.12 89.85C31.98 89.85 31.84 89.73 31.83 89.59C31.83 89.45 31.96 89.3 32.1 89.32C32.24 89.33 32.32 89.42 32.35 89.55C32.38 89.7 32.26 89.85 32.12 89.85Z" fill="#F3BBE7"/>
<path d="M69.37 7.15C69.37 7.46 69.62 7.71 69.93 7.71C70.24 7.71 70.49 7.46 70.49 7.15C70.49 6.84 70.24 6.59 69.93 6.59C69.62 6.59 69.37 6.84 69.37 7.15Z" fill="#F3BBE7"/>
<path d="M85.98 26.12C85.91 27.84 87.43 29.12 88.92 29.13C90.42 29.13 91.89 27.86 91.89 26.14C91.89 24.52 90.49 23.14 88.94 23.14C87.36 23.14 85.91 24.52 85.98 26.12Z" fill="#F3BBE7"/>
<path d="M95.26 29.48C93.69 29.42 92.29 30.85 92.3 32.46C92.3 34.18 93.77 35.46 95.26 35.46C96.76 35.46 98.22 34.18 98.22 32.46C98.22 30.85 96.82 29.42 95.26 29.48Z" fill="#F3BBE7"/>
<path d="M92.31 38.8C92.33 40.59 93.76 41.79 95.29 41.77C96.89 41.75 98.22 40.47 98.21 38.74C98.19 37.12 96.89 35.82 95.26 35.81C93.43 35.81 92.23 37.42 92.31 38.8Z" fill="#F3BBE7"/>
<path d="M92.44 45.1C92.41 46.53 93.53 48.09 95.4 48.1C96.91 48.1 98.3 46.94 98.33 45.14C98.36 43.42 96.96 42.15 95.38 42.15C93.77 42.15 92.46 43.48 92.45 45.1H92.44Z" fill="#F3BBE7"/>
<path d="M85.99 57.78C86.02 59.44 87.23 60.74 88.92 60.74C90.63 60.74 91.87 59.41 91.86 57.73C91.86 56.15 90.51 54.83 88.94 54.82C87.35 54.82 85.99 56.17 86 57.77L85.99 57.78Z" fill="#F3BBE7"/>
<path d="M60.67 76.8C60.7 78.62 62.23 79.76 63.62 79.74C65.07 79.72 66.56 78.53 66.52 76.75C66.47 74.85 65.03 73.81 63.58 73.83C62.04 73.85 60.73 74.97 60.67 76.8Z" fill="#F3BBE7"/>
<path d="M73.33 70.45C73.35 72.25 74.84 73.41 76.26 73.41C77.69 73.41 79.21 72.25 79.18 70.45C79.15 68.58 77.75 67.51 76.26 67.51C74.76 67.51 73.4 68.59 73.33 70.45Z" fill="#F3BBE7"/>
<path d="M79.66 19.81C79.69 21.63 81.21 22.77 82.61 22.75C84.06 22.73 85.55 21.56 85.51 19.77C85.47 17.88 84.03 16.83 82.57 16.85C81.04 16.87 79.72 17.97 79.66 19.81Z" fill="#F3BBE7"/>
<path d="M92.46 51.49C92.53 53.19 93.86 54.39 95.38 54.4C96.9 54.4 98.32 53.21 98.3 51.45C98.29 49.86 97.15 48.55 95.36 48.52C93.77 48.49 92.44 49.9 92.45 51.5L92.46 51.49Z" fill="#F3BBE7"/>
<path d="M69.95 79.68C71.29 79.76 72.87 78.58 72.84 76.72C72.81 75.18 71.75 73.94 69.91 73.83C68 73.97 67.03 75.3 67.02 76.76C67.02 78.59 68.57 79.78 69.95 79.68Z" fill="#F3BBE7"/>
<path d="M82.61 67.02C83.96 67.1 85.53 65.92 85.5 64.07C85.48 62.55 84.43 61.29 82.58 61.18C80.68 61.31 79.69 62.63 79.68 64.1C79.67 65.93 81.23 67.12 82.6 67.03L82.61 67.02Z" fill="#F3BBE7"/>
<path d="M76.27 22.68C77.69 22.72 79.13 21.59 79.15 19.78C79.16 18.34 78.1 16.88 76.25 16.89C74.44 16.89 73.38 18.3 73.37 19.74C73.35 21.55 74.79 22.73 76.27 22.68Z" fill="#F3BBE7"/>
<path d="M92.43 26.16C92.43 27.77 93.68 29.01 95.28 29C96.87 29 98.06 27.74 98.1 26.12C98.14 24.64 96.87 23.23 95.21 23.26C93.69 23.28 92.34 24.59 92.43 26.16Z" fill="#F3BBE7"/>
<path d="M79.76 26.13C79.76 27.75 80.98 29 82.58 29C84.18 29 85.38 27.76 85.43 26.15C85.48 24.6 84.17 23.25 82.57 23.26C81.01 23.26 79.68 24.61 79.76 26.13Z" fill="#F3BBE7"/>
<path d="M88.92 29.61C87.39 29.55 86.08 30.94 86.09 32.47C86.1 33.96 87.33 35.34 88.94 35.33C90.55 35.33 91.77 33.94 91.77 32.45C91.77 30.96 90.48 29.54 88.92 29.61Z" fill="#F3BBE7"/>
<path d="M86.1 64.13C86.07 65.45 87.1 66.96 88.91 66.97C90.72 66.98 91.77 65.47 91.75 64.1C91.73 62.5 90.48 61.25 88.88 61.28C87.31 61.3 86.1 62.55 86.11 64.14L86.1 64.13Z" fill="#F3BBE7"/>
<path d="M79.78 70.45C79.75 71.89 80.93 73.28 82.57 73.3C84.21 73.32 85.44 71.93 85.42 70.44C85.39 68.88 84.27 67.63 82.63 67.61C81 67.59 79.81 68.84 79.78 70.45Z" fill="#F3BBE7"/>
<path d="M86.11 51.46C86.09 53.03 87.4 54.3 88.91 54.31C90.4 54.32 91.74 53.08 91.74 51.49C91.74 49.92 90.52 48.61 88.91 48.63C87.32 48.64 86.12 49.93 86.11 51.47V51.46Z" fill="#F3BBE7"/>
<path d="M91.74 19.81C91.74 18.28 90.56 16.98 88.95 16.96C87.35 16.94 86.11 18.23 86.11 19.81C86.11 21.39 87.43 22.64 88.93 22.64C90.43 22.64 91.75 21.38 91.74 19.8V19.81Z" fill="#F3BBE7"/>
<path d="M72.74 26.12C72.72 24.71 71.71 23.31 69.93 23.31C68.21 23.31 67.15 24.64 67.13 26.06C67.1 27.87 68.51 28.96 69.94 28.96C71.33 28.96 72.71 27.91 72.75 26.12H72.74Z" fill="#F3BBE7"/>
<path d="M67.13 70.43C67.22 72.15 68.38 73.16 69.95 73.28C71.6 73.12 72.67 72.05 72.7 70.44C72.73 69.1 71.71 67.66 69.92 67.65C68.15 67.65 67.17 69.07 67.12 70.43H67.13Z" fill="#F3BBE7"/>
<path d="M73.47 26.12C73.58 27.9 74.8 28.85 76.31 28.95C78.01 28.77 79.03 27.65 79.05 26.09C79.07 24.72 78.02 23.31 76.26 23.32C74.46 23.33 73.51 24.79 73.48 26.11L73.47 26.12Z" fill="#F3BBE7"/>
<path d="M91.63 38.76C91.69 37.32 90.44 36.04 88.9 36.05C87.46 36.06 86.21 37.27 86.2 38.81C86.2 40.23 87.48 41.55 88.95 41.54C90.34 41.53 91.74 40.26 91.63 38.76Z" fill="#F3BBE7"/>
<path d="M92.69 57.83C92.6 59.22 93.95 60.56 95.44 60.53C96.79 60.51 98.15 59.27 98.11 57.72C98.08 56.35 96.94 55.01 95.34 55.04C93.97 55.06 92.61 56.21 92.69 57.83Z" fill="#F3BBE7"/>
<path d="M99.02 38.8C98.93 40.15 100.15 41.51 101.69 41.52C103.45 41.53 104.44 39.98 104.43 38.79C104.43 37.31 103.22 36.04 101.71 36.05C100.34 36.05 98.95 37.17 99.01 38.8H99.02Z" fill="#F3BBE7"/>
<path d="M86.23 45.14C86.23 46.65 87.41 47.84 88.91 47.85C90.68 47.85 91.66 46.3 91.65 45.11C91.63 43.51 90.32 42.37 88.92 42.38C87.55 42.38 86.17 43.52 86.23 45.14Z" fill="#F3BBE7"/>
<path d="M73.56 76.78C73.54 78.38 74.85 79.53 76.29 79.51C77.75 79.49 78.96 78.31 78.97 76.78C78.97 75.18 77.66 74.04 76.24 74.06C74.83 74.08 73.54 75.22 73.57 76.78H73.56Z" fill="#F3BBE7"/>
<path d="M60.9 32.49C60.91 34.07 62.2 35.19 63.61 35.18C65.07 35.17 66.29 34.01 66.29 32.46C66.29 30.94 65.06 29.72 63.55 29.74C62.08 29.76 60.89 30.99 60.9 32.49Z" fill="#F3BBE7"/>
<path d="M60.91 83.25C60.91 84.73 62.07 85.95 63.59 85.96C65.06 85.96 66.28 84.79 66.29 83.27C66.29 81.76 65.07 80.52 63.58 80.53C62.11 80.54 60.91 81.77 60.91 83.26V83.25Z" fill="#F3BBE7"/>
<path d="M85.28 57.75C85.28 56.41 84.2 55.06 82.56 55.08C80.9 55.1 79.87 56.49 79.91 57.81C79.96 59.63 81.43 60.51 82.63 60.49C83.94 60.46 85.27 59.49 85.29 57.75H85.28Z" fill="#F3BBE7"/>
<path d="M101.7 47.77C103.46 47.8 104.38 46.37 104.39 45.17C104.41 43.69 103.3 42.45 101.74 42.44C100.3 42.42 99.08 43.51 99.05 45.13C99.03 46.37 99.99 47.78 101.7 47.78V47.77Z" fill="#F3BBE7"/>
<path d="M76.26 66.77C77.97 66.79 78.94 65.41 78.93 64.15C78.93 62.58 77.78 61.44 76.27 61.44C74.78 61.44 73.62 62.56 73.6 64.15C73.59 65.4 74.55 66.79 76.26 66.78V66.77Z" fill="#F3BBE7"/>
<path d="M101.72 35.1C103.24 35.16 104.42 33.77 104.38 32.46C104.34 30.85 103.19 29.75 101.69 29.78C99.99 29.81 99.07 31.09 99.06 32.46C99.06 34.07 100.46 35.17 101.72 35.1Z" fill="#F3BBE7"/>
<path d="M63.62 67.84C62.28 67.76 60.98 68.91 60.99 70.48C60.99 71.93 62.17 73.07 63.61 73.08C64.83 73.08 66.2 72.13 66.21 70.46C66.21 68.9 64.9 67.78 63.62 67.85V67.84Z" fill="#F3BBE7"/>
<path d="M82.58 29.85C81.29 29.78 79.98 30.9 79.98 32.45C79.98 34.12 81.34 35.07 82.57 35.08C83.84 35.09 85.21 34.1 85.2 32.43C85.2 30.89 83.89 29.77 82.58 29.85Z" fill="#F3BBE7"/>
<path d="M97.82 19.77C97.81 18.33 96.67 17.19 95.24 17.2C93.82 17.2 92.71 18.36 92.69 19.8C92.67 21.23 93.9 22.39 95.27 22.37C96.64 22.36 97.86 21.2 97.81 19.76L97.82 19.77Z" fill="#F3BBE7"/>
<path d="M69.93 22.3C71.31 22.3 72.46 21.2 72.44 19.82C72.42 18.36 71.4 17.27 69.93 17.27C68.47 17.27 67.44 18.34 67.42 19.81C67.4 21.18 68.55 22.29 69.93 22.29V22.3Z" fill="#F3BBE7"/>
<path d="M101.72 23.65C100.45 23.61 99.26 24.6 99.24 26.14C99.22 27.51 100.39 28.63 101.76 28.61C103.1 28.59 104.22 27.47 104.2 26.13C104.18 24.41 102.79 23.58 101.72 23.64V23.65Z" fill="#F3BBE7"/>
<path d="M101.72 48.98C100.45 48.93 99.26 49.93 99.24 51.47C99.22 52.84 100.39 53.96 101.76 53.95C103.1 53.93 104.22 52.82 104.21 51.47C104.19 49.75 102.79 48.92 101.73 48.98H101.72Z" fill="#F3BBE7"/>
<path d="M67.49 83.25C67.43 84.73 68.78 85.72 69.93 85.72C71.06 85.72 72.41 84.74 72.39 83.19C72.38 82.02 71.37 80.75 69.9 80.77C68.53 80.78 67.41 81.98 67.49 83.25Z" fill="#F3BBE7"/>
<path d="M80.15 13.39C80.06 14.96 81.45 15.93 82.57 15.94C83.73 15.94 85.02 14.95 85.04 13.49C85.06 12.22 84.02 11.01 82.63 10.99C81.09 10.97 80.08 12.28 80.14 13.39H80.15Z" fill="#F3BBE7"/>
<path d="M80.15 51.46C80.09 52.94 81.43 53.93 82.58 53.94C83.72 53.94 85.06 52.96 85.04 51.41C85.03 50.26 84.06 48.97 82.56 48.98C81.14 48.99 80.06 50.23 80.14 51.45L80.15 51.46Z" fill="#F3BBE7"/>
<path d="M86.49 70.44C86.52 71.97 87.67 72.93 88.94 72.9C90.38 72.87 91.36 71.78 91.35 70.4C91.35 69.1 90.21 67.99 88.9 68C87.59 68 86.48 69.13 86.49 70.44Z" fill="#F3BBE7"/>
<path d="M73.83 32.45C73.87 34.04 75.1 34.94 76.29 34.9C77.76 34.85 78.7 33.73 78.69 32.39C78.68 31.09 77.54 29.98 76.23 30C74.92 30.02 73.82 31.14 73.83 32.45Z" fill="#F3BBE7"/>
<path d="M67.5 32.5C67.52 33.8 68.65 34.98 69.93 34.92C71.14 34.86 72.34 34.03 72.35 32.43C72.35 31.12 71.22 30.01 69.93 30.01C68.61 30.01 67.49 31.16 67.51 32.5H67.5Z" fill="#F3BBE7"/>
<path d="M85.02 38.81C85.02 37.47 83.9 36.33 82.58 36.34C81.28 36.34 80.16 37.46 80.17 38.77C80.18 40.4 81.44 41.24 82.6 41.23C83.76 41.23 84.95 40.41 85.02 38.81Z" fill="#F3BBE7"/>
<path d="M66.02 26.14C66.02 24.83 64.94 23.71 63.63 23.69C62.31 23.67 61.16 24.81 61.18 26.15C61.21 27.6 62.34 28.56 63.6 28.56C64.88 28.56 65.98 27.58 66.02 26.14Z" fill="#F3BBE7"/>
<path d="M69.9 66.5C71.3 66.52 72.28 65.36 72.33 64.16C72.38 62.87 71.26 61.68 69.95 61.7C68.44 61.73 67.55 62.82 67.53 64.1C67.51 65.27 68.48 66.48 69.9 66.49V66.5Z" fill="#F3BBE7"/>
<path d="M95.4 66.5C96.81 66.47 97.74 65.4 97.78 64.12C97.83 62.86 96.67 61.69 95.41 61.73C93.9 61.78 93.02 62.78 93.01 64.14C93 65.41 93.98 66.48 95.39 66.5H95.4Z" fill="#F3BBE7"/>
<path d="M82.6 42.77C81.22 42.75 80.24 43.75 80.23 45.11C80.21 46.64 81.44 47.48 82.59 47.48C83.73 47.48 84.97 46.66 84.96 45.11C84.96 43.75 83.98 42.75 82.6 42.76V42.77Z" fill="#F3BBE7"/>
<path d="M86.57 13.48C86.57 14.78 87.67 15.85 88.97 15.82C90.25 15.8 91.3 14.74 91.29 13.47C91.29 12.08 90.11 11.09 88.93 11.1C87.77 11.1 86.59 12.07 86.58 13.49L86.57 13.48Z" fill="#F3BBE7"/>
<path d="M78.58 57.81C78.64 56.33 77.29 55.44 76.29 55.43C75.2 55.42 73.94 56.36 73.94 57.75C73.94 58.93 74.82 60.1 76.24 60.12C77.65 60.14 78.61 59 78.58 57.81Z" fill="#F3BBE7"/>
<path d="M80.28 76.78C80.24 77.96 81.18 79.12 82.59 79.12C84 79.12 84.91 77.96 84.91 76.78C84.91 75.35 83.63 74.43 82.59 74.43C81.55 74.43 80.23 75.35 80.28 76.78Z" fill="#F3BBE7"/>
<path d="M76.24 15.73C77.41 15.81 78.56 14.75 78.56 13.47C78.56 12.23 77.51 11.15 76.28 11.14C75.05 11.13 73.98 12.18 73.96 13.43C73.93 14.75 75.11 15.8 76.24 15.73Z" fill="#F3BBE7"/>
<path d="M101.72 17.59C100.5 17.59 99.52 18.59 99.54 19.81C99.56 21 100.55 22.04 101.69 22.01C103.11 21.97 103.94 20.82 103.91 19.81C103.88 18.56 102.95 17.6 101.72 17.6V17.59Z" fill="#F3BBE7"/>
<path d="M110.23 38.76C110.21 37.62 109.41 36.62 108.07 36.59C106.84 36.56 105.84 37.67 105.87 38.8C105.9 40.07 106.92 40.97 108.04 40.98C109.18 40.98 110.24 40.08 110.23 38.77V38.76Z" fill="#F3BBE7"/>
<path d="M99.54 57.8C99.54 59.07 100.57 59.97 101.7 59.98C102.85 59.98 103.91 59.08 103.89 57.77C103.88 56.57 103 55.59 101.67 55.6C100.45 55.6 99.47 56.72 99.53 57.81L99.54 57.8Z" fill="#F3BBE7"/>
<path d="M61.42 64.08C61.39 65.42 62.49 66.31 63.6 66.3C64.71 66.3 65.76 65.43 65.77 64.13C65.78 62.91 64.8 61.9 63.59 61.9C62.4 61.9 61.42 62.88 61.42 64.07V64.08Z" fill="#F3BBE7"/>
<path d="M63.6 40.93C64.62 40.92 65.7 40.22 65.75 38.81C65.79 37.65 64.75 36.6 63.6 36.6C62.45 36.6 61.41 37.65 61.45 38.81C61.5 40.22 62.58 40.91 63.6 40.92V40.93Z" fill="#F3BBE7"/>
<path d="M108.06 34.6C109.16 34.58 110.19 33.82 110.21 32.42C110.23 31.29 109.18 30.25 108.05 30.29C106.96 30.33 105.88 31.14 105.9 32.5C105.92 33.86 106.98 34.6 108.05 34.61L108.06 34.6Z" fill="#F3BBE7"/>
<path d="M95.24 15.59C96.4 15.6 97.43 14.62 97.39 13.47C97.34 12.21 96.53 11.34 95.28 11.32C94.19 11.3 93.22 12.03 93.13 13.44C93.06 14.57 94.08 15.58 95.24 15.59Z" fill="#F3BBE7"/>
<path d="M76.24 40.91C77.4 40.93 78.43 39.95 78.4 38.8C78.36 37.57 77.57 36.67 76.3 36.64C75.25 36.61 74.24 37.3 74.15 38.75C74.08 39.88 75.09 40.89 76.25 40.91H76.24Z" fill="#F3BBE7"/>
<path d="M76.29 85.23C77.27 85.21 78.42 84.42 78.37 83.04C78.33 81.86 77.4 80.97 76.23 80.98C75.01 81 74.15 81.97 74.15 83.1C74.15 84.49 75.34 85.24 76.3 85.22L76.29 85.23Z" fill="#F3BBE7"/>
<path d="M110.11 45.12C110.18 43.9 109 43.02 108.03 43.03C106.97 43.03 105.95 44.04 105.97 45.16C105.99 46.31 106.93 47.19 108.03 47.21C109 47.22 110.15 46.46 110.1 45.12H110.11Z" fill="#F3BBE7"/>
<path d="M63.57 91.6C64.66 91.67 65.65 90.75 65.65 89.6C65.65 88.47 64.75 87.52 63.63 87.51C62.51 87.49 61.58 88.42 61.55 89.55C61.52 90.78 62.57 91.66 63.57 91.61V91.6Z" fill="#F3BBE7"/>
<path d="M76.29 53.48C77.45 53.47 78.33 52.57 78.31 51.42C78.29 50.28 77.37 49.37 76.24 49.39C75.11 49.41 74.22 50.33 74.22 51.48C74.22 52.63 75.12 53.5 76.29 53.49V53.48Z" fill="#F3BBE7"/>
<path d="M106.05 26.11C106.05 27.2 107.02 28.17 108.09 28.1C109.37 28.01 110.01 27.19 110.04 26.1C110.07 25.03 109.12 24.14 108.05 24.15C107.12 24.15 106.12 24.87 106.05 26.12V26.11Z" fill="#F3BBE7"/>
<path d="M67.99 57.83C68 58.93 68.8 59.71 69.92 59.72C71.24 59.72 71.87 58.66 71.87 57.77C71.87 56.78 71.01 55.81 69.89 55.83C68.91 55.84 67.92 56.71 67.99 57.84V57.83Z" fill="#F3BBE7"/>
<path d="M74.33 45.18C74.35 46.28 75.16 47.05 76.28 47.05C77.58 47.05 78.22 46 78.21 45.09C78.21 44.14 77.37 43.14 76.22 43.16C75.26 43.18 74.26 44.03 74.33 45.18Z" fill="#F3BBE7"/>
<path d="M69.96 40.68C71.01 40.67 71.85 39.83 71.85 38.8C71.85 37.61 70.84 36.85 69.93 36.85C69.03 36.85 68.02 37.6 68.01 38.79C68.01 39.85 68.88 40.69 69.96 40.68Z" fill="#F3BBE7"/>
<path d="M97.24 70.46C97.18 69.26 96.31 68.6 95.4 68.61C94.38 68.61 93.55 69.4 93.53 70.43C93.51 71.41 94.38 72.31 95.37 72.29C96.29 72.28 97.19 71.64 97.24 70.46Z" fill="#F3BBE7"/>
<path d="M109.86 51.45C109.92 50.46 109 49.6 108.02 49.61C107.15 49.62 106.22 50.4 106.23 51.45C106.23 52.46 107.02 53.29 108.08 53.28C109.11 53.26 109.93 52.4 109.86 51.45Z" fill="#F3BBE7"/>
<path d="M87.13 76.75C87.08 77.77 87.97 78.56 88.9 78.57C89.95 78.57 90.74 77.71 90.73 76.8C90.72 75.81 89.93 74.99 88.95 74.95C88.19 74.92 87.06 75.67 87.13 76.75Z" fill="#F3BBE7"/>
<path d="M101.7 15.2C102.64 15.2 103.53 14.37 103.47 13.43C103.41 12.38 102.74 11.76 101.73 11.68C100.85 11.61 99.95 12.54 99.95 13.46C99.95 14.36 100.78 15.19 101.7 15.2Z" fill="#F3BBE7"/>
<path d="M99.97 64.1C99.97 65.04 100.76 65.85 101.69 65.85C102.53 65.85 103.42 65.27 103.45 64.15C103.48 63.24 102.68 62.41 101.73 62.4C100.71 62.39 99.98 63.29 99.96 64.1H99.97Z" fill="#F3BBE7"/>
<path d="M69.95 87.86C68.97 87.8 68.18 88.71 68.2 89.56C68.23 90.71 69.07 91.29 69.92 91.3C70.76 91.31 71.66 90.73 71.67 89.54C71.67 88.69 70.87 87.83 69.95 87.87V87.86Z" fill="#F3BBE7"/>
<path d="M108.08 21.44C109.07 21.43 109.74 20.74 109.72 19.75C109.7 18.83 108.96 18.1 108.07 18.11C107.11 18.13 106.41 18.84 106.38 19.79C106.36 20.61 107.11 21.49 108.08 21.43V21.44Z" fill="#F3BBE7"/>
<path d="M88.92 8.62999C89.84 8.69999 90.62 7.78999 90.6 7.01999C90.58 6.07999 89.86 5.30999 88.94 5.29999C88.02 5.29999 87.29 6.05999 87.26 6.99999C87.23 7.80999 88.04 8.68999 88.92 8.62999Z" fill="#F3BBE7"/>
<path d="M80.94 7.00001C80.95 7.92001 81.69 8.63001 82.61 8.62001C83.53 8.62001 84.25 7.89001 84.25 6.97001C84.25 6.00001 83.4 5.31001 82.58 5.33001C81.71 5.35001 80.92 6.06001 80.94 7.00001Z" fill="#F3BBE7"/>
<path d="M63.6 59.41C64.49 59.41 65.26 58.63 65.24 57.76C65.22 56.92 64.45 56.15 63.62 56.13C62.77 56.11 61.96 56.91 61.94 57.77C61.93 58.64 62.7 59.41 63.59 59.41H63.6Z" fill="#F3BBE7"/>
<path d="M82.57 81.52C81.61 81.5 80.98 82.32 80.96 83.12C80.94 83.97 81.7 84.72 82.58 84.73C83.45 84.73 84.22 84.01 84.22 83.15C84.22 82.38 83.61 81.48 82.57 81.52Z" fill="#F3BBE7"/>
<path d="M68.4 51.45C68.4 52.32 69.07 52.96 69.94 52.96C70.81 52.96 71.46 52.31 71.47 51.44C71.47 50.62 70.75 49.9 69.93 49.91C69.11 49.91 68.39 50.63 68.4 51.45Z" fill="#F3BBE7"/>
<path d="M69.9 14.96C70.75 14.98 71.45 14.3 71.46 13.47C71.46 12.66 70.73 11.93 69.93 11.93C69.13 11.93 68.4 12.67 68.4 13.48C68.4 14.28 69.07 14.95 69.9 14.96Z" fill="#F3BBE7"/>
<path d="M69.9 46.62C70.75 46.64 71.45 45.96 71.46 45.13C71.46 44.32 70.73 43.59 69.93 43.59C69.13 43.59 68.4 44.33 68.41 45.14C68.41 45.95 69.08 46.61 69.91 46.62H69.9Z" fill="#F3BBE7"/>
<path d="M93.84 7.01999C93.84 7.83999 94.47 8.43999 95.3 8.41999C96.1 8.39999 96.68 7.80999 96.68 6.99999C96.68 6.17999 96.06 5.54999 95.25 5.55999C94.44 5.55999 93.83 6.19999 93.84 7.02999V7.01999Z" fill="#F3BBE7"/>
<path d="M114.37 40.18C115.24 40.23 115.82 39.46 115.8 38.82C115.78 38.01 115.16 37.36 114.37 37.37C113.6 37.37 112.97 38.02 112.98 38.79C112.98 39.62 113.54 40.17 114.37 40.18Z" fill="#F3BBE7"/>
<path d="M114.41 33.84C115.18 33.88 115.83 33.18 115.8 32.44C115.77 31.67 115.16 31.03 114.39 31.03C113.62 31.03 112.98 31.66 112.98 32.43C112.98 33.29 113.55 33.85 114.41 33.84Z" fill="#F3BBE7"/>
<path d="M106.64 57.8C106.66 58.65 107.24 59.2 108.11 59.17C108.91 59.15 109.48 58.54 109.46 57.73C109.44 56.96 108.78 56.34 108.02 56.36C107.25 56.38 106.63 57.03 106.65 57.8H106.64Z" fill="#F3BBE7"/>
<path d="M62.24 19.78C62.25 20.52 62.9 21.15 63.62 21.14C64.34 21.12 64.98 20.46 64.96 19.74C64.94 19.05 64.3 18.45 63.58 18.46C62.86 18.47 62.23 19.1 62.24 19.78Z" fill="#F3BBE7"/>
<path d="M63.63 46.47C64.35 46.45 64.98 45.78 64.96 45.06C64.94 44.37 64.29 43.77 63.57 43.79C62.85 43.81 62.22 44.44 62.24 45.12C62.26 45.85 62.92 46.49 63.63 46.47Z" fill="#F3BBE7"/>
<path d="M76.23 5.90999C75.53 5.91999 74.98 6.46999 74.99 7.14999C74.99 7.82999 75.55 8.36999 76.25 8.37999C76.98 8.37999 77.54 7.80999 77.52 7.09999C77.5 6.41999 76.94 5.89999 76.23 5.90999Z" fill="#F3BBE7"/>
<path d="M114.4 43.9C113.69 43.9 113.13 44.43 113.12 45.1C113.11 45.78 113.72 46.38 114.42 46.37C115.12 46.36 115.66 45.81 115.66 45.12C115.66 44.57 115.18 43.86 114.41 43.9H114.4Z" fill="#F3BBE7"/>
<path d="M114.41 27.36C115.08 27.35 115.66 26.74 115.63 26.09C115.6 25.4 115.03 24.89 114.33 24.91C113.66 24.94 113.11 25.48 113.14 26.13C113.17 26.88 113.76 27.34 114.41 27.35V27.36Z" fill="#F3BBE7"/>
<path d="M76.26 88.36C75.56 88.36 75 88.91 75 89.59C75 90.24 75.62 90.83 76.28 90.81C76.92 90.79 77.49 90.23 77.5 89.6C77.5 88.92 76.95 88.37 76.25 88.36H76.26Z" fill="#F3BBE7"/>
<path d="M108.07 14.59C108.76 14.59 109.2 14.11 109.21 13.42C109.21 12.79 108.59 12.28 108.07 12.29C107.41 12.31 106.9 12.81 106.9 13.46C106.9 14.13 107.38 14.6 108.07 14.59Z" fill="#F3BBE7"/>
<path d="M63.59 94.81C62.98 94.81 62.48 95.28 62.46 95.86C62.44 96.45 62.97 97 63.57 97.02C64.19 97.04 64.75 96.47 64.73 95.85C64.71 95.27 64.21 94.81 63.59 94.81Z" fill="#F3BBE7"/>
<path d="M94.28 76.75C94.28 77.35 94.81 77.89 95.41 77.88C95.98 77.87 96.51 77.34 96.51 76.79C96.51 76.24 95.97 75.71 95.41 75.7C94.84 75.7 94.29 76.21 94.28 76.75Z" fill="#F3BBE7"/>
<path d="M63.61 50.39C63.03 50.39 62.49 50.91 62.51 51.48C62.52 52.01 63.05 52.52 63.59 52.53C64.15 52.53 64.71 51.98 64.69 51.44C64.67 50.89 64.17 50.4 63.61 50.4V50.39Z" fill="#F3BBE7"/>
<path d="M101.67 69.4C101.1 69.43 100.66 69.93 100.69 70.51C100.72 71.08 101.23 71.52 101.8 71.47C102.36 71.42 102.76 70.97 102.74 70.4C102.72 69.82 102.23 69.36 101.66 69.39L101.67 69.4Z" fill="#F3BBE7"/>
<path d="M101.69 5.98001C101.17 6.00001 100.69 6.50001 100.71 7.02001C100.72 7.47001 101.1 8.05001 101.8 8.00001C102.35 7.96001 102.77 7.50001 102.74 6.95001C102.71 6.40001 102.24 5.97001 101.69 5.99001V5.98001Z" fill="#F3BBE7"/>
<path d="M88.9 84.07C89.4 84.09 89.89 83.61 89.89 83.12C89.89 82.63 89.48 82.2 88.98 82.17C88.46 82.14 87.99 82.56 87.96 83.08C87.93 83.57 88.39 84.06 88.9 84.08V84.07Z" fill="#F3BBE7"/>
<path d="M114.36 50.54C113.87 50.56 113.45 51.01 113.47 51.5C113.49 51.99 113.95 52.43 114.42 52.4C114.89 52.37 115.33 51.9 115.32 51.43C115.31 50.95 114.85 50.53 114.35 50.55L114.36 50.54Z" fill="#F3BBE7"/>
<path d="M114.39 18.88C113.9 18.88 113.47 19.32 113.47 19.81C113.47 20.3 113.91 20.75 114.39 20.74C114.86 20.74 115.31 20.28 115.32 19.8C115.33 19.33 114.88 18.89 114.39 18.88Z" fill="#F3BBE7"/>
<path d="M108.04 64.97C108.51 64.97 108.89 64.63 108.92 64.17C108.95 63.68 108.57 63.29 108.07 63.28C107.57 63.28 107.17 63.66 107.18 64.13C107.18 64.55 107.61 64.96 108.04 64.97Z" fill="#F3BBE7"/>
<path d="M69.93 96.64C70.35 96.64 70.69 96.3 70.69 95.88C70.69 95.48 70.39 95.18 69.97 95.17C69.52 95.15 69.18 95.46 69.18 95.88C69.18 96.3 69.52 96.64 69.94 96.65L69.93 96.64Z" fill="#F3BBE7"/>
<path d="M88.91 1.35C89.23 1.35 89.6 1 89.61 0.660002C89.63 0.340002 89.31 0.0300022 88.97 2.24379e-06C88.61 -0.0299978 88.24 0.290002 88.24 0.630002C88.24 0.970002 88.59 1.34 88.92 1.35H88.91Z" fill="#F3BBE7"/>
<path d="M82.59 88.91C82.25 88.91 81.92 89.21 81.91 89.53C81.91 89.87 82.24 90.25 82.57 90.26C82.92 90.28 83.3 89.88 83.28 89.52C83.26 89.2 82.93 88.9 82.59 88.91Z" fill="#F3BBE7"/>
<path d="M82.01 0.680013C82.01 0.960013 82.31 1.24001 82.59 1.24001C82.87 1.24001 83.16 0.960013 83.17 0.680013C83.18 0.350013 82.9 0.0800126 82.56 0.100013C82.25 0.110013 82 0.380013 82.01 0.680013Z" fill="#F3BBE7"/>
<path d="M113.87 57.79C113.87 58.07 114.11 58.31 114.38 58.31C114.66 58.31 114.89 58.07 114.89 57.79C114.89 57.51 114.64 57.26 114.38 57.27C114.11 57.27 113.87 57.52 113.87 57.8V57.79Z" fill="#F3BBE7"/>
<path d="M95.25 0.140011C94.98 0.140011 94.75 0.400011 94.75 0.680011C94.75 0.960011 95 1.20001 95.27 1.19001C95.55 1.19001 95.78 0.930011 95.77 0.650011C95.76 0.370011 95.52 0.130011 95.25 0.140011Z" fill="#F3BBE7"/>
<path d="M107.6 7.04001C107.61 7.27001 107.83 7.46001 108.07 7.45001C108.31 7.45001 108.51 7.24001 108.51 7.01001C108.51 6.77001 108.32 6.57001 108.08 6.57001C107.81 6.57001 107.59 6.79001 107.61 7.04001H107.6Z" fill="#F3BBE7"/>
<path d="M120.26 38.82C120.27 39.05 120.49 39.24 120.72 39.24C120.98 39.24 121.19 39 121.16 38.74C121.13 38.51 120.91 38.33 120.67 38.36C120.43 38.38 120.24 38.6 120.26 38.82Z" fill="#F3BBE7"/>
<path d="M120.73 32.91C120.96 32.91 121.16 32.7 121.16 32.47C121.16 32.24 120.96 32.04 120.72 32.03C120.46 32.03 120.23 32.25 120.25 32.5C120.27 32.73 120.49 32.92 120.72 32.91H120.73Z" fill="#F3BBE7"/>
<path d="M114.37 13.03C114.13 13.04 113.93 13.24 113.93 13.47C113.93 13.72 114.18 13.94 114.43 13.91C114.66 13.89 114.85 13.67 114.83 13.44C114.81 13.21 114.61 13.02 114.37 13.03Z" fill="#F3BBE7"/>
<path d="M101.73 77.16C101.93 77.15 102.1 76.93 102.08 76.72C102.06 76.53 101.87 76.39 101.67 76.41C101.48 76.43 101.33 76.62 101.35 76.81C101.38 77.01 101.55 77.17 101.73 77.16Z" fill="#F3BBE7"/>
<path d="M120.35 26.14C120.37 26.34 120.53 26.51 120.71 26.51C120.91 26.51 121.09 26.31 121.08 26.09C121.07 25.9 120.89 25.75 120.69 25.77C120.49 25.78 120.34 25.96 120.35 26.15V26.14Z" fill="#F3BBE7"/>
<path d="M95.02 83.07C95 83.29 95.19 83.5 95.39 83.49C95.57 83.49 95.73 83.32 95.75 83.12C95.77 82.93 95.61 82.76 95.41 82.74C95.21 82.73 95.03 82.88 95.02 83.06V83.07Z" fill="#F3BBE7"/>
<path d="M63.59 102.52C63.73 102.52 63.87 102.4 63.88 102.25C63.88 102.11 63.76 101.97 63.61 101.96C63.46 101.96 63.32 102.08 63.32 102.23C63.32 102.38 63.44 102.51 63.59 102.52Z" fill="#F3BBE7"/>
<path d="M76.27 0.940015C76.42 0.940015 76.55 0.810015 76.55 0.660015C76.55 0.520015 76.41 0.390015 76.26 0.390015C76.11 0.390015 75.98 0.530015 75.98 0.670015C75.98 0.810015 76.12 0.940015 76.27 0.940015Z" fill="#F3BBE7"/>
<path d="M75.98 95.91C75.98 96.05 76.13 96.19 76.27 96.18C76.42 96.18 76.55 96.04 76.54 95.9C76.54 95.76 76.4 95.63 76.25 95.63C76.1 95.63 75.97 95.77 75.98 95.91Z" fill="#F3BBE7"/>
<path d="M120.47 45.1C120.47 45.25 120.59 45.39 120.74 45.38C120.89 45.38 121.01 45.24 121 45.09C120.99 44.95 120.9 44.87 120.76 44.84C120.62 44.82 120.48 44.94 120.47 45.09V45.1Z" fill="#F3BBE7"/>
<path d="M120.47 51.43C120.47 51.58 120.58 51.72 120.72 51.72C120.87 51.72 121 51.59 120.99 51.44C120.99 51.3 120.9 51.21 120.76 51.19C120.61 51.16 120.47 51.28 120.46 51.43H120.47Z" fill="#F3BBE7"/>
<path d="M114.13 6.97999C114.13 7.12999 114.25 7.26999 114.39 7.25999C114.54 7.25999 114.66 7.11999 114.65 6.96999C114.64 6.82999 114.55 6.74999 114.42 6.71999C114.27 6.69999 114.14 6.81999 114.13 6.96999V6.97999Z" fill="#F3BBE7"/>
<path d="M114.4 64.38C114.55 64.38 114.67 64.24 114.66 64.1C114.66 63.95 114.51 63.83 114.37 63.85C114.25 63.86 114.14 63.97 114.14 64.1C114.14 64.25 114.26 64.39 114.4 64.39V64.38Z" fill="#F3BBE7"/>
<path d="M108.05 70.18C107.9 70.18 107.79 70.32 107.8 70.47C107.81 70.6 107.92 70.7 108.04 70.71C108.19 70.71 108.32 70.59 108.32 70.45C108.32 70.31 108.19 70.17 108.04 70.18H108.05Z" fill="#F3BBE7"/>
<path d="M101.72 0.930015C101.87 0.930015 102 0.810015 102 0.660015C102 0.510015 101.87 0.390015 101.72 0.390015C101.6 0.390015 101.49 0.500015 101.47 0.620015C101.45 0.770015 101.57 0.910015 101.71 0.920015L101.72 0.930015Z" fill="#F3BBE7"/>
<path d="M120.47 19.77C120.47 19.92 120.59 20.06 120.73 20.05C120.88 20.05 121 19.91 120.99 19.76C120.98 19.62 120.89 19.54 120.76 19.51C120.61 19.49 120.48 19.61 120.47 19.76V19.77Z" fill="#F3BBE7"/>
<path d="M89.05 89.85C89.19 89.85 89.33 89.73 89.34 89.59C89.34 89.45 89.21 89.3 89.07 89.32C88.93 89.33 88.85 89.42 88.82 89.55C88.79 89.7 88.91 89.85 89.05 89.85Z" fill="#F3BBE7"/>
</g>
<defs>
<clipPath id="clip0_22_30">
<rect width="121.17" height="102.52" fill="white"/>
</clipPath>
</defs>
</svg>
