<svg width="42" height="52" viewBox="0 0 42 52" fill="none" xmlns="http://www.w3.org/2000/svg">
<g clip-path="url(#clip0_9_296)">
<path d="M24.31 21.44C18.17 22.8 15.73 25.23 14.38 31.37C14.05 32.88 11.9 32.88 11.57 31.37C10.21 25.23 7.78001 22.79 1.64001 21.44C0.130007 21.11 0.130007 18.96 1.64001 18.63C7.78001 17.27 10.22 14.84 11.57 8.7C11.9 7.19 14.05 7.19 14.38 8.7C15.74 14.84 18.17 17.28 24.31 18.63C25.82 18.96 25.82 21.11 24.31 21.44Z" fill="#AFABF3" stroke="#2E1E5C" stroke-miterlimit="10"/>
<path d="M31.83 7.19C29.84 8.05 28.77 9.12 27.91 11.11C27.51 12.02 26.22 12.02 25.82 11.11C24.96 9.12 23.89 8.05 21.9 7.19C20.99 6.79 20.99 5.5 21.9 5.1C23.89 4.24 24.96 3.17 25.82 1.18C26.22 0.269998 27.51 0.269998 27.91 1.18C28.77 3.17 29.84 4.24 31.83 5.1C32.74 5.5 32.74 6.79 31.83 7.19Z" fill="#AADCFF" stroke="#2E1E5C" stroke-miterlimit="10"/>
<path d="M39.78 39.57C33.64 40.93 31.2 43.36 29.85 49.5C29.52 51.01 27.37 51.01 27.04 49.5C25.68 43.36 23.25 40.92 17.11 39.57C15.6 39.24 15.6 37.09 17.11 36.76C23.25 35.4 25.69 32.97 27.04 26.83C27.37 25.32 29.52 25.32 29.85 26.83C31.21 32.97 33.64 35.41 39.78 36.76C41.29 37.09 41.29 39.24 39.78 39.57Z" fill="#F3BBE7" stroke="#2E1E5C" stroke-miterlimit="10"/>
</g>
<defs>
<clipPath id="clip0_9_296">
<rect width="41.41" height="51.14" fill="white"/>
</clipPath>
</defs>
</svg>
