<svg width="19" height="19" viewBox="0 0 19 19" fill="none" xmlns="http://www.w3.org/2000/svg">
<g clip-path="url(#clip0_14_373)">
<path d="M15.31 0.5H3.62C1.89687 0.5 0.5 1.89687 0.5 3.62V15.31C0.5 17.0331 1.89687 18.43 3.62 18.43H15.31C17.0331 18.43 18.43 17.0331 18.43 15.31V3.62C18.43 1.89687 17.0331 0.5 15.31 0.5Z" fill="#F3BBE7" stroke="#2E1E5C" stroke-width="2" stroke-miterlimit="10"/>
<path d="M4.96 13.83H10.54C11.41 13.83 12.11 13.13 12.11 12.26C12.11 11.87 12.52 11.6 12.88 11.76L14.77 12.59C15.13 12.75 15.54 12.48 15.54 12.09V6.86001C15.54 6.47001 15.13 6.20001 14.77 6.36001L12.88 7.19001C12.52 7.35001 12.11 7.08001 12.11 6.69001C12.11 5.81001 11.41 5.10001 10.54 5.10001H4.96C4.09 5.10001 3.39 5.80001 3.39 6.67001V12.25C3.39 13.12 4.09 13.82 4.96 13.82V13.83Z" fill="#2E1E5C"/>
</g>
<defs>
<clipPath id="clip0_14_373">
<rect width="18.93" height="18.93" fill="white"/>
</clipPath>
</defs>
</svg>
