<svg width="44" height="39" viewBox="0 0 44 39" fill="none" xmlns="http://www.w3.org/2000/svg">
<g clip-path="url(#clip0_1_65)">
<path d="M40.23 9.25C40.15 7.49 39.54 5.99 38.23 4.79C37 3.65 34.73 2.71 33.05 3.35C30.7 0.0800004 26.64 -1.11 23.19 1.21C21.49 0.14 18.92 -0.24 16.99 0.4C15.13 0.92 13.68 2.37 12.63 3.91C8.24 3.96 5.32 5.83 5.16 10.48C1.17 11.42 -0.0699986 15.68 1.4 19.18C-1.98 23.77 1.37 26 4.97 28.61C7.4 30.39 10.07 31.71 12.91 32.65C13.38 32.8 13.91 32.86 14.29 33.19C15.75 34.48 15.99 35.17 16.75 36.77C17.24 37.78 18.09 38.53 19.19 38.79C20.99 39.24 24.41 36.63 26.91 36.18C27.93 35.95 28.97 35.8 30.01 35.77C31.86 35.69 33.62 36.11 34.78 34.28C35.88 32.56 34.61 30.02 35.71 27.71C35.98 27.14 36.53 26.69 36.95 26.21C39.64 23.2 43.29 17.58 43.67 13.53C43.89 11.25 42.07 10 40.23 9.25ZM22.71 36.34C21.06 37.13 19.14 38.84 17.87 36.09C17.31 34.87 17.34 34.7 16.47 33.52C17.02 33.54 17.66 33.83 18.18 34C18.46 34.1 23.19 35.79 23.22 35.83C23.3 36.13 22.92 36.23 22.7 36.33L22.71 36.34ZM33.83 30.44C33.84 31.6 34.31 33 33.39 33.96C32.59 34.78 31.12 34.44 30.08 34.46C29.86 34.46 29.51 34.46 29.36 34.28C29.55 33.48 32.87 30.2 33.85 29.25H33.86C33.91 29.39 33.83 30.24 33.83 30.45V30.44ZM42.33 13.39C41.97 17.47 37.48 23.91 34.69 26.65C33.68 27.65 32.57 28.55 31.56 29.57C29.68 31.46 29.05 33.16 26.16 34.09C23.59 34.92 23.14 34.46 20.71 33.52C18.42 32.63 16.24 32.23 13.9 31.56C12.27 31.09 10.51 30.36 9 29.58C6.96 28.49 2.96 25.76 1.72 24.01C0.850001 22.77 1.62 21.25 2.4 20.16C3.02 20.67 3.59 21.21 4.2 21.73C7.42 24.45 10.88 26.83 14.65 28.76C15.06 28.96 15.86 29.5 16.33 29.4C16.68 29.33 16.99 29 16.89 28.62C16.77 28.17 16.24 28.01 15.87 27.85C11.83 26.04 7.32 22.72 4.05 19.82C3.56 19.38 3.08 18.91 2.51 18.57C1.69 15.47 2.11 13.11 5.36 11.79C5.89 12.61 6.37 13.47 6.9 14.31C9.75 18.73 13.24 22.56 17.28 25.94C17.6 26.2 18.3 26.91 18.7 26.93C19.28 26.95 19.59 26.27 19.21 25.85C18.8 25.39 18.23 25.02 17.76 24.61C13.74 21.1 10.4 17.34 7.54 12.79C7.1 12.09 6.45 11.41 6.45 10.54C6.47 6.99 8.89 5.27 12.27 5.3C12.79 6.07 13.22 6.9 13.7 7.7C16.4 12.24 19.23 18.02 20.72 23.16C20.88 23.7 21 24.5 21.23 25C21.47 25.52 22.32 25.6 22.48 24.98C22.6 24.48 22.01 22.74 21.83 22.18C20.23 17.3 18.19 12.93 15.7 8.44C15.03 7.23 14.26 6.08 13.59 4.87C14.68 3.45 15.76 2.2 17.52 1.63C19.04 1.14 20.82 1.6 22.24 2.23C23.83 2.96 23.08 2.69 24.69 1.94C27.74 0.48 30.22 1.93 32.19 4.4C32.14 4.79 32.05 5.19 31.96 5.58C30.79 11.2 29.21 16.81 27.02 22.13C26.81 22.63 26.12 23.67 26.42 24.23C26.58 24.52 27.06 24.65 27.33 24.46C27.71 24.22 28.13 22.96 28.31 22.51C30.83 16.45 32.05 10.84 33.54 4.6C35.9 4.23 38.18 5.91 38.75 8.19C39.02 9.31 38.73 9.7 38.3 10.73C37.77 12.02 37.59 13.4 37.24 14.74C36.4 17.88 34.55 20.65 32.17 22.85C31.79 23.19 31.06 23.67 30.83 24.09C30.52 24.65 31.15 25.15 31.68 24.96C32.25 24.75 33.37 23.57 33.85 23.09C36.06 20.85 37.78 18.19 38.55 15.1C38.91 13.59 39.18 12.07 39.81 10.63C41.1 11.01 42.48 11.94 42.35 13.44L42.33 13.39Z" fill="#3400C6"/>
<path d="M23.23 35.84C23.31 36.14 22.93 36.24 22.71 36.34C21.06 37.13 19.14 38.84 17.87 36.09C17.31 34.87 17.34 34.7 16.47 33.52C17.02 33.54 17.66 33.83 18.18 34C18.46 34.1 23.19 35.79 23.22 35.83L23.23 35.84Z" fill="#FFC994" stroke="#3400C6" stroke-width="0.5" stroke-miterlimit="10"/>
<path d="M33.86 29.25C33.91 29.39 33.83 30.23 33.83 30.44C33.84 31.6 34.31 33 33.39 33.96C32.59 34.78 31.12 34.44 30.08 34.46C29.86 34.46 29.51 34.46 29.36 34.28C29.55 33.48 32.87 30.2 33.85 29.25H33.86Z" fill="#FFC994" stroke="#3400C6" stroke-width="0.5" stroke-miterlimit="10"/>
<path d="M42.33 13.39C41.97 17.47 37.48 23.91 34.69 26.65C33.68 27.65 32.57 28.55 31.56 29.57C29.68 31.46 29.05 33.16 26.16 34.09C23.59 34.92 23.14 34.46 20.71 33.52C18.42 32.63 16.24 32.23 13.9 31.56C12.27 31.09 10.51 30.36 9 29.58C6.96 28.49 2.96 25.76 1.72 24.01C0.849998 22.77 1.62 21.25 2.4 20.16C3.02 20.67 3.59 21.21 4.2 21.73C7.42 24.45 10.88 26.83 14.65 28.76C15.06 28.96 15.86 29.5 16.33 29.4C16.68 29.33 16.99 29 16.89 28.62C16.77 28.17 16.24 28.01 15.87 27.85C11.83 26.04 7.32 22.72 4.05 19.82C3.56 19.38 3.08 18.91 2.51 18.57C1.69 15.47 2.11 13.11 5.36 11.79C5.89 12.61 6.37 13.47 6.9 14.31C9.75 18.73 13.24 22.56 17.28 25.94C17.6 26.2 18.3 26.91 18.7 26.93C19.28 26.95 19.59 26.27 19.21 25.85C18.8 25.39 18.23 25.02 17.76 24.61C13.74 21.1 10.4 17.34 7.54 12.79C7.1 12.09 6.45 11.41 6.45 10.54C6.47 6.99 8.89 5.27 12.27 5.3C12.79 6.07 13.22 6.9 13.7 7.7C16.4 12.24 19.23 18.02 20.72 23.16C20.88 23.7 21 24.5 21.23 25C21.47 25.52 22.32 25.6 22.48 24.98C22.6 24.48 22.01 22.74 21.83 22.18C20.23 17.3 18.19 12.93 15.7 8.44C15.03 7.23 14.26 6.08 13.59 4.87C14.68 3.45 15.76 2.2 17.52 1.63C19.04 1.14 20.82 1.6 22.24 2.23C23.83 2.96 23.08 2.69 24.69 1.94C27.74 0.479999 30.22 1.93 32.19 4.4C32.14 4.79 32.05 5.19 31.96 5.58C30.79 11.2 29.21 16.81 27.02 22.13C26.81 22.63 26.12 23.67 26.42 24.23C26.58 24.52 27.06 24.65 27.33 24.46C27.71 24.22 28.13 22.96 28.31 22.51C30.83 16.45 32.05 10.84 33.54 4.6C35.9 4.23 38.18 5.91 38.75 8.19C39.02 9.31 38.73 9.7 38.3 10.73C37.77 12.02 37.59 13.4 37.24 14.74C36.4 17.88 34.55 20.65 32.17 22.85C31.79 23.19 31.06 23.67 30.83 24.09C30.52 24.65 31.15 25.15 31.68 24.96C32.25 24.75 33.37 23.57 33.85 23.09C36.06 20.85 37.78 18.19 38.55 15.1C38.91 13.59 39.18 12.07 39.81 10.63C41.1 11.01 42.48 11.94 42.35 13.44L42.33 13.39Z" fill="url(#paint0_linear_1_65)" stroke="#3400C6" stroke-width="0.5" stroke-miterlimit="10"/>
</g>
<defs>
<linearGradient id="paint0_linear_1_65" x1="17.64" y1="1.56" x2="25.98" y2="34.16" gradientUnits="userSpaceOnUse">
<stop stop-color="#FFC994"/>
<stop offset="1" stop-color="#FFEFC1"/>
</linearGradient>
<clipPath id="clip0_1_65">
<rect width="43.69" height="38.84" fill="white"/>
</clipPath>
</defs>
</svg>
