<svg width="49" height="50" viewBox="0 0 49 50" fill="none" xmlns="http://www.w3.org/2000/svg">
<g clip-path="url(#clip0_1_2)">
<path d="M18.32 35.31L9.05 35.54C6.74 35.6 5.26 33.12 6.39 31.11L10.96 23.04L7.88 14.29C7.11 12.11 9.01 9.93 11.27 10.4L20.36 12.25L27.73 6.62C29.56 5.22 32.22 6.35 32.48 8.64L33.53 17.86L41.17 23.13C43.07 24.44 42.81 27.32 40.71 28.28L32.27 32.12L29.62 41.01C28.96 43.22 26.14 43.87 24.59 42.17L18.33 35.33L18.32 35.31Z" stroke="#3400C6" stroke-width="12" stroke-miterlimit="10"/>
<path d="M18.32 35.31L9.05 35.54C6.74 35.6 5.26 33.12 6.39 31.11L10.96 23.04L7.88 14.29C7.11 12.11 9.01 9.93 11.27 10.4L20.36 12.25L27.73 6.62C29.56 5.22 32.22 6.35 32.48 8.64L33.53 17.86L41.17 23.13C43.07 24.44 42.81 27.32 40.71 28.28L32.27 32.12L29.62 41.01C28.96 43.22 26.14 43.87 24.59 42.17L18.33 35.33L18.32 35.31Z" stroke="#F6FAFB" stroke-width="8" stroke-miterlimit="10"/>
<path d="M18.32 35.31L9.05 35.54C6.74 35.6 5.26 33.12 6.39 31.11L10.96 23.04L7.88 14.29C7.11 12.11 9.01 9.93 11.27 10.4L20.36 12.25L27.73 6.62C29.56 5.22 32.22 6.35 32.48 8.64L33.53 17.86L41.17 23.13C43.07 24.44 42.81 27.32 40.71 28.28L32.27 32.12L29.62 41.01C28.96 43.22 26.14 43.87 24.59 42.17L18.33 35.33L18.32 35.31Z" stroke="#3400C6" stroke-width="4" stroke-miterlimit="10"/>
<path d="M18.32 35.31L9.05 35.54C6.74 35.6 5.26 33.12 6.39 31.11L10.96 23.04L7.88 14.29C7.11 12.11 9.01 9.93 11.27 10.4L20.36 12.25L27.73 6.62C29.56 5.22 32.22 6.35 32.48 8.64L33.53 17.86L41.17 23.13C43.07 24.44 42.81 27.32 40.71 28.28L32.27 32.12L29.62 41.01C28.96 43.22 26.14 43.87 24.59 42.17L18.33 35.33L18.32 35.31Z" fill="#FFEFC1"/>
</g>
<defs>
<clipPath id="clip0_1_2">
<rect width="48.45" height="49.12" fill="white"/>
</clipPath>
</defs>
</svg>
