<svg width="38" height="33" viewBox="0 0 38 33" fill="none" xmlns="http://www.w3.org/2000/svg">
<g clip-path="url(#clip0_1_59)">
<path d="M27.09 32.32C25.99 32.32 24.86 32.1 23.77 31.63C21.73 30.76 20.05 28.72 19.49 26.43L19.12 24.88C19.08 24.73 19.01 24.63 18.89 24.56L11.55 20.09C11.43 20.01 11.3 19.99 11.16 20.03L9.61 20.41C7.6 20.9 5.53 20.58 3.76 19.51C0.0599999 17.24 -1.1 12.44 1.13 8.79C1.7 7.89 2.42 7.16 3.27 6.63C3.35 5.62 3.67 4.63 4.21 3.74C5.29 1.97 7 0.719999 9.02 0.229999C11.04 -0.260001 13.14 0.0599993 14.91 1.15C16.68 2.23 17.93 3.94 18.42 5.96L18.8 7.51C18.84 7.66 18.91 7.76 19.04 7.84L26.36 12.31C26.48 12.39 26.61 12.41 26.75 12.37L28.3 11.99C30.32 11.5 32.41 11.83 34.18 12.91C35.95 13.99 37.2 15.7 37.69 17.72C38.18 19.74 37.85 21.83 36.77 23.6C36.19 24.53 35.44 25.27 34.56 25.8C34.48 26.83 34.15 28 33.33 29.16C31.88 31.21 29.55 32.34 27.08 32.34L27.09 32.32Z" fill="#3400C6"/>
<path d="M27.09 30.32C26.25 30.32 25.39 30.15 24.56 29.79C22.87 29.07 21.78 27.34 21.44 25.95L21.06 24.4C20.9 23.73 20.51 23.2 19.92 22.84L12.58 18.37C12 18.02 11.34 17.91 10.68 18.07L9.13 18.45C7.64 18.81 6.09 18.57 4.78 17.78C2.04 16.1 1.18 12.54 2.83 9.82C3.43 8.87 4.29 8.19 5.3 7.85C5.13 6.78 5.35 5.7 5.92 4.76C6.72 3.45 7.98 2.52 9.49 2.15C10.99 1.78 12.55 2.02 13.87 2.83C15.19 3.63 16.11 4.9 16.48 6.4L16.86 7.95C17.02 8.61 17.42 9.15 18 9.51L25.33 13.98C25.91 14.33 26.57 14.44 27.23 14.28L28.78 13.9C30.28 13.53 31.83 13.78 33.15 14.58C34.47 15.38 35.39 16.65 35.76 18.15C36.12 19.65 35.88 21.2 35.08 22.52C34.47 23.49 33.6 24.17 32.57 24.5C32.67 25.45 32.6 26.73 31.72 27.97C30.65 29.48 28.93 30.3 27.1 30.3L27.09 30.32Z" fill="#F6FAFB"/>
<path d="M27.1 28.31C26.48 28.31 25.87 28.18 25.34 27.95C24.34 27.52 23.6 26.39 23.38 25.48L23.01 23.93C22.73 22.75 22 21.76 20.97 21.13L13.63 16.66C12.6 16.03 11.39 15.84 10.22 16.13L8.67 16.51C7.69 16.74 6.68 16.59 5.82 16.07C4.03 14.97 3.47 12.64 4.55 10.87C4.93 10.27 5.49 9.86 6.15 9.7L7.71 9.32L7.33 7.77C7.17 7.1 7.28 6.4 7.64 5.81C8.16 4.95 8.99 4.34 9.97 4.1C10.95 3.86 11.97 4.02 12.83 4.54C13.69 5.06 14.3 5.89 14.53 6.87L14.91 8.42C15.19 9.59 15.92 10.59 16.95 11.22L24.28 15.69C25.31 16.32 26.53 16.51 27.7 16.22L29.25 15.84C30.23 15.6 31.25 15.76 32.11 16.28C33.89 17.36 34.45 19.69 33.37 21.47C32.99 22.07 32.43 22.48 31.77 22.64L30.21 23.02L30.42 23.87C30.58 24.57 30.86 25.72 30.09 26.8C29.34 27.86 28.21 28.28 27.11 28.28L27.1 28.31ZM27.26 24.52V24.54C27.26 24.54 27.26 24.53 27.26 24.52ZM25.73 20.32C25.93 20.62 26.1 20.93 26.26 21.25C26.32 21.09 26.4 20.93 26.5 20.78C26.59 20.63 26.69 20.49 26.81 20.36C26.45 20.36 26.09 20.36 25.74 20.32H25.73ZM11.29 12.01C11.59 12.01 11.88 12.03 12.17 12.06C11.97 11.76 11.8 11.45 11.64 11.12C11.58 11.28 11.5 11.44 11.4 11.59C11.31 11.74 11.2 11.88 11.09 12.02C11.15 12.02 11.22 12.02 11.29 12.02V12.01Z" fill="#3400C6"/>
<path d="M26.12 26.12C25.85 26 25.43 25.48 25.32 25.02L24.95 23.47C24.54 21.78 23.49 20.34 22.01 19.44L14.67 14.97C13.18 14.06 11.43 13.79 9.74 14.2L8.19 14.58C7.73 14.69 7.25 14.62 6.84 14.37C6 13.86 5.74 12.76 6.25 11.92C6.36 11.75 6.51 11.68 6.62 11.65L8.97 11.08C9.61 10.93 10 10.29 9.84 9.65L9.27 7.31C9.24 7.2 9.24 7.03 9.34 6.86C9.85 6.02 10.95 5.76 11.78 6.27C12.18 6.52 12.47 6.91 12.58 7.37L12.96 8.92C13.37 10.61 14.42 12.04 15.9 12.95L23.23 17.42C24.72 18.33 26.47 18.6 28.16 18.19L29.71 17.81C30.17 17.7 30.65 17.77 31.06 18.02C31.9 18.53 32.16 19.63 31.65 20.46C31.54 20.63 31.39 20.7 31.28 20.73L28.93 21.3C28.29 21.45 27.9 22.09 28.06 22.73L28.46 24.38C28.61 25.01 28.67 25.36 28.44 25.69C27.87 26.49 26.78 26.41 26.12 26.13V26.12Z" fill="#F6FAFB"/>
</g>
<defs>
<clipPath id="clip0_1_59">
<rect width="37.92" height="32.32" fill="white"/>
</clipPath>
</defs>
</svg>
