<svg width="35" height="30" viewBox="0 0 35 30" fill="none" xmlns="http://www.w3.org/2000/svg">
<g clip-path="url(#clip0_7_16)">
<path d="M32.66 11.05C32.94 9.71999 32.77 8.48999 32.02 7.33999C31.32 6.25999 29.81 5.11999 28.43 5.27999C27.3 2.38999 24.5 0.729995 21.48 1.79999C20.42 0.679995 18.58 -0.100005 17.02 0.0099946C15.53 0.0499946 14.18 0.839995 13.09 1.79999C9.81 0.999995 7.27 1.83999 6.26 5.27999C3.1 5.21999 1.36 8.15999 1.79 11.05C-1.6 13.83 0.47 16.13 2.65 18.77C4.13 20.56 5.86 22.05 7.81 23.3C8.13 23.5 8.52 23.65 8.74 23.97C9.58 25.21 9.63 25.77 9.9 27.11C10.07 27.95 10.56 28.68 11.33 29.08C12.59 29.76 15.63 28.47 17.59 28.6C18.4 28.63 19.2 28.71 19.98 28.88C21.37 29.17 22.6 29.83 23.82 28.68C24.97 27.61 24.51 25.47 25.77 23.95C26.08 23.57 26.58 23.34 26.98 23.07C29.56 21.34 33.36 17.84 34.41 14.89C35.01 13.23 33.89 11.95 32.66 11.04V11.05ZM14.42 27.92C13.03 28.2 11.28 29.1 10.86 26.81C10.68 25.79 10.73 25.67 10.31 24.63C10.71 24.75 11.14 25.09 11.49 25.32C11.68 25.45 14.88 27.61 14.9 27.65C14.9 27.89 14.6 27.89 14.41 27.93L14.42 27.92ZM23.84 25.64C23.63 26.51 23.71 27.64 22.84 28.18C22.09 28.64 21.05 28.11 20.27 27.92C20.1 27.87 19.85 27.81 19.77 27.64C20.06 27.08 23.16 25.26 24.08 24.74C24.08 24.86 23.87 25.47 23.83 25.63L23.84 25.64ZM33.44 14.54C32.39 17.51 27.82 21.47 25.21 22.97C24.26 23.52 23.26 23.98 22.32 24.55C20.56 25.61 19.76 26.75 17.43 26.89C15.36 27.02 15.11 26.59 13.48 25.42C11.94 24.32 10.39 23.6 8.77 22.66C7.64 22 6.47 21.12 5.49 20.25C4.18 19.05 1.71 16.25 1.12 14.71C0.71 13.62 1.57 12.63 2.36 11.97C2.73 12.47 3.05 12.98 3.41 13.48C5.29 16.12 7.42 18.56 9.87 20.72C10.14 20.95 10.63 21.5 11 21.52C11.28 21.54 11.57 21.35 11.57 21.04C11.57 20.68 11.2 20.46 10.96 20.27C8.29 18.15 5.56 14.81 3.67 12.02C3.39 11.6 3.12 11.16 2.76 10.79C2.74 8.31999 3.5 6.63999 6.18 6.27999C6.42 6.99999 6.61 7.72999 6.85 8.44999C8.13 12.29 10.01 15.82 12.37 19.11C12.56 19.37 12.95 20.03 13.24 20.12C13.67 20.25 14.03 19.8 13.83 19.41C13.61 18.99 13.26 18.6 12.99 18.21C10.66 14.82 8.89 11.38 7.62 7.43999C7.43 6.82999 7.07 6.19999 7.23 5.54999C7.92 2.90999 10.06 2.07999 12.57 2.74999C12.81 3.41999 12.97 4.12999 13.18 4.80999C14.33 8.70999 15.34 13.56 15.46 17.68C15.48 18.11 15.41 18.74 15.49 19.15C15.57 19.58 16.19 19.8 16.43 19.37C16.61 19.02 16.5 17.61 16.48 17.16C16.21 13.21 15.53 9.55999 14.53 5.73999C14.26 4.70999 13.91 3.69999 13.64 2.67999C14.72 1.82999 15.77 1.09999 17.19 1.00999C18.42 0.939995 19.66 1.61999 20.59 2.35999C21.64 3.19999 21.13 2.85999 22.47 2.60999C25.02 2.10999 26.6 3.65999 27.6 5.87999C27.49 6.15999 27.34 6.43999 27.21 6.70999C25.26 10.68 23.02 14.56 20.37 18.11C20.12 18.44 19.41 19.09 19.53 19.56C19.59 19.81 19.92 19.99 20.16 19.91C20.49 19.8 21.04 18.95 21.26 18.64C24.3 14.6 26.28 10.65 28.58 6.26999C30.42 6.43999 31.79 8.12999 31.78 9.93999C31.78 10.83 31.48 11.06 30.96 11.75C30.32 12.61 29.92 13.6 29.4 14.54C28.17 16.72 26.26 18.44 24.07 19.62C23.72 19.8 23.09 20.02 22.83 20.29C22.49 20.65 22.87 21.14 23.3 21.1C23.77 21.05 24.82 20.38 25.27 20.12C27.34 18.87 29.14 17.21 30.3 15.06C30.86 14 31.35 12.92 32.09 11.97C32.98 12.5 33.83 13.46 33.45 14.55L33.44 14.54Z" fill="#3400C6"/>
<path d="M14.91 27.65C14.91 27.89 14.61 27.89 14.42 27.93C13.03 28.21 11.28 29.11 10.86 26.82C10.68 25.8 10.73 25.68 10.31 24.64C10.71 24.76 11.14 25.1 11.49 25.33C11.68 25.46 14.88 27.62 14.9 27.66L14.91 27.65Z" fill="#FFC994" stroke="#3400C6" stroke-width="0.5" stroke-miterlimit="10"/>
<path d="M24.09 24.76C24.09 24.87 23.88 25.48 23.84 25.64C23.63 26.51 23.71 27.64 22.84 28.18C22.09 28.64 21.05 28.11 20.27 27.92C20.1 27.87 19.85 27.81 19.77 27.64C20.06 27.08 23.16 25.26 24.08 24.74L24.09 24.76Z" fill="#FFC994" stroke="#3400C6" stroke-width="0.5" stroke-miterlimit="10"/>
<path d="M33.44 14.54C32.39 17.51 27.82 21.47 25.21 22.97C24.26 23.52 23.26 23.98 22.32 24.55C20.56 25.61 19.76 26.75 17.43 26.89C15.36 27.02 15.11 26.59 13.48 25.42C11.94 24.32 10.39 23.6 8.77 22.66C7.64 22 6.47 21.12 5.49 20.25C4.18 19.05 1.71 16.25 1.12 14.71C0.710003 13.62 1.57 12.63 2.36 11.97C2.73 12.47 3.05 12.98 3.41 13.48C5.29 16.12 7.42 18.56 9.87 20.72C10.14 20.95 10.63 21.5 11 21.52C11.28 21.54 11.57 21.35 11.57 21.04C11.57 20.68 11.2 20.46 10.96 20.27C8.29 18.15 5.56 14.81 3.67 12.02C3.39 11.6 3.12 11.16 2.76 10.79C2.74 8.31999 3.5 6.63999 6.18 6.27999C6.42 6.99999 6.61 7.72999 6.85 8.44999C8.13 12.29 10.01 15.82 12.37 19.11C12.56 19.37 12.95 20.03 13.24 20.12C13.67 20.25 14.03 19.8 13.83 19.41C13.61 18.99 13.26 18.6 12.99 18.21C10.66 14.82 8.89 11.38 7.62 7.43999C7.43 6.82999 7.07 6.19999 7.23 5.54999C7.92 2.90999 10.06 2.07999 12.57 2.74999C12.81 3.41999 12.97 4.12999 13.18 4.80999C14.33 8.70999 15.34 13.56 15.46 17.68C15.48 18.11 15.41 18.74 15.49 19.15C15.57 19.58 16.19 19.8 16.43 19.37C16.61 19.02 16.5 17.61 16.48 17.16C16.21 13.21 15.53 9.55999 14.53 5.73999C14.26 4.70999 13.91 3.69999 13.64 2.67999C14.72 1.82999 15.77 1.09999 17.19 1.00999C18.42 0.939993 19.66 1.61999 20.59 2.35999C21.64 3.19999 21.13 2.85999 22.47 2.60999C25.02 2.10999 26.6 3.65999 27.6 5.87999C27.49 6.15999 27.34 6.43999 27.21 6.70999C25.26 10.68 23.02 14.56 20.37 18.11C20.12 18.44 19.41 19.09 19.53 19.56C19.59 19.81 19.92 19.99 20.16 19.91C20.49 19.8 21.04 18.95 21.26 18.64C24.3 14.6 26.28 10.65 28.58 6.26999C30.42 6.43999 31.79 8.12999 31.78 9.93999C31.78 10.83 31.48 11.06 30.96 11.75C30.32 12.61 29.92 13.6 29.4 14.54C28.17 16.72 26.26 18.44 24.07 19.62C23.72 19.8 23.09 20.02 22.83 20.29C22.49 20.65 22.87 21.14 23.3 21.1C23.77 21.05 24.82 20.38 25.27 20.12C27.34 18.87 29.14 17.21 30.3 15.06C30.86 14 31.35 12.92 32.09 11.97C32.98 12.5 33.83 13.46 33.45 14.55L33.44 14.54Z" fill="url(#paint0_linear_7_16)" stroke="#3400C6" stroke-width="0.5" stroke-miterlimit="10"/>
</g>
<defs>
<linearGradient id="paint0_linear_7_16" x1="17.2767" y1="0.998179" x2="17.273" y2="26.9159" gradientUnits="userSpaceOnUse">
<stop stop-color="#FFC994"/>
<stop offset="1" stop-color="#FFEFC1"/>
</linearGradient>
<clipPath id="clip0_7_16">
<rect width="34.58" height="29.34" fill="white"/>
</clipPath>
</defs>
</svg>
