<svg width="52" height="4" viewBox="0 0 52 4" fill="none" xmlns="http://www.w3.org/2000/svg">
<g clip-path="url(#clip0_1_120)">
<path d="M1.5 2.99997C1.3 2.99997 1.11 2.96997 0.93 2.88997C0.75 2.81997 0.58 2.70997 0.44 2.56997C0.16 2.27997 0 1.90997 0 1.49997C0 1.08997 0.16 0.729974 0.44 0.439974C0.51 0.369974 0.59 0.309974 0.67 0.259974C0.75 0.199974 0.84 0.159974 0.93 0.119974C1.02 0.0799735 1.11 0.0499735 1.21 0.0299735C1.69 -0.0600265 2.21 0.0999735 2.56 0.439974C2.63 0.509974 2.7 0.589974 2.75 0.669974C2.8 0.749974 2.85 0.839974 2.89 0.929974C2.93 1.01997 2.95 1.11997 2.97 1.20997C2.99 1.30997 3 1.40997 3 1.49997C3 1.90997 2.85 2.27997 2.56 2.56997C2.27 2.85997 1.9 2.99997 1.5 2.99997Z" fill="#3400C6"/>
<path d="M42.78 1.51C42.78 0.68 43.45 0 44.28 0C45.1 0 45.78 0.68 45.78 1.51C45.78 2.33 45.1 3.01 44.28 3.01C43.45 3.01 42.78 2.33 42.78 1.51ZM36.66 1.51C36.66 0.68 37.34 0 38.16 0C38.99 0 39.67 0.68 39.67 1.51C39.67 2.33 38.99 3.01 38.16 3.01C37.34 3.01 36.66 2.33 36.66 1.51ZM30.55 1.51C30.55 0.68 31.23 0 32.06 0C32.88 0 33.56 0.68 33.56 1.51C33.56 2.33 32.88 3.01 32.06 3.01C31.23 3.01 30.55 2.33 30.55 1.51ZM24.44 1.51C24.44 0.68 25.12 0 25.94 0C26.77 0 27.44 0.68 27.44 1.51C27.44 2.33 26.77 3.01 25.94 3.01C25.12 3.01 24.44 2.33 24.44 1.51ZM18.33 1.51C18.33 0.68 19 0 19.83 0C20.66 0 21.33 0.68 21.33 1.51C21.33 2.33 20.66 3.01 19.83 3.01C19 3.01 18.33 2.33 18.33 1.51ZM12.22 1.51C12.22 0.68 12.89 0 13.72 0C14.55 0 15.22 0.68 15.22 1.51C15.22 2.33 14.55 3.01 13.72 3.01C12.89 3.01 12.22 2.33 12.22 1.51ZM6.11 1.51C6.11 0.68 6.78 0 7.61 0C8.44 0 9.11 0.68 9.11 1.51C9.11 2.33 8.44 3.01 7.61 3.01C6.78 3.01 6.11 2.33 6.11 1.51Z" fill="#3400C6"/>
<path d="M50.39 3.00001C50.19 3.00001 49.99 2.97001 49.81 2.89001C49.63 2.82001 49.47 2.71001 49.33 2.57001C49.04 2.28001 48.89 1.91001 48.89 1.50001C48.89 1.41001 48.89 1.31001 48.92 1.21001C48.94 1.12001 48.96 1.02001 49 0.930007C49.04 0.840007 49.09 0.750007 49.14 0.670007C49.19 0.590007 49.26 0.510007 49.33 0.440007C49.39 0.370007 49.47 0.310007 49.55 0.260007C49.63 0.200007 49.72 0.160007 49.81 0.120007C49.9 0.0800073 50 0.0500073 50.09 0.0300073C50.29 7.32392e-06 50.49 7.32392e-06 50.68 0.0300073C50.78 0.0500073 50.87 0.0800073 50.96 0.120007C51.05 0.160007 51.14 0.200007 51.22 0.260007C51.3 0.310007 51.38 0.370007 51.45 0.440007C51.52 0.510007 51.58 0.590007 51.63 0.670007C51.69 0.750007 51.73 0.840007 51.77 0.930007C51.81 1.02001 51.84 1.12001 51.86 1.21001C51.88 1.31001 51.89 1.41001 51.89 1.50001C51.89 1.91001 51.73 2.28001 51.45 2.57001C51.31 2.71001 51.14 2.82001 50.96 2.89001C50.78 2.97001 50.59 3.00001 50.39 3.00001Z" fill="#3400C6"/>
</g>
<defs>
<clipPath id="clip0_1_120">
<rect width="51.89" height="3.01" fill="white"/>
</clipPath>
</defs>
</svg>
