<svg width="128" height="131" viewBox="0 0 128 131" fill="none" xmlns="http://www.w3.org/2000/svg">
<g clip-path="url(#clip0_1_101)">
<path d="M46.7854 54.7453C55.4349 51.9299 59.0862 39.3236 54.9409 26.5884C50.7956 13.8531 40.4234 5.81151 31.7739 8.6269C23.1245 11.4423 19.4731 24.0486 23.6184 36.7838C27.7637 49.519 38.1359 57.5607 46.7854 54.7453Z" fill="#3400C6"/>
<path d="M30.2231 85.0296C36.5596 80.178 35.9043 68.6803 28.7595 59.3488C21.6148 50.0174 10.6861 46.3857 4.34963 51.2373C-1.98683 56.0889 -1.33155 67.5866 5.81322 76.918C12.958 86.2495 23.8867 89.8811 30.2231 85.0296Z" fill="#3400C6"/>
<path d="M79.9685 48.4301C89.0474 47.8717 95.7408 36.5823 94.9185 23.2147C94.0962 9.84703 86.0697 -0.536846 76.9907 0.0216289C67.9118 0.580103 61.2184 11.8694 62.0407 25.2371C62.8629 38.6047 70.8895 48.9886 79.9685 48.4301Z" fill="#3400C6"/>
<path d="M126.223 54.0076C129.443 42.7046 125.831 31.7694 118.156 29.583C110.481 27.3967 101.649 34.7872 98.4291 46.0902C95.2094 57.3932 98.8212 68.3284 106.496 70.5147C114.172 72.7011 123.004 65.3106 126.223 54.0076Z" fill="#3400C6"/>
<path d="M109.66 81.11C106.95 79.51 103.97 78.37 101.29 76.72C95.12 72.93 90.69 70.73 86.23 65.07C81.78 59.41 75.98 53.7 68.95 51.79C68.08 51.55 67.44 51.47 66.51 51.46C63.45 51.44 60.42 52.19 57.72 53.64C57.08 53.98 56.51 54.33 56.05 54.66C50.09 58.84 47.15 66 45.09 72.9C43.03 79.8 41.69 83.1 37.34 88.89C35.45 91.41 33.1 93.56 31.17 96.04C26.59 101.94 24.56 109.92 26.7 117C28.83 124.09 35.43 129.87 42.94 130.31C47.81 130.6 52.58 128.77 56.85 126.43C61.13 124.09 65.09 121.21 69.48 119.09C71.2 118.26 74.04 117.24 76.17 116.99C78.72 116.58 80.66 116.48 82.49 116.62C87.35 116.98 92.1 118.2 96.94 118.81C101.78 119.42 106.88 119.36 111.31 117.31C118.13 114.14 122.14 106.34 121.53 98.97C120.91 91.6 116.1 84.92 109.67 81.12L109.66 81.11Z" fill="#3400C6"/>
</g>
<defs>
<clipPath id="clip0_1_101">
<rect width="127.4" height="130.35" fill="white"/>
</clipPath>
</defs>
</svg>
