<svg width="149" height="158" viewBox="0 0 149 158" fill="none" xmlns="http://www.w3.org/2000/svg">
<g clip-path="url(#clip0_1_108)">
<path d="M85.86 72.9C82.08 67.18 85.29 64.36 87.12 58.62C90.46 48.12 87.96 38.46 78.72 28.8C69.57 19.23 76.49 5.54003 76.62 5.28003C76.53 5.34003 76.44 5.39003 76.35 5.45003C62.34 14.29 62.35 28.82 62.58 32.16C62.73 34.31 66.55 40.07 69.28 43.94C70.48 45.64 71.1 47.65 71.1 49.69C71.1 50.57 70.99 51.46 70.75 52.33C69.49 56.95 57.73 66.61 64.87 78.34C72.01 90.07 72.74 90.15 67.81 101.49C60.25 118.89 81.25 129.1 81.25 129.1C81.25 129.1 80.69 128.64 79.89 127.8C76.27 124.06 67.67 112.87 82.09 102.61C94.78 93.59 89.53 78.45 85.87 72.91L85.86 72.9Z" fill="#3400C6"/>
<path d="M119.75 56.51C115.7 47.83 122.65 38.67 121.23 33.18C118.02 20.73 112.41 22.43 110.73 16.13C109.05 9.82999 109.89 3.76999 111.15 -0.0100098C111.15 -0.0100098 110.77 0.15999 110.16 0.51999C106.7 2.58999 95.73 10.95 103.59 30.23C103.59 30.23 105.69 35.27 100.81 42.41C93.29 53.42 104.19 60 103.47 64.62C102.76 69.24 97.18 74.48 98.02 80.39C98.86 86.3 103.22 87.3 96.44 97.97C93.44 102.69 80.53 107.63 82.72 127.19C82.79 127.86 82.89 128.55 83 129.25C83 129.25 84.68 115.83 94.76 113.98C104.84 112.13 111.89 109.32 115.76 101.64C119.54 94.15 113.24 84.64 117.44 78.49C120.62 73.84 125.2 68.2 119.74 56.49L119.75 56.51Z" fill="#3400C6"/>
<path d="M142.89 97.99C144.15 92.98 151.19 86.58 148.09 78.44C144.99 70.3 142.05 70.72 142.05 63.58C142.05 56.44 144.57 56.02 140.37 45.94C137.28 38.54 136.47 36.57 136.25 36.05L136.17 35.86C136.17 35.86 137.43 44.68 134.49 50.56C131.55 56.44 129.03 63.16 131.55 69.88C134.07 76.6 135.75 84.52 132.39 89.59C129.03 94.66 125.25 99.78 125.25 110.66C125.25 121.54 111.49 127.59 107.24 127.3C103.08 127.01 94.53 127.61 88.27 139.56C88.13 139.82 88 140.08 87.87 140.35C87.87 140.35 103.83 134.01 113.07 136.18C122.31 138.35 121.89 131.63 129.03 128.69C136.17 125.75 141.63 125.22 142.89 119.39C144.15 113.57 141.63 103 142.89 97.99Z" fill="#3400C6"/>
<path d="M75.56 157.26C72.49 155.4 58.73 146.48 57.45 135.77C56 123.7 61.84 119.08 57.45 109.84C53.06 100.6 51.8 96.4 53.9 90.1L54.28 88.95C55.52 85.24 55.41 81.23 53.97 77.59C53.07 75.33 51.91 72.91 50.54 71.19C47.18 66.99 43.82 49.77 47.18 38.84C47.18 38.84 46.82 39.36 46.23 40.27C43.23 44.92 34.29 59.81 37.1 68.25C40.46 78.33 41.06 75.39 36.56 87.99C32.06 100.59 41.55 108.38 42.01 111.43C42.76 116.45 38.27 118.06 43.4 134.66C46.81 145.69 62.07 152.95 72.12 156.27L76.16 157.61C76.16 157.61 75.94 157.49 75.56 157.25V157.26Z" fill="#3400C6"/>
<path d="M35.71 122.59C34.68 118.14 39.07 101.73 28.43 93.39C22.42 88.68 9.66999 88.06 17.51 60.06C17.51 60.06 17.37 60.16 17.11 60.36C16.17 61.08 13.69 63.05 10.89 65.78C6.08999 70.5 0.369995 77.5 0.0199945 84.37C0.0199945 84.48 0.0199945 84.59 0.00999451 84.7C0.00999451 84.81 0.00999451 84.92 0.00999451 85.03C0.00999451 85.65 0.0499945 86.26 0.149995 86.87C2.10999 99.55 9.38999 101.63 12.47 104.65C15.55 107.67 14.71 119.83 15.83 123.69C16.67 126.58 15.83 134.9 35.66 140.76C42.34 142.73 51.37 144.43 63.59 145.54C63.59 145.54 63.61 145.54 63.62 145.54C63.62 145.54 39.08 137.14 35.72 122.59H35.71Z" fill="#3400C6"/>
</g>
<defs>
<clipPath id="clip0_1_108">
<rect width="148.87" height="157.62" fill="white"/>
</clipPath>
</defs>
</svg>
