<svg width="32" height="32" viewBox="0 0 32 32" fill="none" xmlns="http://www.w3.org/2000/svg">
<g clip-path="url(#clip0_1_8)">
<path d="M19.03 21.23L15.89 25.01C15.11 25.95 13.6 25.68 13.19 24.53L11.56 19.89L6.98999 18.08C5.84999 17.63 5.63999 16.11 6.60999 15.37L10.51 12.38L10.82 7.47C10.9 6.25 12.28 5.58 13.28 6.28L17.33 9.07L22.09 7.85C23.27 7.55 24.34 8.65 23.99 9.82L22.59 14.53L25.22 18.68C25.87 19.71 25.15 21.06 23.93 21.09L19.02 21.21L19.03 21.23Z" stroke="#3400C6" stroke-width="12" stroke-miterlimit="10"/>
<path d="M19.03 21.23L15.89 25.01C15.11 25.95 13.6 25.68 13.19 24.53L11.56 19.89L6.98999 18.08C5.84999 17.63 5.63999 16.11 6.60999 15.37L10.51 12.38L10.82 7.47C10.9 6.25 12.28 5.58 13.28 6.28L17.33 9.07L22.09 7.85C23.27 7.55 24.34 8.65 23.99 9.82L22.59 14.53L25.22 18.68C25.87 19.71 25.15 21.06 23.93 21.09L19.02 21.21L19.03 21.23Z" stroke="#F6FAFB" stroke-width="8" stroke-miterlimit="10"/>
<path d="M19.03 21.23L15.89 25.01C15.11 25.95 13.6 25.68 13.19 24.53L11.56 19.89L6.98999 18.08C5.84999 17.63 5.63999 16.11 6.60999 15.37L10.51 12.38L10.82 7.47C10.9 6.25 12.28 5.58 13.28 6.28L17.33 9.07L22.09 7.85C23.27 7.55 24.34 8.65 23.99 9.82L22.59 14.53L25.22 18.68C25.87 19.71 25.15 21.06 23.93 21.09L19.02 21.21L19.03 21.23Z" stroke="#3400C6" stroke-width="4" stroke-miterlimit="10"/>
<path d="M19.03 21.23L15.89 25.01C15.11 25.95 13.6 25.68 13.19 24.53L11.56 19.89L6.98999 18.08C5.84999 17.63 5.63999 16.11 6.60999 15.37L10.51 12.38L10.82 7.47C10.9 6.25 12.28 5.58 13.28 6.28L17.33 9.07L22.09 7.85C23.27 7.55 24.34 8.65 23.99 9.82L22.59 14.53L25.22 18.68C25.87 19.71 25.15 21.06 23.93 21.09L19.02 21.21L19.03 21.23Z" fill="#FFEFC1"/>
</g>
<defs>
<clipPath id="clip0_1_8">
<rect width="31.48" height="31.58" fill="white"/>
</clipPath>
</defs>
</svg>
