<svg width="37" height="33" viewBox="0 0 37 33" fill="none" xmlns="http://www.w3.org/2000/svg">
<g clip-path="url(#clip0_1_83)">
<path d="M33.61 7.73C33.54 6.26 33.04 5.01 31.94 4.01C30.92 3.06 29.02 2.27 27.61 2.8C25.65 0.0699983 22.26 -0.930002 19.37 1.01C17.95 0.119998 15.8 -0.200002 14.19 0.329998C12.64 0.769998 11.42 1.97 10.54 3.27C6.87 3.31 4.44 4.87 4.3 8.76C0.98 9.54 -0.0600001 13.1 1.17 16.03C-1.65 19.86 1.15 21.73 4.15 23.91C6.18 25.39 8.41 26.5 10.79 27.29C11.18 27.42 11.63 27.47 11.94 27.74C13.16 28.82 13.36 29.39 14 30.73C14.41 31.57 15.12 32.2 16.03 32.42C17.53 32.8 20.39 30.62 22.48 30.24C23.34 30.05 24.2 29.92 25.07 29.9C26.61 29.83 28.08 30.19 29.06 28.65C29.98 27.21 28.92 25.09 29.83 23.16C30.06 22.68 30.52 22.31 30.87 21.91C33.11 19.39 36.17 14.7 36.48 11.32C36.66 9.41 35.14 8.37 33.6 7.74L33.61 7.73ZM18.98 30.37C17.6 31.03 16 32.46 14.94 30.16C14.47 29.14 14.5 29 13.77 28.01C14.23 28.03 14.76 28.27 15.2 28.42C15.44 28.5 19.39 29.92 19.41 29.95C19.47 30.2 19.16 30.28 18.97 30.37H18.98ZM28.27 25.43C28.28 26.4 28.67 27.57 27.9 28.37C27.23 29.05 26 28.77 25.13 28.79C24.94 28.79 24.66 28.79 24.53 28.64C24.69 27.97 27.46 25.23 28.28 24.43H28.29C28.33 24.55 28.26 25.26 28.27 25.43ZM35.37 11.19C35.07 14.6 31.32 19.98 28.99 22.27C28.14 23.1 27.22 23.85 26.38 24.71C24.81 26.29 24.28 27.71 21.87 28.48C19.72 29.17 19.35 28.79 17.32 28C15.4 27.26 13.58 26.92 11.63 26.36C10.27 25.97 8.79 25.36 7.54 24.7C5.84 23.79 2.49 21.51 1.46 20.05C0.73 19.01 1.37 17.74 2.02 16.83C2.54 17.25 3.01 17.71 3.53 18.14C6.22 20.41 9.11 22.41 12.27 24.01C12.61 24.18 13.28 24.63 13.67 24.55C13.96 24.5 14.22 24.21 14.14 23.9C14.04 23.52 13.6 23.39 13.29 23.26C9.91 21.75 6.14 18.97 3.41 16.55C3 16.18 2.6 15.79 2.12 15.5C1.44 12.91 1.79 10.94 4.5 9.83C4.94 10.52 5.34 11.24 5.79 11.94C8.17 15.64 11.09 18.84 14.46 21.66C14.73 21.88 15.31 22.47 15.65 22.49C16.14 22.51 16.39 21.94 16.08 21.59C15.74 21.21 15.26 20.89 14.87 20.55C11.51 17.62 8.72 14.48 6.33 10.67C5.96 10.09 5.42 9.52 5.42 8.79C5.43 5.83 7.46 4.38 10.28 4.41C10.71 5.05 11.07 5.75 11.47 6.42C13.72 10.21 16.09 15.04 17.33 19.34C17.47 19.79 17.57 20.46 17.75 20.88C17.95 21.31 18.66 21.38 18.79 20.86C18.89 20.44 18.39 18.99 18.24 18.52C16.9 14.44 15.19 10.79 13.11 7.04C12.55 6.03 11.91 5.07 11.35 4.06C12.26 2.87 13.16 1.83 14.63 1.35C15.9 0.939998 17.39 1.32 18.57 1.85C19.9 2.46 19.27 2.23 20.61 1.6C23.16 0.379998 25.23 1.59 26.88 3.65C26.84 3.98 26.76 4.31 26.69 4.63C25.71 9.33 24.39 14.01 22.56 18.46C22.39 18.87 21.81 19.75 22.06 20.21C22.19 20.45 22.59 20.56 22.82 20.41C23.14 20.21 23.49 19.16 23.64 18.78C25.75 13.72 26.77 9.03 28.01 3.81C29.99 3.5 31.89 4.9 32.36 6.81C32.59 7.75 32.34 8.07 31.99 8.93C31.55 10.01 31.4 11.16 31.1 12.28C30.39 14.91 28.85 17.22 26.86 19.06C26.54 19.35 25.94 19.75 25.74 20.1C25.48 20.57 26.01 20.99 26.45 20.82C26.93 20.65 27.86 19.66 28.26 19.26C30.1 17.39 31.55 15.16 32.18 12.58C32.48 11.32 32.7 10.05 33.23 8.85C34.31 9.17 35.46 9.94 35.35 11.2L35.37 11.19Z" fill="#3400C6"/>
<path d="M19.41 29.95C19.47 30.2 19.16 30.28 18.97 30.37C17.59 31.03 15.99 32.46 14.93 30.16C14.46 29.14 14.49 29 13.76 28.01C14.22 28.03 14.75 28.27 15.19 28.42C15.43 28.5 19.38 29.92 19.4 29.95H19.41Z" fill="#FFC994" stroke="#3400C6" stroke-width="0.5" stroke-miterlimit="10"/>
<path d="M28.29 24.44C28.33 24.55 28.26 25.26 28.27 25.43C28.28 26.4 28.67 27.57 27.9 28.37C27.23 29.05 26 28.77 25.13 28.79C24.94 28.79 24.66 28.79 24.53 28.64C24.69 27.97 27.46 25.23 28.28 24.43H28.29V24.44Z" fill="#FFC994" stroke="#3400C6" stroke-width="0.5" stroke-miterlimit="10"/>
<path d="M35.37 11.19C35.07 14.6 31.32 19.98 28.99 22.27C28.14 23.1 27.22 23.85 26.38 24.71C24.81 26.29 24.28 27.71 21.87 28.48C19.72 29.17 19.35 28.79 17.32 28C15.4 27.26 13.58 26.92 11.63 26.36C10.27 25.97 8.79 25.36 7.54 24.7C5.84 23.79 2.49 21.51 1.46 20.05C0.729998 19.01 1.37 17.74 2.02 16.83C2.54 17.25 3.01 17.71 3.53 18.14C6.22 20.41 9.11 22.41 12.27 24.01C12.61 24.18 13.28 24.63 13.67 24.55C13.96 24.5 14.22 24.21 14.14 23.9C14.04 23.52 13.6 23.39 13.29 23.26C9.91 21.75 6.14 18.97 3.41 16.55C3 16.18 2.6 15.79 2.12 15.5C1.44 12.91 1.79 10.94 4.5 9.83C4.94 10.52 5.34 11.24 5.79 11.94C8.17 15.64 11.09 18.84 14.46 21.66C14.73 21.88 15.31 22.47 15.65 22.49C16.14 22.51 16.39 21.94 16.08 21.59C15.74 21.21 15.26 20.89 14.87 20.55C11.51 17.62 8.72 14.48 6.33 10.67C5.96 10.09 5.42 9.52 5.42 8.79C5.43 5.83 7.46 4.38 10.28 4.41C10.71 5.05 11.07 5.75 11.47 6.42C13.72 10.21 16.09 15.04 17.33 19.34C17.47 19.79 17.57 20.46 17.75 20.88C17.95 21.31 18.66 21.38 18.79 20.86C18.89 20.44 18.39 18.99 18.24 18.52C16.9 14.44 15.19 10.79 13.11 7.04C12.55 6.03 11.91 5.07 11.35 4.06C12.26 2.87 13.16 1.83 14.63 1.35C15.9 0.939998 17.39 1.32 18.57 1.85C19.9 2.46 19.27 2.23 20.61 1.6C23.16 0.379998 25.23 1.59 26.88 3.65C26.84 3.98 26.76 4.31 26.69 4.63C25.71 9.33 24.39 14.01 22.56 18.46C22.39 18.87 21.81 19.75 22.06 20.21C22.19 20.45 22.59 20.56 22.82 20.41C23.14 20.21 23.49 19.16 23.64 18.78C25.75 13.72 26.77 9.03 28.01 3.81C29.99 3.5 31.89 4.9 32.36 6.81C32.59 7.75 32.34 8.07 31.99 8.93C31.55 10.01 31.4 11.16 31.1 12.28C30.39 14.91 28.85 17.22 26.86 19.06C26.54 19.35 25.94 19.75 25.74 20.1C25.48 20.57 26.01 20.99 26.45 20.82C26.93 20.65 27.86 19.66 28.26 19.26C30.1 17.39 31.55 15.16 32.18 12.58C32.48 11.32 32.7 10.05 33.23 8.85C34.31 9.17 35.46 9.94 35.35 11.2L35.37 11.19Z" fill="url(#paint0_linear_1_83)" stroke="#3400C6" stroke-width="0.5" stroke-miterlimit="10"/>
</g>
<defs>
<linearGradient id="paint0_linear_1_83" x1="14.74" y1="1.31" x2="21.71" y2="28.54" gradientUnits="userSpaceOnUse">
<stop stop-color="#FFC994"/>
<stop offset="1" stop-color="#FFEFC1"/>
</linearGradient>
<clipPath id="clip0_1_83">
<rect width="36.5" height="32.46" fill="white"/>
</clipPath>
</defs>
</svg>
