<svg width="37" height="33" viewBox="0 0 37 33" fill="none" xmlns="http://www.w3.org/2000/svg">
<g clip-path="url(#clip0_1_71)">
<path d="M35.44 15.2C36.02 13.85 36.11 12.5 35.56 11.12C35.05 9.82 33.69 8.28 32.19 8.15C31.62 4.83 29 2.46 25.56 2.95C24.67 1.53 22.88 0.299999 21.2 0.0799994C19.61 -0.200001 18 0.349999 16.64 1.13C13.32 -0.440001 10.45 -0.100001 8.63 3.34C5.29 2.59 2.8 5.34 2.63 8.51C-1.58 10.73 0.120001 13.62 1.87 16.9C3.05 19.12 4.57 21.09 6.37 22.84C6.67 23.12 7.05 23.36 7.21 23.75C7.84 25.25 7.77 25.85 7.76 27.34C7.76 28.28 8.12 29.15 8.85 29.75C10.04 30.74 13.56 30.03 15.61 30.6C16.46 30.8 17.29 31.07 18.09 31.42C19.51 32.03 20.67 32.99 22.22 32.04C23.67 31.15 23.65 28.78 25.31 27.44C25.72 27.11 26.3 26.97 26.79 26.77C29.91 25.49 34.7 22.59 36.46 19.69C37.45 18.05 36.54 16.46 35.43 15.21L35.44 15.2ZM12.39 29.18C10.86 29.18 8.8 29.76 8.85 27.23C8.88 26.11 8.96 25.99 8.74 24.79C9.14 25 9.52 25.46 9.85 25.78C10.03 25.96 12.96 28.95 12.97 29C12.92 29.25 12.6 29.19 12.39 29.19V29.18ZM22.9 28.8C22.49 29.68 22.33 30.9 21.29 31.28C20.39 31.6 19.4 30.81 18.61 30.45C18.44 30.37 18.19 30.24 18.13 30.05C18.56 29.52 22.25 28.26 23.34 27.9C23.33 28.03 22.96 28.64 22.89 28.79L22.9 28.8ZM35.51 19.09C33.75 22.02 28.03 25.23 24.93 26.27C23.81 26.65 22.64 26.92 21.52 27.32C19.42 28.06 18.32 29.11 15.81 28.75C13.58 28.44 13.41 27.92 11.92 26.33C10.52 24.83 9.03 23.73 7.52 22.37C6.46 21.42 5.41 20.23 4.56 19.09C3.43 17.53 1.41 14.02 1.12 12.25C0.920001 11 2.05 10.13 3.03 9.6C3.31 10.21 3.54 10.82 3.81 11.44C5.24 14.66 6.97 17.71 9.11 20.54C9.34 20.84 9.75 21.53 10.14 21.63C10.43 21.71 10.78 21.57 10.85 21.25C10.93 20.87 10.59 20.56 10.36 20.3C7.98 17.47 5.8 13.32 4.4 9.95C4.19 9.44 4 8.91 3.7 8.45C4.22 5.82 5.39 4.2 8.32 4.39C8.42 5.2 8.46 6.02 8.56 6.85C9.09 11.22 10.32 15.37 12.12 19.38C12.27 19.69 12.54 20.48 12.83 20.64C13.26 20.87 13.74 20.47 13.61 20.02C13.47 19.52 13.18 19.04 12.97 18.56C11.23 14.46 10.09 10.41 9.6 5.94C9.53 5.25 9.28 4.5 9.6 3.85C10.9 1.19 13.36 0.779999 15.88 2.03C15.99 2.79 16.01 3.58 16.08 4.36C16.45 8.75 16.47 14.13 15.72 18.54C15.65 19 15.44 19.65 15.43 20.11C15.43 20.59 16.03 20.95 16.38 20.55C16.65 20.22 16.84 18.69 16.91 18.21C17.48 13.96 17.54 9.93 17.31 5.64C17.25 4.49 17.09 3.34 17.03 2.19C18.37 1.52 19.64 0.969999 21.17 1.18C22.49 1.37 23.66 2.36 24.5 3.35C25.43 4.47 24.97 4 26.45 4.02C29.27 4.04 30.61 6.03 31.19 8.6C31.01 8.88 30.8 9.14 30.59 9.4C27.66 13.2 24.43 16.84 20.84 20.04C20.51 20.34 19.6 20.87 19.63 21.4C19.64 21.68 19.96 21.94 20.23 21.91C20.61 21.86 21.38 21.08 21.68 20.8C25.78 17.17 28.75 13.39 32.15 9.24C34.06 9.82 35.16 11.92 34.76 13.84C34.56 14.78 34.2 14.96 33.5 15.58C32.63 16.36 32 17.33 31.24 18.21C29.46 20.26 27.06 21.67 24.47 22.46C24.06 22.58 23.34 22.68 23.01 22.9C22.57 23.21 22.86 23.82 23.33 23.86C23.84 23.91 25.1 23.43 25.64 23.24C28.12 22.36 30.39 20.99 32.08 18.95C32.9 17.95 33.66 16.9 34.65 16.05C35.48 16.81 36.18 18.01 35.53 19.09H35.51Z" fill="#3400C6"/>
<path d="M12.97 29C12.92 29.25 12.6 29.19 12.39 29.19C10.86 29.19 8.8 29.77 8.85 27.24C8.88 26.12 8.96 26 8.74 24.8C9.14 25.01 9.52 25.47 9.85 25.79C10.03 25.97 12.96 28.96 12.97 29.01V29Z" fill="#FFC994" stroke="#3400C6" stroke-width="0.5" stroke-miterlimit="10"/>
<path d="M23.36 27.92C23.35 28.04 22.98 28.64 22.91 28.8C22.5 29.68 22.34 30.9 21.3 31.28C20.4 31.6 19.41 30.81 18.62 30.45C18.45 30.37 18.2 30.24 18.14 30.05C18.57 29.52 22.26 28.26 23.35 27.9L23.36 27.92Z" fill="#FFC994" stroke="#3400C6" stroke-width="0.5" stroke-miterlimit="10"/>
<path d="M35.51 19.09C33.75 22.02 28.03 25.23 24.93 26.27C23.81 26.65 22.64 26.92 21.52 27.32C19.42 28.06 18.32 29.11 15.81 28.75C13.58 28.44 13.41 27.92 11.92 26.33C10.52 24.83 9.03 23.73 7.52 22.37C6.46 21.42 5.41 20.23 4.56 19.09C3.43 17.53 1.41 14.02 1.12 12.25C0.92 11 2.05 10.13 3.03 9.6C3.31 10.21 3.54 10.82 3.81 11.44C5.24 14.66 6.97 17.71 9.11 20.54C9.34 20.84 9.75 21.53 10.14 21.63C10.43 21.71 10.78 21.57 10.85 21.25C10.93 20.87 10.59 20.56 10.36 20.3C7.98 17.47 5.8 13.32 4.4 9.95C4.19 9.44 4 8.91 3.7 8.45C4.22 5.82 5.39 4.2 8.32 4.39C8.42 5.2 8.46 6.02 8.56 6.85C9.09 11.22 10.32 15.37 12.12 19.38C12.27 19.69 12.54 20.48 12.83 20.64C13.26 20.87 13.74 20.47 13.61 20.02C13.47 19.52 13.18 19.04 12.97 18.56C11.23 14.46 10.09 10.41 9.6 5.94C9.53 5.25 9.28 4.5 9.6 3.85C10.9 1.19 13.36 0.779999 15.88 2.03C15.99 2.79 16.01 3.58 16.08 4.36C16.45 8.75 16.47 14.13 15.72 18.54C15.65 19 15.44 19.65 15.43 20.11C15.43 20.59 16.03 20.95 16.38 20.55C16.65 20.22 16.84 18.69 16.91 18.21C17.48 13.96 17.54 9.93 17.31 5.64C17.25 4.49 17.09 3.34 17.03 2.19C18.37 1.52 19.64 0.969999 21.17 1.18C22.49 1.37 23.66 2.36 24.5 3.35C25.43 4.47 24.97 4 26.45 4.02C29.27 4.04 30.61 6.03 31.19 8.6C31.01 8.88 30.8 9.14 30.59 9.4C27.66 13.2 24.43 16.84 20.84 20.04C20.51 20.34 19.6 20.87 19.63 21.4C19.64 21.68 19.96 21.94 20.23 21.91C20.61 21.86 21.38 21.08 21.68 20.8C25.78 17.17 28.75 13.39 32.15 9.24C34.06 9.82 35.16 11.92 34.76 13.84C34.56 14.78 34.2 14.96 33.5 15.58C32.63 16.36 32 17.33 31.24 18.21C29.46 20.26 27.06 21.67 24.47 22.46C24.06 22.58 23.34 22.68 23.01 22.9C22.57 23.21 22.86 23.82 23.33 23.86C23.84 23.91 25.1 23.43 25.64 23.24C28.12 22.36 30.39 20.99 32.08 18.95C32.9 17.95 33.66 16.9 34.65 16.05C35.48 16.81 36.18 18.01 35.53 19.09H35.51Z" fill="url(#paint0_linear_1_71)" stroke="#3400C6" stroke-width="0.5" stroke-miterlimit="10"/>
</g>
<defs>
<linearGradient id="paint0_linear_1_71" x1="21.2662" y1="1.19251" x2="15.6427" y2="28.7296" gradientUnits="userSpaceOnUse">
<stop stop-color="#FFC994"/>
<stop offset="1" stop-color="#FFEFC1"/>
</linearGradient>
<clipPath id="clip0_1_71">
<rect width="36.89" height="32.44" fill="white"/>
</clipPath>
</defs>
</svg>
