<svg width="32" height="32" viewBox="0 0 32 32" fill="none" xmlns="http://www.w3.org/2000/svg">
<g clip-path="url(#clip0_1_89)">
<path d="M12.58 21.74L7.67 22.04C6.45 22.12 5.61 20.83 6.18 19.75L8.44 15.39L6.64 10.82C6.19 9.68 7.16 8.49 8.36 8.69L13.21 9.49L17 6.36C17.94 5.58 19.37 6.13 19.56 7.34L20.29 12.2L24.44 14.84C25.47 15.5 25.39 17.03 24.3 17.57L19.9 19.77L18.67 24.53C18.36 25.71 16.88 26.11 16.03 25.24L12.58 21.74Z" stroke="#3400C6" stroke-width="12" stroke-miterlimit="10"/>
<path d="M12.58 21.74L7.67 22.04C6.45 22.12 5.61 20.83 6.18 19.75L8.44 15.39L6.64 10.82C6.19 9.68 7.16 8.49 8.36 8.69L13.21 9.49L17 6.36C17.94 5.58 19.37 6.13 19.56 7.34L20.29 12.2L24.44 14.84C25.47 15.5 25.39 17.03 24.3 17.57L19.9 19.77L18.67 24.53C18.36 25.71 16.88 26.11 16.03 25.24L12.58 21.74Z" stroke="#F6FAFB" stroke-width="8" stroke-miterlimit="10"/>
<path d="M12.58 21.74L7.67 22.04C6.45 22.12 5.61 20.83 6.18 19.75L8.44 15.39L6.64 10.82C6.19 9.68 7.16 8.49 8.36 8.69L13.21 9.49L17 6.36C17.94 5.58 19.37 6.13 19.56 7.34L20.29 12.2L24.44 14.84C25.47 15.5 25.39 17.03 24.3 17.57L19.9 19.77L18.67 24.53C18.36 25.71 16.88 26.11 16.03 25.24L12.58 21.74Z" stroke="#3400C6" stroke-width="4" stroke-miterlimit="10"/>
<path d="M12.58 21.74L7.67 22.04C6.45 22.12 5.61 20.83 6.18 19.75L8.44 15.39L6.64 10.82C6.19 9.68 7.16 8.49 8.36 8.69L13.21 9.49L17 6.36C17.94 5.58 19.37 6.13 19.56 7.34L20.29 12.2L24.44 14.84C25.47 15.5 25.39 17.03 24.3 17.57L19.9 19.77L18.67 24.53C18.36 25.71 16.88 26.11 16.03 25.24L12.58 21.74Z" fill="#FFEFC1"/>
</g>
<defs>
<clipPath id="clip0_1_89">
<rect width="31.17" height="31.72" fill="white"/>
</clipPath>
</defs>
</svg>
