<svg width="803" height="268" viewBox="0 0 803 268" fill="none" xmlns="http://www.w3.org/2000/svg">
<g clip-path="url(#clip0_1_95)">
<path d="M792.49 51.25C794.24 51.28 795.91 51.84 797.6 52.37C799.22 52.88 800.85 53.35 802.57 53.28V51.01C800.39 50.92 798.26 50.66 796.29 50.22C794.2 49.76 792.3 49.11 790.7 48.3C790 47.94 789.37 47.56 788.8 47.14C781.5 41.52 783.41 29.52 777.78 20.01C777.4 19.37 776.99 18.74 776.54 18.13C775.29 16.44 773.86 14.97 772.33 13.65C771.06 12.56 769.72 11.57 768.36 10.64C763.15 7.07999 757.63 4.35999 754.46 -0.0100098H718.79C719.12 1.18999 719.34 2.43999 719.45 3.72999C721.73 11.69 720.44 19.58 720.26 27.67C720.2 36.08 723.53 44.11 723.66 52.47C722.98 62.73 709.28 66.42 698.81 64.19C698.24 64.07 697.69 63.93 697.15 63.78C692.76 62.53 689.15 60.16 687.67 56.72C687.51 55.49 687.04 54.33 686.69 53.15C686.39 52.16 686.18 51.16 686.32 50.1C686.31 49.34 686.28 48.6 686.23 47.89C685.55 37.04 681.13 32.11 677.07 27.04C676.23 25.99 675.4 24.93 674.63 23.81C671.14 18.76 668.72 12.48 670.76 -9.76585e-06H667.97C668.32 3.76999 668.14 7.52999 667.08 11.16C662.22 20.3 651.91 23.11 641.95 22.33C641.92 22.33 641.89 22.33 641.86 22.33C638.77 22.08 635.71 21.48 632.87 20.63C631.81 20.31 630.77 19.95 629.77 19.56C626.12 17.26 623.36 14.9 621.28 12.47C617.9 8.51999 616.31 4.38999 615.57 0.00999023H611.95C609.77 7.55999 605.26 13.01 597.9 14.46C572.07 17.56 579.49 23.24 568.96 27.99C566.83 28.54 564.9 28.76 563.16 28.69C562.14 28.65 561.19 28.51 560.3 28.28C550.27 25.69 548.12 11.74 549.75 0.0199902H546.66C545.61 5.79999 545.11 11.75 547.94 17.69C549.85 24.78 556.99 26.54 557.84 33.9C560.06 46.66 546.79 51.49 535.05 51.03C532.87 50.94 530.74 50.68 528.77 50.24C526.68 49.78 524.78 49.13 523.18 48.32C522.48 47.96 521.85 47.58 521.28 47.16C513.98 41.54 515.89 29.54 510.26 20.03C509.88 19.39 509.47 18.76 509.02 18.15C507.77 16.46 506.34 14.99 504.81 13.67C503.54 12.58 502.2 11.59 500.84 10.66C495.63 7.09999 490.11 4.37999 486.94 0.00999023H451.27C451.6 1.20999 451.82 2.45999 451.93 3.74999C454.21 11.71 452.92 19.6 452.74 27.69C452.68 36.1 456.01 44.13 456.14 52.49C455.46 62.75 441.76 66.44 431.29 64.21C430.72 64.09 430.17 63.95 429.63 63.8C425.24 62.55 421.63 60.18 420.15 56.74C419.99 55.51 419.52 54.35 419.17 53.17C418.87 52.18 418.66 51.18 418.8 50.12C418.79 49.36 418.76 48.62 418.71 47.91C418.03 37.06 413.61 32.13 409.55 27.06C408.71 26.01 407.88 24.95 407.11 23.83C403.62 18.78 401.2 12.5 403.24 0.0199902H400.45C400.8 3.78999 400.62 7.54999 399.56 11.18C394.7 20.32 384.39 23.13 374.43 22.35C374.4 22.35 374.37 22.35 374.34 22.35C371.25 22.1 368.19 21.5 365.35 20.65C364.29 20.33 363.25 19.97 362.25 19.58C358.6 17.28 355.84 14.92 353.76 12.49C350.38 8.53999 348.79 4.40999 348.05 0.0299902H344.43C342.25 7.57999 337.74 13.03 330.38 14.48C304.55 17.58 311.97 23.26 301.44 28.01C299.31 28.56 297.38 28.78 295.64 28.71C294.62 28.67 293.67 28.53 292.78 28.3C282.75 25.71 280.6 11.76 282.23 0.0399902H279.14C278.09 5.81999 277.59 11.77 280.42 17.71C282.33 24.8 289.47 26.56 290.32 33.92C292.54 46.68 279.27 51.51 267.53 51.05C265.35 50.96 263.22 50.7 261.25 50.26C259.16 49.8 257.26 49.15 255.66 48.34C254.96 47.98 254.33 47.6 253.76 47.18C246.46 41.56 248.37 29.56 242.74 20.05C242.36 19.41 241.95 18.78 241.5 18.17C240.25 16.48 238.82 15.01 237.29 13.69C236.02 12.6 234.68 11.61 233.32 10.68C228.11 7.11999 222.59 4.39999 219.42 0.0299902H183.75C184.08 1.22999 184.3 2.47999 184.41 3.76999C186.69 11.73 185.4 19.62 185.22 27.71C185.16 36.12 188.49 44.15 188.62 52.51C187.94 62.77 174.24 66.46 163.77 64.23C163.2 64.11 162.65 63.97 162.11 63.82C157.72 62.57 154.11 60.2 152.63 56.76C152.47 55.53 152 54.37 151.65 53.19C151.35 52.2 151.14 51.2 151.28 50.14C151.27 49.38 151.24 48.64 151.19 47.93C150.51 37.08 146.09 32.15 142.03 27.08C141.19 26.03 140.36 24.97 139.59 23.85C136.1 18.8 133.68 12.52 135.72 0.0399902H132.93C133.28 3.80999 133.1 7.56999 132.04 11.2C127.18 20.34 116.87 23.15 106.91 22.37C106.88 22.37 106.85 22.37 106.82 22.37C103.73 22.12 100.67 21.52 97.83 20.67C96.77 20.35 95.73 19.99 94.73 19.6C91.08 17.3 88.32 14.94 86.24 12.51C82.86 8.55999 81.27 4.42999 80.53 0.0499902H76.91C74.73 7.59999 70.22 13.05 62.86 14.5C37.03 17.6 44.45 23.28 33.92 28.03C31.79 28.58 29.86 28.8 28.12 28.73C27.1 28.69 26.15 28.55 25.26 28.32C15.23 25.67 13.08 11.72 14.71 -9.76585e-06H11.62C10.57 5.77999 10.07 11.73 12.9 17.67C14.81 24.76 21.95 26.52 22.8 33.88C25.02 46.64 11.75 51.47 0.0100098 51.01V53.28C0.10001 53.28 0.20001 53.28 0.29001 53.27C3.58001 53.08 6.13001 55.51 6.66001 58.24C6.78001 58.88 6.79001 59.54 6.67001 60.19C6.44001 61.41 5.76001 62.58 4.50001 63.5C3.33001 64.47 1.75001 64.84 0.0100098 64.76V68.56C0.97001 69.39 1.83001 70.28 2.59001 71.21C8.37001 78.29 8.17001 87.93 0.0100098 95.15V104.02C2.02001 104.96 3.88001 106.32 5.64001 107.77C6.82001 108.74 7.96001 109.75 9.07001 110.68C9.18001 110.79 9.29001 110.9 9.40001 111.01C11.8 113.33 14.78 114.87 17.82 116.3C19.11 116.91 20.41 117.49 21.68 118.12C22.81 118.68 23.92 119.26 24.98 119.91C26.41 120.79 27.75 121.78 28.93 122.98C29.52 123.59 30.08 124.25 30.58 124.97C30.75 125.21 30.91 125.46 31.07 125.72C31.6 126.49 32.43 127.62 33.41 128.56C34.4 129.86 35.32 131.21 35.92 132.74C41.98 149.46 18.14 166.92 0.0200098 165.57V168.03C0.50001 167.73 0.99001 167.46 1.48001 167.24C3.38001 166.85 5.49001 167.24 7.47001 166.82C11.42 167.17 13.95 169.83 15.24 173.25C15.42 173.73 15.58 174.22 15.71 174.72C16.75 178.63 16.37 183.2 14.8 186.48C13.77 189.81 11.01 191.83 7.98001 192.37C6.11001 192.7 4.13001 192.47 2.39001 191.63C1.53001 191.21 0.72001 190.65 0.0200098 189.92V192.17C0.42001 192.3 0.81001 192.43 1.20001 192.57C3.95001 193.59 6.47001 195.07 8.57001 197.07C9.21001 197.88 9.82001 198.73 10.41 199.61C15.55 207.35 18.33 217.43 11.01 225.03C7.30001 229.07 3.62001 232.44 0.0200098 235.22V238.96C0.46001 238.6 0.91001 238.22 1.35001 237.83C6.18001 235.34 7.51001 237.81 9.60001 241.8C10.02 242.27 10.4 242.75 10.75 243.23C11.35 244.06 11.84 244.9 12.24 245.75C15.4 252.43 13.03 259.82 11.64 267.5H14.73C15.1 264.86 15.65 262.34 16.36 260.08C19.39 253.16 16.84 248.83 14.05 244.84C13.41 243.93 12.76 243.03 12.16 242.13C10.12 239.07 8.67001 235.9 10.31 231.59C12.07 227.65 16.8 225.4 16.98 220.68C18.45 215.46 16.7 210.16 16.31 205.06C16.55 204.23 16.85 203.44 17.22 202.7C17.69 201.75 18.26 200.88 18.92 200.07C20.69 197.88 23.08 196.18 25.7 194.92C26.14 194.71 26.58 194.51 27.03 194.32C29.28 193.38 31.66 192.73 33.95 192.33C36.72 191.64 39.43 191.55 42.06 191.96C47.74 192.85 53.05 196.1 57.78 200.87C73.28 216.53 82.4 248.6 76.95 267.5H80.57C79.04 258.43 81.2 248.35 78.73 236.82C77.71 232.06 75.22 225.23 78.61 221.74C79.09 221.24 79.7 220.81 80.45 220.47C80.8 220.31 81.18 220.16 81.6 220.04C89.55 218.28 95.26 219.97 100.4 222.85C101.55 223.49 102.67 224.2 103.78 224.94C104.81 225.62 105.82 226.33 106.85 227.05C106.88 227.07 106.91 227.09 106.94 227.12C107.17 227.28 107.4 227.45 107.63 227.61C108.1 227.94 108.57 228.27 109.04 228.6C109.26 228.79 109.48 228.98 109.7 229.17C110.14 229.44 110.57 229.69 110.98 229.92C113.49 231.59 116.14 233.16 119.12 234.36C120.05 234.74 121.01 235.08 122 235.37C122.09 235.42 122.17 235.47 122.25 235.53C124.08 236.72 125 238.43 125.64 240.32C126.45 242.71 126.82 245.38 128.07 247.61C130.02 253.89 132.34 260.73 132.96 267.51H135.75C135.91 266.55 136.09 265.55 136.3 264.51C136.89 261.34 137.95 258.67 139.37 256.47C139.87 255.7 140.41 254.98 140.99 254.32C144.1 250.78 148.34 248.84 152.95 248.24C156.79 247.74 160.88 248.17 164.81 249.39C167.52 250.23 170.15 251.45 172.56 252.99C174.74 254.39 176.74 256.05 178.45 257.95C180.92 260.68 182.79 263.9 183.77 267.5H219.44C219.37 267.41 219.31 267.32 219.25 267.23C217.42 264.59 216.44 261.34 216.89 256.96C218.69 248.53 222.36 246.64 227.55 246.65C229.2 246.65 231.01 246.85 232.95 247.09C241.87 248.2 253.77 250.25 267.55 238.95C267.99 238.59 268.44 238.21 268.88 237.82C273.71 235.33 275.04 237.8 277.13 241.79C277.55 242.26 277.93 242.74 278.28 243.22C278.88 244.05 279.37 244.89 279.77 245.74C282.93 252.42 280.56 259.81 279.17 267.49H282.26C282.63 264.85 283.18 262.33 283.89 260.07C286.92 253.15 284.37 248.82 281.58 244.83C280.94 243.92 280.29 243.02 279.69 242.12C277.65 239.06 276.2 235.89 277.84 231.58C279.6 227.64 284.33 225.39 284.51 220.67C285.98 215.45 284.23 210.15 283.84 205.05C284.08 204.22 284.38 203.43 284.75 202.69C285.22 201.74 285.79 200.87 286.45 200.06C288.22 197.87 290.61 196.17 293.23 194.91C293.67 194.7 294.11 194.5 294.56 194.31C296.81 193.37 299.19 192.72 301.48 192.32C304.25 191.63 306.96 191.54 309.59 191.95C315.27 192.84 320.58 196.09 325.31 200.86C340.81 216.52 349.93 248.59 344.48 267.49H348.1C346.57 258.42 348.73 248.34 346.26 236.81C345.24 232.05 342.75 225.22 346.14 221.73C346.62 221.23 347.23 220.8 347.98 220.46C348.33 220.3 348.71 220.15 349.13 220.03C357.08 218.27 362.79 219.96 367.93 222.84C369.08 223.48 370.2 224.19 371.31 224.93C372.34 225.61 373.35 226.32 374.38 227.04C374.41 227.06 374.44 227.08 374.47 227.11C374.7 227.27 374.93 227.44 375.16 227.6C375.63 227.93 376.1 228.26 376.57 228.59C376.79 228.78 377.01 228.97 377.23 229.16C377.67 229.43 378.1 229.68 378.51 229.91C381.02 231.58 383.67 233.15 386.65 234.35C387.58 234.73 388.54 235.07 389.53 235.36C389.62 235.41 389.7 235.46 389.78 235.52C391.61 236.71 392.53 238.42 393.17 240.31C393.98 242.7 394.35 245.37 395.6 247.6C397.55 253.88 399.87 260.72 400.49 267.5H403.28C403.44 266.54 403.62 265.54 403.83 264.5C404.42 261.33 405.48 258.66 406.9 256.46C407.4 255.69 407.94 254.97 408.52 254.31C411.63 250.77 415.87 248.83 420.48 248.23C424.32 247.73 428.41 248.16 432.34 249.38C435.05 250.22 437.68 251.44 440.09 252.98C442.27 254.38 444.27 256.04 445.98 257.94C448.45 260.67 450.32 263.89 451.3 267.49H486.97C486.9 267.4 486.84 267.31 486.78 267.22C484.95 264.58 483.97 261.33 484.42 256.95C486.22 248.52 489.89 246.63 495.08 246.64C496.73 246.64 498.54 246.84 500.48 247.08C509.4 248.19 521.3 250.24 535.08 238.94C535.52 238.58 535.97 238.2 536.41 237.81C541.24 235.32 542.57 237.79 544.66 241.78C545.08 242.25 545.46 242.73 545.81 243.21C546.41 244.04 546.9 244.88 547.3 245.73C550.46 252.41 548.09 259.8 546.7 267.48H549.79C550.16 264.84 550.71 262.32 551.42 260.06C554.45 253.14 551.9 248.81 549.11 244.82C548.47 243.91 547.82 243.01 547.22 242.11C545.18 239.05 543.73 235.88 545.37 231.57C547.13 227.63 551.86 225.38 552.04 220.66C553.51 215.44 551.76 210.14 551.37 205.04C551.61 204.21 551.91 203.42 552.28 202.68C552.75 201.73 553.32 200.86 553.98 200.05C555.75 197.86 558.14 196.16 560.76 194.9C561.2 194.69 561.64 194.49 562.09 194.3C564.34 193.36 566.72 192.71 569.01 192.31C571.78 191.62 574.49 191.53 577.12 191.94C582.8 192.83 588.11 196.08 592.84 200.85C608.34 216.51 617.46 248.58 612.01 267.48H615.63C614.1 258.41 616.26 248.33 613.79 236.8C612.77 232.04 610.28 225.21 613.67 221.72C614.15 221.22 614.76 220.79 615.51 220.45C615.86 220.29 616.24 220.14 616.66 220.02C624.61 218.26 630.32 219.95 635.46 222.83C636.61 223.47 637.73 224.18 638.84 224.92C639.87 225.6 640.88 226.31 641.91 227.03C641.94 227.05 641.97 227.07 642 227.1C642.23 227.26 642.46 227.43 642.69 227.59C643.16 227.92 643.63 228.25 644.1 228.58C644.32 228.77 644.54 228.96 644.76 229.15C645.2 229.42 645.63 229.67 646.04 229.9C648.55 231.57 651.2 233.14 654.18 234.34C655.11 234.72 656.07 235.06 657.06 235.35C657.15 235.4 657.23 235.45 657.31 235.51C659.14 236.7 660.06 238.41 660.7 240.3C661.51 242.69 661.88 245.36 663.13 247.59C665.08 253.87 667.4 260.71 668.02 267.49H670.81C670.97 266.53 671.15 265.53 671.36 264.49C671.95 261.32 673.01 258.65 674.43 256.45C674.93 255.68 675.47 254.96 676.05 254.3C679.16 250.76 683.4 248.82 688.01 248.22C691.85 247.72 695.94 248.15 699.87 249.37C702.58 250.21 705.21 251.43 707.62 252.97C709.8 254.37 711.8 256.03 713.51 257.93C715.98 260.66 717.85 263.88 718.83 267.48H754.5C754.43 267.39 754.37 267.3 754.31 267.21C752.48 264.57 751.5 261.32 751.95 256.94C753.75 248.51 757.42 246.62 762.61 246.63C764.26 246.63 766.07 246.83 768.01 247.07C776.93 248.18 788.83 250.23 802.61 238.93V235.19C788.42 246.15 775.37 247.94 765.78 244.69C764.42 244.23 763.13 243.67 761.91 243.02C752.74 238.11 747.89 228.11 750.19 218.12C750.48 216.87 750.87 215.63 751.39 214.39C751.87 213.24 752.45 212.1 753.13 210.98C753.58 210.25 754.07 209.52 754.6 208.8C755.97 206.97 757.64 205.19 759.63 203.52C760.28 202.97 760.96 202.44 761.68 201.91C765.94 198.79 771.43 196.08 778.28 194.04C785.27 190.72 794.74 189.66 802.61 192.14V189.89C802.14 189.41 801.72 188.86 801.36 188.24C797.83 184.23 798.86 178.11 798.41 173.16C798.81 171.58 799.83 170.21 801.09 169.12C801.35 168.89 801.63 168.68 801.91 168.47C802.14 168.3 802.37 168.15 802.61 168V165.54C801.23 165.44 799.89 165.23 798.59 164.9C797.24 164.56 795.95 164.09 794.72 163.49C794.09 163.18 793.49 162.84 792.9 162.45C791.69 161.67 790.58 160.72 789.56 159.62C789.11 159.13 788.69 158.61 788.29 158.06C784.06 153.74 778.23 151.99 772.79 149.6C771.63 149.09 770.48 148.55 769.37 147.95C768.48 147.47 767.61 146.94 766.78 146.37C764.35 144.38 762.25 142.5 760.35 140.77C759.9 140.36 759.46 139.96 759.03 139.56C758.81 139.44 758.58 139.33 758.36 139.22C757.09 137.33 755.9 135.43 754.9 133.53C752.44 128.88 751.11 124.23 752.59 119.87C753.09 118.4 753.9 116.97 755.1 115.57C755.72 114.85 756.44 114.14 757.28 113.44C757.74 113.05 758.24 112.67 758.78 112.29C761.2 110.91 764.19 111.73 766.88 111.23C775.29 110.62 783.46 108.37 791.23 105.16C792.91 104.44 794.22 102.94 796.12 102.84C798.46 102.55 800.61 103.05 802.62 103.99V95.12C802.62 95.12 802.57 95.17 802.54 95.19C787.22 111.11 763.44 113.83 746.16 105.78C744.61 105.06 743.11 104.25 741.68 103.36C736.65 100.22 732.39 96.04 729.37 90.89C728.93 90.13 728.51 89.36 728.12 88.56C725.85 83.89 724.55 78.5 724.51 72.46C724.51 72.05 724.51 71.64 724.52 71.23C724.59 68.19 724.97 64.99 725.7 61.63C726.6 55.22 729.66 52.16 733.75 50.9C736.94 49.92 740.75 50.04 744.63 50.53C748.56 51.02 752.56 51.89 756.06 52.37C769.49 53.04 773.3 49.05 783.89 56.27C785.04 57.06 786.28 57.98 787.62 59.05C788.24 59.76 788.96 60.39 789.8 61C791.24 62.04 793.04 63.02 795.4 64.18C796.37 64.65 797.42 65.16 798.58 65.71C800.07 66.55 801.42 67.5 802.62 68.53V64.73C802.24 64.71 801.84 64.68 801.45 64.62C794.25 63.55 785.54 55.81 792.54 51.21L792.49 51.25ZM705.98 70.65C706.3 68.08 707.73 65.73 710.55 65.33C714.85 65.12 720.11 60.99 722.69 66.3C723.57 67.55 722.8 68.98 722.87 70.39C722.78 70.84 722.75 71.29 722.76 71.74C722.76 72.12 722.8 72.5 722.84 72.88C723.03 74.62 723.43 76.33 722.63 77.78C721.15 79.48 719.21 80.5 717.18 80.87C716.85 80.93 716.52 80.97 716.19 81C711.97 81.35 707.61 79.02 706.29 74.42C706.03 73.55 705.9 72.59 705.92 71.64C705.92 71.31 705.95 70.98 705.99 70.65H705.98ZM669.02 2.51999C669.02 2.77999 669.02 3.03999 669.02 3.29999C668.99 2.87999 668.95 2.45999 668.92 2.02999C668.95 2.18999 668.98 2.35999 669.01 2.51999H669.02ZM656.34 25.24C657.84 20.1 665.43 17.33 669.94 20.27C671.47 21.32 672.07 23.19 673.18 24.66C673.39 24.94 673.62 25.2 673.88 25.44C674.34 26.02 674.83 26.61 675.32 27.22C676.9 29.2 678.37 31.38 677.93 33.99C677.35 39.15 674.11 41.56 669.98 42.82C668.77 42.9 667.55 43.1 666.34 43.4C666.04 43.47 665.74 43.56 665.44 43.64C664.22 44 663.03 44.46 661.88 45.01C661.88 45.01 661.87 45.01 661.86 45.01C661.71 45.07 661.57 45.12 661.43 45.17C659.42 45.91 657.47 46.29 655.84 44.61C654.79 43.41 654.51 42.12 654.61 40.79C654.82 38.19 656.52 35.44 656.88 32.94C656.97 32.34 656.97 31.75 656.92 31.17C656.9 30.88 656.86 30.6 656.81 30.32C656.55 28.62 656.03 26.97 656.34 25.24ZM640.69 27.06C640.73 26.86 640.78 26.65 640.86 26.44C641.01 25.71 641.37 25 641.87 24.46C641.9 24.43 641.93 24.39 641.96 24.36C642.59 23.73 643.44 23.34 644.4 23.47C647.25 23.69 650.3 22.64 652.92 24.06C655.47 25.03 655.52 27.95 656.06 30.19C656.08 30.23 656.09 30.28 656.1 30.32C656.19 30.61 656.25 30.9 656.27 31.18C656.41 33.02 655.17 34.76 653.8 35.94C653.26 36.33 652.67 36.65 652.06 36.88C651.26 37.19 650.41 37.36 649.58 37.37C647.47 37.42 645.41 36.52 644.22 34.49C643.7 33.28 642.75 32.2 641.96 31.09C641.93 31.05 641.9 31 641.87 30.96C641.59 30.56 641.34 30.16 641.14 29.75C640.73 28.92 640.51 28.05 640.7 27.06H640.69ZM618.08 17.15C620.21 17.73 622.17 18.46 623.86 19.31C629.28 21.11 633.42 23.98 636.66 27.58C638.73 29.87 640.42 32.47 641.86 35.26C641.89 35.32 641.92 35.38 641.95 35.44C646.85 45.12 648.58 57.21 651.22 67.99C653.82 79.58 661.07 89.8 659.2 101.89C658.26 107.81 659.51 114.62 656.91 119.9C656.35 121.05 655.6 122.12 654.61 123.1C652.83 124.61 651.07 126.07 649.17 127.53C646.93 129.01 644.5 130.13 641.96 130.94C641.93 130.94 641.9 130.96 641.87 130.97C630.65 134.48 617.28 131.69 607.98 124.65C607.89 124.59 607.81 124.52 607.72 124.46C606.53 123.63 605.46 122.81 604.49 121.98C603.68 121.29 602.94 120.6 602.26 119.91C587.5 104.79 604.62 89.59 601.18 70.63C600.7 69.2 600.06 67.89 599.29 66.67C595.48 60.61 588.48 56.7 582.44 52.13C581.03 51.06 579.67 49.96 578.41 48.78C578.05 48.44 577.7 48.1 577.36 47.75C576.33 46.69 575.39 45.57 574.57 44.37C573.59 42.52 572.86 40.77 572.37 39.11C572.05 38.03 571.83 36.99 571.71 36C569.3 17.05 600.07 12.21 618.09 17.15H618.08ZM703.27 171.97C690.15 172.86 680.82 171.49 670.45 166.17C667.77 164.79 665.01 163.15 662.11 161.21C661.49 160.68 660.87 160.1 660.26 159.49C655.18 154.43 650.56 146.83 650.48 139.9C650.48 139.59 650.48 139.28 650.5 138.97C650.67 135.42 652.11 132.09 655.39 129.42C659.03 126.2 662.42 127.25 666.49 128.75C666.92 128.88 667.35 129 667.78 129.12C673.22 130.63 678.61 131.62 684.04 131.91C687.95 132.12 691.88 131.97 695.86 131.39C700.88 130.66 707.82 128.74 713.3 129.75C716.89 130.41 719.23 133.15 718.49 136.01C718.38 136.44 718.2 136.88 717.94 137.31C717.78 137.57 717.6 137.82 717.39 138.08C705.18 152.72 730.65 172.85 703.28 171.98L703.27 171.97ZM720.95 177.7C721.55 178.09 722.16 178.51 722.77 178.95C724.94 180.53 727.15 182.42 729.16 184.55C734.25 189.92 738.13 196.75 737.34 203.63C736.84 210.55 730.73 212.72 724.88 211.82C723.87 211.67 722.87 211.42 721.9 211.09C720.32 210.55 718.85 209.8 717.6 208.86C714.46 206.68 713.01 202.87 711.7 199.43C711.34 197.14 710.7 194.84 709.32 192.93C707.82 191.52 706.87 190.01 706.39 188.5C705.38 185.33 706.41 182.15 708.61 179.9C711.41 177.05 716.1 175.68 720.94 177.7H720.95ZM645.77 152.84C645.15 153 644.26 152.54 643.5 152.23C643.05 151.33 642.54 150.43 641.96 149.52C641.93 149.47 641.9 149.42 641.87 149.37C640.76 147.67 639.4 145.96 637.73 144.25C636.86 143.15 635.72 142.13 634.98 140.92C634.72 140.5 634.51 140.06 634.38 139.58C634.28 139.31 634.19 139.05 634.1 138.8C632.84 135.07 633.69 134.02 635.37 132.94C637.59 132.77 639.77 132.43 641.86 131.93C641.89 131.93 641.92 131.91 641.95 131.91C642.75 131.72 643.54 131.5 644.32 131.26C647.72 131.15 646.46 136.61 647.26 139.25C647.3 139.34 647.33 139.44 647.37 139.53C647.37 139.53 647.37 139.55 647.37 139.56C648.32 142.03 648.78 144.65 649.92 147.06C651.69 149.95 648.9 153.21 645.75 152.84H645.77ZM571.79 43.59C571.3 45.15 570.34 44.56 569.25 44.3C569.2 44.29 569.15 44.28 569.09 44.26C567.97 43.96 566.83 43.72 565.66 43.82C564.28 44.01 560.92 44.47 561.07 42.69C561.47 40.31 567.04 40.84 568.99 41.49C569.05 41.51 569.11 41.53 569.17 41.55C570.88 42.1 572.07 42.12 571.78 43.59H571.79ZM562.13 30.83C562.74 30.59 563.47 30.5 564.22 30.54C566.24 30.64 568.42 31.63 568.9 32.86C569.18 33.53 569.55 34.44 569.8 35.37C570.28 37.14 570.34 39.03 568.63 39.69C568.6 39.7 568.57 39.71 568.54 39.72C563.58 40.91 560.53 39.13 560.53 33.24C560.53 31.97 561.19 31.2 562.14 30.82L562.13 30.83ZM542.8 60.51C542.99 59.83 543.13 59.12 543.26 58.46C543.29 58.32 543.32 58.18 543.35 58.05C546.84 48.85 559.57 42.99 569.16 45.83C569.48 45.92 569.79 46.03 570.11 46.14C571.45 46.44 572.81 46.54 574.06 46.97C574.46 47.11 574.85 47.28 575.22 47.5C575.52 47.68 575.81 47.9 576.09 48.15C576.23 48.3 576.38 48.46 576.52 48.61C577.59 49.73 578.72 50.8 579.88 51.84C580.7 52.58 581.54 53.3 582.37 54.03C583.23 54.78 584.09 55.52 584.94 56.28C602.3 70.14 597.57 78.49 594.16 98.87C592.78 107.1 588.73 113.07 580.76 114.95C572.74 119.36 562.92 119.37 554.62 115.95C549.73 113.94 545.37 110.73 542.22 106.54C540.07 103.68 538.49 100.37 537.69 96.66C536.34 94.07 538.77 92.74 540.15 90.65C543.65 85.72 543.68 78.27 542.69 73.71C542.51 72.88 542.29 72.15 542.06 71.54C541.92 71.19 541.78 70.88 541.63 70.62C540.23 68.16 540.04 64.82 541.8 62.69C542.28 62.11 542.58 61.33 542.81 60.5L542.8 60.51ZM592.21 119.91C592.17 120 592.13 120.08 592.08 120.17C590.76 121.58 589.49 122.6 588.31 123.3C587.46 123.64 586.62 124 585.8 124.37C581.91 125.34 579.4 122.64 579.45 119.91C579.5 116.99 582.48 114.04 589.84 115.54C591.57 116.26 593.07 118.04 592.22 119.91H592.21ZM535.05 165.58C533.67 165.48 532.33 165.27 531.03 164.94C529.68 164.6 528.39 164.13 527.16 163.53C526.53 163.22 525.93 162.88 525.34 162.49C524.13 161.71 523.02 160.76 522 159.66C521.55 159.17 521.13 158.65 520.73 158.1C516.5 153.78 510.67 152.03 505.23 149.64C504.07 149.13 502.92 148.59 501.81 147.99C500.92 147.51 500.05 146.98 499.22 146.41C496.79 144.42 494.69 142.54 492.79 140.81C492.34 140.4 491.9 140 491.47 139.6C491.25 139.48 491.02 139.37 490.8 139.26C489.53 137.37 488.34 135.47 487.34 133.57C484.88 128.92 483.55 124.27 485.03 119.91C485.53 118.44 486.34 117.01 487.54 115.61C488.16 114.89 488.88 114.18 489.72 113.48C490.18 113.09 490.68 112.71 491.22 112.33C493.64 110.95 496.63 111.77 499.32 111.27C507.73 110.66 515.9 108.41 523.67 105.2C525.35 104.48 526.66 102.98 528.56 102.88C530.9 102.59 533.05 103.09 535.06 104.03C537.07 104.97 538.93 106.33 540.69 107.78C541.87 108.75 543.01 109.76 544.12 110.69C544.23 110.8 544.34 110.91 544.45 111.02C546.85 113.34 549.83 114.88 552.87 116.31C554.16 116.92 555.46 117.5 556.73 118.13C557.86 118.69 558.97 119.27 560.03 119.92C561.46 120.8 562.8 121.79 563.98 122.99C564.57 123.6 565.13 124.26 565.63 124.98C565.8 125.22 565.96 125.47 566.12 125.73C566.65 126.5 567.48 127.63 568.46 128.57C569.45 129.87 570.37 131.22 570.97 132.75C577.03 149.47 553.19 166.93 535.07 165.58H535.05ZM565.49 163.23C564.4 167.06 553.24 167.96 555.28 162.6C558.05 157.83 569.32 153.81 565.49 163.23ZM549.82 186.49C548.79 189.82 546.03 191.84 543 192.38C541.13 192.71 539.15 192.48 537.41 191.64C536.55 191.22 535.74 190.66 535.04 189.93C534.57 189.45 534.15 188.9 533.79 188.28C530.26 184.27 531.29 178.15 530.84 173.2C531.24 171.62 532.26 170.25 533.52 169.16C533.78 168.93 534.06 168.72 534.34 168.51C534.57 168.34 534.8 168.19 535.04 168.04C535.52 167.74 536.01 167.47 536.5 167.25C538.4 166.86 540.51 167.25 542.49 166.83C546.44 167.18 548.97 169.84 550.26 173.26C550.44 173.74 550.6 174.23 550.73 174.73C551.77 178.64 551.39 183.21 549.82 186.49ZM479.42 201.91C477.97 201.63 476.54 201.4 475.06 200.9C471.27 199.33 472.03 195.73 475.06 194.8C475.59 194.64 476.2 194.56 476.86 194.59C479.32 194.7 481.43 196.39 483.94 197.13C484.21 197.21 484.49 197.28 484.78 197.33C486.73 197.7 487.56 198.43 487.65 199.23C487.86 201.02 484.32 203.16 481.39 202.33C480.73 202.16 480.07 202.03 479.42 201.91ZM480.69 205.85C480.69 206.12 480.65 206.42 480.56 206.75C479.5 209.43 476.04 207.84 473.87 208.08C472.89 207.7 472.73 207.13 472.48 206.17C472.85 204.01 472.94 203.93 474.91 203.1C476.77 202.91 479.49 203.1 480.38 204.65C480.57 204.98 480.68 205.38 480.68 205.86L480.69 205.85ZM476.6 191.61C469.63 188.08 463.54 182.85 458.81 176.93C447.94 163.33 444.27 146.04 453.56 137.13C453.95 136.76 454.36 136.4 454.79 136.06C456.57 134.65 458.74 133.51 461.34 132.69C461.91 132.27 462.47 131.84 463.02 131.39C468.7 129.81 472.85 129.37 476.78 130.48C476.66 130.66 476.55 130.85 476.45 131.03C479.22 131.69 481.66 132.97 484.01 134.65C484.12 134.62 484.24 134.6 484.35 134.57C485.45 135.43 486.6 136.41 487.82 137.52C487.94 137.72 488.17 138.01 488.45 138.3C488.76 138.63 489.13 138.98 489.5 139.26C489.57 139.31 489.64 139.37 489.71 139.41C491.93 141.46 494.24 143.69 496.85 145.94C499.16 148 501.88 149.42 504.71 150.66C505.78 151.13 506.87 151.58 507.96 152.02C512.18 153.74 516.4 155.47 519.7 158.68C519.76 158.74 519.82 158.79 519.87 158.85C520.5 159.45 521.14 160.1 521.77 160.8C528.23 167.84 534.42 179.15 524.17 185.48C507.31 198.97 490.26 198.52 476.6 191.6V191.61ZM382.95 139.9C382.95 139.59 382.95 139.28 382.97 138.97C383.14 135.42 384.58 132.09 387.86 129.42C391.5 126.2 394.89 127.25 398.96 128.75C399.39 128.88 399.82 129 400.25 129.12C405.69 130.63 411.08 131.62 416.51 131.91C420.42 132.12 424.35 131.97 428.33 131.39C433.35 130.66 440.29 128.74 445.77 129.75C449.36 130.41 451.7 133.15 450.96 136.01C450.85 136.44 450.67 136.88 450.41 137.31C450.25 137.57 450.07 137.82 449.86 138.08C437.65 152.72 463.12 172.85 435.75 171.98C422.63 172.87 413.3 171.5 402.93 166.18C400.25 164.8 397.49 163.16 394.59 161.22C393.97 160.69 393.35 160.11 392.74 159.5C387.66 154.44 383.04 146.84 382.96 139.91L382.95 139.9ZM378.24 152.84C377.62 153 376.73 152.54 375.97 152.23C375.52 151.33 375.01 150.43 374.43 149.52C374.4 149.47 374.37 149.42 374.34 149.37C373.23 147.67 371.87 145.96 370.2 144.25C369.33 143.15 368.19 142.13 367.45 140.92C367.19 140.5 366.99 140.06 366.85 139.58C366.75 139.31 366.65 139.05 366.57 138.8C365.31 135.07 366.16 134.02 367.84 132.94C370.06 132.77 372.24 132.43 374.33 131.93C374.36 131.93 374.39 131.91 374.42 131.91C375.22 131.72 376.01 131.5 376.79 131.26C380.19 131.15 378.93 136.61 379.73 139.25C379.77 139.34 379.8 139.44 379.84 139.53C379.84 139.53 379.84 139.55 379.84 139.56C380.79 142.03 381.25 144.65 382.39 147.06C384.16 149.95 381.37 153.21 378.22 152.84H378.24ZM441.1 179.9C443.9 177.05 448.59 175.68 453.43 177.7C454.03 178.09 454.64 178.51 455.25 178.95C457.42 180.53 459.63 182.42 461.64 184.55C466.73 189.92 470.61 196.75 469.82 203.63C469.32 210.55 463.21 212.72 457.36 211.82C456.35 211.67 455.35 211.42 454.38 211.09C452.8 210.55 451.33 209.8 450.08 208.86C446.94 206.68 445.49 202.87 444.18 199.43C443.82 197.14 443.18 194.84 441.8 192.93C440.3 191.52 439.35 190.01 438.87 188.5C437.86 185.33 438.89 182.15 441.09 179.9H441.1ZM469.79 112.17C469.75 111.37 469.62 110.55 469.72 109.78C470.43 106.44 473.4 106.67 476.11 107.82C477.27 108.31 478.38 108.97 479.25 109.59C481.3 111.02 482.01 113.42 481.57 115.74C481.56 115.8 481.55 115.85 481.54 115.91C481.33 117.04 481.12 118.05 480.89 118.95C480.81 119.28 480.72 119.6 480.63 119.91C478.87 125.89 476.08 126.41 468.55 127.87C468.07 128.03 467.44 128.08 466.85 127.99C466.12 127.87 465.42 127.53 465.08 126.89C463.88 124.26 465.93 122.5 467.72 119.91C469.03 118.01 470.2 115.65 469.8 112.17H469.79ZM464.38 117.1C463.65 118.26 460.77 117.76 462.02 116.1C463.53 114.29 464.86 112.35 465.58 110.04C465.77 109.2 465.71 108.14 466.34 107.52C466.97 107.33 467.53 107.75 467.6 108.39C467.92 111.89 466.91 114.08 464.39 117.1H464.38ZM567.15 125.45C566.14 123.35 566.27 121.09 568.66 119.91C569.48 119.51 570.57 119.23 571.97 119.13C572.68 119.27 573.42 119.54 574.12 119.91C576.29 121.04 578.14 123.15 577.91 125.6C577.63 126.78 577.23 127.69 576.76 128.39C572.97 129.63 569.71 129.46 567.15 125.45ZM524.96 51.25C526.71 51.28 528.38 51.84 530.07 52.37C531.69 52.88 533.32 53.35 535.04 53.28C535.13 53.28 535.23 53.28 535.32 53.27C538.61 53.08 541.16 55.51 541.69 58.24C541.81 58.88 541.82 59.54 541.7 60.19C541.47 61.41 540.79 62.58 539.53 63.5C538.36 64.47 536.78 64.84 535.04 64.76C534.66 64.74 534.26 64.71 533.87 64.65C526.67 63.58 517.96 55.84 524.96 51.24V51.25ZM520.05 59.09C520.67 59.8 521.39 60.43 522.23 61.04C523.67 62.08 525.47 63.06 527.83 64.22C528.8 64.69 529.85 65.2 531.01 65.75C532.5 66.59 533.85 67.54 535.05 68.57C536.01 69.4 536.87 70.29 537.63 71.22C543.41 78.3 543.21 87.94 535.05 95.16C535.02 95.18 535 95.21 534.97 95.23C519.65 111.15 495.87 113.87 478.59 105.82C477.04 105.1 475.54 104.29 474.11 103.4C469.08 100.26 464.82 96.08 461.8 90.93C461.36 90.17 460.94 89.4 460.55 88.6C458.28 83.93 456.98 78.54 456.94 72.5C456.94 72.09 456.94 71.68 456.95 71.27C457.02 68.23 457.4 65.03 458.13 61.67C459.03 55.26 462.09 52.2 466.18 50.94C469.37 49.96 473.18 50.08 477.06 50.57C480.99 51.06 484.99 51.93 488.49 52.41C501.92 53.08 505.73 49.09 516.32 56.31C517.47 57.1 518.71 58.02 520.05 59.09ZM462.37 7.43999C471.79 0.699991 489.58 2.48999 501.05 14.17C501.32 14.45 501.59 14.73 501.85 15.01C507.22 20.86 511.19 24.34 512.71 30.11C514.96 38.68 510.08 47.58 501.61 50.19C493.16 50.82 484.56 49.63 476.2 48.41C475.84 48.37 475.5 48.32 475.15 48.25C470.56 47.4 467.06 44.57 464.32 41.02C462.41 38.54 460.86 35.7 459.57 32.92C453.38 20.7 455.9 12.06 462.37 7.42999V7.43999ZM438.46 70.65C438.78 68.08 440.21 65.73 443.03 65.33C447.33 65.12 452.59 60.99 455.17 66.3C456.05 67.55 455.28 68.98 455.35 70.39C455.26 70.84 455.23 71.29 455.24 71.74C455.24 72.12 455.28 72.5 455.32 72.88C455.51 74.62 455.91 76.33 455.11 77.78C453.63 79.48 451.69 80.5 449.66 80.87C449.33 80.93 449 80.97 448.67 81C444.45 81.35 440.09 79.02 438.77 74.42C438.51 73.55 438.38 72.59 438.4 71.64C438.4 71.31 438.43 70.98 438.47 70.65H438.46ZM415.26 50.1C415.92 50.89 416.53 51.78 417.07 52.77C417.53 53.61 417.94 54.52 418.29 55.51C420.1 61.89 425.52 62.93 430.34 65.42C431.34 65.93 432.3 66.51 433.21 67.21C433.73 67.61 434.22 68.05 434.69 68.53C435.29 69.16 435.85 69.87 436.35 70.7C436.51 70.97 436.67 71.24 436.81 71.53C438.17 74.97 439.33 79.21 442.91 80.95C445.24 82.62 447.45 82.98 449.52 83.16C449.79 83.18 450.06 83.2 450.32 83.23C453.67 83.49 456.69 83.67 459.43 88.71C459.63 89.08 459.83 89.47 460.02 89.89C460.17 90.2 460.32 90.51 460.47 90.82C461.99 93.94 463.59 96.9 464.91 99.76C465.38 105.47 462.67 110.84 459.48 115.39C458.5 117.05 457.34 118.53 456.05 119.9C453.67 122.43 450.87 124.55 448.02 126.57C447.4 127.12 446.51 127.24 445.92 127.83C445.72 128.08 445.46 128.25 445.19 128.41C439.64 128.31 432.89 128.11 428.1 128.7C424.08 129.26 419.86 129.74 415.63 129.85C415.13 129.74 414.64 129.61 414.16 129.48C410.44 128.42 407.65 126.71 405.52 124.53C404.18 123.16 403.1 121.6 402.21 119.9C397.15 110.22 398.3 95.97 392.84 85.44C391.78 83.49 390.89 81.6 390.14 79.77C388.98 75.51 387.83 71.34 387.05 67.44C386.64 61.75 387.87 57.05 390.07 53.44C392.36 49.68 395.7 47.11 399.32 45.87C404.91 43.96 411.16 45.2 415.25 50.1H415.26ZM401.5 2.51999C401.5 2.77999 401.5 3.03999 401.5 3.29999C401.47 2.87999 401.43 2.45999 401.4 2.02999C401.43 2.18999 401.46 2.35999 401.49 2.51999H401.5ZM388.81 25.24C390.31 20.1 397.9 17.33 402.41 20.27C403.94 21.32 404.54 23.19 405.65 24.66C405.86 24.94 406.09 25.2 406.35 25.44C406.81 26.02 407.3 26.61 407.79 27.22C409.37 29.2 410.84 31.38 410.4 33.99C409.82 39.15 406.58 41.56 402.45 42.82C401.24 42.9 400.02 43.1 398.81 43.4C398.51 43.47 398.21 43.56 397.91 43.64C396.69 44 395.5 44.46 394.35 45.01C394.35 45.01 394.34 45.01 394.33 45.01C394.18 45.07 394.04 45.12 393.9 45.17C391.89 45.91 389.94 46.29 388.31 44.61C387.26 43.41 386.98 42.12 387.08 40.79C387.29 38.19 388.99 35.44 389.35 32.94C389.44 32.34 389.44 31.75 389.39 31.17C389.37 30.88 389.33 30.6 389.28 30.32C389.02 28.62 388.5 26.97 388.81 25.24ZM373.16 27.06C373.2 26.86 373.25 26.65 373.33 26.44C373.48 25.71 373.84 25 374.34 24.46C374.37 24.43 374.4 24.39 374.43 24.36C375.06 23.73 375.91 23.34 376.87 23.47C379.72 23.69 382.77 22.64 385.39 24.06C387.94 25.03 387.99 27.95 388.53 30.19C388.55 30.23 388.56 30.28 388.57 30.32C388.66 30.61 388.72 30.9 388.74 31.18C388.88 33.02 387.64 34.76 386.27 35.94C385.73 36.33 385.14 36.65 384.53 36.88C383.73 37.19 382.88 37.36 382.05 37.37C379.94 37.42 377.88 36.52 376.69 34.49C376.17 33.28 375.22 32.2 374.43 31.09C374.4 31.05 374.37 31 374.34 30.96C374.06 30.56 373.81 30.16 373.61 29.75C373.2 28.92 372.98 28.05 373.17 27.06H373.16ZM350.56 17.15C352.69 17.73 354.65 18.46 356.34 19.31C361.76 21.11 365.9 23.98 369.14 27.58C371.21 29.87 372.9 32.47 374.34 35.26C374.37 35.32 374.4 35.38 374.43 35.44C379.33 45.12 381.06 57.21 383.7 67.99C386.3 79.58 393.55 89.8 391.67 101.89C390.73 107.81 391.98 114.62 389.38 119.9C388.82 121.05 388.07 122.12 387.08 123.1C385.3 124.61 383.54 126.07 381.64 127.53C379.4 129.01 376.97 130.13 374.43 130.94C374.4 130.94 374.37 130.96 374.34 130.97C363.12 134.48 349.75 131.69 340.45 124.65C340.36 124.59 340.28 124.52 340.19 124.46C339 123.63 337.93 122.81 336.96 121.98C336.15 121.29 335.41 120.6 334.73 119.91C319.97 104.79 337.09 89.59 333.65 70.63C333.17 69.2 332.53 67.89 331.76 66.67C327.95 60.61 320.95 56.7 314.91 52.13C313.5 51.06 312.14 49.96 310.88 48.78C310.52 48.44 310.17 48.1 309.83 47.75C308.8 46.69 307.86 45.57 307.04 44.37C306.06 42.52 305.33 40.77 304.84 39.11C304.52 38.03 304.3 36.99 304.18 36C301.77 17.05 332.54 12.21 350.56 17.15ZM304.26 43.59C303.77 45.15 302.81 44.56 301.72 44.3C301.67 44.29 301.62 44.28 301.56 44.26C300.44 43.96 299.3 43.72 298.13 43.82C296.75 44.01 293.39 44.47 293.54 42.69C293.94 40.31 299.51 40.84 301.46 41.49C301.52 41.51 301.58 41.53 301.64 41.55C303.35 42.1 304.54 42.12 304.25 43.59H304.26ZM294.61 30.83C295.22 30.59 295.95 30.5 296.7 30.54C298.72 30.64 300.9 31.63 301.38 32.86C301.66 33.53 302.03 34.44 302.28 35.37C302.76 37.14 302.82 39.03 301.11 39.69C301.08 39.7 301.05 39.71 301.02 39.72C296.06 40.91 293.01 39.13 293.01 33.24C293.01 31.97 293.67 31.2 294.62 30.82L294.61 30.83ZM275.28 60.51C275.47 59.83 275.61 59.12 275.74 58.46C275.77 58.32 275.8 58.18 275.83 58.05C279.32 48.85 292.05 42.99 301.64 45.83C301.96 45.92 302.27 46.03 302.59 46.14C303.93 46.44 305.29 46.54 306.54 46.97C306.94 47.11 307.33 47.28 307.7 47.5C308 47.68 308.29 47.9 308.57 48.15C308.71 48.3 308.86 48.46 309 48.61C310.07 49.73 311.2 50.8 312.36 51.84C313.18 52.58 314.02 53.3 314.85 54.03C315.71 54.78 316.57 55.52 317.42 56.28C334.78 70.14 330.05 78.49 326.64 98.87C325.26 107.1 321.21 113.07 313.24 114.95C305.22 119.36 295.4 119.37 287.1 115.95C282.21 113.94 277.85 110.73 274.7 106.54C272.55 103.68 270.97 100.37 270.17 96.66C268.82 94.07 271.25 92.74 272.63 90.65C276.13 85.72 276.16 78.27 275.17 73.71C274.99 72.88 274.77 72.15 274.54 71.54C274.4 71.19 274.26 70.88 274.11 70.62C272.71 68.16 272.52 64.82 274.28 62.69C274.76 62.11 275.06 61.33 275.29 60.5L275.28 60.51ZM324.69 119.91C324.65 120 324.61 120.08 324.56 120.17C323.24 121.58 321.97 122.6 320.79 123.3C319.94 123.64 319.1 124 318.28 124.37C314.39 125.34 311.88 122.64 311.93 119.91C311.98 116.99 314.96 114.04 322.32 115.54C324.05 116.26 325.55 118.04 324.7 119.91H324.69ZM267.52 165.58C266.14 165.48 264.8 165.27 263.5 164.94C262.15 164.6 260.86 164.13 259.63 163.53C259 163.22 258.4 162.88 257.81 162.49C256.6 161.71 255.49 160.76 254.47 159.66C254.02 159.17 253.6 158.65 253.2 158.1C248.97 153.78 243.14 152.03 237.7 149.64C236.54 149.13 235.39 148.59 234.28 147.99C233.39 147.51 232.52 146.98 231.69 146.41C229.26 144.42 227.16 142.54 225.26 140.81C224.81 140.4 224.37 140 223.94 139.6C223.72 139.48 223.49 139.37 223.27 139.26C222 137.37 220.81 135.47 219.81 133.57C217.35 128.92 216.02 124.27 217.5 119.91C218 118.44 218.81 117.01 220.01 115.61C220.63 114.89 221.35 114.18 222.19 113.48C222.65 113.09 223.15 112.71 223.69 112.33C226.11 110.95 229.1 111.77 231.79 111.27C240.2 110.66 248.37 108.41 256.14 105.2C257.82 104.48 259.13 102.98 261.03 102.88C263.37 102.59 265.52 103.09 267.53 104.03C269.54 104.97 271.4 106.33 273.16 107.78C274.34 108.75 275.48 109.76 276.59 110.69C276.7 110.8 276.81 110.91 276.92 111.02C279.32 113.34 282.3 114.88 285.34 116.31C286.63 116.92 287.93 117.5 289.2 118.13C290.33 118.69 291.44 119.27 292.5 119.92C293.93 120.8 295.27 121.79 296.45 122.99C297.04 123.6 297.6 124.26 298.1 124.98C298.27 125.22 298.43 125.47 298.59 125.73C299.12 126.5 299.95 127.63 300.93 128.57C301.92 129.87 302.84 131.22 303.44 132.75C309.5 149.47 285.66 166.93 267.54 165.58H267.52ZM297.97 163.23C296.88 167.06 285.72 167.96 287.76 162.6C290.53 157.83 301.8 153.81 297.97 163.23ZM282.3 186.49C281.27 189.82 278.51 191.84 275.48 192.38C273.61 192.71 271.63 192.48 269.89 191.64C269.03 191.22 268.22 190.66 267.52 189.93C267.05 189.45 266.63 188.9 266.27 188.28C262.74 184.27 263.77 178.15 263.32 173.2C263.72 171.62 264.74 170.25 266 169.16C266.26 168.93 266.54 168.72 266.82 168.51C267.05 168.34 267.28 168.19 267.52 168.04C268 167.74 268.49 167.47 268.98 167.25C270.88 166.86 272.99 167.25 274.97 166.83C278.92 167.18 281.45 169.84 282.74 173.26C282.92 173.74 283.08 174.23 283.21 174.73C284.25 178.64 283.87 183.21 282.3 186.49ZM211.89 201.91C210.44 201.63 209.01 201.4 207.53 200.9C203.74 199.33 204.5 195.73 207.53 194.8C208.06 194.64 208.67 194.56 209.33 194.59C211.79 194.7 213.9 196.39 216.41 197.13C216.68 197.21 216.96 197.28 217.25 197.33C219.2 197.7 220.03 198.43 220.12 199.23C220.33 201.02 216.79 203.16 213.86 202.33C213.2 202.16 212.54 202.03 211.89 201.91ZM213.17 205.85C213.17 206.12 213.13 206.42 213.04 206.75C211.98 209.43 208.52 207.84 206.35 208.08C205.37 207.7 205.21 207.13 204.96 206.17C205.33 204.01 205.42 203.93 207.39 203.1C209.25 202.91 211.97 203.1 212.86 204.65C213.05 204.98 213.16 205.38 213.16 205.86L213.17 205.85ZM209.07 191.61C202.1 188.08 196.01 182.85 191.28 176.93C180.41 163.33 176.74 146.04 186.03 137.13C186.42 136.76 186.83 136.4 187.26 136.06C189.04 134.65 191.21 133.51 193.81 132.69C194.38 132.27 194.94 131.84 195.49 131.39C201.17 129.81 205.32 129.37 209.25 130.48C209.13 130.66 209.02 130.85 208.92 131.03C211.69 131.69 214.13 132.97 216.48 134.65C216.59 134.62 216.71 134.6 216.82 134.57C217.92 135.43 219.07 136.41 220.29 137.52C220.41 137.72 220.64 138.01 220.92 138.3C221.23 138.63 221.6 138.98 221.97 139.26C222.04 139.31 222.11 139.37 222.18 139.41C224.4 141.46 226.71 143.69 229.32 145.94C231.63 148 234.35 149.42 237.18 150.66C238.25 151.13 239.34 151.58 240.43 152.02C244.65 153.74 248.87 155.47 252.17 158.68C252.23 158.74 252.29 158.79 252.34 158.85C252.97 159.45 253.61 160.1 254.24 160.8C260.7 167.84 266.89 179.15 256.64 185.48C239.78 198.97 222.73 198.52 209.07 191.6V191.61ZM115.42 139.9C115.42 139.59 115.42 139.28 115.44 138.97C115.61 135.42 117.05 132.09 120.33 129.42C123.97 126.2 127.36 127.25 131.43 128.75C131.86 128.88 132.29 129 132.72 129.12C138.16 130.63 143.55 131.62 148.98 131.91C152.89 132.12 156.82 131.97 160.8 131.39C165.82 130.66 172.76 128.74 178.24 129.75C181.83 130.41 184.17 133.15 183.43 136.01C183.32 136.44 183.14 136.88 182.88 137.31C182.72 137.57 182.54 137.82 182.33 138.08C170.12 152.72 195.59 172.85 168.22 171.98C155.1 172.87 145.77 171.5 135.4 166.18C132.72 164.8 129.96 163.16 127.06 161.22C126.44 160.69 125.82 160.11 125.21 159.5C120.13 154.44 115.51 146.84 115.43 139.91L115.42 139.9ZM110.72 152.84C110.1 153 109.21 152.54 108.45 152.23C108 151.33 107.49 150.43 106.91 149.52C106.88 149.47 106.85 149.42 106.82 149.37C105.71 147.67 104.35 145.96 102.68 144.25C101.81 143.15 100.67 142.13 99.93 140.92C99.67 140.5 99.46 140.06 99.33 139.58C99.23 139.31 99.14 139.05 99.05 138.8C97.79 135.07 98.64 134.02 100.32 132.94C102.54 132.77 104.72 132.43 106.81 131.93C106.84 131.93 106.87 131.91 106.9 131.91C107.7 131.72 108.49 131.5 109.27 131.26C112.67 131.15 111.41 136.61 112.21 139.25C112.25 139.34 112.28 139.44 112.32 139.53C112.32 139.53 112.32 139.55 112.32 139.56C113.27 142.03 113.73 144.65 114.87 147.06C116.64 149.95 113.85 153.21 110.7 152.84H110.72ZM173.57 179.9C176.37 177.05 181.06 175.68 185.9 177.7C186.5 178.09 187.11 178.51 187.72 178.95C189.89 180.53 192.1 182.42 194.11 184.55C199.2 189.92 203.08 196.75 202.29 203.63C201.79 210.55 195.68 212.72 189.83 211.82C188.82 211.67 187.82 211.42 186.85 211.09C185.27 210.55 183.8 209.8 182.55 208.86C179.41 206.68 177.96 202.87 176.65 199.43C176.29 197.14 175.65 194.84 174.27 192.93C172.77 191.52 171.82 190.01 171.34 188.5C170.33 185.33 171.36 182.15 173.56 179.9H173.57ZM202.26 112.17C202.22 111.37 202.09 110.55 202.19 109.78C202.9 106.44 205.87 106.67 208.58 107.82C209.74 108.31 210.85 108.97 211.72 109.59C213.77 111.02 214.48 113.42 214.04 115.74C214.03 115.8 214.02 115.85 214.01 115.91C213.8 117.04 213.59 118.05 213.36 118.95C213.28 119.28 213.19 119.6 213.1 119.91C211.34 125.89 208.55 126.41 201.02 127.87C200.54 128.03 199.91 128.08 199.32 127.99C198.59 127.87 197.89 127.53 197.55 126.89C196.35 124.26 198.4 122.5 200.19 119.91C201.5 118.01 202.67 115.65 202.27 112.17H202.26ZM196.86 117.1C196.13 118.26 193.25 117.76 194.5 116.1C196.01 114.29 197.34 112.35 198.06 110.04C198.25 109.2 198.19 108.14 198.82 107.52C199.45 107.33 200.01 107.75 200.08 108.39C200.4 111.89 199.39 114.08 196.87 117.1H196.86ZM299.63 125.45C298.62 123.35 298.75 121.09 301.14 119.91C301.96 119.51 303.05 119.23 304.45 119.13C305.16 119.27 305.9 119.54 306.6 119.91C308.77 121.04 310.62 123.15 310.39 125.6C310.11 126.78 309.71 127.69 309.24 128.39C305.45 129.63 302.19 129.46 299.63 125.45ZM257.44 51.25C259.19 51.28 260.86 51.84 262.55 52.37C264.17 52.88 265.8 53.35 267.52 53.28C267.61 53.28 267.71 53.28 267.8 53.27C271.09 53.08 273.64 55.51 274.17 58.24C274.29 58.88 274.3 59.54 274.18 60.19C273.95 61.41 273.27 62.58 272.01 63.5C270.84 64.47 269.26 64.84 267.52 64.76C267.14 64.74 266.74 64.71 266.35 64.65C259.15 63.58 250.44 55.84 257.44 51.24V51.25ZM252.52 59.09C253.14 59.8 253.86 60.43 254.7 61.04C256.14 62.08 257.94 63.06 260.3 64.22C261.27 64.69 262.32 65.2 263.48 65.75C264.97 66.59 266.32 67.54 267.52 68.57C268.48 69.4 269.34 70.29 270.1 71.22C275.88 78.3 275.68 87.94 267.52 95.16C267.49 95.18 267.47 95.21 267.44 95.23C252.12 111.15 228.34 113.87 211.06 105.82C209.51 105.1 208.01 104.29 206.58 103.4C201.55 100.26 197.29 96.08 194.27 90.93C193.83 90.17 193.41 89.4 193.02 88.6C190.75 83.93 189.45 78.54 189.41 72.5C189.41 72.09 189.41 71.68 189.42 71.27C189.49 68.23 189.87 65.03 190.6 61.67C191.5 55.26 194.56 52.2 198.65 50.94C201.84 49.96 205.65 50.08 209.53 50.57C213.46 51.06 217.46 51.93 220.96 52.41C234.39 53.08 238.2 49.09 248.79 56.31C249.94 57.1 251.18 58.02 252.52 59.09ZM194.84 7.43999C204.26 0.699991 222.05 2.48999 233.52 14.17C233.79 14.45 234.06 14.73 234.32 15.01C239.69 20.86 243.66 24.34 245.18 30.11C247.43 38.68 242.55 47.58 234.08 50.19C225.63 50.82 217.03 49.63 208.67 48.41C208.31 48.37 207.97 48.32 207.62 48.25C203.03 47.4 199.53 44.57 196.79 41.02C194.88 38.54 193.33 35.7 192.04 32.92C185.85 20.7 188.37 12.06 194.84 7.42999V7.43999ZM170.93 70.65C171.25 68.08 172.68 65.73 175.5 65.33C179.8 65.12 185.06 60.99 187.64 66.3C188.52 67.55 187.75 68.98 187.82 70.39C187.73 70.84 187.7 71.29 187.71 71.74C187.71 72.12 187.75 72.5 187.79 72.88C187.98 74.62 188.38 76.33 187.58 77.78C186.1 79.48 184.16 80.5 182.13 80.87C181.8 80.93 181.47 80.97 181.14 81C176.92 81.35 172.56 79.02 171.24 74.42C170.98 73.55 170.85 72.59 170.87 71.64C170.87 71.31 170.9 70.98 170.94 70.65H170.93ZM147.73 50.1C148.39 50.89 149 51.78 149.54 52.77C150 53.61 150.41 54.52 150.76 55.51C152.57 61.89 157.99 62.93 162.81 65.42C163.81 65.93 164.77 66.51 165.68 67.21C166.2 67.61 166.69 68.05 167.16 68.53C167.76 69.16 168.32 69.87 168.82 70.7C168.98 70.97 169.14 71.24 169.28 71.53C170.64 74.97 171.8 79.21 175.38 80.95C177.71 82.62 179.92 82.98 181.99 83.16C182.26 83.18 182.53 83.2 182.79 83.23C186.14 83.49 189.16 83.67 191.9 88.71C192.1 89.08 192.3 89.47 192.49 89.89C192.64 90.2 192.79 90.51 192.94 90.82C194.46 93.94 196.06 96.9 197.38 99.76C197.85 105.47 195.14 110.84 191.95 115.39C190.97 117.05 189.81 118.53 188.52 119.9C186.14 122.43 183.34 124.55 180.49 126.57C179.87 127.12 178.98 127.24 178.39 127.83C178.19 128.08 177.93 128.25 177.66 128.41C172.11 128.31 165.36 128.11 160.57 128.7C156.55 129.26 152.33 129.74 148.1 129.85C147.6 129.74 147.11 129.61 146.63 129.48C142.91 128.42 140.12 126.71 137.99 124.53C136.65 123.16 135.57 121.6 134.68 119.9C129.62 110.22 130.77 95.97 125.31 85.44C124.25 83.49 123.36 81.6 122.61 79.77C121.45 75.51 120.3 71.34 119.52 67.44C119.11 61.75 120.34 57.05 122.54 53.44C124.83 49.68 128.17 47.11 131.79 45.87C137.38 43.96 143.63 45.2 147.72 50.1H147.73ZM133.97 2.51999C133.97 2.77999 133.97 3.03999 133.97 3.29999C133.94 2.87999 133.9 2.45999 133.87 2.02999C133.9 2.18999 133.93 2.35999 133.96 2.51999H133.97ZM121.29 25.24C122.79 20.1 130.38 17.33 134.89 20.27C136.42 21.32 137.02 23.19 138.13 24.66C138.34 24.94 138.57 25.2 138.83 25.44C139.29 26.02 139.78 26.61 140.27 27.22C141.85 29.2 143.32 31.38 142.88 33.99C142.3 39.15 139.06 41.56 134.93 42.82C133.72 42.9 132.5 43.1 131.29 43.4C130.99 43.47 130.69 43.56 130.39 43.64C129.17 44 127.98 44.46 126.83 45.01C126.83 45.01 126.82 45.01 126.81 45.01C126.66 45.07 126.52 45.12 126.38 45.17C124.37 45.91 122.42 46.29 120.79 44.61C119.74 43.41 119.46 42.12 119.56 40.79C119.77 38.19 121.47 35.44 121.83 32.94C121.92 32.34 121.92 31.75 121.87 31.17C121.85 30.88 121.81 30.6 121.76 30.32C121.5 28.62 120.98 26.97 121.29 25.24ZM105.64 27.06C105.68 26.86 105.73 26.65 105.81 26.44C105.96 25.71 106.32 25 106.82 24.46C106.85 24.43 106.88 24.39 106.91 24.36C107.54 23.73 108.39 23.34 109.35 23.47C112.2 23.69 115.25 22.64 117.87 24.06C120.42 25.03 120.47 27.95 121.01 30.19C121.03 30.23 121.04 30.28 121.05 30.32C121.14 30.61 121.2 30.9 121.22 31.18C121.36 33.02 120.12 34.76 118.75 35.94C118.21 36.33 117.62 36.65 117.01 36.88C116.21 37.19 115.36 37.36 114.53 37.37C112.42 37.42 110.36 36.52 109.17 34.49C108.65 33.28 107.7 32.2 106.91 31.09C106.88 31.05 106.85 31 106.82 30.96C106.54 30.56 106.29 30.16 106.09 29.75C105.68 28.92 105.46 28.05 105.65 27.06H105.64ZM83.04 17.15C85.17 17.73 87.13 18.46 88.82 19.31C94.24 21.11 98.38 23.98 101.62 27.58C103.69 29.87 105.38 32.47 106.82 35.26C106.85 35.32 106.88 35.38 106.91 35.44C111.81 45.12 113.54 57.21 116.18 67.99C118.78 79.58 126.03 89.8 124.16 101.89C123.22 107.81 124.47 114.62 121.87 119.9C121.31 121.05 120.56 122.12 119.57 123.1C117.79 124.61 116.03 126.07 114.13 127.53C111.89 129.01 109.46 130.13 106.92 130.94C106.89 130.94 106.86 130.96 106.83 130.97C95.61 134.48 82.24 131.69 72.94 124.65C72.85 124.59 72.77 124.52 72.68 124.46C71.49 123.63 70.42 122.81 69.45 121.98C68.64 121.29 67.9 120.6 67.22 119.91C52.46 104.79 69.58 89.59 66.14 70.63C65.66 69.2 65.02 67.89 64.25 66.67C60.44 60.61 53.44 56.7 47.4 52.13C45.99 51.06 44.63 49.96 43.37 48.78C43.01 48.44 42.66 48.1 42.32 47.75C41.29 46.69 40.35 45.57 39.53 44.37C38.55 42.52 37.82 40.77 37.33 39.11C37.01 38.03 36.79 36.99 36.67 36C34.26 17.05 65.03 12.21 83.05 17.15H83.04ZM36.74 43.59C36.25 45.15 35.29 44.56 34.2 44.3C34.15 44.29 34.1 44.28 34.04 44.26C32.92 43.96 31.78 43.72 30.61 43.82C29.23 44.01 25.87 44.47 26.02 42.69C26.42 40.31 31.99 40.84 33.94 41.49C34 41.51 34.06 41.53 34.12 41.55C35.83 42.1 37.02 42.12 36.73 43.59H36.74ZM27.09 30.83C27.7 30.59 28.43 30.5 29.18 30.54C31.2 30.64 33.38 31.63 33.86 32.86C34.14 33.53 34.51 34.44 34.76 35.37C35.24 37.14 35.3 39.03 33.59 39.69C33.56 39.7 33.53 39.71 33.5 39.72C28.54 40.91 25.49 39.13 25.49 33.24C25.49 31.97 26.15 31.2 27.1 30.82L27.09 30.83ZM19.58 115.96C14.69 113.95 10.33 110.74 7.18001 106.55C5.03001 103.69 3.45001 100.38 2.65001 96.67C1.30001 94.08 3.73001 92.75 5.11001 90.66C8.61001 85.73 8.64001 78.28 7.65001 73.72C7.47001 72.89 7.25001 72.16 7.02001 71.55C6.88001 71.2 6.74001 70.89 6.59001 70.63C5.19001 68.17 5.00001 64.83 6.76001 62.7C7.24001 62.12 7.54001 61.34 7.77001 60.51C7.96001 59.83 8.10001 59.12 8.23001 58.46C8.26001 58.32 8.29001 58.18 8.32001 58.05C11.81 48.85 24.54 42.99 34.13 45.83C34.45 45.92 34.76 46.03 35.08 46.14C36.42 46.44 37.78 46.54 39.03 46.97C39.43 47.11 39.82 47.28 40.19 47.5C40.49 47.68 40.78 47.9 41.06 48.15C41.2 48.3 41.35 48.46 41.49 48.61C42.56 49.73 43.69 50.8 44.85 51.84C45.67 52.58 46.51 53.3 47.34 54.03C48.2 54.78 49.06 55.52 49.91 56.28C67.27 70.14 62.54 78.49 59.13 98.87C57.75 107.1 53.7 113.07 45.73 114.95C37.71 119.36 27.89 119.37 19.59 115.95L19.58 115.96ZM57.17 119.91C57.13 120 57.09 120.08 57.04 120.17C55.72 121.58 54.45 122.6 53.27 123.3C52.42 123.64 51.58 124 50.76 124.37C46.87 125.34 44.36 122.64 44.41 119.91C44.46 116.99 47.44 114.04 54.8 115.54C56.53 116.26 58.03 118.04 57.18 119.91H57.17ZM32.1 125.45C31.09 123.35 31.22 121.09 33.61 119.91C34.43 119.51 35.52 119.23 36.92 119.13C37.63 119.27 38.37 119.54 39.07 119.91C41.24 121.04 43.09 123.15 42.86 125.6C42.58 126.78 42.18 127.69 41.71 128.39C37.92 129.63 34.66 129.46 32.1 125.45ZM20.23 162.6C23 157.83 34.27 153.81 30.44 163.23C29.35 167.06 18.19 167.96 20.23 162.6ZM31.8 176.81C31.59 181.68 30.56 187.29 28.89 189.45C28.59 190.15 28.18 190.81 27.71 191.44C27.35 191.92 26.95 192.37 26.51 192.79C22.87 196.33 16.98 197.82 14.72 193.95C13.75 192.29 13.83 190.21 14.87 188.59C17.68 184.17 16.25 179.09 17.06 174.7C17.16 174.13 17.31 173.57 17.5 173.02C17.7 172.45 17.96 171.9 18.29 171.37C20.77 167.84 27.03 165.77 30.38 168.81C30.71 169.11 31 169.45 31.27 169.84C31.32 169.98 31.36 170.13 31.4 170.3C31.58 171.03 31.71 171.95 31.78 172.99C31.86 174.14 31.86 175.45 31.81 176.81H31.8ZM79.44 218.59C78.51 218.62 77.59 218.61 76.69 218.57C75.95 218.54 75.23 218.51 74.54 218.47C69.86 216.62 68.13 209.6 65.56 205.69C65.51 205.6 65.46 205.51 65.41 205.41C64.52 203.75 63.5 202.32 62.4 201.06C58.11 196.16 52.48 193.91 47.33 191.66C45.65 190.92 44.02 190.19 42.5 189.36C37.75 186.76 34.12 183.23 33.57 175.92C33.57 175.9 33.57 175.88 33.56 175.86C33.44 175.18 33.33 174.49 33.24 173.8C33.01 172.09 32.85 170.34 32.78 168.57C32.76 168.21 32.75 167.86 32.74 167.5C32.43 155.44 35.7 142.62 42.33 134C42.6 133.65 42.88 133.3 43.16 132.96C43.17 132.95 43.18 132.93 43.19 132.92C43.22 132.88 43.25 132.85 43.28 132.81C45.22 130.51 47.43 128.56 49.89 127.07C51.83 125.89 53.94 125 56.2 124.44C59.76 123.56 63.72 123.53 68.06 124.55C69.4 124.86 70.79 125.28 72.2 125.8C75.21 128.04 78.83 129.8 82.76 131.02C83.67 131.3 84.59 131.56 85.52 131.78C89.33 133.42 92.65 135.47 95.5 137.84C96.25 138.46 96.97 139.11 97.65 139.78C101.89 143.92 104.91 148.86 106.81 154.26C106.84 154.35 106.87 154.44 106.9 154.53C110.16 164.01 109.98 174.85 106.9 185.15C106.87 185.26 106.84 185.36 106.81 185.47C105.75 188.95 104.36 192.36 102.66 195.63C101.14 202.85 96 208.39 90.63 213.1C88.51 217.4 83.94 218.46 79.43 218.59H79.44ZM112.2 226.98C111.48 227.82 110.72 228.08 110.04 228.1C108.99 227.22 107.96 226.31 106.9 225.43C106.87 225.4 106.84 225.38 106.81 225.35C105.73 224.45 104.63 223.58 103.45 222.82C102.77 222.38 102.07 221.98 101.33 221.62C101.22 221.57 101.11 221.52 101 221.47C98.65 219.76 94.4 220.41 92.92 218.07C89.81 212.3 98.44 208.49 100.77 203.66C101.79 201.45 102.89 199.24 103.55 196.89C103.68 194.87 105.09 193.56 106.8 193.12C106.83 193.12 106.86 193.1 106.89 193.1C107.95 192.85 109.12 192.93 110.17 193.38C110.4 193.38 110.65 193.56 110.9 193.78C113.31 197.51 113.62 201.71 113.46 206.02C113.48 206.71 113.48 207.4 113.42 208.09C113.39 208.15 113.36 208.21 113.34 208.28C113.14 211.36 112.85 214.45 113.04 217.42C112.12 221.86 115.52 224.44 112.19 227L112.2 226.98ZM142.03 250.99C141.57 251.71 141.05 252.34 140.5 252.86C139.85 253.46 139.15 253.9 138.39 254.15C136.95 254.64 135.33 254.44 133.62 253.33C131.48 251.1 128.89 245.86 128.79 241.84C128.78 241.41 128.79 241 128.85 240.6C128.85 240.6 128.85 240.58 128.85 240.57C128.95 239.81 129.17 239.12 129.53 238.54C130.31 237.28 131.76 236.53 134.15 236.64C137.58 236.87 141.66 239.62 143.53 242.9C143.8 243.37 144.02 243.85 144.19 244.33C145 246.65 144.59 249.08 142.03 250.98V250.99ZM126.74 234.18C125.96 234.01 125.17 233.82 124.38 233.62C123.21 233.33 122.03 233 120.84 232.66C113.55 228.79 114.15 219.33 114.17 212.25C115.97 199.42 113.28 196.07 111.1 191.81C107.54 182.19 112.67 171.38 110.91 160.06C111.43 158.47 112.66 157.17 114.47 156.83C114.89 156.73 115.3 156.66 115.68 156.63C116.49 156.57 117.24 156.66 117.94 156.86C119.9 157.44 121.46 158.93 123.01 160.5C124.39 161.89 125.76 163.34 127.4 164.26C127.42 164.27 127.43 164.28 127.45 164.29C129.42 165.72 131.56 166.84 133.79 167.78C135.8 168.63 137.87 169.34 139.96 170.01C145.66 171.85 151.42 173.45 156.04 176.98C156.4 177.32 156.77 177.67 157.15 178.01C158.12 178.9 159.12 179.82 160.15 180.77C170.08 189.93 181.53 201.44 172.53 215C162.19 235.14 146.1 238.5 126.75 234.17L126.74 234.18ZM157.82 246.32C156.27 246.01 155.08 244.86 154.31 243.43C153.59 242.11 153.24 240.55 153.29 239.2C153.19 234.87 157.28 232.88 157.82 238.26C158.33 239.77 159.33 241.17 160.17 242.61C160.87 243.82 161.46 245.04 161.53 246.37C160.86 247.75 158.92 246.57 157.82 246.32ZM213.35 256.66C205 264.42 187.55 257.97 179.34 254.31C177.44 253.62 175.4 252.85 173.37 251.96C172.86 251.74 172.35 251.5 171.85 251.26C169.18 249.98 166.59 248.46 164.46 246.6C163.06 245.37 161.84 244 160.93 242.45C159.65 240.29 158.94 237.78 159.08 234.84C159.44 233.37 160.04 231.85 161.15 230.78C169.81 225.6 173.08 209.49 185.01 212.01C185.63 212.25 186.28 212.47 186.95 212.67C188.19 213.04 189.49 213.33 190.81 213.48C193.64 213.8 196.52 213.5 198.91 212.03C199.56 211.45 200.42 211.24 201.23 210.97C205.18 209.98 210.47 209.88 213.1 213.45C213.19 213.57 213.27 213.68 213.35 213.81C213.51 215.12 213.66 216.51 213.84 218C213.82 218.12 213.81 218.23 213.79 218.35C212.07 231.14 222.22 246.43 213.35 256.67V256.66ZM278.51 225.04C274.8 229.08 271.12 232.45 267.52 235.23C253.33 246.19 240.28 247.98 230.69 244.73C229.33 244.27 228.04 243.71 226.82 243.06C217.65 238.15 212.8 228.15 215.1 218.16C215.39 216.91 215.78 215.67 216.3 214.43C216.78 213.28 217.36 212.14 218.04 211.02C218.49 210.29 218.98 209.56 219.51 208.84C220.88 207.01 222.55 205.23 224.54 203.56C225.19 203.01 225.87 202.48 226.59 201.95C230.85 198.83 236.34 196.12 243.19 194.08C250.18 190.76 259.65 189.7 267.52 192.18C267.92 192.31 268.31 192.44 268.7 192.58C271.45 193.6 273.97 195.08 276.07 197.08C276.71 197.89 277.32 198.74 277.91 199.62C283.05 207.36 285.83 217.44 278.51 225.04ZM299.32 176.81C299.11 181.68 298.08 187.29 296.41 189.45C296.11 190.15 295.7 190.81 295.23 191.44C294.87 191.92 294.47 192.37 294.03 192.79C290.39 196.33 284.5 197.82 282.24 193.95C281.27 192.29 281.35 190.21 282.39 188.59C285.2 184.17 283.77 179.09 284.58 174.7C284.68 174.13 284.83 173.57 285.02 173.02C285.22 172.45 285.48 171.9 285.81 171.37C288.29 167.84 294.55 165.77 297.9 168.81C298.23 169.11 298.52 169.45 298.79 169.84C298.84 169.98 298.88 170.13 298.92 170.3C299.1 171.03 299.23 171.95 299.3 172.99C299.38 174.14 299.38 175.45 299.33 176.81H299.32ZM346.96 218.59C346.03 218.62 345.11 218.61 344.21 218.57C343.47 218.54 342.75 218.51 342.06 218.47C337.38 216.62 335.65 209.6 333.08 205.69C333.03 205.6 332.98 205.51 332.93 205.41C332.04 203.75 331.02 202.32 329.92 201.06C325.63 196.16 320 193.91 314.85 191.66C313.17 190.92 311.54 190.19 310.02 189.36C305.27 186.76 301.64 183.23 301.09 175.92C301.09 175.9 301.09 175.88 301.08 175.86C300.96 175.18 300.85 174.49 300.76 173.8C300.53 172.09 300.37 170.34 300.3 168.57C300.28 168.21 300.27 167.86 300.26 167.5C299.95 155.44 303.22 142.62 309.85 134C310.12 133.65 310.4 133.3 310.68 132.96C310.69 132.95 310.7 132.93 310.71 132.92C310.74 132.88 310.77 132.85 310.8 132.81C312.74 130.51 314.95 128.56 317.41 127.07C319.35 125.89 321.46 125 323.72 124.44C327.28 123.56 331.24 123.53 335.58 124.55C336.92 124.86 338.31 125.28 339.72 125.8C342.73 128.04 346.35 129.8 350.28 131.02C351.19 131.3 352.11 131.56 353.04 131.78C356.85 133.42 360.17 135.47 363.02 137.84C363.77 138.46 364.49 139.11 365.17 139.78C369.41 143.92 372.43 148.86 374.33 154.26C374.36 154.35 374.39 154.44 374.42 154.53C377.68 164.01 377.5 174.85 374.42 185.15C374.39 185.26 374.36 185.36 374.33 185.47C373.27 188.95 371.88 192.36 370.18 195.63C368.66 202.85 363.52 208.39 358.15 213.1C356.03 217.4 351.46 218.46 346.95 218.59H346.96ZM379.73 226.98C379.01 227.82 378.25 228.08 377.57 228.1C376.52 227.22 375.49 226.31 374.43 225.43C374.4 225.4 374.37 225.38 374.34 225.35C373.26 224.45 372.16 223.58 370.98 222.82C370.3 222.38 369.6 221.98 368.86 221.62C368.75 221.57 368.64 221.52 368.53 221.47C366.18 219.76 361.93 220.41 360.45 218.07C357.34 212.3 365.97 208.49 368.3 203.66C369.32 201.45 370.42 199.24 371.08 196.89C371.21 194.87 372.62 193.56 374.33 193.12C374.36 193.12 374.39 193.1 374.42 193.1C375.48 192.85 376.65 192.93 377.7 193.38C377.93 193.38 378.18 193.56 378.43 193.78C380.84 197.51 381.15 201.71 380.99 206.02C381.01 206.71 381.01 207.4 380.95 208.09C380.92 208.15 380.89 208.21 380.87 208.28C380.67 211.36 380.38 214.45 380.57 217.42C379.65 221.86 383.05 224.44 379.72 227L379.73 226.98ZM409.55 250.99C409.09 251.71 408.57 252.34 408.02 252.86C407.37 253.46 406.67 253.9 405.91 254.15C404.47 254.64 402.85 254.44 401.14 253.33C399 251.1 396.41 245.86 396.31 241.84C396.3 241.41 396.31 241 396.37 240.6C396.37 240.6 396.37 240.58 396.37 240.57C396.47 239.81 396.69 239.12 397.05 238.54C397.83 237.28 399.28 236.53 401.67 236.64C405.1 236.87 409.18 239.62 411.05 242.9C411.32 243.37 411.54 243.85 411.71 244.33C412.52 246.65 412.11 249.08 409.55 250.98V250.99ZM394.26 234.18C393.48 234.01 392.69 233.82 391.9 233.62C390.73 233.33 389.55 233 388.36 232.66C381.07 228.79 381.67 219.33 381.69 212.25C383.49 199.42 380.8 196.07 378.62 191.81C375.06 182.19 380.19 171.38 378.43 160.06C378.95 158.47 380.18 157.17 381.99 156.83C382.41 156.73 382.82 156.66 383.2 156.63C384.02 156.57 384.76 156.66 385.46 156.86C387.42 157.44 388.98 158.93 390.53 160.5C391.91 161.89 393.28 163.34 394.92 164.26C394.94 164.27 394.95 164.28 394.97 164.29C396.94 165.72 399.08 166.84 401.31 167.78C403.32 168.63 405.39 169.34 407.48 170.01C413.18 171.85 418.94 173.45 423.56 176.98C423.92 177.32 424.29 177.67 424.67 178.01C425.64 178.9 426.64 179.82 427.67 180.77C437.6 189.93 449.05 201.44 440.05 215C429.71 235.14 413.62 238.5 394.27 234.17L394.26 234.18ZM425.34 246.32C423.79 246.01 422.6 244.86 421.83 243.43C421.11 242.11 420.76 240.55 420.81 239.2C420.71 234.87 424.8 232.88 425.34 238.26C425.85 239.77 426.85 241.17 427.69 242.61C428.39 243.82 428.98 245.04 429.05 246.37C428.38 247.75 426.44 246.57 425.34 246.32ZM480.87 256.66C472.52 264.42 455.07 257.97 446.86 254.31C444.96 253.62 442.92 252.85 440.89 251.96C440.38 251.74 439.87 251.5 439.37 251.26C436.7 249.98 434.11 248.46 431.98 246.6C430.58 245.37 429.36 244 428.45 242.45C427.17 240.29 426.46 237.78 426.6 234.84C426.96 233.37 427.56 231.85 428.67 230.78C437.33 225.6 440.6 209.49 452.53 212.01C453.15 212.25 453.8 212.47 454.47 212.67C455.71 213.04 457.01 213.33 458.33 213.48C461.16 213.8 464.04 213.5 466.43 212.03C467.08 211.45 467.94 211.24 468.75 210.97C472.7 209.98 477.99 209.88 480.62 213.45C480.71 213.57 480.79 213.68 480.87 213.81C481.03 215.12 481.18 216.51 481.36 218C481.34 218.12 481.33 218.23 481.31 218.35C479.59 231.14 489.74 246.43 480.87 256.67V256.66ZM546.03 225.04C542.32 229.08 538.64 232.45 535.04 235.23C520.85 246.19 507.8 247.98 498.21 244.73C496.85 244.27 495.56 243.71 494.34 243.06C485.17 238.15 480.32 228.15 482.62 218.16C482.91 216.91 483.3 215.67 483.82 214.43C484.3 213.28 484.88 212.14 485.56 211.02C486.01 210.29 486.5 209.56 487.03 208.84C488.4 207.01 490.07 205.23 492.06 203.56C492.71 203.01 493.39 202.48 494.11 201.95C498.37 198.83 503.86 196.12 510.71 194.08C517.7 190.76 527.17 189.7 535.04 192.18C535.44 192.31 535.83 192.44 536.22 192.58C538.97 193.6 541.49 195.08 543.59 197.08C544.23 197.89 544.84 198.74 545.43 199.62C550.57 207.36 553.35 217.44 546.03 225.04ZM566.85 176.81C566.64 181.68 565.61 187.29 563.94 189.45C563.64 190.15 563.23 190.81 562.76 191.44C562.4 191.92 562 192.37 561.56 192.79C557.92 196.33 552.03 197.82 549.77 193.95C548.8 192.29 548.88 190.21 549.92 188.59C552.73 184.17 551.3 179.09 552.11 174.7C552.21 174.13 552.36 173.57 552.55 173.02C552.75 172.45 553.01 171.9 553.34 171.37C555.82 167.84 562.08 165.77 565.43 168.81C565.76 169.11 566.05 169.45 566.32 169.84C566.37 169.98 566.41 170.13 566.45 170.3C566.63 171.03 566.76 171.95 566.83 172.99C566.91 174.14 566.91 175.45 566.86 176.81H566.85ZM614.48 218.59C613.55 218.62 612.63 218.61 611.73 218.57C610.99 218.54 610.27 218.51 609.58 218.47C604.9 216.62 603.17 209.6 600.6 205.69C600.55 205.6 600.5 205.51 600.45 205.41C599.56 203.75 598.54 202.32 597.44 201.06C593.15 196.16 587.52 193.91 582.37 191.66C580.69 190.92 579.06 190.19 577.54 189.36C572.79 186.76 569.16 183.23 568.61 175.92C568.61 175.9 568.61 175.88 568.6 175.86C568.48 175.18 568.37 174.49 568.28 173.8C568.05 172.09 567.89 170.34 567.81 168.57C567.79 168.21 567.78 167.86 567.77 167.5C567.46 155.44 570.73 142.62 577.36 134C577.63 133.65 577.91 133.3 578.19 132.96C578.2 132.95 578.21 132.93 578.22 132.92C578.25 132.88 578.28 132.85 578.31 132.81C580.25 130.51 582.46 128.56 584.92 127.07C586.86 125.89 588.97 125 591.23 124.44C594.79 123.56 598.75 123.53 603.09 124.55C604.43 124.86 605.82 125.28 607.23 125.8C610.24 128.04 613.86 129.8 617.79 131.02C618.7 131.3 619.62 131.56 620.55 131.78C624.36 133.42 627.68 135.47 630.53 137.84C631.28 138.46 632 139.11 632.68 139.78C636.92 143.92 639.94 148.86 641.84 154.26C641.87 154.35 641.9 154.44 641.93 154.53C645.19 164.01 645.01 174.85 641.93 185.15C641.9 185.26 641.87 185.36 641.84 185.47C640.78 188.95 639.39 192.36 637.69 195.63C636.17 202.85 631.03 208.39 625.66 213.1C623.54 217.4 618.97 218.46 614.46 218.59H614.48ZM647.25 226.98C646.53 227.82 645.77 228.08 645.09 228.1C644.04 227.22 643.01 226.31 641.95 225.43C641.92 225.4 641.89 225.38 641.86 225.35C640.78 224.45 639.68 223.58 638.5 222.82C637.82 222.38 637.12 221.98 636.38 221.62C636.27 221.57 636.16 221.52 636.05 221.47C633.7 219.76 629.45 220.41 627.97 218.07C624.86 212.3 633.49 208.49 635.82 203.66C636.83 201.45 637.94 199.24 638.6 196.89C638.73 194.87 640.14 193.56 641.85 193.12C641.88 193.12 641.91 193.1 641.94 193.1C643 192.85 644.17 192.93 645.22 193.38C645.45 193.38 645.7 193.56 645.95 193.78C648.36 197.51 648.67 201.71 648.51 206.02C648.53 206.71 648.53 207.4 648.47 208.09C648.44 208.15 648.41 208.21 648.39 208.28C648.19 211.36 647.9 214.45 648.09 217.42C647.17 221.86 650.57 224.44 647.24 227L647.25 226.98ZM677.07 250.99C676.61 251.71 676.09 252.34 675.54 252.86C674.89 253.46 674.19 253.9 673.43 254.15C671.99 254.64 670.37 254.44 668.66 253.33C666.52 251.1 663.93 245.86 663.83 241.84C663.82 241.41 663.83 241 663.89 240.6C663.89 240.6 663.89 240.58 663.89 240.57C663.99 239.81 664.21 239.12 664.57 238.54C665.35 237.28 666.8 236.53 669.19 236.64C672.62 236.87 676.7 239.62 678.57 242.9C678.84 243.37 679.06 243.85 679.23 244.33C680.04 246.65 679.63 249.08 677.07 250.98V250.99ZM661.78 234.18C661 234.01 660.21 233.82 659.42 233.62C658.25 233.33 657.07 233 655.88 232.66C648.59 228.79 649.19 219.33 649.21 212.25C651.01 199.42 648.32 196.07 646.14 191.81C642.58 182.19 647.71 171.38 645.95 160.06C646.47 158.47 647.7 157.17 649.51 156.83C649.93 156.73 650.34 156.66 650.72 156.63C651.53 156.57 652.28 156.66 652.98 156.86C654.94 157.44 656.5 158.93 658.05 160.5C659.43 161.89 660.8 163.34 662.44 164.26C662.46 164.27 662.47 164.28 662.49 164.29C664.46 165.72 666.6 166.84 668.83 167.78C670.84 168.63 672.91 169.34 675 170.01C680.7 171.85 686.46 173.45 691.08 176.98C691.44 177.32 691.81 177.67 692.19 178.01C693.16 178.9 694.16 179.82 695.19 180.77C705.12 189.93 716.57 201.44 707.57 215C697.23 235.14 681.14 238.5 661.79 234.17L661.78 234.18ZM692.86 246.32C691.31 246.01 690.12 244.86 689.35 243.43C688.63 242.11 688.28 240.55 688.33 239.2C688.23 234.87 692.32 232.88 692.86 238.26C693.37 239.77 694.37 241.17 695.21 242.61C695.91 243.82 696.5 245.04 696.57 246.37C695.9 247.75 693.96 246.57 692.86 246.32ZM748.4 256.66C740.05 264.42 722.6 257.97 714.39 254.31C712.49 253.62 710.45 252.85 708.42 251.96C707.91 251.74 707.4 251.5 706.9 251.26C704.23 249.98 701.64 248.46 699.51 246.6C698.11 245.37 696.89 244 695.98 242.45C694.7 240.29 693.99 237.78 694.13 234.84C694.49 233.37 695.09 231.85 696.2 230.78C704.86 225.6 708.13 209.49 720.06 212.01C720.68 212.25 721.33 212.47 722 212.67C723.24 213.04 724.54 213.33 725.86 213.48C728.69 213.8 731.57 213.5 733.96 212.03C734.61 211.45 735.47 211.24 736.28 210.97C740.23 209.98 745.52 209.88 748.15 213.45C748.24 213.57 748.32 213.68 748.4 213.81C748.56 215.12 748.71 216.51 748.89 218C748.87 218.12 748.86 218.23 748.84 218.35C747.12 231.14 757.27 246.43 748.4 256.67V256.66ZM740.01 206.17C740.38 204.01 740.47 203.93 742.44 203.1C744.3 202.91 747.02 203.1 747.91 204.65C748.1 204.98 748.21 205.38 748.21 205.86C748.21 206.13 748.17 206.43 748.08 206.76C747.02 209.44 743.56 207.85 741.39 208.09C740.41 207.71 740.25 207.14 740 206.18L740.01 206.17ZM748.91 202.33C748.25 202.16 747.59 202.03 746.94 201.91C745.49 201.63 744.06 201.4 742.58 200.9C738.79 199.33 739.55 195.73 742.58 194.8C743.11 194.64 743.72 194.56 744.38 194.59C746.84 194.7 748.95 196.39 751.46 197.13C751.73 197.21 752.01 197.28 752.3 197.33C754.25 197.7 755.08 198.43 755.17 199.23C755.38 201.02 751.84 203.16 748.91 202.33ZM751.87 134.58C752.97 135.44 754.12 136.42 755.34 137.53C755.46 137.73 755.69 138.02 755.97 138.31C756.28 138.64 756.65 138.99 757.02 139.27C757.09 139.32 757.16 139.38 757.23 139.42C759.45 141.47 761.76 143.7 764.37 145.95C766.68 148.01 769.4 149.43 772.23 150.67C773.3 151.14 774.39 151.59 775.48 152.03C779.7 153.75 783.92 155.48 787.22 158.69C787.28 158.75 787.34 158.8 787.39 158.86C788.02 159.46 788.66 160.11 789.29 160.81C795.75 167.85 801.94 179.16 791.69 185.49C774.83 198.98 757.78 198.53 744.12 191.61C737.15 188.08 731.06 182.85 726.33 176.93C715.46 163.33 711.79 146.04 721.08 137.13C721.47 136.76 721.88 136.4 722.31 136.06C724.09 134.65 726.26 133.51 728.86 132.69C729.43 132.27 729.99 131.84 730.54 131.39C736.22 129.81 740.37 129.37 744.3 130.48C744.18 130.66 744.07 130.85 743.97 131.03C746.74 131.69 749.18 132.97 751.53 134.65C751.64 134.62 751.76 134.6 751.87 134.57V134.58ZM737.31 112.17C737.26 111.37 737.14 110.55 737.24 109.78C737.95 106.44 740.92 106.67 743.63 107.82C744.79 108.31 745.9 108.97 746.77 109.59C748.82 111.02 749.53 113.42 749.09 115.74C749.08 115.8 749.07 115.85 749.06 115.91C748.85 117.04 748.64 118.05 748.41 118.95C748.33 119.28 748.24 119.6 748.15 119.91C746.39 125.89 743.6 126.41 736.07 127.87C735.59 128.03 734.96 128.08 734.37 127.99C733.64 127.87 732.94 127.53 732.6 126.89C731.4 124.26 733.45 122.5 735.24 119.91C736.55 118.01 737.72 115.65 737.32 112.17H737.31ZM733.86 107.53C734.49 107.34 735.05 107.76 735.12 108.4C735.44 111.9 734.43 114.09 731.91 117.11C731.18 118.27 728.3 117.77 729.55 116.11C731.06 114.3 732.39 112.36 733.11 110.05C733.3 109.21 733.24 108.15 733.87 107.53H733.86ZM726.96 88.71C727.16 89.08 727.36 89.47 727.55 89.89C727.7 90.2 727.85 90.51 728 90.82C729.52 93.94 731.12 96.9 732.44 99.76C732.91 105.47 730.2 110.84 727.01 115.39C726.03 117.05 724.87 118.53 723.58 119.9C721.2 122.43 718.4 124.55 715.55 126.57C714.93 127.12 714.04 127.24 713.45 127.83C713.25 128.08 712.99 128.25 712.72 128.41C707.17 128.31 700.42 128.11 695.63 128.7C691.61 129.26 687.39 129.74 683.16 129.85C682.66 129.74 682.17 129.61 681.69 129.48C677.97 128.42 675.18 126.71 673.05 124.53C671.71 123.16 670.63 121.6 669.74 119.9C664.68 110.22 665.83 95.97 660.37 85.44C659.31 83.49 658.42 81.6 657.67 79.77C656.51 75.51 655.36 71.34 654.58 67.44C654.17 61.75 655.4 57.05 657.6 53.44C659.89 49.68 663.23 47.11 666.85 45.87C672.44 43.96 678.69 45.2 682.78 50.1C683.44 50.89 684.05 51.78 684.59 52.77C685.05 53.61 685.46 54.52 685.81 55.51C687.62 61.89 693.04 62.93 697.86 65.42C698.86 65.93 699.82 66.51 700.73 67.21C701.25 67.61 701.74 68.05 702.21 68.53C702.81 69.16 703.37 69.87 703.87 70.7C704.03 70.97 704.19 71.24 704.33 71.53C705.69 74.97 706.85 79.21 710.43 80.95C712.76 82.62 714.97 82.98 717.04 83.16C717.31 83.18 717.58 83.2 717.84 83.23C721.19 83.49 724.21 83.67 726.95 88.71H726.96ZM769.13 50.2C760.68 50.83 752.08 49.64 743.72 48.42C743.36 48.38 743.02 48.33 742.67 48.26C738.08 47.41 734.58 44.58 731.84 41.03C729.93 38.55 728.38 35.71 727.09 32.93C720.9 20.71 723.42 12.07 729.89 7.43999C739.31 0.699991 757.1 2.48999 768.57 14.17C768.84 14.45 769.11 14.73 769.37 15.01C774.74 20.86 778.71 24.34 780.23 30.11C782.48 38.68 777.6 47.58 769.13 50.19V50.2Z" fill="white"/>
</g>
<defs>
<clipPath id="clip0_1_95">
<rect width="802.57" height="267.52" fill="white"/>
</clipPath>
</defs>
</svg>
